solid OpenSCAD_Model
  facet normal 1 -0 0
    outer loop
      vertex 3.9 0.0999994 2.2002
      vertex 3.9 1.9 2
      vertex 3.9 1.9 2.2002
    endloop
  endfacet
  facet normal 1 0 0
    outer loop
      vertex 3.9 1.9 2
      vertex 3.9 0.0999994 2.2002
      vertex 3.9 0.0999994 2
    endloop
  endfacet
  facet normal -0 0 1
    outer loop
      vertex 2.1 1.9 2.2002
      vertex 3.9 0.0999994 2.2002
      vertex 3.9 1.9 2.2002
    endloop
  endfacet
  facet normal 0 0 1
    outer loop
      vertex 3.9 0.0999994 2.2002
      vertex 2.1 1.9 2.2002
      vertex 2.1 0.0999994 2.2002
    endloop
  endfacet
  facet normal 0 0 -1
    outer loop
      vertex 2.1 0.0999994 2
      vertex 3.9 1.9 2
      vertex 3.9 0.0999994 2
    endloop
  endfacet
  facet normal -0 0 -1
    outer loop
      vertex 3.9 1.9 2
      vertex 2.1 0.0999994 2
      vertex 2.1 1.9 2
    endloop
  endfacet
  facet normal -1 0 0
    outer loop
      vertex 2.1 0.0999994 2
      vertex 2.1 1.9 2.2002
      vertex 2.1 1.9 2
    endloop
  endfacet
  facet normal -1 -0 0
    outer loop
      vertex 2.1 1.9 2.2002
      vertex 2.1 0.0999994 2
      vertex 2.1 0.0999994 2.2002
    endloop
  endfacet
  facet normal 0 1 -0
    outer loop
      vertex 3.9 1.9 2
      vertex 2.1 1.9 2.2002
      vertex 3.9 1.9 2.2002
    endloop
  endfacet
  facet normal 0 1 0
    outer loop
      vertex 2.1 1.9 2.2002
      vertex 3.9 1.9 2
      vertex 2.1 1.9 2
    endloop
  endfacet
  facet normal 0 -1 0
    outer loop
      vertex 2.1 0.0999994 2
      vertex 3.9 0.0999994 2.2002
      vertex 2.1 0.0999994 2.2002
    endloop
  endfacet
  facet normal 0 -1 -0
    outer loop
      vertex 3.9 0.0999994 2.2002
      vertex 2.1 0.0999994 2
      vertex 3.9 0.0999994 2
    endloop
  endfacet
  facet normal 1 -0 0
    outer loop
      vertex 5.9 0.0999994 2.2002
      vertex 5.9 1.9 2
      vertex 5.9 1.9 2.2002
    endloop
  endfacet
  facet normal 1 0 0
    outer loop
      vertex 5.9 1.9 2
      vertex 5.9 0.0999994 2.2002
      vertex 5.9 0.0999994 2
    endloop
  endfacet
  facet normal -0 0 1
    outer loop
      vertex 4.1 1.9 2.2002
      vertex 5.9 0.0999994 2.2002
      vertex 5.9 1.9 2.2002
    endloop
  endfacet
  facet normal 0 0 1
    outer loop
      vertex 5.9 0.0999994 2.2002
      vertex 4.1 1.9 2.2002
      vertex 4.1 0.0999994 2.2002
    endloop
  endfacet
  facet normal 0 0 -1
    outer loop
      vertex 4.1 0.0999994 2
      vertex 5.9 1.9 2
      vertex 5.9 0.0999994 2
    endloop
  endfacet
  facet normal -0 0 -1
    outer loop
      vertex 5.9 1.9 2
      vertex 4.1 0.0999994 2
      vertex 4.1 1.9 2
    endloop
  endfacet
  facet normal -1 0 0
    outer loop
      vertex 4.1 0.0999994 2
      vertex 4.1 1.9 2.2002
      vertex 4.1 1.9 2
    endloop
  endfacet
  facet normal -1 -0 0
    outer loop
      vertex 4.1 1.9 2.2002
      vertex 4.1 0.0999994 2
      vertex 4.1 0.0999994 2.2002
    endloop
  endfacet
  facet normal 0 1 -0
    outer loop
      vertex 5.9 1.9 2
      vertex 4.1 1.9 2.2002
      vertex 5.9 1.9 2.2002
    endloop
  endfacet
  facet normal 0 1 0
    outer loop
      vertex 4.1 1.9 2.2002
      vertex 5.9 1.9 2
      vertex 4.1 1.9 2
    endloop
  endfacet
  facet normal 0 -1 0
    outer loop
      vertex 4.1 0.0999994 2
      vertex 5.9 0.0999994 2.2002
      vertex 4.1 0.0999994 2.2002
    endloop
  endfacet
  facet normal 0 -1 -0
    outer loop
      vertex 5.9 0.0999994 2.2002
      vertex 4.1 0.0999994 2
      vertex 5.9 0.0999994 2
    endloop
  endfacet
  facet normal 1 -0 0
    outer loop
      vertex 7.9 0.0999994 2.2002
      vertex 7.9 1.9 2
      vertex 7.9 1.9 2.2002
    endloop
  endfacet
  facet normal 1 0 0
    outer loop
      vertex 7.9 1.9 2
      vertex 7.9 0.0999994 2.2002
      vertex 7.9 0.0999994 2
    endloop
  endfacet
  facet normal -0 0 1
    outer loop
      vertex 6.1 1.9 2.2002
      vertex 7.9 0.0999994 2.2002
      vertex 7.9 1.9 2.2002
    endloop
  endfacet
  facet normal 0 0 1
    outer loop
      vertex 7.9 0.0999994 2.2002
      vertex 6.1 1.9 2.2002
      vertex 6.1 0.0999994 2.2002
    endloop
  endfacet
  facet normal 0 0 -1
    outer loop
      vertex 6.1 0.0999994 2
      vertex 7.9 1.9 2
      vertex 7.9 0.0999994 2
    endloop
  endfacet
  facet normal -0 0 -1
    outer loop
      vertex 7.9 1.9 2
      vertex 6.1 0.0999994 2
      vertex 6.1 1.9 2
    endloop
  endfacet
  facet normal -1 0 0
    outer loop
      vertex 6.1 0.0999994 2
      vertex 6.1 1.9 2.2002
      vertex 6.1 1.9 2
    endloop
  endfacet
  facet normal -1 -0 0
    outer loop
      vertex 6.1 1.9 2.2002
      vertex 6.1 0.0999994 2
      vertex 6.1 0.0999994 2.2002
    endloop
  endfacet
  facet normal 0 1 -0
    outer loop
      vertex 7.9 1.9 2
      vertex 6.1 1.9 2.2002
      vertex 7.9 1.9 2.2002
    endloop
  endfacet
  facet normal 0 1 0
    outer loop
      vertex 6.1 1.9 2.2002
      vertex 7.9 1.9 2
      vertex 6.1 1.9 2
    endloop
  endfacet
  facet normal 0 -1 0
    outer loop
      vertex 6.1 0.0999994 2
      vertex 7.9 0.0999994 2.2002
      vertex 6.1 0.0999994 2.2002
    endloop
  endfacet
  facet normal 0 -1 -0
    outer loop
      vertex 7.9 0.0999994 2.2002
      vertex 6.1 0.0999994 2
      vertex 7.9 0.0999994 2
    endloop
  endfacet
  facet normal 1 -0 0
    outer loop
      vertex 9.9 0.0999994 2.2002
      vertex 9.9 1.9 2
      vertex 9.9 1.9 2.2002
    endloop
  endfacet
  facet normal 1 0 0
    outer loop
      vertex 9.9 1.9 2
      vertex 9.9 0.0999994 2.2002
      vertex 9.9 0.0999994 2
    endloop
  endfacet
  facet normal -0 0 1
    outer loop
      vertex 8.1 1.9 2.2002
      vertex 9.9 0.0999994 2.2002
      vertex 9.9 1.9 2.2002
    endloop
  endfacet
  facet normal 0 0 1
    outer loop
      vertex 9.9 0.0999994 2.2002
      vertex 8.1 1.9 2.2002
      vertex 8.1 0.0999994 2.2002
    endloop
  endfacet
  facet normal 0 0 -1
    outer loop
      vertex 8.1 0.0999994 2
      vertex 9.9 1.9 2
      vertex 9.9 0.0999994 2
    endloop
  endfacet
  facet normal -0 0 -1
    outer loop
      vertex 9.9 1.9 2
      vertex 8.1 0.0999994 2
      vertex 8.1 1.9 2
    endloop
  endfacet
  facet normal -1 0 0
    outer loop
      vertex 8.1 0.0999994 2
      vertex 8.1 1.9 2.2002
      vertex 8.1 1.9 2
    endloop
  endfacet
  facet normal -1 -0 0
    outer loop
      vertex 8.1 1.9 2.2002
      vertex 8.1 0.0999994 2
      vertex 8.1 0.0999994 2.2002
    endloop
  endfacet
  facet normal 0 1 -0
    outer loop
      vertex 9.9 1.9 2
      vertex 8.1 1.9 2.2002
      vertex 9.9 1.9 2.2002
    endloop
  endfacet
  facet normal 0 1 0
    outer loop
      vertex 8.1 1.9 2.2002
      vertex 9.9 1.9 2
      vertex 8.1 1.9 2
    endloop
  endfacet
  facet normal 0 -1 0
    outer loop
      vertex 8.1 0.0999994 2
      vertex 9.9 0.0999994 2.2002
      vertex 8.1 0.0999994 2.2002
    endloop
  endfacet
  facet normal 0 -1 -0
    outer loop
      vertex 9.9 0.0999994 2.2002
      vertex 8.1 0.0999994 2
      vertex 9.9 0.0999994 2
    endloop
  endfacet
  facet normal 1 -0 0
    outer loop
      vertex 11.9 0.0999994 2.2002
      vertex 11.9 1.9 2
      vertex 11.9 1.9 2.2002
    endloop
  endfacet
  facet normal 1 0 0
    outer loop
      vertex 11.9 1.9 2
      vertex 11.9 0.0999994 2.2002
      vertex 11.9 0.0999994 2
    endloop
  endfacet
  facet normal -0 0 1
    outer loop
      vertex 10.1 1.9 2.2002
      vertex 11.9 0.0999994 2.2002
      vertex 11.9 1.9 2.2002
    endloop
  endfacet
  facet normal 0 0 1
    outer loop
      vertex 11.9 0.0999994 2.2002
      vertex 10.1 1.9 2.2002
      vertex 10.1 0.0999994 2.2002
    endloop
  endfacet
  facet normal 0 0 -1
    outer loop
      vertex 10.1 0.0999994 2
      vertex 11.9 1.9 2
      vertex 11.9 0.0999994 2
    endloop
  endfacet
  facet normal -0 0 -1
    outer loop
      vertex 11.9 1.9 2
      vertex 10.1 0.0999994 2
      vertex 10.1 1.9 2
    endloop
  endfacet
  facet normal -1 0 0
    outer loop
      vertex 10.1 0.0999994 2
      vertex 10.1 1.9 2.2002
      vertex 10.1 1.9 2
    endloop
  endfacet
  facet normal -1 -0 0
    outer loop
      vertex 10.1 1.9 2.2002
      vertex 10.1 0.0999994 2
      vertex 10.1 0.0999994 2.2002
    endloop
  endfacet
  facet normal 0 1 -0
    outer loop
      vertex 11.9 1.9 2
      vertex 10.1 1.9 2.2002
      vertex 11.9 1.9 2.2002
    endloop
  endfacet
  facet normal 0 1 0
    outer loop
      vertex 10.1 1.9 2.2002
      vertex 11.9 1.9 2
      vertex 10.1 1.9 2
    endloop
  endfacet
  facet normal 0 -1 0
    outer loop
      vertex 10.1 0.0999994 2
      vertex 11.9 0.0999994 2.2002
      vertex 10.1 0.0999994 2.2002
    endloop
  endfacet
  facet normal 0 -1 -0
    outer loop
      vertex 11.9 0.0999994 2.2002
      vertex 10.1 0.0999994 2
      vertex 11.9 0.0999994 2
    endloop
  endfacet
  facet normal 1 -0 0
    outer loop
      vertex 3.9 2.1 2.2002
      vertex 3.9 3.9 2
      vertex 3.9 3.9 2.2002
    endloop
  endfacet
  facet normal 1 0 0
    outer loop
      vertex 3.9 3.9 2
      vertex 3.9 2.1 2.2002
      vertex 3.9 2.1 2
    endloop
  endfacet
  facet normal -0 0 1
    outer loop
      vertex 2.1 3.9 2.2002
      vertex 3.9 2.1 2.2002
      vertex 3.9 3.9 2.2002
    endloop
  endfacet
  facet normal 0 0 1
    outer loop
      vertex 3.9 2.1 2.2002
      vertex 2.1 3.9 2.2002
      vertex 2.1 2.1 2.2002
    endloop
  endfacet
  facet normal 0 0 -1
    outer loop
      vertex 2.1 2.1 2
      vertex 3.9 3.9 2
      vertex 3.9 2.1 2
    endloop
  endfacet
  facet normal -0 0 -1
    outer loop
      vertex 3.9 3.9 2
      vertex 2.1 2.1 2
      vertex 2.1 3.9 2
    endloop
  endfacet
  facet normal -1 0 0
    outer loop
      vertex 2.1 2.1 2
      vertex 2.1 3.9 2.2002
      vertex 2.1 3.9 2
    endloop
  endfacet
  facet normal -1 -0 0
    outer loop
      vertex 2.1 3.9 2.2002
      vertex 2.1 2.1 2
      vertex 2.1 2.1 2.2002
    endloop
  endfacet
  facet normal 0 1 -0
    outer loop
      vertex 3.9 3.9 2
      vertex 2.1 3.9 2.2002
      vertex 3.9 3.9 2.2002
    endloop
  endfacet
  facet normal 0 1 0
    outer loop
      vertex 2.1 3.9 2.2002
      vertex 3.9 3.9 2
      vertex 2.1 3.9 2
    endloop
  endfacet
  facet normal 0 -1 0
    outer loop
      vertex 2.1 2.1 2
      vertex 3.9 2.1 2.2002
      vertex 2.1 2.1 2.2002
    endloop
  endfacet
  facet normal 0 -1 -0
    outer loop
      vertex 3.9 2.1 2.2002
      vertex 2.1 2.1 2
      vertex 3.9 2.1 2
    endloop
  endfacet
  facet normal 1 -0 0
    outer loop
      vertex 5.9 2.1 2.2002
      vertex 5.9 3.9 2
      vertex 5.9 3.9 2.2002
    endloop
  endfacet
  facet normal 1 0 0
    outer loop
      vertex 5.9 3.9 2
      vertex 5.9 2.1 2.2002
      vertex 5.9 2.1 2
    endloop
  endfacet
  facet normal -0 0 1
    outer loop
      vertex 4.1 3.9 2.2002
      vertex 5.9 2.1 2.2002
      vertex 5.9 3.9 2.2002
    endloop
  endfacet
  facet normal 0 0 1
    outer loop
      vertex 5.9 2.1 2.2002
      vertex 4.1 3.9 2.2002
      vertex 4.1 2.1 2.2002
    endloop
  endfacet
  facet normal 0 0 -1
    outer loop
      vertex 4.1 2.1 2
      vertex 5.9 3.9 2
      vertex 5.9 2.1 2
    endloop
  endfacet
  facet normal -0 0 -1
    outer loop
      vertex 5.9 3.9 2
      vertex 4.1 2.1 2
      vertex 4.1 3.9 2
    endloop
  endfacet
  facet normal -1 0 0
    outer loop
      vertex 4.1 2.1 2
      vertex 4.1 3.9 2.2002
      vertex 4.1 3.9 2
    endloop
  endfacet
  facet normal -1 -0 0
    outer loop
      vertex 4.1 3.9 2.2002
      vertex 4.1 2.1 2
      vertex 4.1 2.1 2.2002
    endloop
  endfacet
  facet normal 0 1 -0
    outer loop
      vertex 5.9 3.9 2
      vertex 4.1 3.9 2.2002
      vertex 5.9 3.9 2.2002
    endloop
  endfacet
  facet normal 0 1 0
    outer loop
      vertex 4.1 3.9 2.2002
      vertex 5.9 3.9 2
      vertex 4.1 3.9 2
    endloop
  endfacet
  facet normal 0 -1 0
    outer loop
      vertex 4.1 2.1 2
      vertex 5.9 2.1 2.2002
      vertex 4.1 2.1 2.2002
    endloop
  endfacet
  facet normal 0 -1 -0
    outer loop
      vertex 5.9 2.1 2.2002
      vertex 4.1 2.1 2
      vertex 5.9 2.1 2
    endloop
  endfacet
  facet normal 1 -0 0
    outer loop
      vertex 7.9 2.1 2.2002
      vertex 7.9 3.9 2
      vertex 7.9 3.9 2.2002
    endloop
  endfacet
  facet normal 1 0 0
    outer loop
      vertex 7.9 3.9 2
      vertex 7.9 2.1 2.2002
      vertex 7.9 2.1 2
    endloop
  endfacet
  facet normal -0 0 1
    outer loop
      vertex 6.1 3.9 2.2002
      vertex 7.9 2.1 2.2002
      vertex 7.9 3.9 2.2002
    endloop
  endfacet
  facet normal 0 0 1
    outer loop
      vertex 7.9 2.1 2.2002
      vertex 6.1 3.9 2.2002
      vertex 6.1 2.1 2.2002
    endloop
  endfacet
  facet normal 0 0 -1
    outer loop
      vertex 6.1 2.1 2
      vertex 7.9 3.9 2
      vertex 7.9 2.1 2
    endloop
  endfacet
  facet normal -0 0 -1
    outer loop
      vertex 7.9 3.9 2
      vertex 6.1 2.1 2
      vertex 6.1 3.9 2
    endloop
  endfacet
  facet normal -1 0 0
    outer loop
      vertex 6.1 2.1 2
      vertex 6.1 3.9 2.2002
      vertex 6.1 3.9 2
    endloop
  endfacet
  facet normal -1 -0 0
    outer loop
      vertex 6.1 3.9 2.2002
      vertex 6.1 2.1 2
      vertex 6.1 2.1 2.2002
    endloop
  endfacet
  facet normal 0 1 -0
    outer loop
      vertex 7.9 3.9 2
      vertex 6.1 3.9 2.2002
      vertex 7.9 3.9 2.2002
    endloop
  endfacet
  facet normal 0 1 0
    outer loop
      vertex 6.1 3.9 2.2002
      vertex 7.9 3.9 2
      vertex 6.1 3.9 2
    endloop
  endfacet
  facet normal 0 -1 0
    outer loop
      vertex 6.1 2.1 2
      vertex 7.9 2.1 2.2002
      vertex 6.1 2.1 2.2002
    endloop
  endfacet
  facet normal 0 -1 -0
    outer loop
      vertex 7.9 2.1 2.2002
      vertex 6.1 2.1 2
      vertex 7.9 2.1 2
    endloop
  endfacet
  facet normal 1 -0 0
    outer loop
      vertex 3.9 4.1 2.2002
      vertex 3.9 5.9 2
      vertex 3.9 5.9 2.2002
    endloop
  endfacet
  facet normal 1 0 0
    outer loop
      vertex 3.9 5.9 2
      vertex 3.9 4.1 2.2002
      vertex 3.9 4.1 2
    endloop
  endfacet
  facet normal -0 0 1
    outer loop
      vertex 2.1 5.9 2.2002
      vertex 3.9 4.1 2.2002
      vertex 3.9 5.9 2.2002
    endloop
  endfacet
  facet normal 0 0 1
    outer loop
      vertex 3.9 4.1 2.2002
      vertex 2.1 5.9 2.2002
      vertex 2.1 4.1 2.2002
    endloop
  endfacet
  facet normal 0 0 -1
    outer loop
      vertex 2.1 4.1 2
      vertex 3.9 5.9 2
      vertex 3.9 4.1 2
    endloop
  endfacet
  facet normal -0 0 -1
    outer loop
      vertex 3.9 5.9 2
      vertex 2.1 4.1 2
      vertex 2.1 5.9 2
    endloop
  endfacet
  facet normal -1 0 0
    outer loop
      vertex 2.1 4.1 2
      vertex 2.1 5.9 2.2002
      vertex 2.1 5.9 2
    endloop
  endfacet
  facet normal -1 -0 0
    outer loop
      vertex 2.1 5.9 2.2002
      vertex 2.1 4.1 2
      vertex 2.1 4.1 2.2002
    endloop
  endfacet
  facet normal 0 1 -0
    outer loop
      vertex 3.9 5.9 2
      vertex 2.1 5.9 2.2002
      vertex 3.9 5.9 2.2002
    endloop
  endfacet
  facet normal 0 1 0
    outer loop
      vertex 2.1 5.9 2.2002
      vertex 3.9 5.9 2
      vertex 2.1 5.9 2
    endloop
  endfacet
  facet normal 0 -1 0
    outer loop
      vertex 2.1 4.1 2
      vertex 3.9 4.1 2.2002
      vertex 2.1 4.1 2.2002
    endloop
  endfacet
  facet normal 0 -1 -0
    outer loop
      vertex 3.9 4.1 2.2002
      vertex 2.1 4.1 2
      vertex 3.9 4.1 2
    endloop
  endfacet
  facet normal 1 -0 0
    outer loop
      vertex 5.9 4.1 2.2002
      vertex 5.9 5.9 2
      vertex 5.9 5.9 2.2002
    endloop
  endfacet
  facet normal 1 0 0
    outer loop
      vertex 5.9 5.9 2
      vertex 5.9 4.1 2.2002
      vertex 5.9 4.1 2
    endloop
  endfacet
  facet normal -0 0 1
    outer loop
      vertex 4.1 5.9 2.2002
      vertex 5.9 4.1 2.2002
      vertex 5.9 5.9 2.2002
    endloop
  endfacet
  facet normal 0 0 1
    outer loop
      vertex 5.9 4.1 2.2002
      vertex 4.1 5.9 2.2002
      vertex 4.1 4.1 2.2002
    endloop
  endfacet
  facet normal 0 0 -1
    outer loop
      vertex 4.1 4.1 2
      vertex 5.9 5.9 2
      vertex 5.9 4.1 2
    endloop
  endfacet
  facet normal -0 0 -1
    outer loop
      vertex 5.9 5.9 2
      vertex 4.1 4.1 2
      vertex 4.1 5.9 2
    endloop
  endfacet
  facet normal -1 0 0
    outer loop
      vertex 4.1 4.1 2
      vertex 4.1 5.9 2.2002
      vertex 4.1 5.9 2
    endloop
  endfacet
  facet normal -1 -0 0
    outer loop
      vertex 4.1 5.9 2.2002
      vertex 4.1 4.1 2
      vertex 4.1 4.1 2.2002
    endloop
  endfacet
  facet normal 0 1 -0
    outer loop
      vertex 5.9 5.9 2
      vertex 4.1 5.9 2.2002
      vertex 5.9 5.9 2.2002
    endloop
  endfacet
  facet normal 0 1 0
    outer loop
      vertex 4.1 5.9 2.2002
      vertex 5.9 5.9 2
      vertex 4.1 5.9 2
    endloop
  endfacet
  facet normal 0 -1 0
    outer loop
      vertex 4.1 4.1 2
      vertex 5.9 4.1 2.2002
      vertex 4.1 4.1 2.2002
    endloop
  endfacet
  facet normal 0 -1 -0
    outer loop
      vertex 5.9 4.1 2.2002
      vertex 4.1 4.1 2
      vertex 5.9 4.1 2
    endloop
  endfacet
  facet normal 1 -0 0
    outer loop
      vertex 3.9 6.1 2.2002
      vertex 3.9 7.9 2
      vertex 3.9 7.9 2.2002
    endloop
  endfacet
  facet normal 1 0 0
    outer loop
      vertex 3.9 7.9 2
      vertex 3.9 6.1 2.2002
      vertex 3.9 6.1 2
    endloop
  endfacet
  facet normal -0 0 1
    outer loop
      vertex 2.1 7.9 2.2002
      vertex 3.9 6.1 2.2002
      vertex 3.9 7.9 2.2002
    endloop
  endfacet
  facet normal 0 0 1
    outer loop
      vertex 3.9 6.1 2.2002
      vertex 2.1 7.9 2.2002
      vertex 2.1 6.1 2.2002
    endloop
  endfacet
  facet normal 0 0 -1
    outer loop
      vertex 2.1 6.1 2
      vertex 3.9 7.9 2
      vertex 3.9 6.1 2
    endloop
  endfacet
  facet normal -0 0 -1
    outer loop
      vertex 3.9 7.9 2
      vertex 2.1 6.1 2
      vertex 2.1 7.9 2
    endloop
  endfacet
  facet normal -1 0 0
    outer loop
      vertex 2.1 6.1 2
      vertex 2.1 7.9 2.2002
      vertex 2.1 7.9 2
    endloop
  endfacet
  facet normal -1 -0 0
    outer loop
      vertex 2.1 7.9 2.2002
      vertex 2.1 6.1 2
      vertex 2.1 6.1 2.2002
    endloop
  endfacet
  facet normal 0 1 -0
    outer loop
      vertex 3.9 7.9 2
      vertex 2.1 7.9 2.2002
      vertex 3.9 7.9 2.2002
    endloop
  endfacet
  facet normal 0 1 0
    outer loop
      vertex 2.1 7.9 2.2002
      vertex 3.9 7.9 2
      vertex 2.1 7.9 2
    endloop
  endfacet
  facet normal 0 -1 0
    outer loop
      vertex 2.1 6.1 2
      vertex 3.9 6.1 2.2002
      vertex 2.1 6.1 2.2002
    endloop
  endfacet
  facet normal 0 -1 -0
    outer loop
      vertex 3.9 6.1 2.2002
      vertex 2.1 6.1 2
      vertex 3.9 6.1 2
    endloop
  endfacet
  facet normal 1 -0 0
    outer loop
      vertex 3.9 8.1 2.2002
      vertex 3.9 9.9 2
      vertex 3.9 9.9 2.2002
    endloop
  endfacet
  facet normal 1 0 0
    outer loop
      vertex 3.9 9.9 2
      vertex 3.9 8.1 2.2002
      vertex 3.9 8.1 2
    endloop
  endfacet
  facet normal -0 0 1
    outer loop
      vertex 2.1 9.9 2.2002
      vertex 3.9 8.1 2.2002
      vertex 3.9 9.9 2.2002
    endloop
  endfacet
  facet normal 0 0 1
    outer loop
      vertex 3.9 8.1 2.2002
      vertex 2.1 9.9 2.2002
      vertex 2.1 8.1 2.2002
    endloop
  endfacet
  facet normal 0 0 -1
    outer loop
      vertex 2.1 8.1 2
      vertex 3.9 9.9 2
      vertex 3.9 8.1 2
    endloop
  endfacet
  facet normal -0 0 -1
    outer loop
      vertex 3.9 9.9 2
      vertex 2.1 8.1 2
      vertex 2.1 9.9 2
    endloop
  endfacet
  facet normal -1 0 0
    outer loop
      vertex 2.1 8.1 2
      vertex 2.1 9.9 2.2002
      vertex 2.1 9.9 2
    endloop
  endfacet
  facet normal -1 -0 0
    outer loop
      vertex 2.1 9.9 2.2002
      vertex 2.1 8.1 2
      vertex 2.1 8.1 2.2002
    endloop
  endfacet
  facet normal 0 1 -0
    outer loop
      vertex 3.9 9.9 2
      vertex 2.1 9.9 2.2002
      vertex 3.9 9.9 2.2002
    endloop
  endfacet
  facet normal 0 1 0
    outer loop
      vertex 2.1 9.9 2.2002
      vertex 3.9 9.9 2
      vertex 2.1 9.9 2
    endloop
  endfacet
  facet normal 0 -1 0
    outer loop
      vertex 2.1 8.1 2
      vertex 3.9 8.1 2.2002
      vertex 2.1 8.1 2.2002
    endloop
  endfacet
  facet normal 0 -1 -0
    outer loop
      vertex 3.9 8.1 2.2002
      vertex 2.1 8.1 2
      vertex 3.9 8.1 2
    endloop
  endfacet
  facet normal 1 -0 0
    outer loop
      vertex 3.9 22.1 2.2002
      vertex 3.9 23.9 2
      vertex 3.9 23.9 2.2002
    endloop
  endfacet
  facet normal 1 0 0
    outer loop
      vertex 3.9 23.9 2
      vertex 3.9 22.1 2.2002
      vertex 3.9 22.1 2
    endloop
  endfacet
  facet normal -0 0 1
    outer loop
      vertex 2.1 23.9 2.2002
      vertex 3.9 22.1 2.2002
      vertex 3.9 23.9 2.2002
    endloop
  endfacet
  facet normal 0 0 1
    outer loop
      vertex 3.9 22.1 2.2002
      vertex 2.1 23.9 2.2002
      vertex 2.1 22.1 2.2002
    endloop
  endfacet
  facet normal 0 0 -1
    outer loop
      vertex 2.1 22.1 2
      vertex 3.9 23.9 2
      vertex 3.9 22.1 2
    endloop
  endfacet
  facet normal -0 0 -1
    outer loop
      vertex 3.9 23.9 2
      vertex 2.1 22.1 2
      vertex 2.1 23.9 2
    endloop
  endfacet
  facet normal -1 0 0
    outer loop
      vertex 2.1 22.1 2
      vertex 2.1 23.9 2.2002
      vertex 2.1 23.9 2
    endloop
  endfacet
  facet normal -1 -0 0
    outer loop
      vertex 2.1 23.9 2.2002
      vertex 2.1 22.1 2
      vertex 2.1 22.1 2.2002
    endloop
  endfacet
  facet normal 0 1 -0
    outer loop
      vertex 3.9 23.9 2
      vertex 2.1 23.9 2.2002
      vertex 3.9 23.9 2.2002
    endloop
  endfacet
  facet normal 0 1 0
    outer loop
      vertex 2.1 23.9 2.2002
      vertex 3.9 23.9 2
      vertex 2.1 23.9 2
    endloop
  endfacet
  facet normal 0 -1 0
    outer loop
      vertex 2.1 22.1 2
      vertex 3.9 22.1 2.2002
      vertex 2.1 22.1 2.2002
    endloop
  endfacet
  facet normal 0 -1 -0
    outer loop
      vertex 3.9 22.1 2.2002
      vertex 2.1 22.1 2
      vertex 3.9 22.1 2
    endloop
  endfacet
  facet normal 1 -0 0
    outer loop
      vertex 3.9 24.1 2.2002
      vertex 3.9 25.9 2
      vertex 3.9 25.9 2.2002
    endloop
  endfacet
  facet normal 1 0 0
    outer loop
      vertex 3.9 25.9 2
      vertex 3.9 24.1 2.2002
      vertex 3.9 24.1 2
    endloop
  endfacet
  facet normal -0 0 1
    outer loop
      vertex 2.1 25.9 2.2002
      vertex 3.9 24.1 2.2002
      vertex 3.9 25.9 2.2002
    endloop
  endfacet
  facet normal 0 0 1
    outer loop
      vertex 3.9 24.1 2.2002
      vertex 2.1 25.9 2.2002
      vertex 2.1 24.1 2.2002
    endloop
  endfacet
  facet normal 0 0 -1
    outer loop
      vertex 2.1 24.1 2
      vertex 3.9 25.9 2
      vertex 3.9 24.1 2
    endloop
  endfacet
  facet normal -0 0 -1
    outer loop
      vertex 3.9 25.9 2
      vertex 2.1 24.1 2
      vertex 2.1 25.9 2
    endloop
  endfacet
  facet normal -1 0 0
    outer loop
      vertex 2.1 24.1 2
      vertex 2.1 25.9 2.2002
      vertex 2.1 25.9 2
    endloop
  endfacet
  facet normal -1 -0 0
    outer loop
      vertex 2.1 25.9 2.2002
      vertex 2.1 24.1 2
      vertex 2.1 24.1 2.2002
    endloop
  endfacet
  facet normal 0 1 -0
    outer loop
      vertex 3.9 25.9 2
      vertex 2.1 25.9 2.2002
      vertex 3.9 25.9 2.2002
    endloop
  endfacet
  facet normal 0 1 0
    outer loop
      vertex 2.1 25.9 2.2002
      vertex 3.9 25.9 2
      vertex 2.1 25.9 2
    endloop
  endfacet
  facet normal 0 -1 0
    outer loop
      vertex 2.1 24.1 2
      vertex 3.9 24.1 2.2002
      vertex 2.1 24.1 2.2002
    endloop
  endfacet
  facet normal 0 -1 -0
    outer loop
      vertex 3.9 24.1 2.2002
      vertex 2.1 24.1 2
      vertex 3.9 24.1 2
    endloop
  endfacet
  facet normal 1 -0 0
    outer loop
      vertex 5.9 24.1 2.2002
      vertex 5.9 25.9 2
      vertex 5.9 25.9 2.2002
    endloop
  endfacet
  facet normal 1 0 0
    outer loop
      vertex 5.9 25.9 2
      vertex 5.9 24.1 2.2002
      vertex 5.9 24.1 2
    endloop
  endfacet
  facet normal -0 0 1
    outer loop
      vertex 4.1 25.9 2.2002
      vertex 5.9 24.1 2.2002
      vertex 5.9 25.9 2.2002
    endloop
  endfacet
  facet normal 0 0 1
    outer loop
      vertex 5.9 24.1 2.2002
      vertex 4.1 25.9 2.2002
      vertex 4.1 24.1 2.2002
    endloop
  endfacet
  facet normal 0 0 -1
    outer loop
      vertex 4.1 24.1 2
      vertex 5.9 25.9 2
      vertex 5.9 24.1 2
    endloop
  endfacet
  facet normal -0 0 -1
    outer loop
      vertex 5.9 25.9 2
      vertex 4.1 24.1 2
      vertex 4.1 25.9 2
    endloop
  endfacet
  facet normal -1 0 0
    outer loop
      vertex 4.1 24.1 2
      vertex 4.1 25.9 2.2002
      vertex 4.1 25.9 2
    endloop
  endfacet
  facet normal -1 -0 0
    outer loop
      vertex 4.1 25.9 2.2002
      vertex 4.1 24.1 2
      vertex 4.1 24.1 2.2002
    endloop
  endfacet
  facet normal 0 1 -0
    outer loop
      vertex 5.9 25.9 2
      vertex 4.1 25.9 2.2002
      vertex 5.9 25.9 2.2002
    endloop
  endfacet
  facet normal 0 1 0
    outer loop
      vertex 4.1 25.9 2.2002
      vertex 5.9 25.9 2
      vertex 4.1 25.9 2
    endloop
  endfacet
  facet normal 0 -1 0
    outer loop
      vertex 4.1 24.1 2
      vertex 5.9 24.1 2.2002
      vertex 4.1 24.1 2.2002
    endloop
  endfacet
  facet normal 0 -1 -0
    outer loop
      vertex 5.9 24.1 2.2002
      vertex 4.1 24.1 2
      vertex 5.9 24.1 2
    endloop
  endfacet
  facet normal 1 -0 0
    outer loop
      vertex 3.9 26.1 2.2002
      vertex 3.9 27.9 2
      vertex 3.9 27.9 2.2002
    endloop
  endfacet
  facet normal 1 0 0
    outer loop
      vertex 3.9 27.9 2
      vertex 3.9 26.1 2.2002
      vertex 3.9 26.1 2
    endloop
  endfacet
  facet normal -0 0 1
    outer loop
      vertex 2.1 27.9 2.2002
      vertex 3.9 26.1 2.2002
      vertex 3.9 27.9 2.2002
    endloop
  endfacet
  facet normal 0 0 1
    outer loop
      vertex 3.9 26.1 2.2002
      vertex 2.1 27.9 2.2002
      vertex 2.1 26.1 2.2002
    endloop
  endfacet
  facet normal 0 0 -1
    outer loop
      vertex 2.1 26.1 2
      vertex 3.9 27.9 2
      vertex 3.9 26.1 2
    endloop
  endfacet
  facet normal -0 0 -1
    outer loop
      vertex 3.9 27.9 2
      vertex 2.1 26.1 2
      vertex 2.1 27.9 2
    endloop
  endfacet
  facet normal -1 0 0
    outer loop
      vertex 2.1 26.1 2
      vertex 2.1 27.9 2.2002
      vertex 2.1 27.9 2
    endloop
  endfacet
  facet normal -1 -0 0
    outer loop
      vertex 2.1 27.9 2.2002
      vertex 2.1 26.1 2
      vertex 2.1 26.1 2.2002
    endloop
  endfacet
  facet normal 0 1 -0
    outer loop
      vertex 3.9 27.9 2
      vertex 2.1 27.9 2.2002
      vertex 3.9 27.9 2.2002
    endloop
  endfacet
  facet normal 0 1 0
    outer loop
      vertex 2.1 27.9 2.2002
      vertex 3.9 27.9 2
      vertex 2.1 27.9 2
    endloop
  endfacet
  facet normal 0 -1 0
    outer loop
      vertex 2.1 26.1 2
      vertex 3.9 26.1 2.2002
      vertex 2.1 26.1 2.2002
    endloop
  endfacet
  facet normal 0 -1 -0
    outer loop
      vertex 3.9 26.1 2.2002
      vertex 2.1 26.1 2
      vertex 3.9 26.1 2
    endloop
  endfacet
  facet normal 1 -0 0
    outer loop
      vertex 5.9 26.1 2.2002
      vertex 5.9 27.9 2
      vertex 5.9 27.9 2.2002
    endloop
  endfacet
  facet normal 1 0 0
    outer loop
      vertex 5.9 27.9 2
      vertex 5.9 26.1 2.2002
      vertex 5.9 26.1 2
    endloop
  endfacet
  facet normal -0 0 1
    outer loop
      vertex 4.1 27.9 2.2002
      vertex 5.9 26.1 2.2002
      vertex 5.9 27.9 2.2002
    endloop
  endfacet
  facet normal 0 0 1
    outer loop
      vertex 5.9 26.1 2.2002
      vertex 4.1 27.9 2.2002
      vertex 4.1 26.1 2.2002
    endloop
  endfacet
  facet normal 0 0 -1
    outer loop
      vertex 4.1 26.1 2
      vertex 5.9 27.9 2
      vertex 5.9 26.1 2
    endloop
  endfacet
  facet normal -0 0 -1
    outer loop
      vertex 5.9 27.9 2
      vertex 4.1 26.1 2
      vertex 4.1 27.9 2
    endloop
  endfacet
  facet normal -1 0 0
    outer loop
      vertex 4.1 26.1 2
      vertex 4.1 27.9 2.2002
      vertex 4.1 27.9 2
    endloop
  endfacet
  facet normal -1 -0 0
    outer loop
      vertex 4.1 27.9 2.2002
      vertex 4.1 26.1 2
      vertex 4.1 26.1 2.2002
    endloop
  endfacet
  facet normal 0 1 -0
    outer loop
      vertex 5.9 27.9 2
      vertex 4.1 27.9 2.2002
      vertex 5.9 27.9 2.2002
    endloop
  endfacet
  facet normal 0 1 0
    outer loop
      vertex 4.1 27.9 2.2002
      vertex 5.9 27.9 2
      vertex 4.1 27.9 2
    endloop
  endfacet
  facet normal 0 -1 0
    outer loop
      vertex 4.1 26.1 2
      vertex 5.9 26.1 2.2002
      vertex 4.1 26.1 2.2002
    endloop
  endfacet
  facet normal 0 -1 -0
    outer loop
      vertex 5.9 26.1 2.2002
      vertex 4.1 26.1 2
      vertex 5.9 26.1 2
    endloop
  endfacet
  facet normal 1 -0 0
    outer loop
      vertex 3.9 28.1 2.2002
      vertex 3.9 29.9 2
      vertex 3.9 29.9 2.2002
    endloop
  endfacet
  facet normal 1 0 0
    outer loop
      vertex 3.9 29.9 2
      vertex 3.9 28.1 2.2002
      vertex 3.9 28.1 2
    endloop
  endfacet
  facet normal -0 0 1
    outer loop
      vertex 2.1 29.9 2.2002
      vertex 3.9 28.1 2.2002
      vertex 3.9 29.9 2.2002
    endloop
  endfacet
  facet normal 0 0 1
    outer loop
      vertex 3.9 28.1 2.2002
      vertex 2.1 29.9 2.2002
      vertex 2.1 28.1 2.2002
    endloop
  endfacet
  facet normal 0 0 -1
    outer loop
      vertex 2.1 28.1 2
      vertex 3.9 29.9 2
      vertex 3.9 28.1 2
    endloop
  endfacet
  facet normal -0 0 -1
    outer loop
      vertex 3.9 29.9 2
      vertex 2.1 28.1 2
      vertex 2.1 29.9 2
    endloop
  endfacet
  facet normal -1 0 0
    outer loop
      vertex 2.1 28.1 2
      vertex 2.1 29.9 2.2002
      vertex 2.1 29.9 2
    endloop
  endfacet
  facet normal -1 -0 0
    outer loop
      vertex 2.1 29.9 2.2002
      vertex 2.1 28.1 2
      vertex 2.1 28.1 2.2002
    endloop
  endfacet
  facet normal 0 1 -0
    outer loop
      vertex 3.9 29.9 2
      vertex 2.1 29.9 2.2002
      vertex 3.9 29.9 2.2002
    endloop
  endfacet
  facet normal 0 1 0
    outer loop
      vertex 2.1 29.9 2.2002
      vertex 3.9 29.9 2
      vertex 2.1 29.9 2
    endloop
  endfacet
  facet normal 0 -1 0
    outer loop
      vertex 2.1 28.1 2
      vertex 3.9 28.1 2.2002
      vertex 2.1 28.1 2.2002
    endloop
  endfacet
  facet normal 0 -1 -0
    outer loop
      vertex 3.9 28.1 2.2002
      vertex 2.1 28.1 2
      vertex 3.9 28.1 2
    endloop
  endfacet
  facet normal 1 -0 0
    outer loop
      vertex 5.9 28.1 2.2002
      vertex 5.9 29.9 2
      vertex 5.9 29.9 2.2002
    endloop
  endfacet
  facet normal 1 0 0
    outer loop
      vertex 5.9 29.9 2
      vertex 5.9 28.1 2.2002
      vertex 5.9 28.1 2
    endloop
  endfacet
  facet normal -0 0 1
    outer loop
      vertex 4.1 29.9 2.2002
      vertex 5.9 28.1 2.2002
      vertex 5.9 29.9 2.2002
    endloop
  endfacet
  facet normal 0 0 1
    outer loop
      vertex 5.9 28.1 2.2002
      vertex 4.1 29.9 2.2002
      vertex 4.1 28.1 2.2002
    endloop
  endfacet
  facet normal 0 0 -1
    outer loop
      vertex 4.1 28.1 2
      vertex 5.9 29.9 2
      vertex 5.9 28.1 2
    endloop
  endfacet
  facet normal -0 0 -1
    outer loop
      vertex 5.9 29.9 2
      vertex 4.1 28.1 2
      vertex 4.1 29.9 2
    endloop
  endfacet
  facet normal -1 0 0
    outer loop
      vertex 4.1 28.1 2
      vertex 4.1 29.9 2.2002
      vertex 4.1 29.9 2
    endloop
  endfacet
  facet normal -1 -0 0
    outer loop
      vertex 4.1 29.9 2.2002
      vertex 4.1 28.1 2
      vertex 4.1 28.1 2.2002
    endloop
  endfacet
  facet normal 0 1 -0
    outer loop
      vertex 5.9 29.9 2
      vertex 4.1 29.9 2.2002
      vertex 5.9 29.9 2.2002
    endloop
  endfacet
  facet normal 0 1 0
    outer loop
      vertex 4.1 29.9 2.2002
      vertex 5.9 29.9 2
      vertex 4.1 29.9 2
    endloop
  endfacet
  facet normal 0 -1 0
    outer loop
      vertex 4.1 28.1 2
      vertex 5.9 28.1 2.2002
      vertex 4.1 28.1 2.2002
    endloop
  endfacet
  facet normal 0 -1 -0
    outer loop
      vertex 5.9 28.1 2.2002
      vertex 4.1 28.1 2
      vertex 5.9 28.1 2
    endloop
  endfacet
  facet normal 1 -0 0
    outer loop
      vertex 7.9 28.1 2.2002
      vertex 7.9 29.9 2
      vertex 7.9 29.9 2.2002
    endloop
  endfacet
  facet normal 1 0 0
    outer loop
      vertex 7.9 29.9 2
      vertex 7.9 28.1 2.2002
      vertex 7.9 28.1 2
    endloop
  endfacet
  facet normal -0 0 1
    outer loop
      vertex 6.1 29.9 2.2002
      vertex 7.9 28.1 2.2002
      vertex 7.9 29.9 2.2002
    endloop
  endfacet
  facet normal 0 0 1
    outer loop
      vertex 7.9 28.1 2.2002
      vertex 6.1 29.9 2.2002
      vertex 6.1 28.1 2.2002
    endloop
  endfacet
  facet normal 0 0 -1
    outer loop
      vertex 6.1 28.1 2
      vertex 7.9 29.9 2
      vertex 7.9 28.1 2
    endloop
  endfacet
  facet normal -0 0 -1
    outer loop
      vertex 7.9 29.9 2
      vertex 6.1 28.1 2
      vertex 6.1 29.9 2
    endloop
  endfacet
  facet normal -1 0 0
    outer loop
      vertex 6.1 28.1 2
      vertex 6.1 29.9 2.2002
      vertex 6.1 29.9 2
    endloop
  endfacet
  facet normal -1 -0 0
    outer loop
      vertex 6.1 29.9 2.2002
      vertex 6.1 28.1 2
      vertex 6.1 28.1 2.2002
    endloop
  endfacet
  facet normal 0 1 -0
    outer loop
      vertex 7.9 29.9 2
      vertex 6.1 29.9 2.2002
      vertex 7.9 29.9 2.2002
    endloop
  endfacet
  facet normal 0 1 0
    outer loop
      vertex 6.1 29.9 2.2002
      vertex 7.9 29.9 2
      vertex 6.1 29.9 2
    endloop
  endfacet
  facet normal 0 -1 0
    outer loop
      vertex 6.1 28.1 2
      vertex 7.9 28.1 2.2002
      vertex 6.1 28.1 2.2002
    endloop
  endfacet
  facet normal 0 -1 -0
    outer loop
      vertex 7.9 28.1 2.2002
      vertex 6.1 28.1 2
      vertex 7.9 28.1 2
    endloop
  endfacet
  facet normal 1 -0 0
    outer loop
      vertex 3.9 30.1 2.2002
      vertex 3.9 31.9 2
      vertex 3.9 31.9 2.2002
    endloop
  endfacet
  facet normal 1 0 0
    outer loop
      vertex 3.9 31.9 2
      vertex 3.9 30.1 2.2002
      vertex 3.9 30.1 2
    endloop
  endfacet
  facet normal -0 0 1
    outer loop
      vertex 2.1 31.9 2.2002
      vertex 3.9 30.1 2.2002
      vertex 3.9 31.9 2.2002
    endloop
  endfacet
  facet normal 0 0 1
    outer loop
      vertex 3.9 30.1 2.2002
      vertex 2.1 31.9 2.2002
      vertex 2.1 30.1 2.2002
    endloop
  endfacet
  facet normal 0 0 -1
    outer loop
      vertex 2.1 30.1 2
      vertex 3.9 31.9 2
      vertex 3.9 30.1 2
    endloop
  endfacet
  facet normal -0 0 -1
    outer loop
      vertex 3.9 31.9 2
      vertex 2.1 30.1 2
      vertex 2.1 31.9 2
    endloop
  endfacet
  facet normal -1 0 0
    outer loop
      vertex 2.1 30.1 2
      vertex 2.1 31.9 2.2002
      vertex 2.1 31.9 2
    endloop
  endfacet
  facet normal -1 -0 0
    outer loop
      vertex 2.1 31.9 2.2002
      vertex 2.1 30.1 2
      vertex 2.1 30.1 2.2002
    endloop
  endfacet
  facet normal 0 1 -0
    outer loop
      vertex 3.9 31.9 2
      vertex 2.1 31.9 2.2002
      vertex 3.9 31.9 2.2002
    endloop
  endfacet
  facet normal 0 1 0
    outer loop
      vertex 2.1 31.9 2.2002
      vertex 3.9 31.9 2
      vertex 2.1 31.9 2
    endloop
  endfacet
  facet normal 0 -1 0
    outer loop
      vertex 2.1 30.1 2
      vertex 3.9 30.1 2.2002
      vertex 2.1 30.1 2.2002
    endloop
  endfacet
  facet normal 0 -1 -0
    outer loop
      vertex 3.9 30.1 2.2002
      vertex 2.1 30.1 2
      vertex 3.9 30.1 2
    endloop
  endfacet
  facet normal 1 -0 0
    outer loop
      vertex 5.9 30.1 2.2002
      vertex 5.9 31.9 2
      vertex 5.9 31.9 2.2002
    endloop
  endfacet
  facet normal 1 0 0
    outer loop
      vertex 5.9 31.9 2
      vertex 5.9 30.1 2.2002
      vertex 5.9 30.1 2
    endloop
  endfacet
  facet normal -0 0 1
    outer loop
      vertex 4.1 31.9 2.2002
      vertex 5.9 30.1 2.2002
      vertex 5.9 31.9 2.2002
    endloop
  endfacet
  facet normal 0 0 1
    outer loop
      vertex 5.9 30.1 2.2002
      vertex 4.1 31.9 2.2002
      vertex 4.1 30.1 2.2002
    endloop
  endfacet
  facet normal 0 0 -1
    outer loop
      vertex 4.1 30.1 2
      vertex 5.9 31.9 2
      vertex 5.9 30.1 2
    endloop
  endfacet
  facet normal -0 0 -1
    outer loop
      vertex 5.9 31.9 2
      vertex 4.1 30.1 2
      vertex 4.1 31.9 2
    endloop
  endfacet
  facet normal -1 0 0
    outer loop
      vertex 4.1 30.1 2
      vertex 4.1 31.9 2.2002
      vertex 4.1 31.9 2
    endloop
  endfacet
  facet normal -1 -0 0
    outer loop
      vertex 4.1 31.9 2.2002
      vertex 4.1 30.1 2
      vertex 4.1 30.1 2.2002
    endloop
  endfacet
  facet normal 0 1 -0
    outer loop
      vertex 5.9 31.9 2
      vertex 4.1 31.9 2.2002
      vertex 5.9 31.9 2.2002
    endloop
  endfacet
  facet normal 0 1 0
    outer loop
      vertex 4.1 31.9 2.2002
      vertex 5.9 31.9 2
      vertex 4.1 31.9 2
    endloop
  endfacet
  facet normal 0 -1 0
    outer loop
      vertex 4.1 30.1 2
      vertex 5.9 30.1 2.2002
      vertex 4.1 30.1 2.2002
    endloop
  endfacet
  facet normal 0 -1 -0
    outer loop
      vertex 5.9 30.1 2.2002
      vertex 4.1 30.1 2
      vertex 5.9 30.1 2
    endloop
  endfacet
  facet normal 1 -0 0
    outer loop
      vertex 7.9 30.1 2.2002
      vertex 7.9 31.9 2
      vertex 7.9 31.9 2.2002
    endloop
  endfacet
  facet normal 1 0 0
    outer loop
      vertex 7.9 31.9 2
      vertex 7.9 30.1 2.2002
      vertex 7.9 30.1 2
    endloop
  endfacet
  facet normal -0 0 1
    outer loop
      vertex 6.1 31.9 2.2002
      vertex 7.9 30.1 2.2002
      vertex 7.9 31.9 2.2002
    endloop
  endfacet
  facet normal 0 0 1
    outer loop
      vertex 7.9 30.1 2.2002
      vertex 6.1 31.9 2.2002
      vertex 6.1 30.1 2.2002
    endloop
  endfacet
  facet normal 0 0 -1
    outer loop
      vertex 6.1 30.1 2
      vertex 7.9 31.9 2
      vertex 7.9 30.1 2
    endloop
  endfacet
  facet normal -0 0 -1
    outer loop
      vertex 7.9 31.9 2
      vertex 6.1 30.1 2
      vertex 6.1 31.9 2
    endloop
  endfacet
  facet normal -1 0 0
    outer loop
      vertex 6.1 30.1 2
      vertex 6.1 31.9 2.2002
      vertex 6.1 31.9 2
    endloop
  endfacet
  facet normal -1 -0 0
    outer loop
      vertex 6.1 31.9 2.2002
      vertex 6.1 30.1 2
      vertex 6.1 30.1 2.2002
    endloop
  endfacet
  facet normal 0 1 -0
    outer loop
      vertex 7.9 31.9 2
      vertex 6.1 31.9 2.2002
      vertex 7.9 31.9 2.2002
    endloop
  endfacet
  facet normal 0 1 0
    outer loop
      vertex 6.1 31.9 2.2002
      vertex 7.9 31.9 2
      vertex 6.1 31.9 2
    endloop
  endfacet
  facet normal 0 -1 0
    outer loop
      vertex 6.1 30.1 2
      vertex 7.9 30.1 2.2002
      vertex 6.1 30.1 2.2002
    endloop
  endfacet
  facet normal 0 -1 -0
    outer loop
      vertex 7.9 30.1 2.2002
      vertex 6.1 30.1 2
      vertex 7.9 30.1 2
    endloop
  endfacet
  facet normal 1 -0 0
    outer loop
      vertex 9.9 30.1 2.2002
      vertex 9.9 31.9 2
      vertex 9.9 31.9 2.2002
    endloop
  endfacet
  facet normal 1 0 0
    outer loop
      vertex 9.9 31.9 2
      vertex 9.9 30.1 2.2002
      vertex 9.9 30.1 2
    endloop
  endfacet
  facet normal -0 0 1
    outer loop
      vertex 8.1 31.9 2.2002
      vertex 9.9 30.1 2.2002
      vertex 9.9 31.9 2.2002
    endloop
  endfacet
  facet normal 0 0 1
    outer loop
      vertex 9.9 30.1 2.2002
      vertex 8.1 31.9 2.2002
      vertex 8.1 30.1 2.2002
    endloop
  endfacet
  facet normal 0 0 -1
    outer loop
      vertex 8.1 30.1 2
      vertex 9.9 31.9 2
      vertex 9.9 30.1 2
    endloop
  endfacet
  facet normal -0 0 -1
    outer loop
      vertex 9.9 31.9 2
      vertex 8.1 30.1 2
      vertex 8.1 31.9 2
    endloop
  endfacet
  facet normal -1 0 0
    outer loop
      vertex 8.1 30.1 2
      vertex 8.1 31.9 2.2002
      vertex 8.1 31.9 2
    endloop
  endfacet
  facet normal -1 -0 0
    outer loop
      vertex 8.1 31.9 2.2002
      vertex 8.1 30.1 2
      vertex 8.1 30.1 2.2002
    endloop
  endfacet
  facet normal 0 1 -0
    outer loop
      vertex 9.9 31.9 2
      vertex 8.1 31.9 2.2002
      vertex 9.9 31.9 2.2002
    endloop
  endfacet
  facet normal 0 1 0
    outer loop
      vertex 8.1 31.9 2.2002
      vertex 9.9 31.9 2
      vertex 8.1 31.9 2
    endloop
  endfacet
  facet normal 0 -1 0
    outer loop
      vertex 8.1 30.1 2
      vertex 9.9 30.1 2.2002
      vertex 8.1 30.1 2.2002
    endloop
  endfacet
  facet normal 0 -1 -0
    outer loop
      vertex 9.9 30.1 2.2002
      vertex 8.1 30.1 2
      vertex 9.9 30.1 2
    endloop
  endfacet
endsolid OpenSCAD_Model
