solid OpenSCAD_Model
  facet normal 1 -0 0
    outer loop
      vertex 15.9 2.1 2.4004
      vertex 15.9 3.9 2
      vertex 15.9 3.9 2.4004
    endloop
  endfacet
  facet normal 1 0 0
    outer loop
      vertex 15.9 3.9 2
      vertex 15.9 2.1 2.4004
      vertex 15.9 2.1 2
    endloop
  endfacet
  facet normal 0 0 -1
    outer loop
      vertex 14.1 2.1 2
      vertex 15.9 3.9 2
      vertex 15.9 2.1 2
    endloop
  endfacet
  facet normal -0 0 -1
    outer loop
      vertex 15.9 3.9 2
      vertex 14.1 2.1 2
      vertex 14.1 3.9 2
    endloop
  endfacet
  facet normal -1 0 0
    outer loop
      vertex 14.1 2.1 2
      vertex 14.1 3.9 2.4004
      vertex 14.1 3.9 2
    endloop
  endfacet
  facet normal -1 -0 0
    outer loop
      vertex 14.1 3.9 2.4004
      vertex 14.1 2.1 2
      vertex 14.1 2.1 2.4004
    endloop
  endfacet
  facet normal 0 1 -0
    outer loop
      vertex 15.9 3.9 2
      vertex 14.1 3.9 2.4004
      vertex 15.9 3.9 2.4004
    endloop
  endfacet
  facet normal 0 1 0
    outer loop
      vertex 14.1 3.9 2.4004
      vertex 15.9 3.9 2
      vertex 14.1 3.9 2
    endloop
  endfacet
  facet normal 0 -1 0
    outer loop
      vertex 14.1 2.1 2
      vertex 15.9 2.1 2.4004
      vertex 14.1 2.1 2.4004
    endloop
  endfacet
  facet normal 0 -1 -0
    outer loop
      vertex 15.9 2.1 2.4004
      vertex 14.1 2.1 2
      vertex 15.9 2.1 2
    endloop
  endfacet
  facet normal -0 0 1
    outer loop
      vertex 14.1 3.9 2.4004
      vertex 15.9 2.1 2.4004
      vertex 15.9 3.9 2.4004
    endloop
  endfacet
  facet normal 0 0 1
    outer loop
      vertex 15.9 2.1 2.4004
      vertex 14.1 3.9 2.4004
      vertex 14.1 2.1 2.4004
    endloop
  endfacet
  facet normal 1 -0 0
    outer loop
      vertex 17.9 2.1 2.4004
      vertex 17.9 3.9 2
      vertex 17.9 3.9 2.4004
    endloop
  endfacet
  facet normal 1 0 0
    outer loop
      vertex 17.9 3.9 2
      vertex 17.9 2.1 2.4004
      vertex 17.9 2.1 2
    endloop
  endfacet
  facet normal 0 0 -1
    outer loop
      vertex 16.1 2.1 2
      vertex 17.9 3.9 2
      vertex 17.9 2.1 2
    endloop
  endfacet
  facet normal -0 0 -1
    outer loop
      vertex 17.9 3.9 2
      vertex 16.1 2.1 2
      vertex 16.1 3.9 2
    endloop
  endfacet
  facet normal -1 0 0
    outer loop
      vertex 16.1 2.1 2
      vertex 16.1 3.9 2.4004
      vertex 16.1 3.9 2
    endloop
  endfacet
  facet normal -1 -0 0
    outer loop
      vertex 16.1 3.9 2.4004
      vertex 16.1 2.1 2
      vertex 16.1 2.1 2.4004
    endloop
  endfacet
  facet normal 0 1 -0
    outer loop
      vertex 17.9 3.9 2
      vertex 16.1 3.9 2.4004
      vertex 17.9 3.9 2.4004
    endloop
  endfacet
  facet normal 0 1 0
    outer loop
      vertex 16.1 3.9 2.4004
      vertex 17.9 3.9 2
      vertex 16.1 3.9 2
    endloop
  endfacet
  facet normal 0 -1 0
    outer loop
      vertex 16.1 2.1 2
      vertex 17.9 2.1 2.4004
      vertex 16.1 2.1 2.4004
    endloop
  endfacet
  facet normal 0 -1 -0
    outer loop
      vertex 17.9 2.1 2.4004
      vertex 16.1 2.1 2
      vertex 17.9 2.1 2
    endloop
  endfacet
  facet normal -0 0 1
    outer loop
      vertex 16.1 3.9 2.4004
      vertex 17.9 2.1 2.4004
      vertex 17.9 3.9 2.4004
    endloop
  endfacet
  facet normal 0 0 1
    outer loop
      vertex 17.9 2.1 2.4004
      vertex 16.1 3.9 2.4004
      vertex 16.1 2.1 2.4004
    endloop
  endfacet
  facet normal 1 -0 0
    outer loop
      vertex 13.9 4.1 2.4004
      vertex 13.9 5.9 2
      vertex 13.9 5.9 2.4004
    endloop
  endfacet
  facet normal 1 0 0
    outer loop
      vertex 13.9 5.9 2
      vertex 13.9 4.1 2.4004
      vertex 13.9 4.1 2
    endloop
  endfacet
  facet normal 0 0 -1
    outer loop
      vertex 12.1 4.1 2
      vertex 13.9 5.9 2
      vertex 13.9 4.1 2
    endloop
  endfacet
  facet normal -0 0 -1
    outer loop
      vertex 13.9 5.9 2
      vertex 12.1 4.1 2
      vertex 12.1 5.9 2
    endloop
  endfacet
  facet normal -1 0 0
    outer loop
      vertex 12.1 4.1 2
      vertex 12.1 5.9 2.4004
      vertex 12.1 5.9 2
    endloop
  endfacet
  facet normal -1 -0 0
    outer loop
      vertex 12.1 5.9 2.4004
      vertex 12.1 4.1 2
      vertex 12.1 4.1 2.4004
    endloop
  endfacet
  facet normal 0 1 -0
    outer loop
      vertex 13.9 5.9 2
      vertex 12.1 5.9 2.4004
      vertex 13.9 5.9 2.4004
    endloop
  endfacet
  facet normal 0 1 0
    outer loop
      vertex 12.1 5.9 2.4004
      vertex 13.9 5.9 2
      vertex 12.1 5.9 2
    endloop
  endfacet
  facet normal 0 -1 0
    outer loop
      vertex 12.1 4.1 2
      vertex 13.9 4.1 2.4004
      vertex 12.1 4.1 2.4004
    endloop
  endfacet
  facet normal 0 -1 -0
    outer loop
      vertex 13.9 4.1 2.4004
      vertex 12.1 4.1 2
      vertex 13.9 4.1 2
    endloop
  endfacet
  facet normal -0 0 1
    outer loop
      vertex 12.1 5.9 2.4004
      vertex 13.9 4.1 2.4004
      vertex 13.9 5.9 2.4004
    endloop
  endfacet
  facet normal 0 0 1
    outer loop
      vertex 13.9 4.1 2.4004
      vertex 12.1 5.9 2.4004
      vertex 12.1 4.1 2.4004
    endloop
  endfacet
  facet normal 1 -0 0
    outer loop
      vertex 15.9 4.1 2.4004
      vertex 15.9 5.9 2
      vertex 15.9 5.9 2.4004
    endloop
  endfacet
  facet normal 1 0 0
    outer loop
      vertex 15.9 5.9 2
      vertex 15.9 4.1 2.4004
      vertex 15.9 4.1 2
    endloop
  endfacet
  facet normal 0 0 -1
    outer loop
      vertex 14.1 4.1 2
      vertex 15.9 5.9 2
      vertex 15.9 4.1 2
    endloop
  endfacet
  facet normal -0 0 -1
    outer loop
      vertex 15.9 5.9 2
      vertex 14.1 4.1 2
      vertex 14.1 5.9 2
    endloop
  endfacet
  facet normal -1 0 0
    outer loop
      vertex 14.1 4.1 2
      vertex 14.1 5.9 2.4004
      vertex 14.1 5.9 2
    endloop
  endfacet
  facet normal -1 -0 0
    outer loop
      vertex 14.1 5.9 2.4004
      vertex 14.1 4.1 2
      vertex 14.1 4.1 2.4004
    endloop
  endfacet
  facet normal 0 1 -0
    outer loop
      vertex 15.9 5.9 2
      vertex 14.1 5.9 2.4004
      vertex 15.9 5.9 2.4004
    endloop
  endfacet
  facet normal 0 1 0
    outer loop
      vertex 14.1 5.9 2.4004
      vertex 15.9 5.9 2
      vertex 14.1 5.9 2
    endloop
  endfacet
  facet normal 0 -1 0
    outer loop
      vertex 14.1 4.1 2
      vertex 15.9 4.1 2.4004
      vertex 14.1 4.1 2.4004
    endloop
  endfacet
  facet normal 0 -1 -0
    outer loop
      vertex 15.9 4.1 2.4004
      vertex 14.1 4.1 2
      vertex 15.9 4.1 2
    endloop
  endfacet
  facet normal -0 0 1
    outer loop
      vertex 14.1 5.9 2.4004
      vertex 15.9 4.1 2.4004
      vertex 15.9 5.9 2.4004
    endloop
  endfacet
  facet normal 0 0 1
    outer loop
      vertex 15.9 4.1 2.4004
      vertex 14.1 5.9 2.4004
      vertex 14.1 4.1 2.4004
    endloop
  endfacet
  facet normal 1 -0 0
    outer loop
      vertex 17.9 4.1 2.4004
      vertex 17.9 5.9 2
      vertex 17.9 5.9 2.4004
    endloop
  endfacet
  facet normal 1 0 0
    outer loop
      vertex 17.9 5.9 2
      vertex 17.9 4.1 2.4004
      vertex 17.9 4.1 2
    endloop
  endfacet
  facet normal 0 0 -1
    outer loop
      vertex 16.1 4.1 2
      vertex 17.9 5.9 2
      vertex 17.9 4.1 2
    endloop
  endfacet
  facet normal -0 0 -1
    outer loop
      vertex 17.9 5.9 2
      vertex 16.1 4.1 2
      vertex 16.1 5.9 2
    endloop
  endfacet
  facet normal -1 0 0
    outer loop
      vertex 16.1 4.1 2
      vertex 16.1 5.9 2.4004
      vertex 16.1 5.9 2
    endloop
  endfacet
  facet normal -1 -0 0
    outer loop
      vertex 16.1 5.9 2.4004
      vertex 16.1 4.1 2
      vertex 16.1 4.1 2.4004
    endloop
  endfacet
  facet normal 0 1 -0
    outer loop
      vertex 17.9 5.9 2
      vertex 16.1 5.9 2.4004
      vertex 17.9 5.9 2.4004
    endloop
  endfacet
  facet normal 0 1 0
    outer loop
      vertex 16.1 5.9 2.4004
      vertex 17.9 5.9 2
      vertex 16.1 5.9 2
    endloop
  endfacet
  facet normal 0 -1 0
    outer loop
      vertex 16.1 4.1 2
      vertex 17.9 4.1 2.4004
      vertex 16.1 4.1 2.4004
    endloop
  endfacet
  facet normal 0 -1 -0
    outer loop
      vertex 17.9 4.1 2.4004
      vertex 16.1 4.1 2
      vertex 17.9 4.1 2
    endloop
  endfacet
  facet normal -0 0 1
    outer loop
      vertex 16.1 5.9 2.4004
      vertex 17.9 4.1 2.4004
      vertex 17.9 5.9 2.4004
    endloop
  endfacet
  facet normal 0 0 1
    outer loop
      vertex 17.9 4.1 2.4004
      vertex 16.1 5.9 2.4004
      vertex 16.1 4.1 2.4004
    endloop
  endfacet
  facet normal 1 -0 0
    outer loop
      vertex 11.9 6.1 2.4004
      vertex 11.9 7.9 2
      vertex 11.9 7.9 2.4004
    endloop
  endfacet
  facet normal 1 0 0
    outer loop
      vertex 11.9 7.9 2
      vertex 11.9 6.1 2.4004
      vertex 11.9 6.1 2
    endloop
  endfacet
  facet normal 0 0 -1
    outer loop
      vertex 10.1 6.1 2
      vertex 11.9 7.9 2
      vertex 11.9 6.1 2
    endloop
  endfacet
  facet normal -0 0 -1
    outer loop
      vertex 11.9 7.9 2
      vertex 10.1 6.1 2
      vertex 10.1 7.9 2
    endloop
  endfacet
  facet normal -1 0 0
    outer loop
      vertex 10.1 6.1 2
      vertex 10.1 7.9 2.4004
      vertex 10.1 7.9 2
    endloop
  endfacet
  facet normal -1 -0 0
    outer loop
      vertex 10.1 7.9 2.4004
      vertex 10.1 6.1 2
      vertex 10.1 6.1 2.4004
    endloop
  endfacet
  facet normal 0 1 -0
    outer loop
      vertex 11.9 7.9 2
      vertex 10.1 7.9 2.4004
      vertex 11.9 7.9 2.4004
    endloop
  endfacet
  facet normal 0 1 0
    outer loop
      vertex 10.1 7.9 2.4004
      vertex 11.9 7.9 2
      vertex 10.1 7.9 2
    endloop
  endfacet
  facet normal 0 -1 0
    outer loop
      vertex 10.1 6.1 2
      vertex 11.9 6.1 2.4004
      vertex 10.1 6.1 2.4004
    endloop
  endfacet
  facet normal 0 -1 -0
    outer loop
      vertex 11.9 6.1 2.4004
      vertex 10.1 6.1 2
      vertex 11.9 6.1 2
    endloop
  endfacet
  facet normal -0 0 1
    outer loop
      vertex 10.1 7.9 2.4004
      vertex 11.9 6.1 2.4004
      vertex 11.9 7.9 2.4004
    endloop
  endfacet
  facet normal 0 0 1
    outer loop
      vertex 11.9 6.1 2.4004
      vertex 10.1 7.9 2.4004
      vertex 10.1 6.1 2.4004
    endloop
  endfacet
  facet normal 1 -0 0
    outer loop
      vertex 13.9 6.1 2.4004
      vertex 13.9 7.9 2
      vertex 13.9 7.9 2.4004
    endloop
  endfacet
  facet normal 1 0 0
    outer loop
      vertex 13.9 7.9 2
      vertex 13.9 6.1 2.4004
      vertex 13.9 6.1 2
    endloop
  endfacet
  facet normal 0 0 -1
    outer loop
      vertex 12.1 6.1 2
      vertex 13.9 7.9 2
      vertex 13.9 6.1 2
    endloop
  endfacet
  facet normal -0 0 -1
    outer loop
      vertex 13.9 7.9 2
      vertex 12.1 6.1 2
      vertex 12.1 7.9 2
    endloop
  endfacet
  facet normal -1 0 0
    outer loop
      vertex 12.1 6.1 2
      vertex 12.1 7.9 2.4004
      vertex 12.1 7.9 2
    endloop
  endfacet
  facet normal -1 -0 0
    outer loop
      vertex 12.1 7.9 2.4004
      vertex 12.1 6.1 2
      vertex 12.1 6.1 2.4004
    endloop
  endfacet
  facet normal 0 1 -0
    outer loop
      vertex 13.9 7.9 2
      vertex 12.1 7.9 2.4004
      vertex 13.9 7.9 2.4004
    endloop
  endfacet
  facet normal 0 1 0
    outer loop
      vertex 12.1 7.9 2.4004
      vertex 13.9 7.9 2
      vertex 12.1 7.9 2
    endloop
  endfacet
  facet normal 0 -1 0
    outer loop
      vertex 12.1 6.1 2
      vertex 13.9 6.1 2.4004
      vertex 12.1 6.1 2.4004
    endloop
  endfacet
  facet normal 0 -1 -0
    outer loop
      vertex 13.9 6.1 2.4004
      vertex 12.1 6.1 2
      vertex 13.9 6.1 2
    endloop
  endfacet
  facet normal -0 0 1
    outer loop
      vertex 12.1 7.9 2.4004
      vertex 13.9 6.1 2.4004
      vertex 13.9 7.9 2.4004
    endloop
  endfacet
  facet normal 0 0 1
    outer loop
      vertex 13.9 6.1 2.4004
      vertex 12.1 7.9 2.4004
      vertex 12.1 6.1 2.4004
    endloop
  endfacet
  facet normal 1 -0 0
    outer loop
      vertex 15.9 6.1 2.4004
      vertex 15.9 7.9 2
      vertex 15.9 7.9 2.4004
    endloop
  endfacet
  facet normal 1 0 0
    outer loop
      vertex 15.9 7.9 2
      vertex 15.9 6.1 2.4004
      vertex 15.9 6.1 2
    endloop
  endfacet
  facet normal 0 0 -1
    outer loop
      vertex 14.1 6.1 2
      vertex 15.9 7.9 2
      vertex 15.9 6.1 2
    endloop
  endfacet
  facet normal -0 0 -1
    outer loop
      vertex 15.9 7.9 2
      vertex 14.1 6.1 2
      vertex 14.1 7.9 2
    endloop
  endfacet
  facet normal -1 0 0
    outer loop
      vertex 14.1 6.1 2
      vertex 14.1 7.9 2.4004
      vertex 14.1 7.9 2
    endloop
  endfacet
  facet normal -1 -0 0
    outer loop
      vertex 14.1 7.9 2.4004
      vertex 14.1 6.1 2
      vertex 14.1 6.1 2.4004
    endloop
  endfacet
  facet normal 0 1 -0
    outer loop
      vertex 15.9 7.9 2
      vertex 14.1 7.9 2.4004
      vertex 15.9 7.9 2.4004
    endloop
  endfacet
  facet normal 0 1 0
    outer loop
      vertex 14.1 7.9 2.4004
      vertex 15.9 7.9 2
      vertex 14.1 7.9 2
    endloop
  endfacet
  facet normal 0 -1 0
    outer loop
      vertex 14.1 6.1 2
      vertex 15.9 6.1 2.4004
      vertex 14.1 6.1 2.4004
    endloop
  endfacet
  facet normal 0 -1 -0
    outer loop
      vertex 15.9 6.1 2.4004
      vertex 14.1 6.1 2
      vertex 15.9 6.1 2
    endloop
  endfacet
  facet normal -0 0 1
    outer loop
      vertex 14.1 7.9 2.4004
      vertex 15.9 6.1 2.4004
      vertex 15.9 7.9 2.4004
    endloop
  endfacet
  facet normal 0 0 1
    outer loop
      vertex 15.9 6.1 2.4004
      vertex 14.1 7.9 2.4004
      vertex 14.1 6.1 2.4004
    endloop
  endfacet
  facet normal 1 -0 0
    outer loop
      vertex 17.9 6.1 2.4004
      vertex 17.9 7.9 2
      vertex 17.9 7.9 2.4004
    endloop
  endfacet
  facet normal 1 0 0
    outer loop
      vertex 17.9 7.9 2
      vertex 17.9 6.1 2.4004
      vertex 17.9 6.1 2
    endloop
  endfacet
  facet normal 0 0 -1
    outer loop
      vertex 16.1 6.1 2
      vertex 17.9 7.9 2
      vertex 17.9 6.1 2
    endloop
  endfacet
  facet normal -0 0 -1
    outer loop
      vertex 17.9 7.9 2
      vertex 16.1 6.1 2
      vertex 16.1 7.9 2
    endloop
  endfacet
  facet normal -1 0 0
    outer loop
      vertex 16.1 6.1 2
      vertex 16.1 7.9 2.4004
      vertex 16.1 7.9 2
    endloop
  endfacet
  facet normal -1 -0 0
    outer loop
      vertex 16.1 7.9 2.4004
      vertex 16.1 6.1 2
      vertex 16.1 6.1 2.4004
    endloop
  endfacet
  facet normal 0 1 -0
    outer loop
      vertex 17.9 7.9 2
      vertex 16.1 7.9 2.4004
      vertex 17.9 7.9 2.4004
    endloop
  endfacet
  facet normal 0 1 0
    outer loop
      vertex 16.1 7.9 2.4004
      vertex 17.9 7.9 2
      vertex 16.1 7.9 2
    endloop
  endfacet
  facet normal 0 -1 0
    outer loop
      vertex 16.1 6.1 2
      vertex 17.9 6.1 2.4004
      vertex 16.1 6.1 2.4004
    endloop
  endfacet
  facet normal 0 -1 -0
    outer loop
      vertex 17.9 6.1 2.4004
      vertex 16.1 6.1 2
      vertex 17.9 6.1 2
    endloop
  endfacet
  facet normal -0 0 1
    outer loop
      vertex 16.1 7.9 2.4004
      vertex 17.9 6.1 2.4004
      vertex 17.9 7.9 2.4004
    endloop
  endfacet
  facet normal 0 0 1
    outer loop
      vertex 17.9 6.1 2.4004
      vertex 16.1 7.9 2.4004
      vertex 16.1 6.1 2.4004
    endloop
  endfacet
  facet normal 1 -0 0
    outer loop
      vertex 19.9 6.1 2.4004
      vertex 19.9 7.9 2
      vertex 19.9 7.9 2.4004
    endloop
  endfacet
  facet normal 1 0 0
    outer loop
      vertex 19.9 7.9 2
      vertex 19.9 6.1 2.4004
      vertex 19.9 6.1 2
    endloop
  endfacet
  facet normal 0 0 -1
    outer loop
      vertex 18.1 6.1 2
      vertex 19.9 7.9 2
      vertex 19.9 6.1 2
    endloop
  endfacet
  facet normal -0 0 -1
    outer loop
      vertex 19.9 7.9 2
      vertex 18.1 6.1 2
      vertex 18.1 7.9 2
    endloop
  endfacet
  facet normal -1 0 0
    outer loop
      vertex 18.1 6.1 2
      vertex 18.1 7.9 2.4004
      vertex 18.1 7.9 2
    endloop
  endfacet
  facet normal -1 -0 0
    outer loop
      vertex 18.1 7.9 2.4004
      vertex 18.1 6.1 2
      vertex 18.1 6.1 2.4004
    endloop
  endfacet
  facet normal 0 1 -0
    outer loop
      vertex 19.9 7.9 2
      vertex 18.1 7.9 2.4004
      vertex 19.9 7.9 2.4004
    endloop
  endfacet
  facet normal 0 1 0
    outer loop
      vertex 18.1 7.9 2.4004
      vertex 19.9 7.9 2
      vertex 18.1 7.9 2
    endloop
  endfacet
  facet normal 0 -1 0
    outer loop
      vertex 18.1 6.1 2
      vertex 19.9 6.1 2.4004
      vertex 18.1 6.1 2.4004
    endloop
  endfacet
  facet normal 0 -1 -0
    outer loop
      vertex 19.9 6.1 2.4004
      vertex 18.1 6.1 2
      vertex 19.9 6.1 2
    endloop
  endfacet
  facet normal -0 0 1
    outer loop
      vertex 18.1 7.9 2.4004
      vertex 19.9 6.1 2.4004
      vertex 19.9 7.9 2.4004
    endloop
  endfacet
  facet normal 0 0 1
    outer loop
      vertex 19.9 6.1 2.4004
      vertex 18.1 7.9 2.4004
      vertex 18.1 6.1 2.4004
    endloop
  endfacet
  facet normal 1 -0 0
    outer loop
      vertex 9.9 8.1 2.4004
      vertex 9.9 9.9 2
      vertex 9.9 9.9 2.4004
    endloop
  endfacet
  facet normal 1 0 0
    outer loop
      vertex 9.9 9.9 2
      vertex 9.9 8.1 2.4004
      vertex 9.9 8.1 2
    endloop
  endfacet
  facet normal 0 0 -1
    outer loop
      vertex 8.1 8.1 2
      vertex 9.9 9.9 2
      vertex 9.9 8.1 2
    endloop
  endfacet
  facet normal -0 0 -1
    outer loop
      vertex 9.9 9.9 2
      vertex 8.1 8.1 2
      vertex 8.1 9.9 2
    endloop
  endfacet
  facet normal -1 0 0
    outer loop
      vertex 8.1 8.1 2
      vertex 8.1 9.9 2.4004
      vertex 8.1 9.9 2
    endloop
  endfacet
  facet normal -1 -0 0
    outer loop
      vertex 8.1 9.9 2.4004
      vertex 8.1 8.1 2
      vertex 8.1 8.1 2.4004
    endloop
  endfacet
  facet normal 0 1 -0
    outer loop
      vertex 9.9 9.9 2
      vertex 8.1 9.9 2.4004
      vertex 9.9 9.9 2.4004
    endloop
  endfacet
  facet normal 0 1 0
    outer loop
      vertex 8.1 9.9 2.4004
      vertex 9.9 9.9 2
      vertex 8.1 9.9 2
    endloop
  endfacet
  facet normal 0 -1 0
    outer loop
      vertex 8.1 8.1 2
      vertex 9.9 8.1 2.4004
      vertex 8.1 8.1 2.4004
    endloop
  endfacet
  facet normal 0 -1 -0
    outer loop
      vertex 9.9 8.1 2.4004
      vertex 8.1 8.1 2
      vertex 9.9 8.1 2
    endloop
  endfacet
  facet normal -0 0 1
    outer loop
      vertex 8.1 9.9 2.4004
      vertex 9.9 8.1 2.4004
      vertex 9.9 9.9 2.4004
    endloop
  endfacet
  facet normal 0 0 1
    outer loop
      vertex 9.9 8.1 2.4004
      vertex 8.1 9.9 2.4004
      vertex 8.1 8.1 2.4004
    endloop
  endfacet
  facet normal 1 -0 0
    outer loop
      vertex 11.9 8.1 2.4004
      vertex 11.9 9.9 2
      vertex 11.9 9.9 2.4004
    endloop
  endfacet
  facet normal 1 0 0
    outer loop
      vertex 11.9 9.9 2
      vertex 11.9 8.1 2.4004
      vertex 11.9 8.1 2
    endloop
  endfacet
  facet normal 0 0 -1
    outer loop
      vertex 10.1 8.1 2
      vertex 11.9 9.9 2
      vertex 11.9 8.1 2
    endloop
  endfacet
  facet normal -0 0 -1
    outer loop
      vertex 11.9 9.9 2
      vertex 10.1 8.1 2
      vertex 10.1 9.9 2
    endloop
  endfacet
  facet normal -1 0 0
    outer loop
      vertex 10.1 8.1 2
      vertex 10.1 9.9 2.4004
      vertex 10.1 9.9 2
    endloop
  endfacet
  facet normal -1 -0 0
    outer loop
      vertex 10.1 9.9 2.4004
      vertex 10.1 8.1 2
      vertex 10.1 8.1 2.4004
    endloop
  endfacet
  facet normal 0 1 -0
    outer loop
      vertex 11.9 9.9 2
      vertex 10.1 9.9 2.4004
      vertex 11.9 9.9 2.4004
    endloop
  endfacet
  facet normal 0 1 0
    outer loop
      vertex 10.1 9.9 2.4004
      vertex 11.9 9.9 2
      vertex 10.1 9.9 2
    endloop
  endfacet
  facet normal 0 -1 0
    outer loop
      vertex 10.1 8.1 2
      vertex 11.9 8.1 2.4004
      vertex 10.1 8.1 2.4004
    endloop
  endfacet
  facet normal 0 -1 -0
    outer loop
      vertex 11.9 8.1 2.4004
      vertex 10.1 8.1 2
      vertex 11.9 8.1 2
    endloop
  endfacet
  facet normal -0 0 1
    outer loop
      vertex 10.1 9.9 2.4004
      vertex 11.9 8.1 2.4004
      vertex 11.9 9.9 2.4004
    endloop
  endfacet
  facet normal 0 0 1
    outer loop
      vertex 11.9 8.1 2.4004
      vertex 10.1 9.9 2.4004
      vertex 10.1 8.1 2.4004
    endloop
  endfacet
  facet normal 1 -0 0
    outer loop
      vertex 13.9 8.1 2.4004
      vertex 13.9 9.9 2
      vertex 13.9 9.9 2.4004
    endloop
  endfacet
  facet normal 1 0 0
    outer loop
      vertex 13.9 9.9 2
      vertex 13.9 8.1 2.4004
      vertex 13.9 8.1 2
    endloop
  endfacet
  facet normal 0 0 -1
    outer loop
      vertex 12.1 8.1 2
      vertex 13.9 9.9 2
      vertex 13.9 8.1 2
    endloop
  endfacet
  facet normal -0 0 -1
    outer loop
      vertex 13.9 9.9 2
      vertex 12.1 8.1 2
      vertex 12.1 9.9 2
    endloop
  endfacet
  facet normal -1 0 0
    outer loop
      vertex 12.1 8.1 2
      vertex 12.1 9.9 2.4004
      vertex 12.1 9.9 2
    endloop
  endfacet
  facet normal -1 -0 0
    outer loop
      vertex 12.1 9.9 2.4004
      vertex 12.1 8.1 2
      vertex 12.1 8.1 2.4004
    endloop
  endfacet
  facet normal 0 1 -0
    outer loop
      vertex 13.9 9.9 2
      vertex 12.1 9.9 2.4004
      vertex 13.9 9.9 2.4004
    endloop
  endfacet
  facet normal 0 1 0
    outer loop
      vertex 12.1 9.9 2.4004
      vertex 13.9 9.9 2
      vertex 12.1 9.9 2
    endloop
  endfacet
  facet normal 0 -1 0
    outer loop
      vertex 12.1 8.1 2
      vertex 13.9 8.1 2.4004
      vertex 12.1 8.1 2.4004
    endloop
  endfacet
  facet normal 0 -1 -0
    outer loop
      vertex 13.9 8.1 2.4004
      vertex 12.1 8.1 2
      vertex 13.9 8.1 2
    endloop
  endfacet
  facet normal -0 0 1
    outer loop
      vertex 12.1 9.9 2.4004
      vertex 13.9 8.1 2.4004
      vertex 13.9 9.9 2.4004
    endloop
  endfacet
  facet normal 0 0 1
    outer loop
      vertex 13.9 8.1 2.4004
      vertex 12.1 9.9 2.4004
      vertex 12.1 8.1 2.4004
    endloop
  endfacet
  facet normal 1 -0 0
    outer loop
      vertex 15.9 8.1 2.4004
      vertex 15.9 9.9 2
      vertex 15.9 9.9 2.4004
    endloop
  endfacet
  facet normal 1 0 0
    outer loop
      vertex 15.9 9.9 2
      vertex 15.9 8.1 2.4004
      vertex 15.9 8.1 2
    endloop
  endfacet
  facet normal 0 0 -1
    outer loop
      vertex 14.1 8.1 2
      vertex 15.9 9.9 2
      vertex 15.9 8.1 2
    endloop
  endfacet
  facet normal -0 0 -1
    outer loop
      vertex 15.9 9.9 2
      vertex 14.1 8.1 2
      vertex 14.1 9.9 2
    endloop
  endfacet
  facet normal -1 0 0
    outer loop
      vertex 14.1 8.1 2
      vertex 14.1 9.9 2.4004
      vertex 14.1 9.9 2
    endloop
  endfacet
  facet normal -1 -0 0
    outer loop
      vertex 14.1 9.9 2.4004
      vertex 14.1 8.1 2
      vertex 14.1 8.1 2.4004
    endloop
  endfacet
  facet normal 0 1 -0
    outer loop
      vertex 15.9 9.9 2
      vertex 14.1 9.9 2.4004
      vertex 15.9 9.9 2.4004
    endloop
  endfacet
  facet normal 0 1 0
    outer loop
      vertex 14.1 9.9 2.4004
      vertex 15.9 9.9 2
      vertex 14.1 9.9 2
    endloop
  endfacet
  facet normal 0 -1 0
    outer loop
      vertex 14.1 8.1 2
      vertex 15.9 8.1 2.4004
      vertex 14.1 8.1 2.4004
    endloop
  endfacet
  facet normal 0 -1 -0
    outer loop
      vertex 15.9 8.1 2.4004
      vertex 14.1 8.1 2
      vertex 15.9 8.1 2
    endloop
  endfacet
  facet normal -0 0 1
    outer loop
      vertex 14.1 9.9 2.4004
      vertex 15.9 8.1 2.4004
      vertex 15.9 9.9 2.4004
    endloop
  endfacet
  facet normal 0 0 1
    outer loop
      vertex 15.9 8.1 2.4004
      vertex 14.1 9.9 2.4004
      vertex 14.1 8.1 2.4004
    endloop
  endfacet
  facet normal 1 -0 0
    outer loop
      vertex 17.9 8.1 2.4004
      vertex 17.9 9.9 2
      vertex 17.9 9.9 2.4004
    endloop
  endfacet
  facet normal 1 0 0
    outer loop
      vertex 17.9 9.9 2
      vertex 17.9 8.1 2.4004
      vertex 17.9 8.1 2
    endloop
  endfacet
  facet normal 0 0 -1
    outer loop
      vertex 16.1 8.1 2
      vertex 17.9 9.9 2
      vertex 17.9 8.1 2
    endloop
  endfacet
  facet normal -0 0 -1
    outer loop
      vertex 17.9 9.9 2
      vertex 16.1 8.1 2
      vertex 16.1 9.9 2
    endloop
  endfacet
  facet normal -1 0 0
    outer loop
      vertex 16.1 8.1 2
      vertex 16.1 9.9 2.4004
      vertex 16.1 9.9 2
    endloop
  endfacet
  facet normal -1 -0 0
    outer loop
      vertex 16.1 9.9 2.4004
      vertex 16.1 8.1 2
      vertex 16.1 8.1 2.4004
    endloop
  endfacet
  facet normal 0 1 -0
    outer loop
      vertex 17.9 9.9 2
      vertex 16.1 9.9 2.4004
      vertex 17.9 9.9 2.4004
    endloop
  endfacet
  facet normal 0 1 0
    outer loop
      vertex 16.1 9.9 2.4004
      vertex 17.9 9.9 2
      vertex 16.1 9.9 2
    endloop
  endfacet
  facet normal 0 -1 0
    outer loop
      vertex 16.1 8.1 2
      vertex 17.9 8.1 2.4004
      vertex 16.1 8.1 2.4004
    endloop
  endfacet
  facet normal 0 -1 -0
    outer loop
      vertex 17.9 8.1 2.4004
      vertex 16.1 8.1 2
      vertex 17.9 8.1 2
    endloop
  endfacet
  facet normal -0 0 1
    outer loop
      vertex 16.1 9.9 2.4004
      vertex 17.9 8.1 2.4004
      vertex 17.9 9.9 2.4004
    endloop
  endfacet
  facet normal 0 0 1
    outer loop
      vertex 17.9 8.1 2.4004
      vertex 16.1 9.9 2.4004
      vertex 16.1 8.1 2.4004
    endloop
  endfacet
  facet normal 1 -0 0
    outer loop
      vertex 19.9 8.1 2.4004
      vertex 19.9 9.9 2
      vertex 19.9 9.9 2.4004
    endloop
  endfacet
  facet normal 1 0 0
    outer loop
      vertex 19.9 9.9 2
      vertex 19.9 8.1 2.4004
      vertex 19.9 8.1 2
    endloop
  endfacet
  facet normal 0 0 -1
    outer loop
      vertex 18.1 8.1 2
      vertex 19.9 9.9 2
      vertex 19.9 8.1 2
    endloop
  endfacet
  facet normal -0 0 -1
    outer loop
      vertex 19.9 9.9 2
      vertex 18.1 8.1 2
      vertex 18.1 9.9 2
    endloop
  endfacet
  facet normal -1 0 0
    outer loop
      vertex 18.1 8.1 2
      vertex 18.1 9.9 2.4004
      vertex 18.1 9.9 2
    endloop
  endfacet
  facet normal -1 -0 0
    outer loop
      vertex 18.1 9.9 2.4004
      vertex 18.1 8.1 2
      vertex 18.1 8.1 2.4004
    endloop
  endfacet
  facet normal 0 1 -0
    outer loop
      vertex 19.9 9.9 2
      vertex 18.1 9.9 2.4004
      vertex 19.9 9.9 2.4004
    endloop
  endfacet
  facet normal 0 1 0
    outer loop
      vertex 18.1 9.9 2.4004
      vertex 19.9 9.9 2
      vertex 18.1 9.9 2
    endloop
  endfacet
  facet normal 0 -1 0
    outer loop
      vertex 18.1 8.1 2
      vertex 19.9 8.1 2.4004
      vertex 18.1 8.1 2.4004
    endloop
  endfacet
  facet normal 0 -1 -0
    outer loop
      vertex 19.9 8.1 2.4004
      vertex 18.1 8.1 2
      vertex 19.9 8.1 2
    endloop
  endfacet
  facet normal -0 0 1
    outer loop
      vertex 18.1 9.9 2.4004
      vertex 19.9 8.1 2.4004
      vertex 19.9 9.9 2.4004
    endloop
  endfacet
  facet normal 0 0 1
    outer loop
      vertex 19.9 8.1 2.4004
      vertex 18.1 9.9 2.4004
      vertex 18.1 8.1 2.4004
    endloop
  endfacet
  facet normal 1 -0 0
    outer loop
      vertex 5.9 10.1 2.4004
      vertex 5.9 11.9 2
      vertex 5.9 11.9 2.4004
    endloop
  endfacet
  facet normal 1 0 0
    outer loop
      vertex 5.9 11.9 2
      vertex 5.9 10.1 2.4004
      vertex 5.9 10.1 2
    endloop
  endfacet
  facet normal 0 0 -1
    outer loop
      vertex 4.1 10.1 2
      vertex 5.9 11.9 2
      vertex 5.9 10.1 2
    endloop
  endfacet
  facet normal -0 0 -1
    outer loop
      vertex 5.9 11.9 2
      vertex 4.1 10.1 2
      vertex 4.1 11.9 2
    endloop
  endfacet
  facet normal -1 0 0
    outer loop
      vertex 4.1 10.1 2
      vertex 4.1 11.9 2.4004
      vertex 4.1 11.9 2
    endloop
  endfacet
  facet normal -1 -0 0
    outer loop
      vertex 4.1 11.9 2.4004
      vertex 4.1 10.1 2
      vertex 4.1 10.1 2.4004
    endloop
  endfacet
  facet normal 0 1 -0
    outer loop
      vertex 5.9 11.9 2
      vertex 4.1 11.9 2.4004
      vertex 5.9 11.9 2.4004
    endloop
  endfacet
  facet normal 0 1 0
    outer loop
      vertex 4.1 11.9 2.4004
      vertex 5.9 11.9 2
      vertex 4.1 11.9 2
    endloop
  endfacet
  facet normal 0 -1 0
    outer loop
      vertex 4.1 10.1 2
      vertex 5.9 10.1 2.4004
      vertex 4.1 10.1 2.4004
    endloop
  endfacet
  facet normal 0 -1 -0
    outer loop
      vertex 5.9 10.1 2.4004
      vertex 4.1 10.1 2
      vertex 5.9 10.1 2
    endloop
  endfacet
  facet normal -0 0 1
    outer loop
      vertex 4.1 11.9 2.4004
      vertex 5.9 10.1 2.4004
      vertex 5.9 11.9 2.4004
    endloop
  endfacet
  facet normal 0 0 1
    outer loop
      vertex 5.9 10.1 2.4004
      vertex 4.1 11.9 2.4004
      vertex 4.1 10.1 2.4004
    endloop
  endfacet
  facet normal 1 -0 0
    outer loop
      vertex 7.9 10.1 2.4004
      vertex 7.9 11.9 2
      vertex 7.9 11.9 2.4004
    endloop
  endfacet
  facet normal 1 0 0
    outer loop
      vertex 7.9 11.9 2
      vertex 7.9 10.1 2.4004
      vertex 7.9 10.1 2
    endloop
  endfacet
  facet normal 0 0 -1
    outer loop
      vertex 6.1 10.1 2
      vertex 7.9 11.9 2
      vertex 7.9 10.1 2
    endloop
  endfacet
  facet normal -0 0 -1
    outer loop
      vertex 7.9 11.9 2
      vertex 6.1 10.1 2
      vertex 6.1 11.9 2
    endloop
  endfacet
  facet normal -1 0 0
    outer loop
      vertex 6.1 10.1 2
      vertex 6.1 11.9 2.4004
      vertex 6.1 11.9 2
    endloop
  endfacet
  facet normal -1 -0 0
    outer loop
      vertex 6.1 11.9 2.4004
      vertex 6.1 10.1 2
      vertex 6.1 10.1 2.4004
    endloop
  endfacet
  facet normal 0 1 -0
    outer loop
      vertex 7.9 11.9 2
      vertex 6.1 11.9 2.4004
      vertex 7.9 11.9 2.4004
    endloop
  endfacet
  facet normal 0 1 0
    outer loop
      vertex 6.1 11.9 2.4004
      vertex 7.9 11.9 2
      vertex 6.1 11.9 2
    endloop
  endfacet
  facet normal 0 -1 0
    outer loop
      vertex 6.1 10.1 2
      vertex 7.9 10.1 2.4004
      vertex 6.1 10.1 2.4004
    endloop
  endfacet
  facet normal 0 -1 -0
    outer loop
      vertex 7.9 10.1 2.4004
      vertex 6.1 10.1 2
      vertex 7.9 10.1 2
    endloop
  endfacet
  facet normal -0 0 1
    outer loop
      vertex 6.1 11.9 2.4004
      vertex 7.9 10.1 2.4004
      vertex 7.9 11.9 2.4004
    endloop
  endfacet
  facet normal 0 0 1
    outer loop
      vertex 7.9 10.1 2.4004
      vertex 6.1 11.9 2.4004
      vertex 6.1 10.1 2.4004
    endloop
  endfacet
  facet normal 1 -0 0
    outer loop
      vertex 9.9 10.1 2.4004
      vertex 9.9 11.9 2
      vertex 9.9 11.9 2.4004
    endloop
  endfacet
  facet normal 1 0 0
    outer loop
      vertex 9.9 11.9 2
      vertex 9.9 10.1 2.4004
      vertex 9.9 10.1 2
    endloop
  endfacet
  facet normal 0 0 -1
    outer loop
      vertex 8.1 10.1 2
      vertex 9.9 11.9 2
      vertex 9.9 10.1 2
    endloop
  endfacet
  facet normal -0 0 -1
    outer loop
      vertex 9.9 11.9 2
      vertex 8.1 10.1 2
      vertex 8.1 11.9 2
    endloop
  endfacet
  facet normal -1 0 0
    outer loop
      vertex 8.1 10.1 2
      vertex 8.1 11.9 2.4004
      vertex 8.1 11.9 2
    endloop
  endfacet
  facet normal -1 -0 0
    outer loop
      vertex 8.1 11.9 2.4004
      vertex 8.1 10.1 2
      vertex 8.1 10.1 2.4004
    endloop
  endfacet
  facet normal 0 1 -0
    outer loop
      vertex 9.9 11.9 2
      vertex 8.1 11.9 2.4004
      vertex 9.9 11.9 2.4004
    endloop
  endfacet
  facet normal 0 1 0
    outer loop
      vertex 8.1 11.9 2.4004
      vertex 9.9 11.9 2
      vertex 8.1 11.9 2
    endloop
  endfacet
  facet normal 0 -1 0
    outer loop
      vertex 8.1 10.1 2
      vertex 9.9 10.1 2.4004
      vertex 8.1 10.1 2.4004
    endloop
  endfacet
  facet normal 0 -1 -0
    outer loop
      vertex 9.9 10.1 2.4004
      vertex 8.1 10.1 2
      vertex 9.9 10.1 2
    endloop
  endfacet
  facet normal -0 0 1
    outer loop
      vertex 8.1 11.9 2.4004
      vertex 9.9 10.1 2.4004
      vertex 9.9 11.9 2.4004
    endloop
  endfacet
  facet normal 0 0 1
    outer loop
      vertex 9.9 10.1 2.4004
      vertex 8.1 11.9 2.4004
      vertex 8.1 10.1 2.4004
    endloop
  endfacet
  facet normal 1 -0 0
    outer loop
      vertex 11.9 10.1 2.4004
      vertex 11.9 11.9 2
      vertex 11.9 11.9 2.4004
    endloop
  endfacet
  facet normal 1 0 0
    outer loop
      vertex 11.9 11.9 2
      vertex 11.9 10.1 2.4004
      vertex 11.9 10.1 2
    endloop
  endfacet
  facet normal 0 0 -1
    outer loop
      vertex 10.1 10.1 2
      vertex 11.9 11.9 2
      vertex 11.9 10.1 2
    endloop
  endfacet
  facet normal -0 0 -1
    outer loop
      vertex 11.9 11.9 2
      vertex 10.1 10.1 2
      vertex 10.1 11.9 2
    endloop
  endfacet
  facet normal -1 0 0
    outer loop
      vertex 10.1 10.1 2
      vertex 10.1 11.9 2.4004
      vertex 10.1 11.9 2
    endloop
  endfacet
  facet normal -1 -0 0
    outer loop
      vertex 10.1 11.9 2.4004
      vertex 10.1 10.1 2
      vertex 10.1 10.1 2.4004
    endloop
  endfacet
  facet normal 0 1 -0
    outer loop
      vertex 11.9 11.9 2
      vertex 10.1 11.9 2.4004
      vertex 11.9 11.9 2.4004
    endloop
  endfacet
  facet normal 0 1 0
    outer loop
      vertex 10.1 11.9 2.4004
      vertex 11.9 11.9 2
      vertex 10.1 11.9 2
    endloop
  endfacet
  facet normal 0 -1 0
    outer loop
      vertex 10.1 10.1 2
      vertex 11.9 10.1 2.4004
      vertex 10.1 10.1 2.4004
    endloop
  endfacet
  facet normal 0 -1 -0
    outer loop
      vertex 11.9 10.1 2.4004
      vertex 10.1 10.1 2
      vertex 11.9 10.1 2
    endloop
  endfacet
  facet normal -0 0 1
    outer loop
      vertex 10.1 11.9 2.4004
      vertex 11.9 10.1 2.4004
      vertex 11.9 11.9 2.4004
    endloop
  endfacet
  facet normal 0 0 1
    outer loop
      vertex 11.9 10.1 2.4004
      vertex 10.1 11.9 2.4004
      vertex 10.1 10.1 2.4004
    endloop
  endfacet
  facet normal 1 -0 0
    outer loop
      vertex 17.9 10.1 2.4004
      vertex 17.9 11.9 2
      vertex 17.9 11.9 2.4004
    endloop
  endfacet
  facet normal 1 0 0
    outer loop
      vertex 17.9 11.9 2
      vertex 17.9 10.1 2.4004
      vertex 17.9 10.1 2
    endloop
  endfacet
  facet normal 0 0 -1
    outer loop
      vertex 16.1 10.1 2
      vertex 17.9 11.9 2
      vertex 17.9 10.1 2
    endloop
  endfacet
  facet normal -0 0 -1
    outer loop
      vertex 17.9 11.9 2
      vertex 16.1 10.1 2
      vertex 16.1 11.9 2
    endloop
  endfacet
  facet normal -1 0 0
    outer loop
      vertex 16.1 10.1 2
      vertex 16.1 11.9 2.4004
      vertex 16.1 11.9 2
    endloop
  endfacet
  facet normal -1 -0 0
    outer loop
      vertex 16.1 11.9 2.4004
      vertex 16.1 10.1 2
      vertex 16.1 10.1 2.4004
    endloop
  endfacet
  facet normal 0 1 -0
    outer loop
      vertex 17.9 11.9 2
      vertex 16.1 11.9 2.4004
      vertex 17.9 11.9 2.4004
    endloop
  endfacet
  facet normal 0 1 0
    outer loop
      vertex 16.1 11.9 2.4004
      vertex 17.9 11.9 2
      vertex 16.1 11.9 2
    endloop
  endfacet
  facet normal 0 -1 0
    outer loop
      vertex 16.1 10.1 2
      vertex 17.9 10.1 2.4004
      vertex 16.1 10.1 2.4004
    endloop
  endfacet
  facet normal 0 -1 -0
    outer loop
      vertex 17.9 10.1 2.4004
      vertex 16.1 10.1 2
      vertex 17.9 10.1 2
    endloop
  endfacet
  facet normal -0 0 1
    outer loop
      vertex 16.1 11.9 2.4004
      vertex 17.9 10.1 2.4004
      vertex 17.9 11.9 2.4004
    endloop
  endfacet
  facet normal 0 0 1
    outer loop
      vertex 17.9 10.1 2.4004
      vertex 16.1 11.9 2.4004
      vertex 16.1 10.1 2.4004
    endloop
  endfacet
  facet normal 1 -0 0
    outer loop
      vertex 19.9 10.1 2.4004
      vertex 19.9 11.9 2
      vertex 19.9 11.9 2.4004
    endloop
  endfacet
  facet normal 1 0 0
    outer loop
      vertex 19.9 11.9 2
      vertex 19.9 10.1 2.4004
      vertex 19.9 10.1 2
    endloop
  endfacet
  facet normal 0 0 -1
    outer loop
      vertex 18.1 10.1 2
      vertex 19.9 11.9 2
      vertex 19.9 10.1 2
    endloop
  endfacet
  facet normal -0 0 -1
    outer loop
      vertex 19.9 11.9 2
      vertex 18.1 10.1 2
      vertex 18.1 11.9 2
    endloop
  endfacet
  facet normal -1 0 0
    outer loop
      vertex 18.1 10.1 2
      vertex 18.1 11.9 2.4004
      vertex 18.1 11.9 2
    endloop
  endfacet
  facet normal -1 -0 0
    outer loop
      vertex 18.1 11.9 2.4004
      vertex 18.1 10.1 2
      vertex 18.1 10.1 2.4004
    endloop
  endfacet
  facet normal 0 1 -0
    outer loop
      vertex 19.9 11.9 2
      vertex 18.1 11.9 2.4004
      vertex 19.9 11.9 2.4004
    endloop
  endfacet
  facet normal 0 1 0
    outer loop
      vertex 18.1 11.9 2.4004
      vertex 19.9 11.9 2
      vertex 18.1 11.9 2
    endloop
  endfacet
  facet normal 0 -1 0
    outer loop
      vertex 18.1 10.1 2
      vertex 19.9 10.1 2.4004
      vertex 18.1 10.1 2.4004
    endloop
  endfacet
  facet normal 0 -1 -0
    outer loop
      vertex 19.9 10.1 2.4004
      vertex 18.1 10.1 2
      vertex 19.9 10.1 2
    endloop
  endfacet
  facet normal -0 0 1
    outer loop
      vertex 18.1 11.9 2.4004
      vertex 19.9 10.1 2.4004
      vertex 19.9 11.9 2.4004
    endloop
  endfacet
  facet normal 0 0 1
    outer loop
      vertex 19.9 10.1 2.4004
      vertex 18.1 11.9 2.4004
      vertex 18.1 10.1 2.4004
    endloop
  endfacet
  facet normal 1 -0 0
    outer loop
      vertex 5.9 12.1 2.4004
      vertex 5.9 13.9 2
      vertex 5.9 13.9 2.4004
    endloop
  endfacet
  facet normal 1 0 0
    outer loop
      vertex 5.9 13.9 2
      vertex 5.9 12.1 2.4004
      vertex 5.9 12.1 2
    endloop
  endfacet
  facet normal 0 0 -1
    outer loop
      vertex 4.1 12.1 2
      vertex 5.9 13.9 2
      vertex 5.9 12.1 2
    endloop
  endfacet
  facet normal -0 0 -1
    outer loop
      vertex 5.9 13.9 2
      vertex 4.1 12.1 2
      vertex 4.1 13.9 2
    endloop
  endfacet
  facet normal -1 0 0
    outer loop
      vertex 4.1 12.1 2
      vertex 4.1 13.9 2.4004
      vertex 4.1 13.9 2
    endloop
  endfacet
  facet normal -1 -0 0
    outer loop
      vertex 4.1 13.9 2.4004
      vertex 4.1 12.1 2
      vertex 4.1 12.1 2.4004
    endloop
  endfacet
  facet normal 0 1 -0
    outer loop
      vertex 5.9 13.9 2
      vertex 4.1 13.9 2.4004
      vertex 5.9 13.9 2.4004
    endloop
  endfacet
  facet normal 0 1 0
    outer loop
      vertex 4.1 13.9 2.4004
      vertex 5.9 13.9 2
      vertex 4.1 13.9 2
    endloop
  endfacet
  facet normal 0 -1 0
    outer loop
      vertex 4.1 12.1 2
      vertex 5.9 12.1 2.4004
      vertex 4.1 12.1 2.4004
    endloop
  endfacet
  facet normal 0 -1 -0
    outer loop
      vertex 5.9 12.1 2.4004
      vertex 4.1 12.1 2
      vertex 5.9 12.1 2
    endloop
  endfacet
  facet normal -0 0 1
    outer loop
      vertex 4.1 13.9 2.4004
      vertex 5.9 12.1 2.4004
      vertex 5.9 13.9 2.4004
    endloop
  endfacet
  facet normal 0 0 1
    outer loop
      vertex 5.9 12.1 2.4004
      vertex 4.1 13.9 2.4004
      vertex 4.1 12.1 2.4004
    endloop
  endfacet
  facet normal 1 -0 0
    outer loop
      vertex 7.9 12.1 2.4004
      vertex 7.9 13.9 2
      vertex 7.9 13.9 2.4004
    endloop
  endfacet
  facet normal 1 0 0
    outer loop
      vertex 7.9 13.9 2
      vertex 7.9 12.1 2.4004
      vertex 7.9 12.1 2
    endloop
  endfacet
  facet normal 0 0 -1
    outer loop
      vertex 6.1 12.1 2
      vertex 7.9 13.9 2
      vertex 7.9 12.1 2
    endloop
  endfacet
  facet normal -0 0 -1
    outer loop
      vertex 7.9 13.9 2
      vertex 6.1 12.1 2
      vertex 6.1 13.9 2
    endloop
  endfacet
  facet normal -1 0 0
    outer loop
      vertex 6.1 12.1 2
      vertex 6.1 13.9 2.4004
      vertex 6.1 13.9 2
    endloop
  endfacet
  facet normal -1 -0 0
    outer loop
      vertex 6.1 13.9 2.4004
      vertex 6.1 12.1 2
      vertex 6.1 12.1 2.4004
    endloop
  endfacet
  facet normal 0 1 -0
    outer loop
      vertex 7.9 13.9 2
      vertex 6.1 13.9 2.4004
      vertex 7.9 13.9 2.4004
    endloop
  endfacet
  facet normal 0 1 0
    outer loop
      vertex 6.1 13.9 2.4004
      vertex 7.9 13.9 2
      vertex 6.1 13.9 2
    endloop
  endfacet
  facet normal 0 -1 0
    outer loop
      vertex 6.1 12.1 2
      vertex 7.9 12.1 2.4004
      vertex 6.1 12.1 2.4004
    endloop
  endfacet
  facet normal 0 -1 -0
    outer loop
      vertex 7.9 12.1 2.4004
      vertex 6.1 12.1 2
      vertex 7.9 12.1 2
    endloop
  endfacet
  facet normal -0 0 1
    outer loop
      vertex 6.1 13.9 2.4004
      vertex 7.9 12.1 2.4004
      vertex 7.9 13.9 2.4004
    endloop
  endfacet
  facet normal 0 0 1
    outer loop
      vertex 7.9 12.1 2.4004
      vertex 6.1 13.9 2.4004
      vertex 6.1 12.1 2.4004
    endloop
  endfacet
  facet normal 1 -0 0
    outer loop
      vertex 9.9 12.1 2.4004
      vertex 9.9 13.9 2
      vertex 9.9 13.9 2.4004
    endloop
  endfacet
  facet normal 1 0 0
    outer loop
      vertex 9.9 13.9 2
      vertex 9.9 12.1 2.4004
      vertex 9.9 12.1 2
    endloop
  endfacet
  facet normal 0 0 -1
    outer loop
      vertex 8.1 12.1 2
      vertex 9.9 13.9 2
      vertex 9.9 12.1 2
    endloop
  endfacet
  facet normal -0 0 -1
    outer loop
      vertex 9.9 13.9 2
      vertex 8.1 12.1 2
      vertex 8.1 13.9 2
    endloop
  endfacet
  facet normal -1 0 0
    outer loop
      vertex 8.1 12.1 2
      vertex 8.1 13.9 2.4004
      vertex 8.1 13.9 2
    endloop
  endfacet
  facet normal -1 -0 0
    outer loop
      vertex 8.1 13.9 2.4004
      vertex 8.1 12.1 2
      vertex 8.1 12.1 2.4004
    endloop
  endfacet
  facet normal 0 1 -0
    outer loop
      vertex 9.9 13.9 2
      vertex 8.1 13.9 2.4004
      vertex 9.9 13.9 2.4004
    endloop
  endfacet
  facet normal 0 1 0
    outer loop
      vertex 8.1 13.9 2.4004
      vertex 9.9 13.9 2
      vertex 8.1 13.9 2
    endloop
  endfacet
  facet normal 0 -1 0
    outer loop
      vertex 8.1 12.1 2
      vertex 9.9 12.1 2.4004
      vertex 8.1 12.1 2.4004
    endloop
  endfacet
  facet normal 0 -1 -0
    outer loop
      vertex 9.9 12.1 2.4004
      vertex 8.1 12.1 2
      vertex 9.9 12.1 2
    endloop
  endfacet
  facet normal -0 0 1
    outer loop
      vertex 8.1 13.9 2.4004
      vertex 9.9 12.1 2.4004
      vertex 9.9 13.9 2.4004
    endloop
  endfacet
  facet normal 0 0 1
    outer loop
      vertex 9.9 12.1 2.4004
      vertex 8.1 13.9 2.4004
      vertex 8.1 12.1 2.4004
    endloop
  endfacet
  facet normal 1 -0 0
    outer loop
      vertex 19.9 12.1 2.4004
      vertex 19.9 13.9 2
      vertex 19.9 13.9 2.4004
    endloop
  endfacet
  facet normal 1 0 0
    outer loop
      vertex 19.9 13.9 2
      vertex 19.9 12.1 2.4004
      vertex 19.9 12.1 2
    endloop
  endfacet
  facet normal 0 0 -1
    outer loop
      vertex 18.1 12.1 2
      vertex 19.9 13.9 2
      vertex 19.9 12.1 2
    endloop
  endfacet
  facet normal -0 0 -1
    outer loop
      vertex 19.9 13.9 2
      vertex 18.1 12.1 2
      vertex 18.1 13.9 2
    endloop
  endfacet
  facet normal -1 0 0
    outer loop
      vertex 18.1 12.1 2
      vertex 18.1 13.9 2.4004
      vertex 18.1 13.9 2
    endloop
  endfacet
  facet normal -1 -0 0
    outer loop
      vertex 18.1 13.9 2.4004
      vertex 18.1 12.1 2
      vertex 18.1 12.1 2.4004
    endloop
  endfacet
  facet normal 0 1 -0
    outer loop
      vertex 19.9 13.9 2
      vertex 18.1 13.9 2.4004
      vertex 19.9 13.9 2.4004
    endloop
  endfacet
  facet normal 0 1 0
    outer loop
      vertex 18.1 13.9 2.4004
      vertex 19.9 13.9 2
      vertex 18.1 13.9 2
    endloop
  endfacet
  facet normal 0 -1 0
    outer loop
      vertex 18.1 12.1 2
      vertex 19.9 12.1 2.4004
      vertex 18.1 12.1 2.4004
    endloop
  endfacet
  facet normal 0 -1 -0
    outer loop
      vertex 19.9 12.1 2.4004
      vertex 18.1 12.1 2
      vertex 19.9 12.1 2
    endloop
  endfacet
  facet normal -0 0 1
    outer loop
      vertex 18.1 13.9 2.4004
      vertex 19.9 12.1 2.4004
      vertex 19.9 13.9 2.4004
    endloop
  endfacet
  facet normal 0 0 1
    outer loop
      vertex 19.9 12.1 2.4004
      vertex 18.1 13.9 2.4004
      vertex 18.1 12.1 2.4004
    endloop
  endfacet
  facet normal 1 -0 0
    outer loop
      vertex 7.9 14.1 2.4004
      vertex 7.9 15.9 2
      vertex 7.9 15.9 2.4004
    endloop
  endfacet
  facet normal 1 0 0
    outer loop
      vertex 7.9 15.9 2
      vertex 7.9 14.1 2.4004
      vertex 7.9 14.1 2
    endloop
  endfacet
  facet normal 0 0 -1
    outer loop
      vertex 6.1 14.1 2
      vertex 7.9 15.9 2
      vertex 7.9 14.1 2
    endloop
  endfacet
  facet normal -0 0 -1
    outer loop
      vertex 7.9 15.9 2
      vertex 6.1 14.1 2
      vertex 6.1 15.9 2
    endloop
  endfacet
  facet normal -1 0 0
    outer loop
      vertex 6.1 14.1 2
      vertex 6.1 15.9 2.4004
      vertex 6.1 15.9 2
    endloop
  endfacet
  facet normal -1 -0 0
    outer loop
      vertex 6.1 15.9 2.4004
      vertex 6.1 14.1 2
      vertex 6.1 14.1 2.4004
    endloop
  endfacet
  facet normal 0 1 -0
    outer loop
      vertex 7.9 15.9 2
      vertex 6.1 15.9 2.4004
      vertex 7.9 15.9 2.4004
    endloop
  endfacet
  facet normal 0 1 0
    outer loop
      vertex 6.1 15.9 2.4004
      vertex 7.9 15.9 2
      vertex 6.1 15.9 2
    endloop
  endfacet
  facet normal 0 -1 0
    outer loop
      vertex 6.1 14.1 2
      vertex 7.9 14.1 2.4004
      vertex 6.1 14.1 2.4004
    endloop
  endfacet
  facet normal 0 -1 -0
    outer loop
      vertex 7.9 14.1 2.4004
      vertex 6.1 14.1 2
      vertex 7.9 14.1 2
    endloop
  endfacet
  facet normal -0 0 1
    outer loop
      vertex 6.1 15.9 2.4004
      vertex 7.9 14.1 2.4004
      vertex 7.9 15.9 2.4004
    endloop
  endfacet
  facet normal 0 0 1
    outer loop
      vertex 7.9 14.1 2.4004
      vertex 6.1 15.9 2.4004
      vertex 6.1 14.1 2.4004
    endloop
  endfacet
  facet normal 1 -0 0
    outer loop
      vertex 9.9 14.1 2.4004
      vertex 9.9 15.9 2
      vertex 9.9 15.9 2.4004
    endloop
  endfacet
  facet normal 1 0 0
    outer loop
      vertex 9.9 15.9 2
      vertex 9.9 14.1 2.4004
      vertex 9.9 14.1 2
    endloop
  endfacet
  facet normal 0 0 -1
    outer loop
      vertex 8.1 14.1 2
      vertex 9.9 15.9 2
      vertex 9.9 14.1 2
    endloop
  endfacet
  facet normal -0 0 -1
    outer loop
      vertex 9.9 15.9 2
      vertex 8.1 14.1 2
      vertex 8.1 15.9 2
    endloop
  endfacet
  facet normal -1 0 0
    outer loop
      vertex 8.1 14.1 2
      vertex 8.1 15.9 2.4004
      vertex 8.1 15.9 2
    endloop
  endfacet
  facet normal -1 -0 0
    outer loop
      vertex 8.1 15.9 2.4004
      vertex 8.1 14.1 2
      vertex 8.1 14.1 2.4004
    endloop
  endfacet
  facet normal 0 1 -0
    outer loop
      vertex 9.9 15.9 2
      vertex 8.1 15.9 2.4004
      vertex 9.9 15.9 2.4004
    endloop
  endfacet
  facet normal 0 1 0
    outer loop
      vertex 8.1 15.9 2.4004
      vertex 9.9 15.9 2
      vertex 8.1 15.9 2
    endloop
  endfacet
  facet normal 0 -1 0
    outer loop
      vertex 8.1 14.1 2
      vertex 9.9 14.1 2.4004
      vertex 8.1 14.1 2.4004
    endloop
  endfacet
  facet normal 0 -1 -0
    outer loop
      vertex 9.9 14.1 2.4004
      vertex 8.1 14.1 2
      vertex 9.9 14.1 2
    endloop
  endfacet
  facet normal -0 0 1
    outer loop
      vertex 8.1 15.9 2.4004
      vertex 9.9 14.1 2.4004
      vertex 9.9 15.9 2.4004
    endloop
  endfacet
  facet normal 0 0 1
    outer loop
      vertex 9.9 14.1 2.4004
      vertex 8.1 15.9 2.4004
      vertex 8.1 14.1 2.4004
    endloop
  endfacet
  facet normal 1 -0 0
    outer loop
      vertex 19.9 14.1 2.4004
      vertex 19.9 15.9 2
      vertex 19.9 15.9 2.4004
    endloop
  endfacet
  facet normal 1 0 0
    outer loop
      vertex 19.9 15.9 2
      vertex 19.9 14.1 2.4004
      vertex 19.9 14.1 2
    endloop
  endfacet
  facet normal 0 0 -1
    outer loop
      vertex 18.1 14.1 2
      vertex 19.9 15.9 2
      vertex 19.9 14.1 2
    endloop
  endfacet
  facet normal -0 0 -1
    outer loop
      vertex 19.9 15.9 2
      vertex 18.1 14.1 2
      vertex 18.1 15.9 2
    endloop
  endfacet
  facet normal -1 0 0
    outer loop
      vertex 18.1 14.1 2
      vertex 18.1 15.9 2.4004
      vertex 18.1 15.9 2
    endloop
  endfacet
  facet normal -1 -0 0
    outer loop
      vertex 18.1 15.9 2.4004
      vertex 18.1 14.1 2
      vertex 18.1 14.1 2.4004
    endloop
  endfacet
  facet normal 0 1 -0
    outer loop
      vertex 19.9 15.9 2
      vertex 18.1 15.9 2.4004
      vertex 19.9 15.9 2.4004
    endloop
  endfacet
  facet normal 0 1 0
    outer loop
      vertex 18.1 15.9 2.4004
      vertex 19.9 15.9 2
      vertex 18.1 15.9 2
    endloop
  endfacet
  facet normal 0 -1 0
    outer loop
      vertex 18.1 14.1 2
      vertex 19.9 14.1 2.4004
      vertex 18.1 14.1 2.4004
    endloop
  endfacet
  facet normal 0 -1 -0
    outer loop
      vertex 19.9 14.1 2.4004
      vertex 18.1 14.1 2
      vertex 19.9 14.1 2
    endloop
  endfacet
  facet normal -0 0 1
    outer loop
      vertex 18.1 15.9 2.4004
      vertex 19.9 14.1 2.4004
      vertex 19.9 15.9 2.4004
    endloop
  endfacet
  facet normal 0 0 1
    outer loop
      vertex 19.9 14.1 2.4004
      vertex 18.1 15.9 2.4004
      vertex 18.1 14.1 2.4004
    endloop
  endfacet
  facet normal 1 -0 0
    outer loop
      vertex 9.9 16.1 2.4004
      vertex 9.9 17.9 2
      vertex 9.9 17.9 2.4004
    endloop
  endfacet
  facet normal 1 0 0
    outer loop
      vertex 9.9 17.9 2
      vertex 9.9 16.1 2.4004
      vertex 9.9 16.1 2
    endloop
  endfacet
  facet normal 0 0 -1
    outer loop
      vertex 8.1 16.1 2
      vertex 9.9 17.9 2
      vertex 9.9 16.1 2
    endloop
  endfacet
  facet normal -0 0 -1
    outer loop
      vertex 9.9 17.9 2
      vertex 8.1 16.1 2
      vertex 8.1 17.9 2
    endloop
  endfacet
  facet normal -1 0 0
    outer loop
      vertex 8.1 16.1 2
      vertex 8.1 17.9 2.4004
      vertex 8.1 17.9 2
    endloop
  endfacet
  facet normal -1 -0 0
    outer loop
      vertex 8.1 17.9 2.4004
      vertex 8.1 16.1 2
      vertex 8.1 16.1 2.4004
    endloop
  endfacet
  facet normal 0 1 -0
    outer loop
      vertex 9.9 17.9 2
      vertex 8.1 17.9 2.4004
      vertex 9.9 17.9 2.4004
    endloop
  endfacet
  facet normal 0 1 0
    outer loop
      vertex 8.1 17.9 2.4004
      vertex 9.9 17.9 2
      vertex 8.1 17.9 2
    endloop
  endfacet
  facet normal 0 -1 0
    outer loop
      vertex 8.1 16.1 2
      vertex 9.9 16.1 2.4004
      vertex 8.1 16.1 2.4004
    endloop
  endfacet
  facet normal 0 -1 -0
    outer loop
      vertex 9.9 16.1 2.4004
      vertex 8.1 16.1 2
      vertex 9.9 16.1 2
    endloop
  endfacet
  facet normal -0 0 1
    outer loop
      vertex 8.1 17.9 2.4004
      vertex 9.9 16.1 2.4004
      vertex 9.9 17.9 2.4004
    endloop
  endfacet
  facet normal 0 0 1
    outer loop
      vertex 9.9 16.1 2.4004
      vertex 8.1 17.9 2.4004
      vertex 8.1 16.1 2.4004
    endloop
  endfacet
  facet normal 1 -0 0
    outer loop
      vertex 11.9 16.1 2.4004
      vertex 11.9 17.9 2
      vertex 11.9 17.9 2.4004
    endloop
  endfacet
  facet normal 1 0 0
    outer loop
      vertex 11.9 17.9 2
      vertex 11.9 16.1 2.4004
      vertex 11.9 16.1 2
    endloop
  endfacet
  facet normal 0 0 -1
    outer loop
      vertex 10.1 16.1 2
      vertex 11.9 17.9 2
      vertex 11.9 16.1 2
    endloop
  endfacet
  facet normal -0 0 -1
    outer loop
      vertex 11.9 17.9 2
      vertex 10.1 16.1 2
      vertex 10.1 17.9 2
    endloop
  endfacet
  facet normal -1 0 0
    outer loop
      vertex 10.1 16.1 2
      vertex 10.1 17.9 2.4004
      vertex 10.1 17.9 2
    endloop
  endfacet
  facet normal -1 -0 0
    outer loop
      vertex 10.1 17.9 2.4004
      vertex 10.1 16.1 2
      vertex 10.1 16.1 2.4004
    endloop
  endfacet
  facet normal 0 1 -0
    outer loop
      vertex 11.9 17.9 2
      vertex 10.1 17.9 2.4004
      vertex 11.9 17.9 2.4004
    endloop
  endfacet
  facet normal 0 1 0
    outer loop
      vertex 10.1 17.9 2.4004
      vertex 11.9 17.9 2
      vertex 10.1 17.9 2
    endloop
  endfacet
  facet normal 0 -1 0
    outer loop
      vertex 10.1 16.1 2
      vertex 11.9 16.1 2.4004
      vertex 10.1 16.1 2.4004
    endloop
  endfacet
  facet normal 0 -1 -0
    outer loop
      vertex 11.9 16.1 2.4004
      vertex 10.1 16.1 2
      vertex 11.9 16.1 2
    endloop
  endfacet
  facet normal -0 0 1
    outer loop
      vertex 10.1 17.9 2.4004
      vertex 11.9 16.1 2.4004
      vertex 11.9 17.9 2.4004
    endloop
  endfacet
  facet normal 0 0 1
    outer loop
      vertex 11.9 16.1 2.4004
      vertex 10.1 17.9 2.4004
      vertex 10.1 16.1 2.4004
    endloop
  endfacet
  facet normal 1 -0 0
    outer loop
      vertex 17.9 16.1 2.4004
      vertex 17.9 17.9 2
      vertex 17.9 17.9 2.4004
    endloop
  endfacet
  facet normal 1 0 0
    outer loop
      vertex 17.9 17.9 2
      vertex 17.9 16.1 2.4004
      vertex 17.9 16.1 2
    endloop
  endfacet
  facet normal 0 0 -1
    outer loop
      vertex 16.1 16.1 2
      vertex 17.9 17.9 2
      vertex 17.9 16.1 2
    endloop
  endfacet
  facet normal -0 0 -1
    outer loop
      vertex 17.9 17.9 2
      vertex 16.1 16.1 2
      vertex 16.1 17.9 2
    endloop
  endfacet
  facet normal -1 0 0
    outer loop
      vertex 16.1 16.1 2
      vertex 16.1 17.9 2.4004
      vertex 16.1 17.9 2
    endloop
  endfacet
  facet normal -1 -0 0
    outer loop
      vertex 16.1 17.9 2.4004
      vertex 16.1 16.1 2
      vertex 16.1 16.1 2.4004
    endloop
  endfacet
  facet normal 0 1 -0
    outer loop
      vertex 17.9 17.9 2
      vertex 16.1 17.9 2.4004
      vertex 17.9 17.9 2.4004
    endloop
  endfacet
  facet normal 0 1 0
    outer loop
      vertex 16.1 17.9 2.4004
      vertex 17.9 17.9 2
      vertex 16.1 17.9 2
    endloop
  endfacet
  facet normal 0 -1 0
    outer loop
      vertex 16.1 16.1 2
      vertex 17.9 16.1 2.4004
      vertex 16.1 16.1 2.4004
    endloop
  endfacet
  facet normal 0 -1 -0
    outer loop
      vertex 17.9 16.1 2.4004
      vertex 16.1 16.1 2
      vertex 17.9 16.1 2
    endloop
  endfacet
  facet normal -0 0 1
    outer loop
      vertex 16.1 17.9 2.4004
      vertex 17.9 16.1 2.4004
      vertex 17.9 17.9 2.4004
    endloop
  endfacet
  facet normal 0 0 1
    outer loop
      vertex 17.9 16.1 2.4004
      vertex 16.1 17.9 2.4004
      vertex 16.1 16.1 2.4004
    endloop
  endfacet
  facet normal 1 -0 0
    outer loop
      vertex 19.9 16.1 2.4004
      vertex 19.9 17.9 2
      vertex 19.9 17.9 2.4004
    endloop
  endfacet
  facet normal 1 0 0
    outer loop
      vertex 19.9 17.9 2
      vertex 19.9 16.1 2.4004
      vertex 19.9 16.1 2
    endloop
  endfacet
  facet normal 0 0 -1
    outer loop
      vertex 18.1 16.1 2
      vertex 19.9 17.9 2
      vertex 19.9 16.1 2
    endloop
  endfacet
  facet normal -0 0 -1
    outer loop
      vertex 19.9 17.9 2
      vertex 18.1 16.1 2
      vertex 18.1 17.9 2
    endloop
  endfacet
  facet normal -1 0 0
    outer loop
      vertex 18.1 16.1 2
      vertex 18.1 17.9 2.4004
      vertex 18.1 17.9 2
    endloop
  endfacet
  facet normal -1 -0 0
    outer loop
      vertex 18.1 17.9 2.4004
      vertex 18.1 16.1 2
      vertex 18.1 16.1 2.4004
    endloop
  endfacet
  facet normal 0 1 -0
    outer loop
      vertex 19.9 17.9 2
      vertex 18.1 17.9 2.4004
      vertex 19.9 17.9 2.4004
    endloop
  endfacet
  facet normal 0 1 0
    outer loop
      vertex 18.1 17.9 2.4004
      vertex 19.9 17.9 2
      vertex 18.1 17.9 2
    endloop
  endfacet
  facet normal 0 -1 0
    outer loop
      vertex 18.1 16.1 2
      vertex 19.9 16.1 2.4004
      vertex 18.1 16.1 2.4004
    endloop
  endfacet
  facet normal 0 -1 -0
    outer loop
      vertex 19.9 16.1 2.4004
      vertex 18.1 16.1 2
      vertex 19.9 16.1 2
    endloop
  endfacet
  facet normal -0 0 1
    outer loop
      vertex 18.1 17.9 2.4004
      vertex 19.9 16.1 2.4004
      vertex 19.9 17.9 2.4004
    endloop
  endfacet
  facet normal 0 0 1
    outer loop
      vertex 19.9 16.1 2.4004
      vertex 18.1 17.9 2.4004
      vertex 18.1 16.1 2.4004
    endloop
  endfacet
  facet normal 1 -0 0
    outer loop
      vertex 9.9 18.1 2.4004
      vertex 9.9 19.9 2
      vertex 9.9 19.9 2.4004
    endloop
  endfacet
  facet normal 1 0 0
    outer loop
      vertex 9.9 19.9 2
      vertex 9.9 18.1 2.4004
      vertex 9.9 18.1 2
    endloop
  endfacet
  facet normal 0 0 -1
    outer loop
      vertex 8.1 18.1 2
      vertex 9.9 19.9 2
      vertex 9.9 18.1 2
    endloop
  endfacet
  facet normal -0 0 -1
    outer loop
      vertex 9.9 19.9 2
      vertex 8.1 18.1 2
      vertex 8.1 19.9 2
    endloop
  endfacet
  facet normal -1 0 0
    outer loop
      vertex 8.1 18.1 2
      vertex 8.1 19.9 2.4004
      vertex 8.1 19.9 2
    endloop
  endfacet
  facet normal -1 -0 0
    outer loop
      vertex 8.1 19.9 2.4004
      vertex 8.1 18.1 2
      vertex 8.1 18.1 2.4004
    endloop
  endfacet
  facet normal 0 1 -0
    outer loop
      vertex 9.9 19.9 2
      vertex 8.1 19.9 2.4004
      vertex 9.9 19.9 2.4004
    endloop
  endfacet
  facet normal 0 1 0
    outer loop
      vertex 8.1 19.9 2.4004
      vertex 9.9 19.9 2
      vertex 8.1 19.9 2
    endloop
  endfacet
  facet normal 0 -1 0
    outer loop
      vertex 8.1 18.1 2
      vertex 9.9 18.1 2.4004
      vertex 8.1 18.1 2.4004
    endloop
  endfacet
  facet normal 0 -1 -0
    outer loop
      vertex 9.9 18.1 2.4004
      vertex 8.1 18.1 2
      vertex 9.9 18.1 2
    endloop
  endfacet
  facet normal -0 0 1
    outer loop
      vertex 8.1 19.9 2.4004
      vertex 9.9 18.1 2.4004
      vertex 9.9 19.9 2.4004
    endloop
  endfacet
  facet normal 0 0 1
    outer loop
      vertex 9.9 18.1 2.4004
      vertex 8.1 19.9 2.4004
      vertex 8.1 18.1 2.4004
    endloop
  endfacet
  facet normal 1 -0 0
    outer loop
      vertex 11.9 18.1 2.4004
      vertex 11.9 19.9 2
      vertex 11.9 19.9 2.4004
    endloop
  endfacet
  facet normal 1 0 0
    outer loop
      vertex 11.9 19.9 2
      vertex 11.9 18.1 2.4004
      vertex 11.9 18.1 2
    endloop
  endfacet
  facet normal 0 0 -1
    outer loop
      vertex 10.1 18.1 2
      vertex 11.9 19.9 2
      vertex 11.9 18.1 2
    endloop
  endfacet
  facet normal -0 0 -1
    outer loop
      vertex 11.9 19.9 2
      vertex 10.1 18.1 2
      vertex 10.1 19.9 2
    endloop
  endfacet
  facet normal -1 0 0
    outer loop
      vertex 10.1 18.1 2
      vertex 10.1 19.9 2.4004
      vertex 10.1 19.9 2
    endloop
  endfacet
  facet normal -1 -0 0
    outer loop
      vertex 10.1 19.9 2.4004
      vertex 10.1 18.1 2
      vertex 10.1 18.1 2.4004
    endloop
  endfacet
  facet normal 0 1 -0
    outer loop
      vertex 11.9 19.9 2
      vertex 10.1 19.9 2.4004
      vertex 11.9 19.9 2.4004
    endloop
  endfacet
  facet normal 0 1 0
    outer loop
      vertex 10.1 19.9 2.4004
      vertex 11.9 19.9 2
      vertex 10.1 19.9 2
    endloop
  endfacet
  facet normal 0 -1 0
    outer loop
      vertex 10.1 18.1 2
      vertex 11.9 18.1 2.4004
      vertex 10.1 18.1 2.4004
    endloop
  endfacet
  facet normal 0 -1 -0
    outer loop
      vertex 11.9 18.1 2.4004
      vertex 10.1 18.1 2
      vertex 11.9 18.1 2
    endloop
  endfacet
  facet normal -0 0 1
    outer loop
      vertex 10.1 19.9 2.4004
      vertex 11.9 18.1 2.4004
      vertex 11.9 19.9 2.4004
    endloop
  endfacet
  facet normal 0 0 1
    outer loop
      vertex 11.9 18.1 2.4004
      vertex 10.1 19.9 2.4004
      vertex 10.1 18.1 2.4004
    endloop
  endfacet
  facet normal 1 -0 0
    outer loop
      vertex 13.9 18.1 2.4004
      vertex 13.9 19.9 2
      vertex 13.9 19.9 2.4004
    endloop
  endfacet
  facet normal 1 0 0
    outer loop
      vertex 13.9 19.9 2
      vertex 13.9 18.1 2.4004
      vertex 13.9 18.1 2
    endloop
  endfacet
  facet normal 0 0 -1
    outer loop
      vertex 12.1 18.1 2
      vertex 13.9 19.9 2
      vertex 13.9 18.1 2
    endloop
  endfacet
  facet normal -0 0 -1
    outer loop
      vertex 13.9 19.9 2
      vertex 12.1 18.1 2
      vertex 12.1 19.9 2
    endloop
  endfacet
  facet normal -1 0 0
    outer loop
      vertex 12.1 18.1 2
      vertex 12.1 19.9 2.4004
      vertex 12.1 19.9 2
    endloop
  endfacet
  facet normal -1 -0 0
    outer loop
      vertex 12.1 19.9 2.4004
      vertex 12.1 18.1 2
      vertex 12.1 18.1 2.4004
    endloop
  endfacet
  facet normal 0 1 -0
    outer loop
      vertex 13.9 19.9 2
      vertex 12.1 19.9 2.4004
      vertex 13.9 19.9 2.4004
    endloop
  endfacet
  facet normal 0 1 0
    outer loop
      vertex 12.1 19.9 2.4004
      vertex 13.9 19.9 2
      vertex 12.1 19.9 2
    endloop
  endfacet
  facet normal 0 -1 0
    outer loop
      vertex 12.1 18.1 2
      vertex 13.9 18.1 2.4004
      vertex 12.1 18.1 2.4004
    endloop
  endfacet
  facet normal 0 -1 -0
    outer loop
      vertex 13.9 18.1 2.4004
      vertex 12.1 18.1 2
      vertex 13.9 18.1 2
    endloop
  endfacet
  facet normal -0 0 1
    outer loop
      vertex 12.1 19.9 2.4004
      vertex 13.9 18.1 2.4004
      vertex 13.9 19.9 2.4004
    endloop
  endfacet
  facet normal 0 0 1
    outer loop
      vertex 13.9 18.1 2.4004
      vertex 12.1 19.9 2.4004
      vertex 12.1 18.1 2.4004
    endloop
  endfacet
  facet normal 1 -0 0
    outer loop
      vertex 15.9 18.1 2.4004
      vertex 15.9 19.9 2
      vertex 15.9 19.9 2.4004
    endloop
  endfacet
  facet normal 1 0 0
    outer loop
      vertex 15.9 19.9 2
      vertex 15.9 18.1 2.4004
      vertex 15.9 18.1 2
    endloop
  endfacet
  facet normal 0 0 -1
    outer loop
      vertex 14.1 18.1 2
      vertex 15.9 19.9 2
      vertex 15.9 18.1 2
    endloop
  endfacet
  facet normal -0 0 -1
    outer loop
      vertex 15.9 19.9 2
      vertex 14.1 18.1 2
      vertex 14.1 19.9 2
    endloop
  endfacet
  facet normal -1 0 0
    outer loop
      vertex 14.1 18.1 2
      vertex 14.1 19.9 2.4004
      vertex 14.1 19.9 2
    endloop
  endfacet
  facet normal -1 -0 0
    outer loop
      vertex 14.1 19.9 2.4004
      vertex 14.1 18.1 2
      vertex 14.1 18.1 2.4004
    endloop
  endfacet
  facet normal 0 1 -0
    outer loop
      vertex 15.9 19.9 2
      vertex 14.1 19.9 2.4004
      vertex 15.9 19.9 2.4004
    endloop
  endfacet
  facet normal 0 1 0
    outer loop
      vertex 14.1 19.9 2.4004
      vertex 15.9 19.9 2
      vertex 14.1 19.9 2
    endloop
  endfacet
  facet normal 0 -1 0
    outer loop
      vertex 14.1 18.1 2
      vertex 15.9 18.1 2.4004
      vertex 14.1 18.1 2.4004
    endloop
  endfacet
  facet normal 0 -1 -0
    outer loop
      vertex 15.9 18.1 2.4004
      vertex 14.1 18.1 2
      vertex 15.9 18.1 2
    endloop
  endfacet
  facet normal -0 0 1
    outer loop
      vertex 14.1 19.9 2.4004
      vertex 15.9 18.1 2.4004
      vertex 15.9 19.9 2.4004
    endloop
  endfacet
  facet normal 0 0 1
    outer loop
      vertex 15.9 18.1 2.4004
      vertex 14.1 19.9 2.4004
      vertex 14.1 18.1 2.4004
    endloop
  endfacet
  facet normal 1 -0 0
    outer loop
      vertex 17.9 18.1 2.4004
      vertex 17.9 19.9 2
      vertex 17.9 19.9 2.4004
    endloop
  endfacet
  facet normal 1 0 0
    outer loop
      vertex 17.9 19.9 2
      vertex 17.9 18.1 2.4004
      vertex 17.9 18.1 2
    endloop
  endfacet
  facet normal 0 0 -1
    outer loop
      vertex 16.1 18.1 2
      vertex 17.9 19.9 2
      vertex 17.9 18.1 2
    endloop
  endfacet
  facet normal -0 0 -1
    outer loop
      vertex 17.9 19.9 2
      vertex 16.1 18.1 2
      vertex 16.1 19.9 2
    endloop
  endfacet
  facet normal -1 0 0
    outer loop
      vertex 16.1 18.1 2
      vertex 16.1 19.9 2.4004
      vertex 16.1 19.9 2
    endloop
  endfacet
  facet normal -1 -0 0
    outer loop
      vertex 16.1 19.9 2.4004
      vertex 16.1 18.1 2
      vertex 16.1 18.1 2.4004
    endloop
  endfacet
  facet normal 0 1 -0
    outer loop
      vertex 17.9 19.9 2
      vertex 16.1 19.9 2.4004
      vertex 17.9 19.9 2.4004
    endloop
  endfacet
  facet normal 0 1 0
    outer loop
      vertex 16.1 19.9 2.4004
      vertex 17.9 19.9 2
      vertex 16.1 19.9 2
    endloop
  endfacet
  facet normal 0 -1 0
    outer loop
      vertex 16.1 18.1 2
      vertex 17.9 18.1 2.4004
      vertex 16.1 18.1 2.4004
    endloop
  endfacet
  facet normal 0 -1 -0
    outer loop
      vertex 17.9 18.1 2.4004
      vertex 16.1 18.1 2
      vertex 17.9 18.1 2
    endloop
  endfacet
  facet normal -0 0 1
    outer loop
      vertex 16.1 19.9 2.4004
      vertex 17.9 18.1 2.4004
      vertex 17.9 19.9 2.4004
    endloop
  endfacet
  facet normal 0 0 1
    outer loop
      vertex 17.9 18.1 2.4004
      vertex 16.1 19.9 2.4004
      vertex 16.1 18.1 2.4004
    endloop
  endfacet
  facet normal 1 -0 0
    outer loop
      vertex 19.9 18.1 2.4004
      vertex 19.9 19.9 2
      vertex 19.9 19.9 2.4004
    endloop
  endfacet
  facet normal 1 0 0
    outer loop
      vertex 19.9 19.9 2
      vertex 19.9 18.1 2.4004
      vertex 19.9 18.1 2
    endloop
  endfacet
  facet normal 0 0 -1
    outer loop
      vertex 18.1 18.1 2
      vertex 19.9 19.9 2
      vertex 19.9 18.1 2
    endloop
  endfacet
  facet normal -0 0 -1
    outer loop
      vertex 19.9 19.9 2
      vertex 18.1 18.1 2
      vertex 18.1 19.9 2
    endloop
  endfacet
  facet normal -1 0 0
    outer loop
      vertex 18.1 18.1 2
      vertex 18.1 19.9 2.4004
      vertex 18.1 19.9 2
    endloop
  endfacet
  facet normal -1 -0 0
    outer loop
      vertex 18.1 19.9 2.4004
      vertex 18.1 18.1 2
      vertex 18.1 18.1 2.4004
    endloop
  endfacet
  facet normal 0 1 -0
    outer loop
      vertex 19.9 19.9 2
      vertex 18.1 19.9 2.4004
      vertex 19.9 19.9 2.4004
    endloop
  endfacet
  facet normal 0 1 0
    outer loop
      vertex 18.1 19.9 2.4004
      vertex 19.9 19.9 2
      vertex 18.1 19.9 2
    endloop
  endfacet
  facet normal 0 -1 0
    outer loop
      vertex 18.1 18.1 2
      vertex 19.9 18.1 2.4004
      vertex 18.1 18.1 2.4004
    endloop
  endfacet
  facet normal 0 -1 -0
    outer loop
      vertex 19.9 18.1 2.4004
      vertex 18.1 18.1 2
      vertex 19.9 18.1 2
    endloop
  endfacet
  facet normal -0 0 1
    outer loop
      vertex 18.1 19.9 2.4004
      vertex 19.9 18.1 2.4004
      vertex 19.9 19.9 2.4004
    endloop
  endfacet
  facet normal 0 0 1
    outer loop
      vertex 19.9 18.1 2.4004
      vertex 18.1 19.9 2.4004
      vertex 18.1 18.1 2.4004
    endloop
  endfacet
  facet normal 1 -0 0
    outer loop
      vertex 7.9 20.1 2.4004
      vertex 7.9 21.9 2
      vertex 7.9 21.9 2.4004
    endloop
  endfacet
  facet normal 1 0 0
    outer loop
      vertex 7.9 21.9 2
      vertex 7.9 20.1 2.4004
      vertex 7.9 20.1 2
    endloop
  endfacet
  facet normal 0 0 -1
    outer loop
      vertex 6.1 20.1 2
      vertex 7.9 21.9 2
      vertex 7.9 20.1 2
    endloop
  endfacet
  facet normal -0 0 -1
    outer loop
      vertex 7.9 21.9 2
      vertex 6.1 20.1 2
      vertex 6.1 21.9 2
    endloop
  endfacet
  facet normal -1 0 0
    outer loop
      vertex 6.1 20.1 2
      vertex 6.1 21.9 2.4004
      vertex 6.1 21.9 2
    endloop
  endfacet
  facet normal -1 -0 0
    outer loop
      vertex 6.1 21.9 2.4004
      vertex 6.1 20.1 2
      vertex 6.1 20.1 2.4004
    endloop
  endfacet
  facet normal 0 1 -0
    outer loop
      vertex 7.9 21.9 2
      vertex 6.1 21.9 2.4004
      vertex 7.9 21.9 2.4004
    endloop
  endfacet
  facet normal 0 1 0
    outer loop
      vertex 6.1 21.9 2.4004
      vertex 7.9 21.9 2
      vertex 6.1 21.9 2
    endloop
  endfacet
  facet normal 0 -1 0
    outer loop
      vertex 6.1 20.1 2
      vertex 7.9 20.1 2.4004
      vertex 6.1 20.1 2.4004
    endloop
  endfacet
  facet normal 0 -1 -0
    outer loop
      vertex 7.9 20.1 2.4004
      vertex 6.1 20.1 2
      vertex 7.9 20.1 2
    endloop
  endfacet
  facet normal -0 0 1
    outer loop
      vertex 6.1 21.9 2.4004
      vertex 7.9 20.1 2.4004
      vertex 7.9 21.9 2.4004
    endloop
  endfacet
  facet normal 0 0 1
    outer loop
      vertex 7.9 20.1 2.4004
      vertex 6.1 21.9 2.4004
      vertex 6.1 20.1 2.4004
    endloop
  endfacet
  facet normal 1 -0 0
    outer loop
      vertex 9.9 20.1 2.4004
      vertex 9.9 21.9 2
      vertex 9.9 21.9 2.4004
    endloop
  endfacet
  facet normal 1 0 0
    outer loop
      vertex 9.9 21.9 2
      vertex 9.9 20.1 2.4004
      vertex 9.9 20.1 2
    endloop
  endfacet
  facet normal 0 0 -1
    outer loop
      vertex 8.1 20.1 2
      vertex 9.9 21.9 2
      vertex 9.9 20.1 2
    endloop
  endfacet
  facet normal -0 0 -1
    outer loop
      vertex 9.9 21.9 2
      vertex 8.1 20.1 2
      vertex 8.1 21.9 2
    endloop
  endfacet
  facet normal -1 0 0
    outer loop
      vertex 8.1 20.1 2
      vertex 8.1 21.9 2.4004
      vertex 8.1 21.9 2
    endloop
  endfacet
  facet normal -1 -0 0
    outer loop
      vertex 8.1 21.9 2.4004
      vertex 8.1 20.1 2
      vertex 8.1 20.1 2.4004
    endloop
  endfacet
  facet normal 0 1 -0
    outer loop
      vertex 9.9 21.9 2
      vertex 8.1 21.9 2.4004
      vertex 9.9 21.9 2.4004
    endloop
  endfacet
  facet normal 0 1 0
    outer loop
      vertex 8.1 21.9 2.4004
      vertex 9.9 21.9 2
      vertex 8.1 21.9 2
    endloop
  endfacet
  facet normal 0 -1 0
    outer loop
      vertex 8.1 20.1 2
      vertex 9.9 20.1 2.4004
      vertex 8.1 20.1 2.4004
    endloop
  endfacet
  facet normal 0 -1 -0
    outer loop
      vertex 9.9 20.1 2.4004
      vertex 8.1 20.1 2
      vertex 9.9 20.1 2
    endloop
  endfacet
  facet normal -0 0 1
    outer loop
      vertex 8.1 21.9 2.4004
      vertex 9.9 20.1 2.4004
      vertex 9.9 21.9 2.4004
    endloop
  endfacet
  facet normal 0 0 1
    outer loop
      vertex 9.9 20.1 2.4004
      vertex 8.1 21.9 2.4004
      vertex 8.1 20.1 2.4004
    endloop
  endfacet
endsolid OpenSCAD_Model
