solid OpenSCAD_Model
  facet normal 1 -0 0
    outer loop
      vertex 13.9 0.0999994 3.4004
      vertex 13.9 1.9 3
      vertex 13.9 1.9 3.4004
    endloop
  endfacet
  facet normal 1 0 0
    outer loop
      vertex 13.9 1.9 3
      vertex 13.9 0.0999994 3.4004
      vertex 13.9 0.0999994 3
    endloop
  endfacet
  facet normal 0 0 -1
    outer loop
      vertex 12.1 0.0999994 3
      vertex 13.9 1.9 3
      vertex 13.9 0.0999994 3
    endloop
  endfacet
  facet normal -0 0 -1
    outer loop
      vertex 13.9 1.9 3
      vertex 12.1 0.0999994 3
      vertex 12.1 1.9 3
    endloop
  endfacet
  facet normal -1 0 0
    outer loop
      vertex 12.1 0.0999994 3
      vertex 12.1 1.9 3.4004
      vertex 12.1 1.9 3
    endloop
  endfacet
  facet normal -1 -0 0
    outer loop
      vertex 12.1 1.9 3.4004
      vertex 12.1 0.0999994 3
      vertex 12.1 0.0999994 3.4004
    endloop
  endfacet
  facet normal 0 1 -0
    outer loop
      vertex 13.9 1.9 3
      vertex 12.1 1.9 3.4004
      vertex 13.9 1.9 3.4004
    endloop
  endfacet
  facet normal 0 1 0
    outer loop
      vertex 12.1 1.9 3.4004
      vertex 13.9 1.9 3
      vertex 12.1 1.9 3
    endloop
  endfacet
  facet normal 0 -1 0
    outer loop
      vertex 12.1 0.0999994 3
      vertex 13.9 0.0999994 3.4004
      vertex 12.1 0.0999994 3.4004
    endloop
  endfacet
  facet normal 0 -1 -0
    outer loop
      vertex 13.9 0.0999994 3.4004
      vertex 12.1 0.0999994 3
      vertex 13.9 0.0999994 3
    endloop
  endfacet
  facet normal -0 0 1
    outer loop
      vertex 12.1 1.9 3.4004
      vertex 13.9 0.0999994 3.4004
      vertex 13.9 1.9 3.4004
    endloop
  endfacet
  facet normal 0 0 1
    outer loop
      vertex 13.9 0.0999994 3.4004
      vertex 12.1 1.9 3.4004
      vertex 12.1 0.0999994 3.4004
    endloop
  endfacet
  facet normal 1 -0 0
    outer loop
      vertex 15.9 0.0999994 3.4004
      vertex 15.9 1.9 3
      vertex 15.9 1.9 3.4004
    endloop
  endfacet
  facet normal 1 0 0
    outer loop
      vertex 15.9 1.9 3
      vertex 15.9 0.0999994 3.4004
      vertex 15.9 0.0999994 3
    endloop
  endfacet
  facet normal 0 0 -1
    outer loop
      vertex 14.1 0.0999994 3
      vertex 15.9 1.9 3
      vertex 15.9 0.0999994 3
    endloop
  endfacet
  facet normal -0 0 -1
    outer loop
      vertex 15.9 1.9 3
      vertex 14.1 0.0999994 3
      vertex 14.1 1.9 3
    endloop
  endfacet
  facet normal -1 0 0
    outer loop
      vertex 14.1 0.0999994 3
      vertex 14.1 1.9 3.4004
      vertex 14.1 1.9 3
    endloop
  endfacet
  facet normal -1 -0 0
    outer loop
      vertex 14.1 1.9 3.4004
      vertex 14.1 0.0999994 3
      vertex 14.1 0.0999994 3.4004
    endloop
  endfacet
  facet normal 0 1 -0
    outer loop
      vertex 15.9 1.9 3
      vertex 14.1 1.9 3.4004
      vertex 15.9 1.9 3.4004
    endloop
  endfacet
  facet normal 0 1 0
    outer loop
      vertex 14.1 1.9 3.4004
      vertex 15.9 1.9 3
      vertex 14.1 1.9 3
    endloop
  endfacet
  facet normal 0 -1 0
    outer loop
      vertex 14.1 0.0999994 3
      vertex 15.9 0.0999994 3.4004
      vertex 14.1 0.0999994 3.4004
    endloop
  endfacet
  facet normal 0 -1 -0
    outer loop
      vertex 15.9 0.0999994 3.4004
      vertex 14.1 0.0999994 3
      vertex 15.9 0.0999994 3
    endloop
  endfacet
  facet normal -0 0 1
    outer loop
      vertex 14.1 1.9 3.4004
      vertex 15.9 0.0999994 3.4004
      vertex 15.9 1.9 3.4004
    endloop
  endfacet
  facet normal 0 0 1
    outer loop
      vertex 15.9 0.0999994 3.4004
      vertex 14.1 1.9 3.4004
      vertex 14.1 0.0999994 3.4004
    endloop
  endfacet
  facet normal 1 -0 0
    outer loop
      vertex 17.9 0.0999994 3.4004
      vertex 17.9 1.9 3
      vertex 17.9 1.9 3.4004
    endloop
  endfacet
  facet normal 1 0 0
    outer loop
      vertex 17.9 1.9 3
      vertex 17.9 0.0999994 3.4004
      vertex 17.9 0.0999994 3
    endloop
  endfacet
  facet normal 0 0 -1
    outer loop
      vertex 16.1 0.0999994 3
      vertex 17.9 1.9 3
      vertex 17.9 0.0999994 3
    endloop
  endfacet
  facet normal -0 0 -1
    outer loop
      vertex 17.9 1.9 3
      vertex 16.1 0.0999994 3
      vertex 16.1 1.9 3
    endloop
  endfacet
  facet normal -1 0 0
    outer loop
      vertex 16.1 0.0999994 3
      vertex 16.1 1.9 3.4004
      vertex 16.1 1.9 3
    endloop
  endfacet
  facet normal -1 -0 0
    outer loop
      vertex 16.1 1.9 3.4004
      vertex 16.1 0.0999994 3
      vertex 16.1 0.0999994 3.4004
    endloop
  endfacet
  facet normal 0 1 -0
    outer loop
      vertex 17.9 1.9 3
      vertex 16.1 1.9 3.4004
      vertex 17.9 1.9 3.4004
    endloop
  endfacet
  facet normal 0 1 0
    outer loop
      vertex 16.1 1.9 3.4004
      vertex 17.9 1.9 3
      vertex 16.1 1.9 3
    endloop
  endfacet
  facet normal 0 -1 0
    outer loop
      vertex 16.1 0.0999994 3
      vertex 17.9 0.0999994 3.4004
      vertex 16.1 0.0999994 3.4004
    endloop
  endfacet
  facet normal 0 -1 -0
    outer loop
      vertex 17.9 0.0999994 3.4004
      vertex 16.1 0.0999994 3
      vertex 17.9 0.0999994 3
    endloop
  endfacet
  facet normal -0 0 1
    outer loop
      vertex 16.1 1.9 3.4004
      vertex 17.9 0.0999994 3.4004
      vertex 17.9 1.9 3.4004
    endloop
  endfacet
  facet normal 0 0 1
    outer loop
      vertex 17.9 0.0999994 3.4004
      vertex 16.1 1.9 3.4004
      vertex 16.1 0.0999994 3.4004
    endloop
  endfacet
  facet normal 1 -0 0
    outer loop
      vertex 19.9 0.0999994 3.4004
      vertex 19.9 1.9 3
      vertex 19.9 1.9 3.4004
    endloop
  endfacet
  facet normal 1 0 0
    outer loop
      vertex 19.9 1.9 3
      vertex 19.9 0.0999994 3.4004
      vertex 19.9 0.0999994 3
    endloop
  endfacet
  facet normal 0 0 -1
    outer loop
      vertex 18.1 0.0999994 3
      vertex 19.9 1.9 3
      vertex 19.9 0.0999994 3
    endloop
  endfacet
  facet normal -0 0 -1
    outer loop
      vertex 19.9 1.9 3
      vertex 18.1 0.0999994 3
      vertex 18.1 1.9 3
    endloop
  endfacet
  facet normal -1 0 0
    outer loop
      vertex 18.1 0.0999994 3
      vertex 18.1 1.9 3.4004
      vertex 18.1 1.9 3
    endloop
  endfacet
  facet normal -1 -0 0
    outer loop
      vertex 18.1 1.9 3.4004
      vertex 18.1 0.0999994 3
      vertex 18.1 0.0999994 3.4004
    endloop
  endfacet
  facet normal 0 1 -0
    outer loop
      vertex 19.9 1.9 3
      vertex 18.1 1.9 3.4004
      vertex 19.9 1.9 3.4004
    endloop
  endfacet
  facet normal 0 1 0
    outer loop
      vertex 18.1 1.9 3.4004
      vertex 19.9 1.9 3
      vertex 18.1 1.9 3
    endloop
  endfacet
  facet normal 0 -1 0
    outer loop
      vertex 18.1 0.0999994 3
      vertex 19.9 0.0999994 3.4004
      vertex 18.1 0.0999994 3.4004
    endloop
  endfacet
  facet normal 0 -1 -0
    outer loop
      vertex 19.9 0.0999994 3.4004
      vertex 18.1 0.0999994 3
      vertex 19.9 0.0999994 3
    endloop
  endfacet
  facet normal -0 0 1
    outer loop
      vertex 18.1 1.9 3.4004
      vertex 19.9 0.0999994 3.4004
      vertex 19.9 1.9 3.4004
    endloop
  endfacet
  facet normal 0 0 1
    outer loop
      vertex 19.9 0.0999994 3.4004
      vertex 18.1 1.9 3.4004
      vertex 18.1 0.0999994 3.4004
    endloop
  endfacet
  facet normal 1 -0 0
    outer loop
      vertex 9.9 2.1 3.4004
      vertex 9.9 3.9 3
      vertex 9.9 3.9 3.4004
    endloop
  endfacet
  facet normal 1 0 0
    outer loop
      vertex 9.9 3.9 3
      vertex 9.9 2.1 3.4004
      vertex 9.9 2.1 3
    endloop
  endfacet
  facet normal 0 0 -1
    outer loop
      vertex 8.1 2.1 3
      vertex 9.9 3.9 3
      vertex 9.9 2.1 3
    endloop
  endfacet
  facet normal -0 0 -1
    outer loop
      vertex 9.9 3.9 3
      vertex 8.1 2.1 3
      vertex 8.1 3.9 3
    endloop
  endfacet
  facet normal -1 0 0
    outer loop
      vertex 8.1 2.1 3
      vertex 8.1 3.9 3.4004
      vertex 8.1 3.9 3
    endloop
  endfacet
  facet normal -1 -0 0
    outer loop
      vertex 8.1 3.9 3.4004
      vertex 8.1 2.1 3
      vertex 8.1 2.1 3.4004
    endloop
  endfacet
  facet normal 0 1 -0
    outer loop
      vertex 9.9 3.9 3
      vertex 8.1 3.9 3.4004
      vertex 9.9 3.9 3.4004
    endloop
  endfacet
  facet normal 0 1 0
    outer loop
      vertex 8.1 3.9 3.4004
      vertex 9.9 3.9 3
      vertex 8.1 3.9 3
    endloop
  endfacet
  facet normal 0 -1 0
    outer loop
      vertex 8.1 2.1 3
      vertex 9.9 2.1 3.4004
      vertex 8.1 2.1 3.4004
    endloop
  endfacet
  facet normal 0 -1 -0
    outer loop
      vertex 9.9 2.1 3.4004
      vertex 8.1 2.1 3
      vertex 9.9 2.1 3
    endloop
  endfacet
  facet normal -0 0 1
    outer loop
      vertex 8.1 3.9 3.4004
      vertex 9.9 2.1 3.4004
      vertex 9.9 3.9 3.4004
    endloop
  endfacet
  facet normal 0 0 1
    outer loop
      vertex 9.9 2.1 3.4004
      vertex 8.1 3.9 3.4004
      vertex 8.1 2.1 3.4004
    endloop
  endfacet
  facet normal 1 -0 0
    outer loop
      vertex 11.9 2.1 3.4004
      vertex 11.9 3.9 3
      vertex 11.9 3.9 3.4004
    endloop
  endfacet
  facet normal 1 0 0
    outer loop
      vertex 11.9 3.9 3
      vertex 11.9 2.1 3.4004
      vertex 11.9 2.1 3
    endloop
  endfacet
  facet normal 0 0 -1
    outer loop
      vertex 10.1 2.1 3
      vertex 11.9 3.9 3
      vertex 11.9 2.1 3
    endloop
  endfacet
  facet normal -0 0 -1
    outer loop
      vertex 11.9 3.9 3
      vertex 10.1 2.1 3
      vertex 10.1 3.9 3
    endloop
  endfacet
  facet normal -1 0 0
    outer loop
      vertex 10.1 2.1 3
      vertex 10.1 3.9 3.4004
      vertex 10.1 3.9 3
    endloop
  endfacet
  facet normal -1 -0 0
    outer loop
      vertex 10.1 3.9 3.4004
      vertex 10.1 2.1 3
      vertex 10.1 2.1 3.4004
    endloop
  endfacet
  facet normal 0 1 -0
    outer loop
      vertex 11.9 3.9 3
      vertex 10.1 3.9 3.4004
      vertex 11.9 3.9 3.4004
    endloop
  endfacet
  facet normal 0 1 0
    outer loop
      vertex 10.1 3.9 3.4004
      vertex 11.9 3.9 3
      vertex 10.1 3.9 3
    endloop
  endfacet
  facet normal 0 -1 0
    outer loop
      vertex 10.1 2.1 3
      vertex 11.9 2.1 3.4004
      vertex 10.1 2.1 3.4004
    endloop
  endfacet
  facet normal 0 -1 -0
    outer loop
      vertex 11.9 2.1 3.4004
      vertex 10.1 2.1 3
      vertex 11.9 2.1 3
    endloop
  endfacet
  facet normal -0 0 1
    outer loop
      vertex 10.1 3.9 3.4004
      vertex 11.9 2.1 3.4004
      vertex 11.9 3.9 3.4004
    endloop
  endfacet
  facet normal 0 0 1
    outer loop
      vertex 11.9 2.1 3.4004
      vertex 10.1 3.9 3.4004
      vertex 10.1 2.1 3.4004
    endloop
  endfacet
  facet normal 1 -0 0
    outer loop
      vertex 13.9 2.1 3.4004
      vertex 13.9 3.9 3
      vertex 13.9 3.9 3.4004
    endloop
  endfacet
  facet normal 1 0 0
    outer loop
      vertex 13.9 3.9 3
      vertex 13.9 2.1 3.4004
      vertex 13.9 2.1 3
    endloop
  endfacet
  facet normal 0 0 -1
    outer loop
      vertex 12.1 2.1 3
      vertex 13.9 3.9 3
      vertex 13.9 2.1 3
    endloop
  endfacet
  facet normal -0 0 -1
    outer loop
      vertex 13.9 3.9 3
      vertex 12.1 2.1 3
      vertex 12.1 3.9 3
    endloop
  endfacet
  facet normal -1 0 0
    outer loop
      vertex 12.1 2.1 3
      vertex 12.1 3.9 3.4004
      vertex 12.1 3.9 3
    endloop
  endfacet
  facet normal -1 -0 0
    outer loop
      vertex 12.1 3.9 3.4004
      vertex 12.1 2.1 3
      vertex 12.1 2.1 3.4004
    endloop
  endfacet
  facet normal 0 1 -0
    outer loop
      vertex 13.9 3.9 3
      vertex 12.1 3.9 3.4004
      vertex 13.9 3.9 3.4004
    endloop
  endfacet
  facet normal 0 1 0
    outer loop
      vertex 12.1 3.9 3.4004
      vertex 13.9 3.9 3
      vertex 12.1 3.9 3
    endloop
  endfacet
  facet normal 0 -1 0
    outer loop
      vertex 12.1 2.1 3
      vertex 13.9 2.1 3.4004
      vertex 12.1 2.1 3.4004
    endloop
  endfacet
  facet normal 0 -1 -0
    outer loop
      vertex 13.9 2.1 3.4004
      vertex 12.1 2.1 3
      vertex 13.9 2.1 3
    endloop
  endfacet
  facet normal -0 0 1
    outer loop
      vertex 12.1 3.9 3.4004
      vertex 13.9 2.1 3.4004
      vertex 13.9 3.9 3.4004
    endloop
  endfacet
  facet normal 0 0 1
    outer loop
      vertex 13.9 2.1 3.4004
      vertex 12.1 3.9 3.4004
      vertex 12.1 2.1 3.4004
    endloop
  endfacet
  facet normal 1 -0 0
    outer loop
      vertex 7.9 4.1 3.4004
      vertex 7.9 5.9 3
      vertex 7.9 5.9 3.4004
    endloop
  endfacet
  facet normal 1 0 0
    outer loop
      vertex 7.9 5.9 3
      vertex 7.9 4.1 3.4004
      vertex 7.9 4.1 3
    endloop
  endfacet
  facet normal 0 0 -1
    outer loop
      vertex 6.1 4.1 3
      vertex 7.9 5.9 3
      vertex 7.9 4.1 3
    endloop
  endfacet
  facet normal -0 0 -1
    outer loop
      vertex 7.9 5.9 3
      vertex 6.1 4.1 3
      vertex 6.1 5.9 3
    endloop
  endfacet
  facet normal -1 0 0
    outer loop
      vertex 6.1 4.1 3
      vertex 6.1 5.9 3.4004
      vertex 6.1 5.9 3
    endloop
  endfacet
  facet normal -1 -0 0
    outer loop
      vertex 6.1 5.9 3.4004
      vertex 6.1 4.1 3
      vertex 6.1 4.1 3.4004
    endloop
  endfacet
  facet normal 0 1 -0
    outer loop
      vertex 7.9 5.9 3
      vertex 6.1 5.9 3.4004
      vertex 7.9 5.9 3.4004
    endloop
  endfacet
  facet normal 0 1 0
    outer loop
      vertex 6.1 5.9 3.4004
      vertex 7.9 5.9 3
      vertex 6.1 5.9 3
    endloop
  endfacet
  facet normal 0 -1 0
    outer loop
      vertex 6.1 4.1 3
      vertex 7.9 4.1 3.4004
      vertex 6.1 4.1 3.4004
    endloop
  endfacet
  facet normal 0 -1 -0
    outer loop
      vertex 7.9 4.1 3.4004
      vertex 6.1 4.1 3
      vertex 7.9 4.1 3
    endloop
  endfacet
  facet normal -0 0 1
    outer loop
      vertex 6.1 5.9 3.4004
      vertex 7.9 4.1 3.4004
      vertex 7.9 5.9 3.4004
    endloop
  endfacet
  facet normal 0 0 1
    outer loop
      vertex 7.9 4.1 3.4004
      vertex 6.1 5.9 3.4004
      vertex 6.1 4.1 3.4004
    endloop
  endfacet
  facet normal 1 -0 0
    outer loop
      vertex 5.9 6.1 3.4004
      vertex 5.9 7.9 3
      vertex 5.9 7.9 3.4004
    endloop
  endfacet
  facet normal 1 0 0
    outer loop
      vertex 5.9 7.9 3
      vertex 5.9 6.1 3.4004
      vertex 5.9 6.1 3
    endloop
  endfacet
  facet normal 0 0 -1
    outer loop
      vertex 4.1 6.1 3
      vertex 5.9 7.9 3
      vertex 5.9 6.1 3
    endloop
  endfacet
  facet normal -0 0 -1
    outer loop
      vertex 5.9 7.9 3
      vertex 4.1 6.1 3
      vertex 4.1 7.9 3
    endloop
  endfacet
  facet normal -1 0 0
    outer loop
      vertex 4.1 6.1 3
      vertex 4.1 7.9 3.4004
      vertex 4.1 7.9 3
    endloop
  endfacet
  facet normal -1 -0 0
    outer loop
      vertex 4.1 7.9 3.4004
      vertex 4.1 6.1 3
      vertex 4.1 6.1 3.4004
    endloop
  endfacet
  facet normal 0 1 -0
    outer loop
      vertex 5.9 7.9 3
      vertex 4.1 7.9 3.4004
      vertex 5.9 7.9 3.4004
    endloop
  endfacet
  facet normal 0 1 0
    outer loop
      vertex 4.1 7.9 3.4004
      vertex 5.9 7.9 3
      vertex 4.1 7.9 3
    endloop
  endfacet
  facet normal 0 -1 0
    outer loop
      vertex 4.1 6.1 3
      vertex 5.9 6.1 3.4004
      vertex 4.1 6.1 3.4004
    endloop
  endfacet
  facet normal 0 -1 -0
    outer loop
      vertex 5.9 6.1 3.4004
      vertex 4.1 6.1 3
      vertex 5.9 6.1 3
    endloop
  endfacet
  facet normal -0 0 1
    outer loop
      vertex 4.1 7.9 3.4004
      vertex 5.9 6.1 3.4004
      vertex 5.9 7.9 3.4004
    endloop
  endfacet
  facet normal 0 0 1
    outer loop
      vertex 5.9 6.1 3.4004
      vertex 4.1 7.9 3.4004
      vertex 4.1 6.1 3.4004
    endloop
  endfacet
  facet normal 1 -0 0
    outer loop
      vertex 5.9 8.1 3.4004
      vertex 5.9 9.9 3
      vertex 5.9 9.9 3.4004
    endloop
  endfacet
  facet normal 1 0 0
    outer loop
      vertex 5.9 9.9 3
      vertex 5.9 8.1 3.4004
      vertex 5.9 8.1 3
    endloop
  endfacet
  facet normal 0 0 -1
    outer loop
      vertex 4.1 8.1 3
      vertex 5.9 9.9 3
      vertex 5.9 8.1 3
    endloop
  endfacet
  facet normal -0 0 -1
    outer loop
      vertex 5.9 9.9 3
      vertex 4.1 8.1 3
      vertex 4.1 9.9 3
    endloop
  endfacet
  facet normal -1 0 0
    outer loop
      vertex 4.1 8.1 3
      vertex 4.1 9.9 3.4004
      vertex 4.1 9.9 3
    endloop
  endfacet
  facet normal -1 -0 0
    outer loop
      vertex 4.1 9.9 3.4004
      vertex 4.1 8.1 3
      vertex 4.1 8.1 3.4004
    endloop
  endfacet
  facet normal 0 1 -0
    outer loop
      vertex 5.9 9.9 3
      vertex 4.1 9.9 3.4004
      vertex 5.9 9.9 3.4004
    endloop
  endfacet
  facet normal 0 1 0
    outer loop
      vertex 4.1 9.9 3.4004
      vertex 5.9 9.9 3
      vertex 4.1 9.9 3
    endloop
  endfacet
  facet normal 0 -1 0
    outer loop
      vertex 4.1 8.1 3
      vertex 5.9 8.1 3.4004
      vertex 4.1 8.1 3.4004
    endloop
  endfacet
  facet normal 0 -1 -0
    outer loop
      vertex 5.9 8.1 3.4004
      vertex 4.1 8.1 3
      vertex 5.9 8.1 3
    endloop
  endfacet
  facet normal -0 0 1
    outer loop
      vertex 4.1 9.9 3.4004
      vertex 5.9 8.1 3.4004
      vertex 5.9 9.9 3.4004
    endloop
  endfacet
  facet normal 0 0 1
    outer loop
      vertex 5.9 8.1 3.4004
      vertex 4.1 9.9 3.4004
      vertex 4.1 8.1 3.4004
    endloop
  endfacet
  facet normal 1 -0 0
    outer loop
      vertex 3.9 10.1 3.4004
      vertex 3.9 11.9 3
      vertex 3.9 11.9 3.4004
    endloop
  endfacet
  facet normal 1 0 0
    outer loop
      vertex 3.9 11.9 3
      vertex 3.9 10.1 3.4004
      vertex 3.9 10.1 3
    endloop
  endfacet
  facet normal 0 0 -1
    outer loop
      vertex 2.1 10.1 3
      vertex 3.9 11.9 3
      vertex 3.9 10.1 3
    endloop
  endfacet
  facet normal -0 0 -1
    outer loop
      vertex 3.9 11.9 3
      vertex 2.1 10.1 3
      vertex 2.1 11.9 3
    endloop
  endfacet
  facet normal -1 0 0
    outer loop
      vertex 2.1 10.1 3
      vertex 2.1 11.9 3.4004
      vertex 2.1 11.9 3
    endloop
  endfacet
  facet normal -1 -0 0
    outer loop
      vertex 2.1 11.9 3.4004
      vertex 2.1 10.1 3
      vertex 2.1 10.1 3.4004
    endloop
  endfacet
  facet normal 0 1 -0
    outer loop
      vertex 3.9 11.9 3
      vertex 2.1 11.9 3.4004
      vertex 3.9 11.9 3.4004
    endloop
  endfacet
  facet normal 0 1 0
    outer loop
      vertex 2.1 11.9 3.4004
      vertex 3.9 11.9 3
      vertex 2.1 11.9 3
    endloop
  endfacet
  facet normal 0 -1 0
    outer loop
      vertex 2.1 10.1 3
      vertex 3.9 10.1 3.4004
      vertex 2.1 10.1 3.4004
    endloop
  endfacet
  facet normal 0 -1 -0
    outer loop
      vertex 3.9 10.1 3.4004
      vertex 2.1 10.1 3
      vertex 3.9 10.1 3
    endloop
  endfacet
  facet normal -0 0 1
    outer loop
      vertex 2.1 11.9 3.4004
      vertex 3.9 10.1 3.4004
      vertex 3.9 11.9 3.4004
    endloop
  endfacet
  facet normal 0 0 1
    outer loop
      vertex 3.9 10.1 3.4004
      vertex 2.1 11.9 3.4004
      vertex 2.1 10.1 3.4004
    endloop
  endfacet
  facet normal 1 -0 0
    outer loop
      vertex 3.9 12.1 3.4004
      vertex 3.9 13.9 3
      vertex 3.9 13.9 3.4004
    endloop
  endfacet
  facet normal 1 0 0
    outer loop
      vertex 3.9 13.9 3
      vertex 3.9 12.1 3.4004
      vertex 3.9 12.1 3
    endloop
  endfacet
  facet normal 0 0 -1
    outer loop
      vertex 2.1 12.1 3
      vertex 3.9 13.9 3
      vertex 3.9 12.1 3
    endloop
  endfacet
  facet normal -0 0 -1
    outer loop
      vertex 3.9 13.9 3
      vertex 2.1 12.1 3
      vertex 2.1 13.9 3
    endloop
  endfacet
  facet normal -1 0 0
    outer loop
      vertex 2.1 12.1 3
      vertex 2.1 13.9 3.4004
      vertex 2.1 13.9 3
    endloop
  endfacet
  facet normal -1 -0 0
    outer loop
      vertex 2.1 13.9 3.4004
      vertex 2.1 12.1 3
      vertex 2.1 12.1 3.4004
    endloop
  endfacet
  facet normal 0 1 -0
    outer loop
      vertex 3.9 13.9 3
      vertex 2.1 13.9 3.4004
      vertex 3.9 13.9 3.4004
    endloop
  endfacet
  facet normal 0 1 0
    outer loop
      vertex 2.1 13.9 3.4004
      vertex 3.9 13.9 3
      vertex 2.1 13.9 3
    endloop
  endfacet
  facet normal 0 -1 0
    outer loop
      vertex 2.1 12.1 3
      vertex 3.9 12.1 3.4004
      vertex 2.1 12.1 3.4004
    endloop
  endfacet
  facet normal 0 -1 -0
    outer loop
      vertex 3.9 12.1 3.4004
      vertex 2.1 12.1 3
      vertex 3.9 12.1 3
    endloop
  endfacet
  facet normal -0 0 1
    outer loop
      vertex 2.1 13.9 3.4004
      vertex 3.9 12.1 3.4004
      vertex 3.9 13.9 3.4004
    endloop
  endfacet
  facet normal 0 0 1
    outer loop
      vertex 3.9 12.1 3.4004
      vertex 2.1 13.9 3.4004
      vertex 2.1 12.1 3.4004
    endloop
  endfacet
  facet normal 1 -0 0
    outer loop
      vertex 3.9 14.1 3.4004
      vertex 3.9 15.9 3
      vertex 3.9 15.9 3.4004
    endloop
  endfacet
  facet normal 1 0 0
    outer loop
      vertex 3.9 15.9 3
      vertex 3.9 14.1 3.4004
      vertex 3.9 14.1 3
    endloop
  endfacet
  facet normal 0 0 -1
    outer loop
      vertex 2.1 14.1 3
      vertex 3.9 15.9 3
      vertex 3.9 14.1 3
    endloop
  endfacet
  facet normal -0 0 -1
    outer loop
      vertex 3.9 15.9 3
      vertex 2.1 14.1 3
      vertex 2.1 15.9 3
    endloop
  endfacet
  facet normal -1 0 0
    outer loop
      vertex 2.1 14.1 3
      vertex 2.1 15.9 3.4004
      vertex 2.1 15.9 3
    endloop
  endfacet
  facet normal -1 -0 0
    outer loop
      vertex 2.1 15.9 3.4004
      vertex 2.1 14.1 3
      vertex 2.1 14.1 3.4004
    endloop
  endfacet
  facet normal 0 1 -0
    outer loop
      vertex 3.9 15.9 3
      vertex 2.1 15.9 3.4004
      vertex 3.9 15.9 3.4004
    endloop
  endfacet
  facet normal 0 1 0
    outer loop
      vertex 2.1 15.9 3.4004
      vertex 3.9 15.9 3
      vertex 2.1 15.9 3
    endloop
  endfacet
  facet normal 0 -1 0
    outer loop
      vertex 2.1 14.1 3
      vertex 3.9 14.1 3.4004
      vertex 2.1 14.1 3.4004
    endloop
  endfacet
  facet normal 0 -1 -0
    outer loop
      vertex 3.9 14.1 3.4004
      vertex 2.1 14.1 3
      vertex 3.9 14.1 3
    endloop
  endfacet
  facet normal -0 0 1
    outer loop
      vertex 2.1 15.9 3.4004
      vertex 3.9 14.1 3.4004
      vertex 3.9 15.9 3.4004
    endloop
  endfacet
  facet normal 0 0 1
    outer loop
      vertex 3.9 14.1 3.4004
      vertex 2.1 15.9 3.4004
      vertex 2.1 14.1 3.4004
    endloop
  endfacet
  facet normal 1 -0 0
    outer loop
      vertex 3.9 16.1 3.4004
      vertex 3.9 17.9 3
      vertex 3.9 17.9 3.4004
    endloop
  endfacet
  facet normal 1 0 0
    outer loop
      vertex 3.9 17.9 3
      vertex 3.9 16.1 3.4004
      vertex 3.9 16.1 3
    endloop
  endfacet
  facet normal 0 0 -1
    outer loop
      vertex 2.1 16.1 3
      vertex 3.9 17.9 3
      vertex 3.9 16.1 3
    endloop
  endfacet
  facet normal -0 0 -1
    outer loop
      vertex 3.9 17.9 3
      vertex 2.1 16.1 3
      vertex 2.1 17.9 3
    endloop
  endfacet
  facet normal -1 0 0
    outer loop
      vertex 2.1 16.1 3
      vertex 2.1 17.9 3.4004
      vertex 2.1 17.9 3
    endloop
  endfacet
  facet normal -1 -0 0
    outer loop
      vertex 2.1 17.9 3.4004
      vertex 2.1 16.1 3
      vertex 2.1 16.1 3.4004
    endloop
  endfacet
  facet normal 0 1 -0
    outer loop
      vertex 3.9 17.9 3
      vertex 2.1 17.9 3.4004
      vertex 3.9 17.9 3.4004
    endloop
  endfacet
  facet normal 0 1 0
    outer loop
      vertex 2.1 17.9 3.4004
      vertex 3.9 17.9 3
      vertex 2.1 17.9 3
    endloop
  endfacet
  facet normal 0 -1 0
    outer loop
      vertex 2.1 16.1 3
      vertex 3.9 16.1 3.4004
      vertex 2.1 16.1 3.4004
    endloop
  endfacet
  facet normal 0 -1 -0
    outer loop
      vertex 3.9 16.1 3.4004
      vertex 2.1 16.1 3
      vertex 3.9 16.1 3
    endloop
  endfacet
  facet normal -0 0 1
    outer loop
      vertex 2.1 17.9 3.4004
      vertex 3.9 16.1 3.4004
      vertex 3.9 17.9 3.4004
    endloop
  endfacet
  facet normal 0 0 1
    outer loop
      vertex 3.9 16.1 3.4004
      vertex 2.1 17.9 3.4004
      vertex 2.1 16.1 3.4004
    endloop
  endfacet
  facet normal 1 -0 0
    outer loop
      vertex 3.9 18.1 3.4004
      vertex 3.9 19.9 3
      vertex 3.9 19.9 3.4004
    endloop
  endfacet
  facet normal 1 0 0
    outer loop
      vertex 3.9 19.9 3
      vertex 3.9 18.1 3.4004
      vertex 3.9 18.1 3
    endloop
  endfacet
  facet normal 0 0 -1
    outer loop
      vertex 2.1 18.1 3
      vertex 3.9 19.9 3
      vertex 3.9 18.1 3
    endloop
  endfacet
  facet normal -0 0 -1
    outer loop
      vertex 3.9 19.9 3
      vertex 2.1 18.1 3
      vertex 2.1 19.9 3
    endloop
  endfacet
  facet normal -1 0 0
    outer loop
      vertex 2.1 18.1 3
      vertex 2.1 19.9 3.4004
      vertex 2.1 19.9 3
    endloop
  endfacet
  facet normal -1 -0 0
    outer loop
      vertex 2.1 19.9 3.4004
      vertex 2.1 18.1 3
      vertex 2.1 18.1 3.4004
    endloop
  endfacet
  facet normal 0 1 -0
    outer loop
      vertex 3.9 19.9 3
      vertex 2.1 19.9 3.4004
      vertex 3.9 19.9 3.4004
    endloop
  endfacet
  facet normal 0 1 0
    outer loop
      vertex 2.1 19.9 3.4004
      vertex 3.9 19.9 3
      vertex 2.1 19.9 3
    endloop
  endfacet
  facet normal 0 -1 0
    outer loop
      vertex 2.1 18.1 3
      vertex 3.9 18.1 3.4004
      vertex 2.1 18.1 3.4004
    endloop
  endfacet
  facet normal 0 -1 -0
    outer loop
      vertex 3.9 18.1 3.4004
      vertex 2.1 18.1 3
      vertex 3.9 18.1 3
    endloop
  endfacet
  facet normal -0 0 1
    outer loop
      vertex 2.1 19.9 3.4004
      vertex 3.9 18.1 3.4004
      vertex 3.9 19.9 3.4004
    endloop
  endfacet
  facet normal 0 0 1
    outer loop
      vertex 3.9 18.1 3.4004
      vertex 2.1 19.9 3.4004
      vertex 2.1 18.1 3.4004
    endloop
  endfacet
  facet normal 1 -0 0
    outer loop
      vertex 3.9 20.1 3.4004
      vertex 3.9 21.9 3
      vertex 3.9 21.9 3.4004
    endloop
  endfacet
  facet normal 1 0 0
    outer loop
      vertex 3.9 21.9 3
      vertex 3.9 20.1 3.4004
      vertex 3.9 20.1 3
    endloop
  endfacet
  facet normal 0 0 -1
    outer loop
      vertex 2.1 20.1 3
      vertex 3.9 21.9 3
      vertex 3.9 20.1 3
    endloop
  endfacet
  facet normal -0 0 -1
    outer loop
      vertex 3.9 21.9 3
      vertex 2.1 20.1 3
      vertex 2.1 21.9 3
    endloop
  endfacet
  facet normal -1 0 0
    outer loop
      vertex 2.1 20.1 3
      vertex 2.1 21.9 3.4004
      vertex 2.1 21.9 3
    endloop
  endfacet
  facet normal -1 -0 0
    outer loop
      vertex 2.1 21.9 3.4004
      vertex 2.1 20.1 3
      vertex 2.1 20.1 3.4004
    endloop
  endfacet
  facet normal 0 1 -0
    outer loop
      vertex 3.9 21.9 3
      vertex 2.1 21.9 3.4004
      vertex 3.9 21.9 3.4004
    endloop
  endfacet
  facet normal 0 1 0
    outer loop
      vertex 2.1 21.9 3.4004
      vertex 3.9 21.9 3
      vertex 2.1 21.9 3
    endloop
  endfacet
  facet normal 0 -1 0
    outer loop
      vertex 2.1 20.1 3
      vertex 3.9 20.1 3.4004
      vertex 2.1 20.1 3.4004
    endloop
  endfacet
  facet normal 0 -1 -0
    outer loop
      vertex 3.9 20.1 3.4004
      vertex 2.1 20.1 3
      vertex 3.9 20.1 3
    endloop
  endfacet
  facet normal -0 0 1
    outer loop
      vertex 2.1 21.9 3.4004
      vertex 3.9 20.1 3.4004
      vertex 3.9 21.9 3.4004
    endloop
  endfacet
  facet normal 0 0 1
    outer loop
      vertex 3.9 20.1 3.4004
      vertex 2.1 21.9 3.4004
      vertex 2.1 20.1 3.4004
    endloop
  endfacet
  facet normal 1 -0 0
    outer loop
      vertex 11.9 20.1 3.4004
      vertex 11.9 21.9 3
      vertex 11.9 21.9 3.4004
    endloop
  endfacet
  facet normal 1 0 0
    outer loop
      vertex 11.9 21.9 3
      vertex 11.9 20.1 3.4004
      vertex 11.9 20.1 3
    endloop
  endfacet
  facet normal 0 0 -1
    outer loop
      vertex 10.1 20.1 3
      vertex 11.9 21.9 3
      vertex 11.9 20.1 3
    endloop
  endfacet
  facet normal -0 0 -1
    outer loop
      vertex 11.9 21.9 3
      vertex 10.1 20.1 3
      vertex 10.1 21.9 3
    endloop
  endfacet
  facet normal -1 0 0
    outer loop
      vertex 10.1 20.1 3
      vertex 10.1 21.9 3.4004
      vertex 10.1 21.9 3
    endloop
  endfacet
  facet normal -1 -0 0
    outer loop
      vertex 10.1 21.9 3.4004
      vertex 10.1 20.1 3
      vertex 10.1 20.1 3.4004
    endloop
  endfacet
  facet normal 0 1 -0
    outer loop
      vertex 11.9 21.9 3
      vertex 10.1 21.9 3.4004
      vertex 11.9 21.9 3.4004
    endloop
  endfacet
  facet normal 0 1 0
    outer loop
      vertex 10.1 21.9 3.4004
      vertex 11.9 21.9 3
      vertex 10.1 21.9 3
    endloop
  endfacet
  facet normal 0 -1 0
    outer loop
      vertex 10.1 20.1 3
      vertex 11.9 20.1 3.4004
      vertex 10.1 20.1 3.4004
    endloop
  endfacet
  facet normal 0 -1 -0
    outer loop
      vertex 11.9 20.1 3.4004
      vertex 10.1 20.1 3
      vertex 11.9 20.1 3
    endloop
  endfacet
  facet normal -0 0 1
    outer loop
      vertex 10.1 21.9 3.4004
      vertex 11.9 20.1 3.4004
      vertex 11.9 21.9 3.4004
    endloop
  endfacet
  facet normal 0 0 1
    outer loop
      vertex 11.9 20.1 3.4004
      vertex 10.1 21.9 3.4004
      vertex 10.1 20.1 3.4004
    endloop
  endfacet
  facet normal 1 -0 0
    outer loop
      vertex 13.9 20.1 3.4004
      vertex 13.9 21.9 3
      vertex 13.9 21.9 3.4004
    endloop
  endfacet
  facet normal 1 0 0
    outer loop
      vertex 13.9 21.9 3
      vertex 13.9 20.1 3.4004
      vertex 13.9 20.1 3
    endloop
  endfacet
  facet normal 0 0 -1
    outer loop
      vertex 12.1 20.1 3
      vertex 13.9 21.9 3
      vertex 13.9 20.1 3
    endloop
  endfacet
  facet normal -0 0 -1
    outer loop
      vertex 13.9 21.9 3
      vertex 12.1 20.1 3
      vertex 12.1 21.9 3
    endloop
  endfacet
  facet normal -1 0 0
    outer loop
      vertex 12.1 20.1 3
      vertex 12.1 21.9 3.4004
      vertex 12.1 21.9 3
    endloop
  endfacet
  facet normal -1 -0 0
    outer loop
      vertex 12.1 21.9 3.4004
      vertex 12.1 20.1 3
      vertex 12.1 20.1 3.4004
    endloop
  endfacet
  facet normal 0 1 -0
    outer loop
      vertex 13.9 21.9 3
      vertex 12.1 21.9 3.4004
      vertex 13.9 21.9 3.4004
    endloop
  endfacet
  facet normal 0 1 0
    outer loop
      vertex 12.1 21.9 3.4004
      vertex 13.9 21.9 3
      vertex 12.1 21.9 3
    endloop
  endfacet
  facet normal 0 -1 0
    outer loop
      vertex 12.1 20.1 3
      vertex 13.9 20.1 3.4004
      vertex 12.1 20.1 3.4004
    endloop
  endfacet
  facet normal 0 -1 -0
    outer loop
      vertex 13.9 20.1 3.4004
      vertex 12.1 20.1 3
      vertex 13.9 20.1 3
    endloop
  endfacet
  facet normal -0 0 1
    outer loop
      vertex 12.1 21.9 3.4004
      vertex 13.9 20.1 3.4004
      vertex 13.9 21.9 3.4004
    endloop
  endfacet
  facet normal 0 0 1
    outer loop
      vertex 13.9 20.1 3.4004
      vertex 12.1 21.9 3.4004
      vertex 12.1 20.1 3.4004
    endloop
  endfacet
  facet normal 1 -0 0
    outer loop
      vertex 15.9 20.1 3.4004
      vertex 15.9 21.9 3
      vertex 15.9 21.9 3.4004
    endloop
  endfacet
  facet normal 1 0 0
    outer loop
      vertex 15.9 21.9 3
      vertex 15.9 20.1 3.4004
      vertex 15.9 20.1 3
    endloop
  endfacet
  facet normal 0 0 -1
    outer loop
      vertex 14.1 20.1 3
      vertex 15.9 21.9 3
      vertex 15.9 20.1 3
    endloop
  endfacet
  facet normal -0 0 -1
    outer loop
      vertex 15.9 21.9 3
      vertex 14.1 20.1 3
      vertex 14.1 21.9 3
    endloop
  endfacet
  facet normal -1 0 0
    outer loop
      vertex 14.1 20.1 3
      vertex 14.1 21.9 3.4004
      vertex 14.1 21.9 3
    endloop
  endfacet
  facet normal -1 -0 0
    outer loop
      vertex 14.1 21.9 3.4004
      vertex 14.1 20.1 3
      vertex 14.1 20.1 3.4004
    endloop
  endfacet
  facet normal 0 1 -0
    outer loop
      vertex 15.9 21.9 3
      vertex 14.1 21.9 3.4004
      vertex 15.9 21.9 3.4004
    endloop
  endfacet
  facet normal 0 1 0
    outer loop
      vertex 14.1 21.9 3.4004
      vertex 15.9 21.9 3
      vertex 14.1 21.9 3
    endloop
  endfacet
  facet normal 0 -1 0
    outer loop
      vertex 14.1 20.1 3
      vertex 15.9 20.1 3.4004
      vertex 14.1 20.1 3.4004
    endloop
  endfacet
  facet normal 0 -1 -0
    outer loop
      vertex 15.9 20.1 3.4004
      vertex 14.1 20.1 3
      vertex 15.9 20.1 3
    endloop
  endfacet
  facet normal -0 0 1
    outer loop
      vertex 14.1 21.9 3.4004
      vertex 15.9 20.1 3.4004
      vertex 15.9 21.9 3.4004
    endloop
  endfacet
  facet normal 0 0 1
    outer loop
      vertex 15.9 20.1 3.4004
      vertex 14.1 21.9 3.4004
      vertex 14.1 20.1 3.4004
    endloop
  endfacet
  facet normal 1 -0 0
    outer loop
      vertex 17.9 20.1 3.4004
      vertex 17.9 21.9 3
      vertex 17.9 21.9 3.4004
    endloop
  endfacet
  facet normal 1 0 0
    outer loop
      vertex 17.9 21.9 3
      vertex 17.9 20.1 3.4004
      vertex 17.9 20.1 3
    endloop
  endfacet
  facet normal 0 0 -1
    outer loop
      vertex 16.1 20.1 3
      vertex 17.9 21.9 3
      vertex 17.9 20.1 3
    endloop
  endfacet
  facet normal -0 0 -1
    outer loop
      vertex 17.9 21.9 3
      vertex 16.1 20.1 3
      vertex 16.1 21.9 3
    endloop
  endfacet
  facet normal -1 0 0
    outer loop
      vertex 16.1 20.1 3
      vertex 16.1 21.9 3.4004
      vertex 16.1 21.9 3
    endloop
  endfacet
  facet normal -1 -0 0
    outer loop
      vertex 16.1 21.9 3.4004
      vertex 16.1 20.1 3
      vertex 16.1 20.1 3.4004
    endloop
  endfacet
  facet normal 0 1 -0
    outer loop
      vertex 17.9 21.9 3
      vertex 16.1 21.9 3.4004
      vertex 17.9 21.9 3.4004
    endloop
  endfacet
  facet normal 0 1 0
    outer loop
      vertex 16.1 21.9 3.4004
      vertex 17.9 21.9 3
      vertex 16.1 21.9 3
    endloop
  endfacet
  facet normal 0 -1 0
    outer loop
      vertex 16.1 20.1 3
      vertex 17.9 20.1 3.4004
      vertex 16.1 20.1 3.4004
    endloop
  endfacet
  facet normal 0 -1 -0
    outer loop
      vertex 17.9 20.1 3.4004
      vertex 16.1 20.1 3
      vertex 17.9 20.1 3
    endloop
  endfacet
  facet normal -0 0 1
    outer loop
      vertex 16.1 21.9 3.4004
      vertex 17.9 20.1 3.4004
      vertex 17.9 21.9 3.4004
    endloop
  endfacet
  facet normal 0 0 1
    outer loop
      vertex 17.9 20.1 3.4004
      vertex 16.1 21.9 3.4004
      vertex 16.1 20.1 3.4004
    endloop
  endfacet
  facet normal 1 -0 0
    outer loop
      vertex 19.9 20.1 3.4004
      vertex 19.9 21.9 3
      vertex 19.9 21.9 3.4004
    endloop
  endfacet
  facet normal 1 0 0
    outer loop
      vertex 19.9 21.9 3
      vertex 19.9 20.1 3.4004
      vertex 19.9 20.1 3
    endloop
  endfacet
  facet normal 0 0 -1
    outer loop
      vertex 18.1 20.1 3
      vertex 19.9 21.9 3
      vertex 19.9 20.1 3
    endloop
  endfacet
  facet normal -0 0 -1
    outer loop
      vertex 19.9 21.9 3
      vertex 18.1 20.1 3
      vertex 18.1 21.9 3
    endloop
  endfacet
  facet normal -1 0 0
    outer loop
      vertex 18.1 20.1 3
      vertex 18.1 21.9 3.4004
      vertex 18.1 21.9 3
    endloop
  endfacet
  facet normal -1 -0 0
    outer loop
      vertex 18.1 21.9 3.4004
      vertex 18.1 20.1 3
      vertex 18.1 20.1 3.4004
    endloop
  endfacet
  facet normal 0 1 -0
    outer loop
      vertex 19.9 21.9 3
      vertex 18.1 21.9 3.4004
      vertex 19.9 21.9 3.4004
    endloop
  endfacet
  facet normal 0 1 0
    outer loop
      vertex 18.1 21.9 3.4004
      vertex 19.9 21.9 3
      vertex 18.1 21.9 3
    endloop
  endfacet
  facet normal 0 -1 0
    outer loop
      vertex 18.1 20.1 3
      vertex 19.9 20.1 3.4004
      vertex 18.1 20.1 3.4004
    endloop
  endfacet
  facet normal 0 -1 -0
    outer loop
      vertex 19.9 20.1 3.4004
      vertex 18.1 20.1 3
      vertex 19.9 20.1 3
    endloop
  endfacet
  facet normal -0 0 1
    outer loop
      vertex 18.1 21.9 3.4004
      vertex 19.9 20.1 3.4004
      vertex 19.9 21.9 3.4004
    endloop
  endfacet
  facet normal 0 0 1
    outer loop
      vertex 19.9 20.1 3.4004
      vertex 18.1 21.9 3.4004
      vertex 18.1 20.1 3.4004
    endloop
  endfacet
  facet normal 1 -0 0
    outer loop
      vertex 5.9 22.1 3.4004
      vertex 5.9 23.9 3
      vertex 5.9 23.9 3.4004
    endloop
  endfacet
  facet normal 1 0 0
    outer loop
      vertex 5.9 23.9 3
      vertex 5.9 22.1 3.4004
      vertex 5.9 22.1 3
    endloop
  endfacet
  facet normal 0 0 -1
    outer loop
      vertex 4.1 22.1 3
      vertex 5.9 23.9 3
      vertex 5.9 22.1 3
    endloop
  endfacet
  facet normal -0 0 -1
    outer loop
      vertex 5.9 23.9 3
      vertex 4.1 22.1 3
      vertex 4.1 23.9 3
    endloop
  endfacet
  facet normal -1 0 0
    outer loop
      vertex 4.1 22.1 3
      vertex 4.1 23.9 3.4004
      vertex 4.1 23.9 3
    endloop
  endfacet
  facet normal -1 -0 0
    outer loop
      vertex 4.1 23.9 3.4004
      vertex 4.1 22.1 3
      vertex 4.1 22.1 3.4004
    endloop
  endfacet
  facet normal 0 1 -0
    outer loop
      vertex 5.9 23.9 3
      vertex 4.1 23.9 3.4004
      vertex 5.9 23.9 3.4004
    endloop
  endfacet
  facet normal 0 1 0
    outer loop
      vertex 4.1 23.9 3.4004
      vertex 5.9 23.9 3
      vertex 4.1 23.9 3
    endloop
  endfacet
  facet normal 0 -1 0
    outer loop
      vertex 4.1 22.1 3
      vertex 5.9 22.1 3.4004
      vertex 4.1 22.1 3.4004
    endloop
  endfacet
  facet normal 0 -1 -0
    outer loop
      vertex 5.9 22.1 3.4004
      vertex 4.1 22.1 3
      vertex 5.9 22.1 3
    endloop
  endfacet
  facet normal -0 0 1
    outer loop
      vertex 4.1 23.9 3.4004
      vertex 5.9 22.1 3.4004
      vertex 5.9 23.9 3.4004
    endloop
  endfacet
  facet normal 0 0 1
    outer loop
      vertex 5.9 22.1 3.4004
      vertex 4.1 23.9 3.4004
      vertex 4.1 22.1 3.4004
    endloop
  endfacet
  facet normal 1 -0 0
    outer loop
      vertex 7.9 22.1 3.4004
      vertex 7.9 23.9 3
      vertex 7.9 23.9 3.4004
    endloop
  endfacet
  facet normal 1 0 0
    outer loop
      vertex 7.9 23.9 3
      vertex 7.9 22.1 3.4004
      vertex 7.9 22.1 3
    endloop
  endfacet
  facet normal 0 0 -1
    outer loop
      vertex 6.1 22.1 3
      vertex 7.9 23.9 3
      vertex 7.9 22.1 3
    endloop
  endfacet
  facet normal -0 0 -1
    outer loop
      vertex 7.9 23.9 3
      vertex 6.1 22.1 3
      vertex 6.1 23.9 3
    endloop
  endfacet
  facet normal -1 0 0
    outer loop
      vertex 6.1 22.1 3
      vertex 6.1 23.9 3.4004
      vertex 6.1 23.9 3
    endloop
  endfacet
  facet normal -1 -0 0
    outer loop
      vertex 6.1 23.9 3.4004
      vertex 6.1 22.1 3
      vertex 6.1 22.1 3.4004
    endloop
  endfacet
  facet normal 0 1 -0
    outer loop
      vertex 7.9 23.9 3
      vertex 6.1 23.9 3.4004
      vertex 7.9 23.9 3.4004
    endloop
  endfacet
  facet normal 0 1 0
    outer loop
      vertex 6.1 23.9 3.4004
      vertex 7.9 23.9 3
      vertex 6.1 23.9 3
    endloop
  endfacet
  facet normal 0 -1 0
    outer loop
      vertex 6.1 22.1 3
      vertex 7.9 22.1 3.4004
      vertex 6.1 22.1 3.4004
    endloop
  endfacet
  facet normal 0 -1 -0
    outer loop
      vertex 7.9 22.1 3.4004
      vertex 6.1 22.1 3
      vertex 7.9 22.1 3
    endloop
  endfacet
  facet normal -0 0 1
    outer loop
      vertex 6.1 23.9 3.4004
      vertex 7.9 22.1 3.4004
      vertex 7.9 23.9 3.4004
    endloop
  endfacet
  facet normal 0 0 1
    outer loop
      vertex 7.9 22.1 3.4004
      vertex 6.1 23.9 3.4004
      vertex 6.1 22.1 3.4004
    endloop
  endfacet
  facet normal 1 -0 0
    outer loop
      vertex 9.9 22.1 3.4004
      vertex 9.9 23.9 3
      vertex 9.9 23.9 3.4004
    endloop
  endfacet
  facet normal 1 0 0
    outer loop
      vertex 9.9 23.9 3
      vertex 9.9 22.1 3.4004
      vertex 9.9 22.1 3
    endloop
  endfacet
  facet normal 0 0 -1
    outer loop
      vertex 8.1 22.1 3
      vertex 9.9 23.9 3
      vertex 9.9 22.1 3
    endloop
  endfacet
  facet normal -0 0 -1
    outer loop
      vertex 9.9 23.9 3
      vertex 8.1 22.1 3
      vertex 8.1 23.9 3
    endloop
  endfacet
  facet normal -1 0 0
    outer loop
      vertex 8.1 22.1 3
      vertex 8.1 23.9 3.4004
      vertex 8.1 23.9 3
    endloop
  endfacet
  facet normal -1 -0 0
    outer loop
      vertex 8.1 23.9 3.4004
      vertex 8.1 22.1 3
      vertex 8.1 22.1 3.4004
    endloop
  endfacet
  facet normal 0 1 -0
    outer loop
      vertex 9.9 23.9 3
      vertex 8.1 23.9 3.4004
      vertex 9.9 23.9 3.4004
    endloop
  endfacet
  facet normal 0 1 0
    outer loop
      vertex 8.1 23.9 3.4004
      vertex 9.9 23.9 3
      vertex 8.1 23.9 3
    endloop
  endfacet
  facet normal 0 -1 0
    outer loop
      vertex 8.1 22.1 3
      vertex 9.9 22.1 3.4004
      vertex 8.1 22.1 3.4004
    endloop
  endfacet
  facet normal 0 -1 -0
    outer loop
      vertex 9.9 22.1 3.4004
      vertex 8.1 22.1 3
      vertex 9.9 22.1 3
    endloop
  endfacet
  facet normal -0 0 1
    outer loop
      vertex 8.1 23.9 3.4004
      vertex 9.9 22.1 3.4004
      vertex 9.9 23.9 3.4004
    endloop
  endfacet
  facet normal 0 0 1
    outer loop
      vertex 9.9 22.1 3.4004
      vertex 8.1 23.9 3.4004
      vertex 8.1 22.1 3.4004
    endloop
  endfacet
  facet normal 1 -0 0
    outer loop
      vertex 13.9 22.1 3.4004
      vertex 13.9 23.9 3
      vertex 13.9 23.9 3.4004
    endloop
  endfacet
  facet normal 1 0 0
    outer loop
      vertex 13.9 23.9 3
      vertex 13.9 22.1 3.4004
      vertex 13.9 22.1 3
    endloop
  endfacet
  facet normal 0 0 -1
    outer loop
      vertex 12.1 22.1 3
      vertex 13.9 23.9 3
      vertex 13.9 22.1 3
    endloop
  endfacet
  facet normal -0 0 -1
    outer loop
      vertex 13.9 23.9 3
      vertex 12.1 22.1 3
      vertex 12.1 23.9 3
    endloop
  endfacet
  facet normal -1 0 0
    outer loop
      vertex 12.1 22.1 3
      vertex 12.1 23.9 3.4004
      vertex 12.1 23.9 3
    endloop
  endfacet
  facet normal -1 -0 0
    outer loop
      vertex 12.1 23.9 3.4004
      vertex 12.1 22.1 3
      vertex 12.1 22.1 3.4004
    endloop
  endfacet
  facet normal 0 1 -0
    outer loop
      vertex 13.9 23.9 3
      vertex 12.1 23.9 3.4004
      vertex 13.9 23.9 3.4004
    endloop
  endfacet
  facet normal 0 1 0
    outer loop
      vertex 12.1 23.9 3.4004
      vertex 13.9 23.9 3
      vertex 12.1 23.9 3
    endloop
  endfacet
  facet normal 0 -1 0
    outer loop
      vertex 12.1 22.1 3
      vertex 13.9 22.1 3.4004
      vertex 12.1 22.1 3.4004
    endloop
  endfacet
  facet normal 0 -1 -0
    outer loop
      vertex 13.9 22.1 3.4004
      vertex 12.1 22.1 3
      vertex 13.9 22.1 3
    endloop
  endfacet
  facet normal -0 0 1
    outer loop
      vertex 12.1 23.9 3.4004
      vertex 13.9 22.1 3.4004
      vertex 13.9 23.9 3.4004
    endloop
  endfacet
  facet normal 0 0 1
    outer loop
      vertex 13.9 22.1 3.4004
      vertex 12.1 23.9 3.4004
      vertex 12.1 22.1 3.4004
    endloop
  endfacet
  facet normal 1 -0 0
    outer loop
      vertex 19.9 22.1 3.4004
      vertex 19.9 23.9 3
      vertex 19.9 23.9 3.4004
    endloop
  endfacet
  facet normal 1 0 0
    outer loop
      vertex 19.9 23.9 3
      vertex 19.9 22.1 3.4004
      vertex 19.9 22.1 3
    endloop
  endfacet
  facet normal 0 0 -1
    outer loop
      vertex 18.1 22.1 3
      vertex 19.9 23.9 3
      vertex 19.9 22.1 3
    endloop
  endfacet
  facet normal -0 0 -1
    outer loop
      vertex 19.9 23.9 3
      vertex 18.1 22.1 3
      vertex 18.1 23.9 3
    endloop
  endfacet
  facet normal -1 0 0
    outer loop
      vertex 18.1 22.1 3
      vertex 18.1 23.9 3.4004
      vertex 18.1 23.9 3
    endloop
  endfacet
  facet normal -1 -0 0
    outer loop
      vertex 18.1 23.9 3.4004
      vertex 18.1 22.1 3
      vertex 18.1 22.1 3.4004
    endloop
  endfacet
  facet normal 0 1 -0
    outer loop
      vertex 19.9 23.9 3
      vertex 18.1 23.9 3.4004
      vertex 19.9 23.9 3.4004
    endloop
  endfacet
  facet normal 0 1 0
    outer loop
      vertex 18.1 23.9 3.4004
      vertex 19.9 23.9 3
      vertex 18.1 23.9 3
    endloop
  endfacet
  facet normal 0 -1 0
    outer loop
      vertex 18.1 22.1 3
      vertex 19.9 22.1 3.4004
      vertex 18.1 22.1 3.4004
    endloop
  endfacet
  facet normal 0 -1 -0
    outer loop
      vertex 19.9 22.1 3.4004
      vertex 18.1 22.1 3
      vertex 19.9 22.1 3
    endloop
  endfacet
  facet normal -0 0 1
    outer loop
      vertex 18.1 23.9 3.4004
      vertex 19.9 22.1 3.4004
      vertex 19.9 23.9 3.4004
    endloop
  endfacet
  facet normal 0 0 1
    outer loop
      vertex 19.9 22.1 3.4004
      vertex 18.1 23.9 3.4004
      vertex 18.1 22.1 3.4004
    endloop
  endfacet
  facet normal 1 -0 0
    outer loop
      vertex 7.9 24.1 3.4004
      vertex 7.9 25.9 3
      vertex 7.9 25.9 3.4004
    endloop
  endfacet
  facet normal 1 0 0
    outer loop
      vertex 7.9 25.9 3
      vertex 7.9 24.1 3.4004
      vertex 7.9 24.1 3
    endloop
  endfacet
  facet normal 0 0 -1
    outer loop
      vertex 6.1 24.1 3
      vertex 7.9 25.9 3
      vertex 7.9 24.1 3
    endloop
  endfacet
  facet normal -0 0 -1
    outer loop
      vertex 7.9 25.9 3
      vertex 6.1 24.1 3
      vertex 6.1 25.9 3
    endloop
  endfacet
  facet normal -1 0 0
    outer loop
      vertex 6.1 24.1 3
      vertex 6.1 25.9 3.4004
      vertex 6.1 25.9 3
    endloop
  endfacet
  facet normal -1 -0 0
    outer loop
      vertex 6.1 25.9 3.4004
      vertex 6.1 24.1 3
      vertex 6.1 24.1 3.4004
    endloop
  endfacet
  facet normal 0 1 -0
    outer loop
      vertex 7.9 25.9 3
      vertex 6.1 25.9 3.4004
      vertex 7.9 25.9 3.4004
    endloop
  endfacet
  facet normal 0 1 0
    outer loop
      vertex 6.1 25.9 3.4004
      vertex 7.9 25.9 3
      vertex 6.1 25.9 3
    endloop
  endfacet
  facet normal 0 -1 0
    outer loop
      vertex 6.1 24.1 3
      vertex 7.9 24.1 3.4004
      vertex 6.1 24.1 3.4004
    endloop
  endfacet
  facet normal 0 -1 -0
    outer loop
      vertex 7.9 24.1 3.4004
      vertex 6.1 24.1 3
      vertex 7.9 24.1 3
    endloop
  endfacet
  facet normal -0 0 1
    outer loop
      vertex 6.1 25.9 3.4004
      vertex 7.9 24.1 3.4004
      vertex 7.9 25.9 3.4004
    endloop
  endfacet
  facet normal 0 0 1
    outer loop
      vertex 7.9 24.1 3.4004
      vertex 6.1 25.9 3.4004
      vertex 6.1 24.1 3.4004
    endloop
  endfacet
  facet normal 1 -0 0
    outer loop
      vertex 13.9 24.1 3.4004
      vertex 13.9 25.9 3
      vertex 13.9 25.9 3.4004
    endloop
  endfacet
  facet normal 1 0 0
    outer loop
      vertex 13.9 25.9 3
      vertex 13.9 24.1 3.4004
      vertex 13.9 24.1 3
    endloop
  endfacet
  facet normal 0 0 -1
    outer loop
      vertex 12.1 24.1 3
      vertex 13.9 25.9 3
      vertex 13.9 24.1 3
    endloop
  endfacet
  facet normal -0 0 -1
    outer loop
      vertex 13.9 25.9 3
      vertex 12.1 24.1 3
      vertex 12.1 25.9 3
    endloop
  endfacet
  facet normal -1 0 0
    outer loop
      vertex 12.1 24.1 3
      vertex 12.1 25.9 3.4004
      vertex 12.1 25.9 3
    endloop
  endfacet
  facet normal -1 -0 0
    outer loop
      vertex 12.1 25.9 3.4004
      vertex 12.1 24.1 3
      vertex 12.1 24.1 3.4004
    endloop
  endfacet
  facet normal 0 1 -0
    outer loop
      vertex 13.9 25.9 3
      vertex 12.1 25.9 3.4004
      vertex 13.9 25.9 3.4004
    endloop
  endfacet
  facet normal 0 1 0
    outer loop
      vertex 12.1 25.9 3.4004
      vertex 13.9 25.9 3
      vertex 12.1 25.9 3
    endloop
  endfacet
  facet normal 0 -1 0
    outer loop
      vertex 12.1 24.1 3
      vertex 13.9 24.1 3.4004
      vertex 12.1 24.1 3.4004
    endloop
  endfacet
  facet normal 0 -1 -0
    outer loop
      vertex 13.9 24.1 3.4004
      vertex 12.1 24.1 3
      vertex 13.9 24.1 3
    endloop
  endfacet
  facet normal -0 0 1
    outer loop
      vertex 12.1 25.9 3.4004
      vertex 13.9 24.1 3.4004
      vertex 13.9 25.9 3.4004
    endloop
  endfacet
  facet normal 0 0 1
    outer loop
      vertex 13.9 24.1 3.4004
      vertex 12.1 25.9 3.4004
      vertex 12.1 24.1 3.4004
    endloop
  endfacet
  facet normal 1 -0 0
    outer loop
      vertex 19.9 24.1 3.4004
      vertex 19.9 25.9 3
      vertex 19.9 25.9 3.4004
    endloop
  endfacet
  facet normal 1 0 0
    outer loop
      vertex 19.9 25.9 3
      vertex 19.9 24.1 3.4004
      vertex 19.9 24.1 3
    endloop
  endfacet
  facet normal 0 0 -1
    outer loop
      vertex 18.1 24.1 3
      vertex 19.9 25.9 3
      vertex 19.9 24.1 3
    endloop
  endfacet
  facet normal -0 0 -1
    outer loop
      vertex 19.9 25.9 3
      vertex 18.1 24.1 3
      vertex 18.1 25.9 3
    endloop
  endfacet
  facet normal -1 0 0
    outer loop
      vertex 18.1 24.1 3
      vertex 18.1 25.9 3.4004
      vertex 18.1 25.9 3
    endloop
  endfacet
  facet normal -1 -0 0
    outer loop
      vertex 18.1 25.9 3.4004
      vertex 18.1 24.1 3
      vertex 18.1 24.1 3.4004
    endloop
  endfacet
  facet normal 0 1 -0
    outer loop
      vertex 19.9 25.9 3
      vertex 18.1 25.9 3.4004
      vertex 19.9 25.9 3.4004
    endloop
  endfacet
  facet normal 0 1 0
    outer loop
      vertex 18.1 25.9 3.4004
      vertex 19.9 25.9 3
      vertex 18.1 25.9 3
    endloop
  endfacet
  facet normal 0 -1 0
    outer loop
      vertex 18.1 24.1 3
      vertex 19.9 24.1 3.4004
      vertex 18.1 24.1 3.4004
    endloop
  endfacet
  facet normal 0 -1 -0
    outer loop
      vertex 19.9 24.1 3.4004
      vertex 18.1 24.1 3
      vertex 19.9 24.1 3
    endloop
  endfacet
  facet normal -0 0 1
    outer loop
      vertex 18.1 25.9 3.4004
      vertex 19.9 24.1 3.4004
      vertex 19.9 25.9 3.4004
    endloop
  endfacet
  facet normal 0 0 1
    outer loop
      vertex 19.9 24.1 3.4004
      vertex 18.1 25.9 3.4004
      vertex 18.1 24.1 3.4004
    endloop
  endfacet
  facet normal 1 -0 0
    outer loop
      vertex 7.9 26.1 3.4004
      vertex 7.9 27.9 3
      vertex 7.9 27.9 3.4004
    endloop
  endfacet
  facet normal 1 0 0
    outer loop
      vertex 7.9 27.9 3
      vertex 7.9 26.1 3.4004
      vertex 7.9 26.1 3
    endloop
  endfacet
  facet normal 0 0 -1
    outer loop
      vertex 6.1 26.1 3
      vertex 7.9 27.9 3
      vertex 7.9 26.1 3
    endloop
  endfacet
  facet normal -0 0 -1
    outer loop
      vertex 7.9 27.9 3
      vertex 6.1 26.1 3
      vertex 6.1 27.9 3
    endloop
  endfacet
  facet normal -1 0 0
    outer loop
      vertex 6.1 26.1 3
      vertex 6.1 27.9 3.4004
      vertex 6.1 27.9 3
    endloop
  endfacet
  facet normal -1 -0 0
    outer loop
      vertex 6.1 27.9 3.4004
      vertex 6.1 26.1 3
      vertex 6.1 26.1 3.4004
    endloop
  endfacet
  facet normal 0 1 -0
    outer loop
      vertex 7.9 27.9 3
      vertex 6.1 27.9 3.4004
      vertex 7.9 27.9 3.4004
    endloop
  endfacet
  facet normal 0 1 0
    outer loop
      vertex 6.1 27.9 3.4004
      vertex 7.9 27.9 3
      vertex 6.1 27.9 3
    endloop
  endfacet
  facet normal 0 -1 0
    outer loop
      vertex 6.1 26.1 3
      vertex 7.9 26.1 3.4004
      vertex 6.1 26.1 3.4004
    endloop
  endfacet
  facet normal 0 -1 -0
    outer loop
      vertex 7.9 26.1 3.4004
      vertex 6.1 26.1 3
      vertex 7.9 26.1 3
    endloop
  endfacet
  facet normal -0 0 1
    outer loop
      vertex 6.1 27.9 3.4004
      vertex 7.9 26.1 3.4004
      vertex 7.9 27.9 3.4004
    endloop
  endfacet
  facet normal 0 0 1
    outer loop
      vertex 7.9 26.1 3.4004
      vertex 6.1 27.9 3.4004
      vertex 6.1 26.1 3.4004
    endloop
  endfacet
  facet normal 1 -0 0
    outer loop
      vertex 9.9 28.1 3.4004
      vertex 9.9 29.9 3
      vertex 9.9 29.9 3.4004
    endloop
  endfacet
  facet normal 1 0 0
    outer loop
      vertex 9.9 29.9 3
      vertex 9.9 28.1 3.4004
      vertex 9.9 28.1 3
    endloop
  endfacet
  facet normal 0 0 -1
    outer loop
      vertex 8.1 28.1 3
      vertex 9.9 29.9 3
      vertex 9.9 28.1 3
    endloop
  endfacet
  facet normal -0 0 -1
    outer loop
      vertex 9.9 29.9 3
      vertex 8.1 28.1 3
      vertex 8.1 29.9 3
    endloop
  endfacet
  facet normal -1 0 0
    outer loop
      vertex 8.1 28.1 3
      vertex 8.1 29.9 3.4004
      vertex 8.1 29.9 3
    endloop
  endfacet
  facet normal -1 -0 0
    outer loop
      vertex 8.1 29.9 3.4004
      vertex 8.1 28.1 3
      vertex 8.1 28.1 3.4004
    endloop
  endfacet
  facet normal 0 1 -0
    outer loop
      vertex 9.9 29.9 3
      vertex 8.1 29.9 3.4004
      vertex 9.9 29.9 3.4004
    endloop
  endfacet
  facet normal 0 1 0
    outer loop
      vertex 8.1 29.9 3.4004
      vertex 9.9 29.9 3
      vertex 8.1 29.9 3
    endloop
  endfacet
  facet normal 0 -1 0
    outer loop
      vertex 8.1 28.1 3
      vertex 9.9 28.1 3.4004
      vertex 8.1 28.1 3.4004
    endloop
  endfacet
  facet normal 0 -1 -0
    outer loop
      vertex 9.9 28.1 3.4004
      vertex 8.1 28.1 3
      vertex 9.9 28.1 3
    endloop
  endfacet
  facet normal -0 0 1
    outer loop
      vertex 8.1 29.9 3.4004
      vertex 9.9 28.1 3.4004
      vertex 9.9 29.9 3.4004
    endloop
  endfacet
  facet normal 0 0 1
    outer loop
      vertex 9.9 28.1 3.4004
      vertex 8.1 29.9 3.4004
      vertex 8.1 28.1 3.4004
    endloop
  endfacet
  facet normal 1 -0 0
    outer loop
      vertex 11.9 30.1 3.4004
      vertex 11.9 31.9 3
      vertex 11.9 31.9 3.4004
    endloop
  endfacet
  facet normal 1 0 0
    outer loop
      vertex 11.9 31.9 3
      vertex 11.9 30.1 3.4004
      vertex 11.9 30.1 3
    endloop
  endfacet
  facet normal 0 0 -1
    outer loop
      vertex 10.1 30.1 3
      vertex 11.9 31.9 3
      vertex 11.9 30.1 3
    endloop
  endfacet
  facet normal -0 0 -1
    outer loop
      vertex 11.9 31.9 3
      vertex 10.1 30.1 3
      vertex 10.1 31.9 3
    endloop
  endfacet
  facet normal -1 0 0
    outer loop
      vertex 10.1 30.1 3
      vertex 10.1 31.9 3.4004
      vertex 10.1 31.9 3
    endloop
  endfacet
  facet normal -1 -0 0
    outer loop
      vertex 10.1 31.9 3.4004
      vertex 10.1 30.1 3
      vertex 10.1 30.1 3.4004
    endloop
  endfacet
  facet normal 0 1 -0
    outer loop
      vertex 11.9 31.9 3
      vertex 10.1 31.9 3.4004
      vertex 11.9 31.9 3.4004
    endloop
  endfacet
  facet normal 0 1 0
    outer loop
      vertex 10.1 31.9 3.4004
      vertex 11.9 31.9 3
      vertex 10.1 31.9 3
    endloop
  endfacet
  facet normal 0 -1 0
    outer loop
      vertex 10.1 30.1 3
      vertex 11.9 30.1 3.4004
      vertex 10.1 30.1 3.4004
    endloop
  endfacet
  facet normal 0 -1 -0
    outer loop
      vertex 11.9 30.1 3.4004
      vertex 10.1 30.1 3
      vertex 11.9 30.1 3
    endloop
  endfacet
  facet normal -0 0 1
    outer loop
      vertex 10.1 31.9 3.4004
      vertex 11.9 30.1 3.4004
      vertex 11.9 31.9 3.4004
    endloop
  endfacet
  facet normal 0 0 1
    outer loop
      vertex 11.9 30.1 3.4004
      vertex 10.1 31.9 3.4004
      vertex 10.1 30.1 3.4004
    endloop
  endfacet
  facet normal 1 -0 0
    outer loop
      vertex 13.9 30.1 3.4004
      vertex 13.9 31.9 3
      vertex 13.9 31.9 3.4004
    endloop
  endfacet
  facet normal 1 0 0
    outer loop
      vertex 13.9 31.9 3
      vertex 13.9 30.1 3.4004
      vertex 13.9 30.1 3
    endloop
  endfacet
  facet normal 0 0 -1
    outer loop
      vertex 12.1 30.1 3
      vertex 13.9 31.9 3
      vertex 13.9 30.1 3
    endloop
  endfacet
  facet normal -0 0 -1
    outer loop
      vertex 13.9 31.9 3
      vertex 12.1 30.1 3
      vertex 12.1 31.9 3
    endloop
  endfacet
  facet normal -1 0 0
    outer loop
      vertex 12.1 30.1 3
      vertex 12.1 31.9 3.4004
      vertex 12.1 31.9 3
    endloop
  endfacet
  facet normal -1 -0 0
    outer loop
      vertex 12.1 31.9 3.4004
      vertex 12.1 30.1 3
      vertex 12.1 30.1 3.4004
    endloop
  endfacet
  facet normal 0 1 -0
    outer loop
      vertex 13.9 31.9 3
      vertex 12.1 31.9 3.4004
      vertex 13.9 31.9 3.4004
    endloop
  endfacet
  facet normal 0 1 0
    outer loop
      vertex 12.1 31.9 3.4004
      vertex 13.9 31.9 3
      vertex 12.1 31.9 3
    endloop
  endfacet
  facet normal 0 -1 0
    outer loop
      vertex 12.1 30.1 3
      vertex 13.9 30.1 3.4004
      vertex 12.1 30.1 3.4004
    endloop
  endfacet
  facet normal 0 -1 -0
    outer loop
      vertex 13.9 30.1 3.4004
      vertex 12.1 30.1 3
      vertex 13.9 30.1 3
    endloop
  endfacet
  facet normal -0 0 1
    outer loop
      vertex 12.1 31.9 3.4004
      vertex 13.9 30.1 3.4004
      vertex 13.9 31.9 3.4004
    endloop
  endfacet
  facet normal 0 0 1
    outer loop
      vertex 13.9 30.1 3.4004
      vertex 12.1 31.9 3.4004
      vertex 12.1 30.1 3.4004
    endloop
  endfacet
  facet normal 1 -0 0
    outer loop
      vertex 15.9 30.1 3.4004
      vertex 15.9 31.9 3
      vertex 15.9 31.9 3.4004
    endloop
  endfacet
  facet normal 1 0 0
    outer loop
      vertex 15.9 31.9 3
      vertex 15.9 30.1 3.4004
      vertex 15.9 30.1 3
    endloop
  endfacet
  facet normal 0 0 -1
    outer loop
      vertex 14.1 30.1 3
      vertex 15.9 31.9 3
      vertex 15.9 30.1 3
    endloop
  endfacet
  facet normal -0 0 -1
    outer loop
      vertex 15.9 31.9 3
      vertex 14.1 30.1 3
      vertex 14.1 31.9 3
    endloop
  endfacet
  facet normal -1 0 0
    outer loop
      vertex 14.1 30.1 3
      vertex 14.1 31.9 3.4004
      vertex 14.1 31.9 3
    endloop
  endfacet
  facet normal -1 -0 0
    outer loop
      vertex 14.1 31.9 3.4004
      vertex 14.1 30.1 3
      vertex 14.1 30.1 3.4004
    endloop
  endfacet
  facet normal 0 1 -0
    outer loop
      vertex 15.9 31.9 3
      vertex 14.1 31.9 3.4004
      vertex 15.9 31.9 3.4004
    endloop
  endfacet
  facet normal 0 1 0
    outer loop
      vertex 14.1 31.9 3.4004
      vertex 15.9 31.9 3
      vertex 14.1 31.9 3
    endloop
  endfacet
  facet normal 0 -1 0
    outer loop
      vertex 14.1 30.1 3
      vertex 15.9 30.1 3.4004
      vertex 14.1 30.1 3.4004
    endloop
  endfacet
  facet normal 0 -1 -0
    outer loop
      vertex 15.9 30.1 3.4004
      vertex 14.1 30.1 3
      vertex 15.9 30.1 3
    endloop
  endfacet
  facet normal -0 0 1
    outer loop
      vertex 14.1 31.9 3.4004
      vertex 15.9 30.1 3.4004
      vertex 15.9 31.9 3.4004
    endloop
  endfacet
  facet normal 0 0 1
    outer loop
      vertex 15.9 30.1 3.4004
      vertex 14.1 31.9 3.4004
      vertex 14.1 30.1 3.4004
    endloop
  endfacet
  facet normal 1 -0 0
    outer loop
      vertex 17.9 30.1 3.4004
      vertex 17.9 31.9 3
      vertex 17.9 31.9 3.4004
    endloop
  endfacet
  facet normal 1 0 0
    outer loop
      vertex 17.9 31.9 3
      vertex 17.9 30.1 3.4004
      vertex 17.9 30.1 3
    endloop
  endfacet
  facet normal 0 0 -1
    outer loop
      vertex 16.1 30.1 3
      vertex 17.9 31.9 3
      vertex 17.9 30.1 3
    endloop
  endfacet
  facet normal -0 0 -1
    outer loop
      vertex 17.9 31.9 3
      vertex 16.1 30.1 3
      vertex 16.1 31.9 3
    endloop
  endfacet
  facet normal -1 0 0
    outer loop
      vertex 16.1 30.1 3
      vertex 16.1 31.9 3.4004
      vertex 16.1 31.9 3
    endloop
  endfacet
  facet normal -1 -0 0
    outer loop
      vertex 16.1 31.9 3.4004
      vertex 16.1 30.1 3
      vertex 16.1 30.1 3.4004
    endloop
  endfacet
  facet normal 0 1 -0
    outer loop
      vertex 17.9 31.9 3
      vertex 16.1 31.9 3.4004
      vertex 17.9 31.9 3.4004
    endloop
  endfacet
  facet normal 0 1 0
    outer loop
      vertex 16.1 31.9 3.4004
      vertex 17.9 31.9 3
      vertex 16.1 31.9 3
    endloop
  endfacet
  facet normal 0 -1 0
    outer loop
      vertex 16.1 30.1 3
      vertex 17.9 30.1 3.4004
      vertex 16.1 30.1 3.4004
    endloop
  endfacet
  facet normal 0 -1 -0
    outer loop
      vertex 17.9 30.1 3.4004
      vertex 16.1 30.1 3
      vertex 17.9 30.1 3
    endloop
  endfacet
  facet normal -0 0 1
    outer loop
      vertex 16.1 31.9 3.4004
      vertex 17.9 30.1 3.4004
      vertex 17.9 31.9 3.4004
    endloop
  endfacet
  facet normal 0 0 1
    outer loop
      vertex 17.9 30.1 3.4004
      vertex 16.1 31.9 3.4004
      vertex 16.1 30.1 3.4004
    endloop
  endfacet
  facet normal 1 -0 0
    outer loop
      vertex 19.9 30.1 3.4004
      vertex 19.9 31.9 3
      vertex 19.9 31.9 3.4004
    endloop
  endfacet
  facet normal 1 0 0
    outer loop
      vertex 19.9 31.9 3
      vertex 19.9 30.1 3.4004
      vertex 19.9 30.1 3
    endloop
  endfacet
  facet normal 0 0 -1
    outer loop
      vertex 18.1 30.1 3
      vertex 19.9 31.9 3
      vertex 19.9 30.1 3
    endloop
  endfacet
  facet normal -0 0 -1
    outer loop
      vertex 19.9 31.9 3
      vertex 18.1 30.1 3
      vertex 18.1 31.9 3
    endloop
  endfacet
  facet normal -1 0 0
    outer loop
      vertex 18.1 30.1 3
      vertex 18.1 31.9 3.4004
      vertex 18.1 31.9 3
    endloop
  endfacet
  facet normal -1 -0 0
    outer loop
      vertex 18.1 31.9 3.4004
      vertex 18.1 30.1 3
      vertex 18.1 30.1 3.4004
    endloop
  endfacet
  facet normal 0 1 -0
    outer loop
      vertex 19.9 31.9 3
      vertex 18.1 31.9 3.4004
      vertex 19.9 31.9 3.4004
    endloop
  endfacet
  facet normal 0 1 0
    outer loop
      vertex 18.1 31.9 3.4004
      vertex 19.9 31.9 3
      vertex 18.1 31.9 3
    endloop
  endfacet
  facet normal 0 -1 0
    outer loop
      vertex 18.1 30.1 3
      vertex 19.9 30.1 3.4004
      vertex 18.1 30.1 3.4004
    endloop
  endfacet
  facet normal 0 -1 -0
    outer loop
      vertex 19.9 30.1 3.4004
      vertex 18.1 30.1 3
      vertex 19.9 30.1 3
    endloop
  endfacet
  facet normal -0 0 1
    outer loop
      vertex 18.1 31.9 3.4004
      vertex 19.9 30.1 3.4004
      vertex 19.9 31.9 3.4004
    endloop
  endfacet
  facet normal 0 0 1
    outer loop
      vertex 19.9 30.1 3.4004
      vertex 18.1 31.9 3.4004
      vertex 18.1 30.1 3.4004
    endloop
  endfacet
endsolid OpenSCAD_Model
