solid OpenSCAD_Model
  facet normal 1 -0 0
    outer loop
      vertex 2.85 18.15 2.4004
      vertex 2.85 20.85 2.2002
      vertex 2.85 20.85 2.4004
    endloop
  endfacet
  facet normal 1 0 0
    outer loop
      vertex 2.85 20.85 2.2002
      vertex 2.85 18.15 2.4004
      vertex 2.85 18.15 2.2002
    endloop
  endfacet
  facet normal -0 0 1
    outer loop
      vertex 0.15 20.85 2.4004
      vertex 2.85 18.15 2.4004
      vertex 2.85 20.85 2.4004
    endloop
  endfacet
  facet normal 0 0 1
    outer loop
      vertex 2.85 18.15 2.4004
      vertex 0.15 20.85 2.4004
      vertex 0.15 18.15 2.4004
    endloop
  endfacet
  facet normal 0 0 -1
    outer loop
      vertex 0.15 18.15 2.2002
      vertex 2.85 20.85 2.2002
      vertex 2.85 18.15 2.2002
    endloop
  endfacet
  facet normal -0 0 -1
    outer loop
      vertex 2.85 20.85 2.2002
      vertex 0.15 18.15 2.2002
      vertex 0.15 20.85 2.2002
    endloop
  endfacet
  facet normal -1 0 0
    outer loop
      vertex 0.15 18.15 2.2002
      vertex 0.15 20.85 2.4004
      vertex 0.15 20.85 2.2002
    endloop
  endfacet
  facet normal -1 -0 0
    outer loop
      vertex 0.15 20.85 2.4004
      vertex 0.15 18.15 2.2002
      vertex 0.15 18.15 2.4004
    endloop
  endfacet
  facet normal 0 1 -0
    outer loop
      vertex 2.85 20.85 2.2002
      vertex 0.15 20.85 2.4004
      vertex 2.85 20.85 2.4004
    endloop
  endfacet
  facet normal 0 1 0
    outer loop
      vertex 0.15 20.85 2.4004
      vertex 2.85 20.85 2.2002
      vertex 0.15 20.85 2.2002
    endloop
  endfacet
  facet normal 0 -1 0
    outer loop
      vertex 0.15 18.15 2.2002
      vertex 2.85 18.15 2.4004
      vertex 0.15 18.15 2.4004
    endloop
  endfacet
  facet normal 0 -1 -0
    outer loop
      vertex 2.85 18.15 2.4004
      vertex 0.15 18.15 2.2002
      vertex 2.85 18.15 2.2002
    endloop
  endfacet
  facet normal 1 -0 0
    outer loop
      vertex 5.85 18.15 2.4004
      vertex 5.85 20.85 2.2002
      vertex 5.85 20.85 2.4004
    endloop
  endfacet
  facet normal 1 0 0
    outer loop
      vertex 5.85 20.85 2.2002
      vertex 5.85 18.15 2.4004
      vertex 5.85 18.15 2.2002
    endloop
  endfacet
  facet normal -0 0 1
    outer loop
      vertex 3.15 20.85 2.4004
      vertex 5.85 18.15 2.4004
      vertex 5.85 20.85 2.4004
    endloop
  endfacet
  facet normal 0 0 1
    outer loop
      vertex 5.85 18.15 2.4004
      vertex 3.15 20.85 2.4004
      vertex 3.15 18.15 2.4004
    endloop
  endfacet
  facet normal 0 0 -1
    outer loop
      vertex 3.15 18.15 2.2002
      vertex 5.85 20.85 2.2002
      vertex 5.85 18.15 2.2002
    endloop
  endfacet
  facet normal -0 0 -1
    outer loop
      vertex 5.85 20.85 2.2002
      vertex 3.15 18.15 2.2002
      vertex 3.15 20.85 2.2002
    endloop
  endfacet
  facet normal -1 0 0
    outer loop
      vertex 3.15 18.15 2.2002
      vertex 3.15 20.85 2.4004
      vertex 3.15 20.85 2.2002
    endloop
  endfacet
  facet normal -1 -0 0
    outer loop
      vertex 3.15 20.85 2.4004
      vertex 3.15 18.15 2.2002
      vertex 3.15 18.15 2.4004
    endloop
  endfacet
  facet normal 0 1 -0
    outer loop
      vertex 5.85 20.85 2.2002
      vertex 3.15 20.85 2.4004
      vertex 5.85 20.85 2.4004
    endloop
  endfacet
  facet normal 0 1 0
    outer loop
      vertex 3.15 20.85 2.4004
      vertex 5.85 20.85 2.2002
      vertex 3.15 20.85 2.2002
    endloop
  endfacet
  facet normal 0 -1 0
    outer loop
      vertex 3.15 18.15 2.2002
      vertex 5.85 18.15 2.4004
      vertex 3.15 18.15 2.4004
    endloop
  endfacet
  facet normal 0 -1 -0
    outer loop
      vertex 5.85 18.15 2.4004
      vertex 3.15 18.15 2.2002
      vertex 5.85 18.15 2.2002
    endloop
  endfacet
  facet normal 1 -0 0
    outer loop
      vertex 8.85 18.15 2.4004
      vertex 8.85 20.85 2.2002
      vertex 8.85 20.85 2.4004
    endloop
  endfacet
  facet normal 1 0 0
    outer loop
      vertex 8.85 20.85 2.2002
      vertex 8.85 18.15 2.4004
      vertex 8.85 18.15 2.2002
    endloop
  endfacet
  facet normal -0 0 1
    outer loop
      vertex 6.15 20.85 2.4004
      vertex 8.85 18.15 2.4004
      vertex 8.85 20.85 2.4004
    endloop
  endfacet
  facet normal 0 0 1
    outer loop
      vertex 8.85 18.15 2.4004
      vertex 6.15 20.85 2.4004
      vertex 6.15 18.15 2.4004
    endloop
  endfacet
  facet normal 0 0 -1
    outer loop
      vertex 6.15 18.15 2.2002
      vertex 8.85 20.85 2.2002
      vertex 8.85 18.15 2.2002
    endloop
  endfacet
  facet normal -0 0 -1
    outer loop
      vertex 8.85 20.85 2.2002
      vertex 6.15 18.15 2.2002
      vertex 6.15 20.85 2.2002
    endloop
  endfacet
  facet normal -1 0 0
    outer loop
      vertex 6.15 18.15 2.2002
      vertex 6.15 20.85 2.4004
      vertex 6.15 20.85 2.2002
    endloop
  endfacet
  facet normal -1 -0 0
    outer loop
      vertex 6.15 20.85 2.4004
      vertex 6.15 18.15 2.2002
      vertex 6.15 18.15 2.4004
    endloop
  endfacet
  facet normal 0 1 -0
    outer loop
      vertex 8.85 20.85 2.2002
      vertex 6.15 20.85 2.4004
      vertex 8.85 20.85 2.4004
    endloop
  endfacet
  facet normal 0 1 0
    outer loop
      vertex 6.15 20.85 2.4004
      vertex 8.85 20.85 2.2002
      vertex 6.15 20.85 2.2002
    endloop
  endfacet
  facet normal 0 -1 0
    outer loop
      vertex 6.15 18.15 2.2002
      vertex 8.85 18.15 2.4004
      vertex 6.15 18.15 2.4004
    endloop
  endfacet
  facet normal 0 -1 -0
    outer loop
      vertex 8.85 18.15 2.4004
      vertex 6.15 18.15 2.2002
      vertex 8.85 18.15 2.2002
    endloop
  endfacet
  facet normal 1 -0 0
    outer loop
      vertex 11.85 18.15 2.4004
      vertex 11.85 20.85 2.2002
      vertex 11.85 20.85 2.4004
    endloop
  endfacet
  facet normal 1 0 0
    outer loop
      vertex 11.85 20.85 2.2002
      vertex 11.85 18.15 2.4004
      vertex 11.85 18.15 2.2002
    endloop
  endfacet
  facet normal -0 0 1
    outer loop
      vertex 9.15 20.85 2.4004
      vertex 11.85 18.15 2.4004
      vertex 11.85 20.85 2.4004
    endloop
  endfacet
  facet normal 0 0 1
    outer loop
      vertex 11.85 18.15 2.4004
      vertex 9.15 20.85 2.4004
      vertex 9.15 18.15 2.4004
    endloop
  endfacet
  facet normal 0 0 -1
    outer loop
      vertex 9.15 18.15 2.2002
      vertex 11.85 20.85 2.2002
      vertex 11.85 18.15 2.2002
    endloop
  endfacet
  facet normal -0 0 -1
    outer loop
      vertex 11.85 20.85 2.2002
      vertex 9.15 18.15 2.2002
      vertex 9.15 20.85 2.2002
    endloop
  endfacet
  facet normal -1 0 0
    outer loop
      vertex 9.15 18.15 2.2002
      vertex 9.15 20.85 2.4004
      vertex 9.15 20.85 2.2002
    endloop
  endfacet
  facet normal -1 -0 0
    outer loop
      vertex 9.15 20.85 2.4004
      vertex 9.15 18.15 2.2002
      vertex 9.15 18.15 2.4004
    endloop
  endfacet
  facet normal 0 1 -0
    outer loop
      vertex 11.85 20.85 2.2002
      vertex 9.15 20.85 2.4004
      vertex 11.85 20.85 2.4004
    endloop
  endfacet
  facet normal 0 1 0
    outer loop
      vertex 9.15 20.85 2.4004
      vertex 11.85 20.85 2.2002
      vertex 9.15 20.85 2.2002
    endloop
  endfacet
  facet normal 0 -1 0
    outer loop
      vertex 9.15 18.15 2.2002
      vertex 11.85 18.15 2.4004
      vertex 9.15 18.15 2.4004
    endloop
  endfacet
  facet normal 0 -1 -0
    outer loop
      vertex 11.85 18.15 2.4004
      vertex 9.15 18.15 2.2002
      vertex 11.85 18.15 2.2002
    endloop
  endfacet
  facet normal 1 -0 0
    outer loop
      vertex 14.85 18.15 2.4004
      vertex 14.85 20.85 2.2002
      vertex 14.85 20.85 2.4004
    endloop
  endfacet
  facet normal 1 0 0
    outer loop
      vertex 14.85 20.85 2.2002
      vertex 14.85 18.15 2.4004
      vertex 14.85 18.15 2.2002
    endloop
  endfacet
  facet normal -0 0 1
    outer loop
      vertex 12.15 20.85 2.4004
      vertex 14.85 18.15 2.4004
      vertex 14.85 20.85 2.4004
    endloop
  endfacet
  facet normal 0 0 1
    outer loop
      vertex 14.85 18.15 2.4004
      vertex 12.15 20.85 2.4004
      vertex 12.15 18.15 2.4004
    endloop
  endfacet
  facet normal 0 0 -1
    outer loop
      vertex 12.15 18.15 2.2002
      vertex 14.85 20.85 2.2002
      vertex 14.85 18.15 2.2002
    endloop
  endfacet
  facet normal -0 0 -1
    outer loop
      vertex 14.85 20.85 2.2002
      vertex 12.15 18.15 2.2002
      vertex 12.15 20.85 2.2002
    endloop
  endfacet
  facet normal -1 0 0
    outer loop
      vertex 12.15 18.15 2.2002
      vertex 12.15 20.85 2.4004
      vertex 12.15 20.85 2.2002
    endloop
  endfacet
  facet normal -1 -0 0
    outer loop
      vertex 12.15 20.85 2.4004
      vertex 12.15 18.15 2.2002
      vertex 12.15 18.15 2.4004
    endloop
  endfacet
  facet normal 0 1 -0
    outer loop
      vertex 14.85 20.85 2.2002
      vertex 12.15 20.85 2.4004
      vertex 14.85 20.85 2.4004
    endloop
  endfacet
  facet normal 0 1 0
    outer loop
      vertex 12.15 20.85 2.4004
      vertex 14.85 20.85 2.2002
      vertex 12.15 20.85 2.2002
    endloop
  endfacet
  facet normal 0 -1 0
    outer loop
      vertex 12.15 18.15 2.2002
      vertex 14.85 18.15 2.4004
      vertex 12.15 18.15 2.4004
    endloop
  endfacet
  facet normal 0 -1 -0
    outer loop
      vertex 14.85 18.15 2.4004
      vertex 12.15 18.15 2.2002
      vertex 14.85 18.15 2.2002
    endloop
  endfacet
  facet normal 1 -0 0
    outer loop
      vertex 17.85 18.15 2.4004
      vertex 17.85 20.85 2.2002
      vertex 17.85 20.85 2.4004
    endloop
  endfacet
  facet normal 1 0 0
    outer loop
      vertex 17.85 20.85 2.2002
      vertex 17.85 18.15 2.4004
      vertex 17.85 18.15 2.2002
    endloop
  endfacet
  facet normal -0 0 1
    outer loop
      vertex 15.15 20.85 2.4004
      vertex 17.85 18.15 2.4004
      vertex 17.85 20.85 2.4004
    endloop
  endfacet
  facet normal 0 0 1
    outer loop
      vertex 17.85 18.15 2.4004
      vertex 15.15 20.85 2.4004
      vertex 15.15 18.15 2.4004
    endloop
  endfacet
  facet normal 0 0 -1
    outer loop
      vertex 15.15 18.15 2.2002
      vertex 17.85 20.85 2.2002
      vertex 17.85 18.15 2.2002
    endloop
  endfacet
  facet normal -0 0 -1
    outer loop
      vertex 17.85 20.85 2.2002
      vertex 15.15 18.15 2.2002
      vertex 15.15 20.85 2.2002
    endloop
  endfacet
  facet normal -1 0 0
    outer loop
      vertex 15.15 18.15 2.2002
      vertex 15.15 20.85 2.4004
      vertex 15.15 20.85 2.2002
    endloop
  endfacet
  facet normal -1 -0 0
    outer loop
      vertex 15.15 20.85 2.4004
      vertex 15.15 18.15 2.2002
      vertex 15.15 18.15 2.4004
    endloop
  endfacet
  facet normal 0 1 -0
    outer loop
      vertex 17.85 20.85 2.2002
      vertex 15.15 20.85 2.4004
      vertex 17.85 20.85 2.4004
    endloop
  endfacet
  facet normal 0 1 0
    outer loop
      vertex 15.15 20.85 2.4004
      vertex 17.85 20.85 2.2002
      vertex 15.15 20.85 2.2002
    endloop
  endfacet
  facet normal 0 -1 0
    outer loop
      vertex 15.15 18.15 2.2002
      vertex 17.85 18.15 2.4004
      vertex 15.15 18.15 2.4004
    endloop
  endfacet
  facet normal 0 -1 -0
    outer loop
      vertex 17.85 18.15 2.4004
      vertex 15.15 18.15 2.2002
      vertex 17.85 18.15 2.2002
    endloop
  endfacet
  facet normal 1 -0 0
    outer loop
      vertex 2.85 21.15 2.4004
      vertex 2.85 23.85 2.2002
      vertex 2.85 23.85 2.4004
    endloop
  endfacet
  facet normal 1 0 0
    outer loop
      vertex 2.85 23.85 2.2002
      vertex 2.85 21.15 2.4004
      vertex 2.85 21.15 2.2002
    endloop
  endfacet
  facet normal -0 0 1
    outer loop
      vertex 0.15 23.85 2.4004
      vertex 2.85 21.15 2.4004
      vertex 2.85 23.85 2.4004
    endloop
  endfacet
  facet normal 0 0 1
    outer loop
      vertex 2.85 21.15 2.4004
      vertex 0.15 23.85 2.4004
      vertex 0.15 21.15 2.4004
    endloop
  endfacet
  facet normal 0 0 -1
    outer loop
      vertex 0.15 21.15 2.2002
      vertex 2.85 23.85 2.2002
      vertex 2.85 21.15 2.2002
    endloop
  endfacet
  facet normal -0 0 -1
    outer loop
      vertex 2.85 23.85 2.2002
      vertex 0.15 21.15 2.2002
      vertex 0.15 23.85 2.2002
    endloop
  endfacet
  facet normal -1 0 0
    outer loop
      vertex 0.15 21.15 2.2002
      vertex 0.15 23.85 2.4004
      vertex 0.15 23.85 2.2002
    endloop
  endfacet
  facet normal -1 -0 0
    outer loop
      vertex 0.15 23.85 2.4004
      vertex 0.15 21.15 2.2002
      vertex 0.15 21.15 2.4004
    endloop
  endfacet
  facet normal 0 1 -0
    outer loop
      vertex 2.85 23.85 2.2002
      vertex 0.15 23.85 2.4004
      vertex 2.85 23.85 2.4004
    endloop
  endfacet
  facet normal 0 1 0
    outer loop
      vertex 0.15 23.85 2.4004
      vertex 2.85 23.85 2.2002
      vertex 0.15 23.85 2.2002
    endloop
  endfacet
  facet normal 0 -1 0
    outer loop
      vertex 0.15 21.15 2.2002
      vertex 2.85 21.15 2.4004
      vertex 0.15 21.15 2.4004
    endloop
  endfacet
  facet normal 0 -1 -0
    outer loop
      vertex 2.85 21.15 2.4004
      vertex 0.15 21.15 2.2002
      vertex 2.85 21.15 2.2002
    endloop
  endfacet
  facet normal 1 -0 0
    outer loop
      vertex 5.85 21.15 2.4004
      vertex 5.85 23.85 2.2002
      vertex 5.85 23.85 2.4004
    endloop
  endfacet
  facet normal 1 0 0
    outer loop
      vertex 5.85 23.85 2.2002
      vertex 5.85 21.15 2.4004
      vertex 5.85 21.15 2.2002
    endloop
  endfacet
  facet normal -0 0 1
    outer loop
      vertex 3.15 23.85 2.4004
      vertex 5.85 21.15 2.4004
      vertex 5.85 23.85 2.4004
    endloop
  endfacet
  facet normal 0 0 1
    outer loop
      vertex 5.85 21.15 2.4004
      vertex 3.15 23.85 2.4004
      vertex 3.15 21.15 2.4004
    endloop
  endfacet
  facet normal 0 0 -1
    outer loop
      vertex 3.15 21.15 2.2002
      vertex 5.85 23.85 2.2002
      vertex 5.85 21.15 2.2002
    endloop
  endfacet
  facet normal -0 0 -1
    outer loop
      vertex 5.85 23.85 2.2002
      vertex 3.15 21.15 2.2002
      vertex 3.15 23.85 2.2002
    endloop
  endfacet
  facet normal -1 0 0
    outer loop
      vertex 3.15 21.15 2.2002
      vertex 3.15 23.85 2.4004
      vertex 3.15 23.85 2.2002
    endloop
  endfacet
  facet normal -1 -0 0
    outer loop
      vertex 3.15 23.85 2.4004
      vertex 3.15 21.15 2.2002
      vertex 3.15 21.15 2.4004
    endloop
  endfacet
  facet normal 0 1 -0
    outer loop
      vertex 5.85 23.85 2.2002
      vertex 3.15 23.85 2.4004
      vertex 5.85 23.85 2.4004
    endloop
  endfacet
  facet normal 0 1 0
    outer loop
      vertex 3.15 23.85 2.4004
      vertex 5.85 23.85 2.2002
      vertex 3.15 23.85 2.2002
    endloop
  endfacet
  facet normal 0 -1 0
    outer loop
      vertex 3.15 21.15 2.2002
      vertex 5.85 21.15 2.4004
      vertex 3.15 21.15 2.4004
    endloop
  endfacet
  facet normal 0 -1 -0
    outer loop
      vertex 5.85 21.15 2.4004
      vertex 3.15 21.15 2.2002
      vertex 5.85 21.15 2.2002
    endloop
  endfacet
  facet normal 1 -0 0
    outer loop
      vertex 8.85 21.15 2.4004
      vertex 8.85 23.85 2.2002
      vertex 8.85 23.85 2.4004
    endloop
  endfacet
  facet normal 1 0 0
    outer loop
      vertex 8.85 23.85 2.2002
      vertex 8.85 21.15 2.4004
      vertex 8.85 21.15 2.2002
    endloop
  endfacet
  facet normal -0 0 1
    outer loop
      vertex 6.15 23.85 2.4004
      vertex 8.85 21.15 2.4004
      vertex 8.85 23.85 2.4004
    endloop
  endfacet
  facet normal 0 0 1
    outer loop
      vertex 8.85 21.15 2.4004
      vertex 6.15 23.85 2.4004
      vertex 6.15 21.15 2.4004
    endloop
  endfacet
  facet normal 0 0 -1
    outer loop
      vertex 6.15 21.15 2.2002
      vertex 8.85 23.85 2.2002
      vertex 8.85 21.15 2.2002
    endloop
  endfacet
  facet normal -0 0 -1
    outer loop
      vertex 8.85 23.85 2.2002
      vertex 6.15 21.15 2.2002
      vertex 6.15 23.85 2.2002
    endloop
  endfacet
  facet normal -1 0 0
    outer loop
      vertex 6.15 21.15 2.2002
      vertex 6.15 23.85 2.4004
      vertex 6.15 23.85 2.2002
    endloop
  endfacet
  facet normal -1 -0 0
    outer loop
      vertex 6.15 23.85 2.4004
      vertex 6.15 21.15 2.2002
      vertex 6.15 21.15 2.4004
    endloop
  endfacet
  facet normal 0 1 -0
    outer loop
      vertex 8.85 23.85 2.2002
      vertex 6.15 23.85 2.4004
      vertex 8.85 23.85 2.4004
    endloop
  endfacet
  facet normal 0 1 0
    outer loop
      vertex 6.15 23.85 2.4004
      vertex 8.85 23.85 2.2002
      vertex 6.15 23.85 2.2002
    endloop
  endfacet
  facet normal 0 -1 0
    outer loop
      vertex 6.15 21.15 2.2002
      vertex 8.85 21.15 2.4004
      vertex 6.15 21.15 2.4004
    endloop
  endfacet
  facet normal 0 -1 -0
    outer loop
      vertex 8.85 21.15 2.4004
      vertex 6.15 21.15 2.2002
      vertex 8.85 21.15 2.2002
    endloop
  endfacet
  facet normal 1 -0 0
    outer loop
      vertex 11.85 21.15 2.4004
      vertex 11.85 23.85 2.2002
      vertex 11.85 23.85 2.4004
    endloop
  endfacet
  facet normal 1 0 0
    outer loop
      vertex 11.85 23.85 2.2002
      vertex 11.85 21.15 2.4004
      vertex 11.85 21.15 2.2002
    endloop
  endfacet
  facet normal -0 0 1
    outer loop
      vertex 9.15 23.85 2.4004
      vertex 11.85 21.15 2.4004
      vertex 11.85 23.85 2.4004
    endloop
  endfacet
  facet normal 0 0 1
    outer loop
      vertex 11.85 21.15 2.4004
      vertex 9.15 23.85 2.4004
      vertex 9.15 21.15 2.4004
    endloop
  endfacet
  facet normal 0 0 -1
    outer loop
      vertex 9.15 21.15 2.2002
      vertex 11.85 23.85 2.2002
      vertex 11.85 21.15 2.2002
    endloop
  endfacet
  facet normal -0 0 -1
    outer loop
      vertex 11.85 23.85 2.2002
      vertex 9.15 21.15 2.2002
      vertex 9.15 23.85 2.2002
    endloop
  endfacet
  facet normal -1 0 0
    outer loop
      vertex 9.15 21.15 2.2002
      vertex 9.15 23.85 2.4004
      vertex 9.15 23.85 2.2002
    endloop
  endfacet
  facet normal -1 -0 0
    outer loop
      vertex 9.15 23.85 2.4004
      vertex 9.15 21.15 2.2002
      vertex 9.15 21.15 2.4004
    endloop
  endfacet
  facet normal 0 1 -0
    outer loop
      vertex 11.85 23.85 2.2002
      vertex 9.15 23.85 2.4004
      vertex 11.85 23.85 2.4004
    endloop
  endfacet
  facet normal 0 1 0
    outer loop
      vertex 9.15 23.85 2.4004
      vertex 11.85 23.85 2.2002
      vertex 9.15 23.85 2.2002
    endloop
  endfacet
  facet normal 0 -1 0
    outer loop
      vertex 9.15 21.15 2.2002
      vertex 11.85 21.15 2.4004
      vertex 9.15 21.15 2.4004
    endloop
  endfacet
  facet normal 0 -1 -0
    outer loop
      vertex 11.85 21.15 2.4004
      vertex 9.15 21.15 2.2002
      vertex 11.85 21.15 2.2002
    endloop
  endfacet
  facet normal 1 -0 0
    outer loop
      vertex 14.85 21.15 2.4004
      vertex 14.85 23.85 2.2002
      vertex 14.85 23.85 2.4004
    endloop
  endfacet
  facet normal 1 0 0
    outer loop
      vertex 14.85 23.85 2.2002
      vertex 14.85 21.15 2.4004
      vertex 14.85 21.15 2.2002
    endloop
  endfacet
  facet normal -0 0 1
    outer loop
      vertex 12.15 23.85 2.4004
      vertex 14.85 21.15 2.4004
      vertex 14.85 23.85 2.4004
    endloop
  endfacet
  facet normal 0 0 1
    outer loop
      vertex 14.85 21.15 2.4004
      vertex 12.15 23.85 2.4004
      vertex 12.15 21.15 2.4004
    endloop
  endfacet
  facet normal 0 0 -1
    outer loop
      vertex 12.15 21.15 2.2002
      vertex 14.85 23.85 2.2002
      vertex 14.85 21.15 2.2002
    endloop
  endfacet
  facet normal -0 0 -1
    outer loop
      vertex 14.85 23.85 2.2002
      vertex 12.15 21.15 2.2002
      vertex 12.15 23.85 2.2002
    endloop
  endfacet
  facet normal -1 0 0
    outer loop
      vertex 12.15 21.15 2.2002
      vertex 12.15 23.85 2.4004
      vertex 12.15 23.85 2.2002
    endloop
  endfacet
  facet normal -1 -0 0
    outer loop
      vertex 12.15 23.85 2.4004
      vertex 12.15 21.15 2.2002
      vertex 12.15 21.15 2.4004
    endloop
  endfacet
  facet normal 0 1 -0
    outer loop
      vertex 14.85 23.85 2.2002
      vertex 12.15 23.85 2.4004
      vertex 14.85 23.85 2.4004
    endloop
  endfacet
  facet normal 0 1 0
    outer loop
      vertex 12.15 23.85 2.4004
      vertex 14.85 23.85 2.2002
      vertex 12.15 23.85 2.2002
    endloop
  endfacet
  facet normal 0 -1 0
    outer loop
      vertex 12.15 21.15 2.2002
      vertex 14.85 21.15 2.4004
      vertex 12.15 21.15 2.4004
    endloop
  endfacet
  facet normal 0 -1 -0
    outer loop
      vertex 14.85 21.15 2.4004
      vertex 12.15 21.15 2.2002
      vertex 14.85 21.15 2.2002
    endloop
  endfacet
  facet normal 1 -0 0
    outer loop
      vertex 17.85 21.15 2.4004
      vertex 17.85 23.85 2.2002
      vertex 17.85 23.85 2.4004
    endloop
  endfacet
  facet normal 1 0 0
    outer loop
      vertex 17.85 23.85 2.2002
      vertex 17.85 21.15 2.4004
      vertex 17.85 21.15 2.2002
    endloop
  endfacet
  facet normal -0 0 1
    outer loop
      vertex 15.15 23.85 2.4004
      vertex 17.85 21.15 2.4004
      vertex 17.85 23.85 2.4004
    endloop
  endfacet
  facet normal 0 0 1
    outer loop
      vertex 17.85 21.15 2.4004
      vertex 15.15 23.85 2.4004
      vertex 15.15 21.15 2.4004
    endloop
  endfacet
  facet normal 0 0 -1
    outer loop
      vertex 15.15 21.15 2.2002
      vertex 17.85 23.85 2.2002
      vertex 17.85 21.15 2.2002
    endloop
  endfacet
  facet normal -0 0 -1
    outer loop
      vertex 17.85 23.85 2.2002
      vertex 15.15 21.15 2.2002
      vertex 15.15 23.85 2.2002
    endloop
  endfacet
  facet normal -1 0 0
    outer loop
      vertex 15.15 21.15 2.2002
      vertex 15.15 23.85 2.4004
      vertex 15.15 23.85 2.2002
    endloop
  endfacet
  facet normal -1 -0 0
    outer loop
      vertex 15.15 23.85 2.4004
      vertex 15.15 21.15 2.2002
      vertex 15.15 21.15 2.4004
    endloop
  endfacet
  facet normal 0 1 -0
    outer loop
      vertex 17.85 23.85 2.2002
      vertex 15.15 23.85 2.4004
      vertex 17.85 23.85 2.4004
    endloop
  endfacet
  facet normal 0 1 0
    outer loop
      vertex 15.15 23.85 2.4004
      vertex 17.85 23.85 2.2002
      vertex 15.15 23.85 2.2002
    endloop
  endfacet
  facet normal 0 -1 0
    outer loop
      vertex 15.15 21.15 2.2002
      vertex 17.85 21.15 2.4004
      vertex 15.15 21.15 2.4004
    endloop
  endfacet
  facet normal 0 -1 -0
    outer loop
      vertex 17.85 21.15 2.4004
      vertex 15.15 21.15 2.2002
      vertex 17.85 21.15 2.2002
    endloop
  endfacet
  facet normal 1 -0 0
    outer loop
      vertex 20.85 21.15 2.4004
      vertex 20.85 23.85 2.2002
      vertex 20.85 23.85 2.4004
    endloop
  endfacet
  facet normal 1 0 0
    outer loop
      vertex 20.85 23.85 2.2002
      vertex 20.85 21.15 2.4004
      vertex 20.85 21.15 2.2002
    endloop
  endfacet
  facet normal -0 0 1
    outer loop
      vertex 18.15 23.85 2.4004
      vertex 20.85 21.15 2.4004
      vertex 20.85 23.85 2.4004
    endloop
  endfacet
  facet normal 0 0 1
    outer loop
      vertex 20.85 21.15 2.4004
      vertex 18.15 23.85 2.4004
      vertex 18.15 21.15 2.4004
    endloop
  endfacet
  facet normal 0 0 -1
    outer loop
      vertex 18.15 21.15 2.2002
      vertex 20.85 23.85 2.2002
      vertex 20.85 21.15 2.2002
    endloop
  endfacet
  facet normal -0 0 -1
    outer loop
      vertex 20.85 23.85 2.2002
      vertex 18.15 21.15 2.2002
      vertex 18.15 23.85 2.2002
    endloop
  endfacet
  facet normal -1 0 0
    outer loop
      vertex 18.15 21.15 2.2002
      vertex 18.15 23.85 2.4004
      vertex 18.15 23.85 2.2002
    endloop
  endfacet
  facet normal -1 -0 0
    outer loop
      vertex 18.15 23.85 2.4004
      vertex 18.15 21.15 2.2002
      vertex 18.15 21.15 2.4004
    endloop
  endfacet
  facet normal 0 1 -0
    outer loop
      vertex 20.85 23.85 2.2002
      vertex 18.15 23.85 2.4004
      vertex 20.85 23.85 2.4004
    endloop
  endfacet
  facet normal 0 1 0
    outer loop
      vertex 18.15 23.85 2.4004
      vertex 20.85 23.85 2.2002
      vertex 18.15 23.85 2.2002
    endloop
  endfacet
  facet normal 0 -1 0
    outer loop
      vertex 18.15 21.15 2.2002
      vertex 20.85 21.15 2.4004
      vertex 18.15 21.15 2.4004
    endloop
  endfacet
  facet normal 0 -1 -0
    outer loop
      vertex 20.85 21.15 2.4004
      vertex 18.15 21.15 2.2002
      vertex 20.85 21.15 2.2002
    endloop
  endfacet
  facet normal 1 -0 0
    outer loop
      vertex 2.85 24.15 2.4004
      vertex 2.85 26.85 2.2002
      vertex 2.85 26.85 2.4004
    endloop
  endfacet
  facet normal 1 0 0
    outer loop
      vertex 2.85 26.85 2.2002
      vertex 2.85 24.15 2.4004
      vertex 2.85 24.15 2.2002
    endloop
  endfacet
  facet normal -0 0 1
    outer loop
      vertex 0.15 26.85 2.4004
      vertex 2.85 24.15 2.4004
      vertex 2.85 26.85 2.4004
    endloop
  endfacet
  facet normal 0 0 1
    outer loop
      vertex 2.85 24.15 2.4004
      vertex 0.15 26.85 2.4004
      vertex 0.15 24.15 2.4004
    endloop
  endfacet
  facet normal 0 0 -1
    outer loop
      vertex 0.15 24.15 2.2002
      vertex 2.85 26.85 2.2002
      vertex 2.85 24.15 2.2002
    endloop
  endfacet
  facet normal -0 0 -1
    outer loop
      vertex 2.85 26.85 2.2002
      vertex 0.15 24.15 2.2002
      vertex 0.15 26.85 2.2002
    endloop
  endfacet
  facet normal -1 0 0
    outer loop
      vertex 0.15 24.15 2.2002
      vertex 0.15 26.85 2.4004
      vertex 0.15 26.85 2.2002
    endloop
  endfacet
  facet normal -1 -0 0
    outer loop
      vertex 0.15 26.85 2.4004
      vertex 0.15 24.15 2.2002
      vertex 0.15 24.15 2.4004
    endloop
  endfacet
  facet normal 0 1 -0
    outer loop
      vertex 2.85 26.85 2.2002
      vertex 0.15 26.85 2.4004
      vertex 2.85 26.85 2.4004
    endloop
  endfacet
  facet normal 0 1 0
    outer loop
      vertex 0.15 26.85 2.4004
      vertex 2.85 26.85 2.2002
      vertex 0.15 26.85 2.2002
    endloop
  endfacet
  facet normal 0 -1 0
    outer loop
      vertex 0.15 24.15 2.2002
      vertex 2.85 24.15 2.4004
      vertex 0.15 24.15 2.4004
    endloop
  endfacet
  facet normal 0 -1 -0
    outer loop
      vertex 2.85 24.15 2.4004
      vertex 0.15 24.15 2.2002
      vertex 2.85 24.15 2.2002
    endloop
  endfacet
  facet normal 1 -0 0
    outer loop
      vertex 5.85 24.15 2.4004
      vertex 5.85 26.85 2.2002
      vertex 5.85 26.85 2.4004
    endloop
  endfacet
  facet normal 1 0 0
    outer loop
      vertex 5.85 26.85 2.2002
      vertex 5.85 24.15 2.4004
      vertex 5.85 24.15 2.2002
    endloop
  endfacet
  facet normal -0 0 1
    outer loop
      vertex 3.15 26.85 2.4004
      vertex 5.85 24.15 2.4004
      vertex 5.85 26.85 2.4004
    endloop
  endfacet
  facet normal 0 0 1
    outer loop
      vertex 5.85 24.15 2.4004
      vertex 3.15 26.85 2.4004
      vertex 3.15 24.15 2.4004
    endloop
  endfacet
  facet normal 0 0 -1
    outer loop
      vertex 3.15 24.15 2.2002
      vertex 5.85 26.85 2.2002
      vertex 5.85 24.15 2.2002
    endloop
  endfacet
  facet normal -0 0 -1
    outer loop
      vertex 5.85 26.85 2.2002
      vertex 3.15 24.15 2.2002
      vertex 3.15 26.85 2.2002
    endloop
  endfacet
  facet normal -1 0 0
    outer loop
      vertex 3.15 24.15 2.2002
      vertex 3.15 26.85 2.4004
      vertex 3.15 26.85 2.2002
    endloop
  endfacet
  facet normal -1 -0 0
    outer loop
      vertex 3.15 26.85 2.4004
      vertex 3.15 24.15 2.2002
      vertex 3.15 24.15 2.4004
    endloop
  endfacet
  facet normal 0 1 -0
    outer loop
      vertex 5.85 26.85 2.2002
      vertex 3.15 26.85 2.4004
      vertex 5.85 26.85 2.4004
    endloop
  endfacet
  facet normal 0 1 0
    outer loop
      vertex 3.15 26.85 2.4004
      vertex 5.85 26.85 2.2002
      vertex 3.15 26.85 2.2002
    endloop
  endfacet
  facet normal 0 -1 0
    outer loop
      vertex 3.15 24.15 2.2002
      vertex 5.85 24.15 2.4004
      vertex 3.15 24.15 2.4004
    endloop
  endfacet
  facet normal 0 -1 -0
    outer loop
      vertex 5.85 24.15 2.4004
      vertex 3.15 24.15 2.2002
      vertex 5.85 24.15 2.2002
    endloop
  endfacet
  facet normal 1 -0 0
    outer loop
      vertex 8.85 24.15 2.4004
      vertex 8.85 26.85 2.2002
      vertex 8.85 26.85 2.4004
    endloop
  endfacet
  facet normal 1 0 0
    outer loop
      vertex 8.85 26.85 2.2002
      vertex 8.85 24.15 2.4004
      vertex 8.85 24.15 2.2002
    endloop
  endfacet
  facet normal -0 0 1
    outer loop
      vertex 6.15 26.85 2.4004
      vertex 8.85 24.15 2.4004
      vertex 8.85 26.85 2.4004
    endloop
  endfacet
  facet normal 0 0 1
    outer loop
      vertex 8.85 24.15 2.4004
      vertex 6.15 26.85 2.4004
      vertex 6.15 24.15 2.4004
    endloop
  endfacet
  facet normal 0 0 -1
    outer loop
      vertex 6.15 24.15 2.2002
      vertex 8.85 26.85 2.2002
      vertex 8.85 24.15 2.2002
    endloop
  endfacet
  facet normal -0 0 -1
    outer loop
      vertex 8.85 26.85 2.2002
      vertex 6.15 24.15 2.2002
      vertex 6.15 26.85 2.2002
    endloop
  endfacet
  facet normal -1 0 0
    outer loop
      vertex 6.15 24.15 2.2002
      vertex 6.15 26.85 2.4004
      vertex 6.15 26.85 2.2002
    endloop
  endfacet
  facet normal -1 -0 0
    outer loop
      vertex 6.15 26.85 2.4004
      vertex 6.15 24.15 2.2002
      vertex 6.15 24.15 2.4004
    endloop
  endfacet
  facet normal 0 1 -0
    outer loop
      vertex 8.85 26.85 2.2002
      vertex 6.15 26.85 2.4004
      vertex 8.85 26.85 2.4004
    endloop
  endfacet
  facet normal 0 1 0
    outer loop
      vertex 6.15 26.85 2.4004
      vertex 8.85 26.85 2.2002
      vertex 6.15 26.85 2.2002
    endloop
  endfacet
  facet normal 0 -1 0
    outer loop
      vertex 6.15 24.15 2.2002
      vertex 8.85 24.15 2.4004
      vertex 6.15 24.15 2.4004
    endloop
  endfacet
  facet normal 0 -1 -0
    outer loop
      vertex 8.85 24.15 2.4004
      vertex 6.15 24.15 2.2002
      vertex 8.85 24.15 2.2002
    endloop
  endfacet
  facet normal 1 -0 0
    outer loop
      vertex 11.85 24.15 2.4004
      vertex 11.85 26.85 2.2002
      vertex 11.85 26.85 2.4004
    endloop
  endfacet
  facet normal 1 0 0
    outer loop
      vertex 11.85 26.85 2.2002
      vertex 11.85 24.15 2.4004
      vertex 11.85 24.15 2.2002
    endloop
  endfacet
  facet normal -0 0 1
    outer loop
      vertex 9.15 26.85 2.4004
      vertex 11.85 24.15 2.4004
      vertex 11.85 26.85 2.4004
    endloop
  endfacet
  facet normal 0 0 1
    outer loop
      vertex 11.85 24.15 2.4004
      vertex 9.15 26.85 2.4004
      vertex 9.15 24.15 2.4004
    endloop
  endfacet
  facet normal 0 0 -1
    outer loop
      vertex 9.15 24.15 2.2002
      vertex 11.85 26.85 2.2002
      vertex 11.85 24.15 2.2002
    endloop
  endfacet
  facet normal -0 0 -1
    outer loop
      vertex 11.85 26.85 2.2002
      vertex 9.15 24.15 2.2002
      vertex 9.15 26.85 2.2002
    endloop
  endfacet
  facet normal -1 0 0
    outer loop
      vertex 9.15 24.15 2.2002
      vertex 9.15 26.85 2.4004
      vertex 9.15 26.85 2.2002
    endloop
  endfacet
  facet normal -1 -0 0
    outer loop
      vertex 9.15 26.85 2.4004
      vertex 9.15 24.15 2.2002
      vertex 9.15 24.15 2.4004
    endloop
  endfacet
  facet normal 0 1 -0
    outer loop
      vertex 11.85 26.85 2.2002
      vertex 9.15 26.85 2.4004
      vertex 11.85 26.85 2.4004
    endloop
  endfacet
  facet normal 0 1 0
    outer loop
      vertex 9.15 26.85 2.4004
      vertex 11.85 26.85 2.2002
      vertex 9.15 26.85 2.2002
    endloop
  endfacet
  facet normal 0 -1 0
    outer loop
      vertex 9.15 24.15 2.2002
      vertex 11.85 24.15 2.4004
      vertex 9.15 24.15 2.4004
    endloop
  endfacet
  facet normal 0 -1 -0
    outer loop
      vertex 11.85 24.15 2.4004
      vertex 9.15 24.15 2.2002
      vertex 11.85 24.15 2.2002
    endloop
  endfacet
  facet normal 1 -0 0
    outer loop
      vertex 14.85 24.15 2.4004
      vertex 14.85 26.85 2.2002
      vertex 14.85 26.85 2.4004
    endloop
  endfacet
  facet normal 1 0 0
    outer loop
      vertex 14.85 26.85 2.2002
      vertex 14.85 24.15 2.4004
      vertex 14.85 24.15 2.2002
    endloop
  endfacet
  facet normal -0 0 1
    outer loop
      vertex 12.15 26.85 2.4004
      vertex 14.85 24.15 2.4004
      vertex 14.85 26.85 2.4004
    endloop
  endfacet
  facet normal 0 0 1
    outer loop
      vertex 14.85 24.15 2.4004
      vertex 12.15 26.85 2.4004
      vertex 12.15 24.15 2.4004
    endloop
  endfacet
  facet normal 0 0 -1
    outer loop
      vertex 12.15 24.15 2.2002
      vertex 14.85 26.85 2.2002
      vertex 14.85 24.15 2.2002
    endloop
  endfacet
  facet normal -0 0 -1
    outer loop
      vertex 14.85 26.85 2.2002
      vertex 12.15 24.15 2.2002
      vertex 12.15 26.85 2.2002
    endloop
  endfacet
  facet normal -1 0 0
    outer loop
      vertex 12.15 24.15 2.2002
      vertex 12.15 26.85 2.4004
      vertex 12.15 26.85 2.2002
    endloop
  endfacet
  facet normal -1 -0 0
    outer loop
      vertex 12.15 26.85 2.4004
      vertex 12.15 24.15 2.2002
      vertex 12.15 24.15 2.4004
    endloop
  endfacet
  facet normal 0 1 -0
    outer loop
      vertex 14.85 26.85 2.2002
      vertex 12.15 26.85 2.4004
      vertex 14.85 26.85 2.4004
    endloop
  endfacet
  facet normal 0 1 0
    outer loop
      vertex 12.15 26.85 2.4004
      vertex 14.85 26.85 2.2002
      vertex 12.15 26.85 2.2002
    endloop
  endfacet
  facet normal 0 -1 0
    outer loop
      vertex 12.15 24.15 2.2002
      vertex 14.85 24.15 2.4004
      vertex 12.15 24.15 2.4004
    endloop
  endfacet
  facet normal 0 -1 -0
    outer loop
      vertex 14.85 24.15 2.4004
      vertex 12.15 24.15 2.2002
      vertex 14.85 24.15 2.2002
    endloop
  endfacet
  facet normal 1 -0 0
    outer loop
      vertex 17.85 24.15 2.4004
      vertex 17.85 26.85 2.2002
      vertex 17.85 26.85 2.4004
    endloop
  endfacet
  facet normal 1 0 0
    outer loop
      vertex 17.85 26.85 2.2002
      vertex 17.85 24.15 2.4004
      vertex 17.85 24.15 2.2002
    endloop
  endfacet
  facet normal -0 0 1
    outer loop
      vertex 15.15 26.85 2.4004
      vertex 17.85 24.15 2.4004
      vertex 17.85 26.85 2.4004
    endloop
  endfacet
  facet normal 0 0 1
    outer loop
      vertex 17.85 24.15 2.4004
      vertex 15.15 26.85 2.4004
      vertex 15.15 24.15 2.4004
    endloop
  endfacet
  facet normal 0 0 -1
    outer loop
      vertex 15.15 24.15 2.2002
      vertex 17.85 26.85 2.2002
      vertex 17.85 24.15 2.2002
    endloop
  endfacet
  facet normal -0 0 -1
    outer loop
      vertex 17.85 26.85 2.2002
      vertex 15.15 24.15 2.2002
      vertex 15.15 26.85 2.2002
    endloop
  endfacet
  facet normal -1 0 0
    outer loop
      vertex 15.15 24.15 2.2002
      vertex 15.15 26.85 2.4004
      vertex 15.15 26.85 2.2002
    endloop
  endfacet
  facet normal -1 -0 0
    outer loop
      vertex 15.15 26.85 2.4004
      vertex 15.15 24.15 2.2002
      vertex 15.15 24.15 2.4004
    endloop
  endfacet
  facet normal 0 1 -0
    outer loop
      vertex 17.85 26.85 2.2002
      vertex 15.15 26.85 2.4004
      vertex 17.85 26.85 2.4004
    endloop
  endfacet
  facet normal 0 1 0
    outer loop
      vertex 15.15 26.85 2.4004
      vertex 17.85 26.85 2.2002
      vertex 15.15 26.85 2.2002
    endloop
  endfacet
  facet normal 0 -1 0
    outer loop
      vertex 15.15 24.15 2.2002
      vertex 17.85 24.15 2.4004
      vertex 15.15 24.15 2.4004
    endloop
  endfacet
  facet normal 0 -1 -0
    outer loop
      vertex 17.85 24.15 2.4004
      vertex 15.15 24.15 2.2002
      vertex 17.85 24.15 2.2002
    endloop
  endfacet
  facet normal 1 -0 0
    outer loop
      vertex 20.85 24.15 2.4004
      vertex 20.85 26.85 2.2002
      vertex 20.85 26.85 2.4004
    endloop
  endfacet
  facet normal 1 0 0
    outer loop
      vertex 20.85 26.85 2.2002
      vertex 20.85 24.15 2.4004
      vertex 20.85 24.15 2.2002
    endloop
  endfacet
  facet normal -0 0 1
    outer loop
      vertex 18.15 26.85 2.4004
      vertex 20.85 24.15 2.4004
      vertex 20.85 26.85 2.4004
    endloop
  endfacet
  facet normal 0 0 1
    outer loop
      vertex 20.85 24.15 2.4004
      vertex 18.15 26.85 2.4004
      vertex 18.15 24.15 2.4004
    endloop
  endfacet
  facet normal 0 0 -1
    outer loop
      vertex 18.15 24.15 2.2002
      vertex 20.85 26.85 2.2002
      vertex 20.85 24.15 2.2002
    endloop
  endfacet
  facet normal -0 0 -1
    outer loop
      vertex 20.85 26.85 2.2002
      vertex 18.15 24.15 2.2002
      vertex 18.15 26.85 2.2002
    endloop
  endfacet
  facet normal -1 0 0
    outer loop
      vertex 18.15 24.15 2.2002
      vertex 18.15 26.85 2.4004
      vertex 18.15 26.85 2.2002
    endloop
  endfacet
  facet normal -1 -0 0
    outer loop
      vertex 18.15 26.85 2.4004
      vertex 18.15 24.15 2.2002
      vertex 18.15 24.15 2.4004
    endloop
  endfacet
  facet normal 0 1 -0
    outer loop
      vertex 20.85 26.85 2.2002
      vertex 18.15 26.85 2.4004
      vertex 20.85 26.85 2.4004
    endloop
  endfacet
  facet normal 0 1 0
    outer loop
      vertex 18.15 26.85 2.4004
      vertex 20.85 26.85 2.2002
      vertex 18.15 26.85 2.2002
    endloop
  endfacet
  facet normal 0 -1 0
    outer loop
      vertex 18.15 24.15 2.2002
      vertex 20.85 24.15 2.4004
      vertex 18.15 24.15 2.4004
    endloop
  endfacet
  facet normal 0 -1 -0
    outer loop
      vertex 20.85 24.15 2.4004
      vertex 18.15 24.15 2.2002
      vertex 20.85 24.15 2.2002
    endloop
  endfacet
  facet normal 1 -0 0
    outer loop
      vertex 11.85 27.15 2.4004
      vertex 11.85 29.85 2.2002
      vertex 11.85 29.85 2.4004
    endloop
  endfacet
  facet normal 1 0 0
    outer loop
      vertex 11.85 29.85 2.2002
      vertex 11.85 27.15 2.4004
      vertex 11.85 27.15 2.2002
    endloop
  endfacet
  facet normal -0 0 1
    outer loop
      vertex 9.15 29.85 2.4004
      vertex 11.85 27.15 2.4004
      vertex 11.85 29.85 2.4004
    endloop
  endfacet
  facet normal 0 0 1
    outer loop
      vertex 11.85 27.15 2.4004
      vertex 9.15 29.85 2.4004
      vertex 9.15 27.15 2.4004
    endloop
  endfacet
  facet normal 0 0 -1
    outer loop
      vertex 9.15 27.15 2.2002
      vertex 11.85 29.85 2.2002
      vertex 11.85 27.15 2.2002
    endloop
  endfacet
  facet normal -0 0 -1
    outer loop
      vertex 11.85 29.85 2.2002
      vertex 9.15 27.15 2.2002
      vertex 9.15 29.85 2.2002
    endloop
  endfacet
  facet normal -1 0 0
    outer loop
      vertex 9.15 27.15 2.2002
      vertex 9.15 29.85 2.4004
      vertex 9.15 29.85 2.2002
    endloop
  endfacet
  facet normal -1 -0 0
    outer loop
      vertex 9.15 29.85 2.4004
      vertex 9.15 27.15 2.2002
      vertex 9.15 27.15 2.4004
    endloop
  endfacet
  facet normal 0 1 -0
    outer loop
      vertex 11.85 29.85 2.2002
      vertex 9.15 29.85 2.4004
      vertex 11.85 29.85 2.4004
    endloop
  endfacet
  facet normal 0 1 0
    outer loop
      vertex 9.15 29.85 2.4004
      vertex 11.85 29.85 2.2002
      vertex 9.15 29.85 2.2002
    endloop
  endfacet
  facet normal 0 -1 0
    outer loop
      vertex 9.15 27.15 2.2002
      vertex 11.85 27.15 2.4004
      vertex 9.15 27.15 2.4004
    endloop
  endfacet
  facet normal 0 -1 -0
    outer loop
      vertex 11.85 27.15 2.4004
      vertex 9.15 27.15 2.2002
      vertex 11.85 27.15 2.2002
    endloop
  endfacet
  facet normal 1 -0 0
    outer loop
      vertex 14.85 27.15 2.4004
      vertex 14.85 29.85 2.2002
      vertex 14.85 29.85 2.4004
    endloop
  endfacet
  facet normal 1 0 0
    outer loop
      vertex 14.85 29.85 2.2002
      vertex 14.85 27.15 2.4004
      vertex 14.85 27.15 2.2002
    endloop
  endfacet
  facet normal -0 0 1
    outer loop
      vertex 12.15 29.85 2.4004
      vertex 14.85 27.15 2.4004
      vertex 14.85 29.85 2.4004
    endloop
  endfacet
  facet normal 0 0 1
    outer loop
      vertex 14.85 27.15 2.4004
      vertex 12.15 29.85 2.4004
      vertex 12.15 27.15 2.4004
    endloop
  endfacet
  facet normal 0 0 -1
    outer loop
      vertex 12.15 27.15 2.2002
      vertex 14.85 29.85 2.2002
      vertex 14.85 27.15 2.2002
    endloop
  endfacet
  facet normal -0 0 -1
    outer loop
      vertex 14.85 29.85 2.2002
      vertex 12.15 27.15 2.2002
      vertex 12.15 29.85 2.2002
    endloop
  endfacet
  facet normal -1 0 0
    outer loop
      vertex 12.15 27.15 2.2002
      vertex 12.15 29.85 2.4004
      vertex 12.15 29.85 2.2002
    endloop
  endfacet
  facet normal -1 -0 0
    outer loop
      vertex 12.15 29.85 2.4004
      vertex 12.15 27.15 2.2002
      vertex 12.15 27.15 2.4004
    endloop
  endfacet
  facet normal 0 1 -0
    outer loop
      vertex 14.85 29.85 2.2002
      vertex 12.15 29.85 2.4004
      vertex 14.85 29.85 2.4004
    endloop
  endfacet
  facet normal 0 1 0
    outer loop
      vertex 12.15 29.85 2.4004
      vertex 14.85 29.85 2.2002
      vertex 12.15 29.85 2.2002
    endloop
  endfacet
  facet normal 0 -1 0
    outer loop
      vertex 12.15 27.15 2.2002
      vertex 14.85 27.15 2.4004
      vertex 12.15 27.15 2.4004
    endloop
  endfacet
  facet normal 0 -1 -0
    outer loop
      vertex 14.85 27.15 2.4004
      vertex 12.15 27.15 2.2002
      vertex 14.85 27.15 2.2002
    endloop
  endfacet
  facet normal 1 -0 0
    outer loop
      vertex 17.85 27.15 2.4004
      vertex 17.85 29.85 2.2002
      vertex 17.85 29.85 2.4004
    endloop
  endfacet
  facet normal 1 0 0
    outer loop
      vertex 17.85 29.85 2.2002
      vertex 17.85 27.15 2.4004
      vertex 17.85 27.15 2.2002
    endloop
  endfacet
  facet normal -0 0 1
    outer loop
      vertex 15.15 29.85 2.4004
      vertex 17.85 27.15 2.4004
      vertex 17.85 29.85 2.4004
    endloop
  endfacet
  facet normal 0 0 1
    outer loop
      vertex 17.85 27.15 2.4004
      vertex 15.15 29.85 2.4004
      vertex 15.15 27.15 2.4004
    endloop
  endfacet
  facet normal 0 0 -1
    outer loop
      vertex 15.15 27.15 2.2002
      vertex 17.85 29.85 2.2002
      vertex 17.85 27.15 2.2002
    endloop
  endfacet
  facet normal -0 0 -1
    outer loop
      vertex 17.85 29.85 2.2002
      vertex 15.15 27.15 2.2002
      vertex 15.15 29.85 2.2002
    endloop
  endfacet
  facet normal -1 0 0
    outer loop
      vertex 15.15 27.15 2.2002
      vertex 15.15 29.85 2.4004
      vertex 15.15 29.85 2.2002
    endloop
  endfacet
  facet normal -1 -0 0
    outer loop
      vertex 15.15 29.85 2.4004
      vertex 15.15 27.15 2.2002
      vertex 15.15 27.15 2.4004
    endloop
  endfacet
  facet normal 0 1 -0
    outer loop
      vertex 17.85 29.85 2.2002
      vertex 15.15 29.85 2.4004
      vertex 17.85 29.85 2.4004
    endloop
  endfacet
  facet normal 0 1 0
    outer loop
      vertex 15.15 29.85 2.4004
      vertex 17.85 29.85 2.2002
      vertex 15.15 29.85 2.2002
    endloop
  endfacet
  facet normal 0 -1 0
    outer loop
      vertex 15.15 27.15 2.2002
      vertex 17.85 27.15 2.4004
      vertex 15.15 27.15 2.4004
    endloop
  endfacet
  facet normal 0 -1 -0
    outer loop
      vertex 17.85 27.15 2.4004
      vertex 15.15 27.15 2.2002
      vertex 17.85 27.15 2.2002
    endloop
  endfacet
  facet normal 1 -0 0
    outer loop
      vertex 20.85 27.15 2.4004
      vertex 20.85 29.85 2.2002
      vertex 20.85 29.85 2.4004
    endloop
  endfacet
  facet normal 1 0 0
    outer loop
      vertex 20.85 29.85 2.2002
      vertex 20.85 27.15 2.4004
      vertex 20.85 27.15 2.2002
    endloop
  endfacet
  facet normal -0 0 1
    outer loop
      vertex 18.15 29.85 2.4004
      vertex 20.85 27.15 2.4004
      vertex 20.85 29.85 2.4004
    endloop
  endfacet
  facet normal 0 0 1
    outer loop
      vertex 20.85 27.15 2.4004
      vertex 18.15 29.85 2.4004
      vertex 18.15 27.15 2.4004
    endloop
  endfacet
  facet normal 0 0 -1
    outer loop
      vertex 18.15 27.15 2.2002
      vertex 20.85 29.85 2.2002
      vertex 20.85 27.15 2.2002
    endloop
  endfacet
  facet normal -0 0 -1
    outer loop
      vertex 20.85 29.85 2.2002
      vertex 18.15 27.15 2.2002
      vertex 18.15 29.85 2.2002
    endloop
  endfacet
  facet normal -1 0 0
    outer loop
      vertex 18.15 27.15 2.2002
      vertex 18.15 29.85 2.4004
      vertex 18.15 29.85 2.2002
    endloop
  endfacet
  facet normal -1 -0 0
    outer loop
      vertex 18.15 29.85 2.4004
      vertex 18.15 27.15 2.2002
      vertex 18.15 27.15 2.4004
    endloop
  endfacet
  facet normal 0 1 -0
    outer loop
      vertex 20.85 29.85 2.2002
      vertex 18.15 29.85 2.4004
      vertex 20.85 29.85 2.4004
    endloop
  endfacet
  facet normal 0 1 0
    outer loop
      vertex 18.15 29.85 2.4004
      vertex 20.85 29.85 2.2002
      vertex 18.15 29.85 2.2002
    endloop
  endfacet
  facet normal 0 -1 0
    outer loop
      vertex 18.15 27.15 2.2002
      vertex 20.85 27.15 2.4004
      vertex 18.15 27.15 2.4004
    endloop
  endfacet
  facet normal 0 -1 -0
    outer loop
      vertex 20.85 27.15 2.4004
      vertex 18.15 27.15 2.2002
      vertex 20.85 27.15 2.2002
    endloop
  endfacet
  facet normal 1 -0 0
    outer loop
      vertex 23.85 27.15 2.4004
      vertex 23.85 29.85 2.2002
      vertex 23.85 29.85 2.4004
    endloop
  endfacet
  facet normal 1 0 0
    outer loop
      vertex 23.85 29.85 2.2002
      vertex 23.85 27.15 2.4004
      vertex 23.85 27.15 2.2002
    endloop
  endfacet
  facet normal -0 0 1
    outer loop
      vertex 21.15 29.85 2.4004
      vertex 23.85 27.15 2.4004
      vertex 23.85 29.85 2.4004
    endloop
  endfacet
  facet normal 0 0 1
    outer loop
      vertex 23.85 27.15 2.4004
      vertex 21.15 29.85 2.4004
      vertex 21.15 27.15 2.4004
    endloop
  endfacet
  facet normal 0 0 -1
    outer loop
      vertex 21.15 27.15 2.2002
      vertex 23.85 29.85 2.2002
      vertex 23.85 27.15 2.2002
    endloop
  endfacet
  facet normal -0 0 -1
    outer loop
      vertex 23.85 29.85 2.2002
      vertex 21.15 27.15 2.2002
      vertex 21.15 29.85 2.2002
    endloop
  endfacet
  facet normal -1 0 0
    outer loop
      vertex 21.15 27.15 2.2002
      vertex 21.15 29.85 2.4004
      vertex 21.15 29.85 2.2002
    endloop
  endfacet
  facet normal -1 -0 0
    outer loop
      vertex 21.15 29.85 2.4004
      vertex 21.15 27.15 2.2002
      vertex 21.15 27.15 2.4004
    endloop
  endfacet
  facet normal 0 1 -0
    outer loop
      vertex 23.85 29.85 2.2002
      vertex 21.15 29.85 2.4004
      vertex 23.85 29.85 2.4004
    endloop
  endfacet
  facet normal 0 1 0
    outer loop
      vertex 21.15 29.85 2.4004
      vertex 23.85 29.85 2.2002
      vertex 21.15 29.85 2.2002
    endloop
  endfacet
  facet normal 0 -1 0
    outer loop
      vertex 21.15 27.15 2.2002
      vertex 23.85 27.15 2.4004
      vertex 21.15 27.15 2.4004
    endloop
  endfacet
  facet normal 0 -1 -0
    outer loop
      vertex 23.85 27.15 2.4004
      vertex 21.15 27.15 2.2002
      vertex 23.85 27.15 2.2002
    endloop
  endfacet
  facet normal 1 -0 0
    outer loop
      vertex 17.85 30.15 2.4004
      vertex 17.85 32.85 2.2002
      vertex 17.85 32.85 2.4004
    endloop
  endfacet
  facet normal 1 0 0
    outer loop
      vertex 17.85 32.85 2.2002
      vertex 17.85 30.15 2.4004
      vertex 17.85 30.15 2.2002
    endloop
  endfacet
  facet normal -0 0 1
    outer loop
      vertex 15.15 32.85 2.4004
      vertex 17.85 30.15 2.4004
      vertex 17.85 32.85 2.4004
    endloop
  endfacet
  facet normal 0 0 1
    outer loop
      vertex 17.85 30.15 2.4004
      vertex 15.15 32.85 2.4004
      vertex 15.15 30.15 2.4004
    endloop
  endfacet
  facet normal 0 0 -1
    outer loop
      vertex 15.15 30.15 2.2002
      vertex 17.85 32.85 2.2002
      vertex 17.85 30.15 2.2002
    endloop
  endfacet
  facet normal -0 0 -1
    outer loop
      vertex 17.85 32.85 2.2002
      vertex 15.15 30.15 2.2002
      vertex 15.15 32.85 2.2002
    endloop
  endfacet
  facet normal -1 0 0
    outer loop
      vertex 15.15 30.15 2.2002
      vertex 15.15 32.85 2.4004
      vertex 15.15 32.85 2.2002
    endloop
  endfacet
  facet normal -1 -0 0
    outer loop
      vertex 15.15 32.85 2.4004
      vertex 15.15 30.15 2.2002
      vertex 15.15 30.15 2.4004
    endloop
  endfacet
  facet normal 0 1 -0
    outer loop
      vertex 17.85 32.85 2.2002
      vertex 15.15 32.85 2.4004
      vertex 17.85 32.85 2.4004
    endloop
  endfacet
  facet normal 0 1 0
    outer loop
      vertex 15.15 32.85 2.4004
      vertex 17.85 32.85 2.2002
      vertex 15.15 32.85 2.2002
    endloop
  endfacet
  facet normal 0 -1 0
    outer loop
      vertex 15.15 30.15 2.2002
      vertex 17.85 30.15 2.4004
      vertex 15.15 30.15 2.4004
    endloop
  endfacet
  facet normal 0 -1 -0
    outer loop
      vertex 17.85 30.15 2.4004
      vertex 15.15 30.15 2.2002
      vertex 17.85 30.15 2.2002
    endloop
  endfacet
  facet normal 1 -0 0
    outer loop
      vertex 20.85 30.15 2.4004
      vertex 20.85 32.85 2.2002
      vertex 20.85 32.85 2.4004
    endloop
  endfacet
  facet normal 1 0 0
    outer loop
      vertex 20.85 32.85 2.2002
      vertex 20.85 30.15 2.4004
      vertex 20.85 30.15 2.2002
    endloop
  endfacet
  facet normal -0 0 1
    outer loop
      vertex 18.15 32.85 2.4004
      vertex 20.85 30.15 2.4004
      vertex 20.85 32.85 2.4004
    endloop
  endfacet
  facet normal 0 0 1
    outer loop
      vertex 20.85 30.15 2.4004
      vertex 18.15 32.85 2.4004
      vertex 18.15 30.15 2.4004
    endloop
  endfacet
  facet normal 0 0 -1
    outer loop
      vertex 18.15 30.15 2.2002
      vertex 20.85 32.85 2.2002
      vertex 20.85 30.15 2.2002
    endloop
  endfacet
  facet normal -0 0 -1
    outer loop
      vertex 20.85 32.85 2.2002
      vertex 18.15 30.15 2.2002
      vertex 18.15 32.85 2.2002
    endloop
  endfacet
  facet normal -1 0 0
    outer loop
      vertex 18.15 30.15 2.2002
      vertex 18.15 32.85 2.4004
      vertex 18.15 32.85 2.2002
    endloop
  endfacet
  facet normal -1 -0 0
    outer loop
      vertex 18.15 32.85 2.4004
      vertex 18.15 30.15 2.2002
      vertex 18.15 30.15 2.4004
    endloop
  endfacet
  facet normal 0 1 -0
    outer loop
      vertex 20.85 32.85 2.2002
      vertex 18.15 32.85 2.4004
      vertex 20.85 32.85 2.4004
    endloop
  endfacet
  facet normal 0 1 0
    outer loop
      vertex 18.15 32.85 2.4004
      vertex 20.85 32.85 2.2002
      vertex 18.15 32.85 2.2002
    endloop
  endfacet
  facet normal 0 -1 0
    outer loop
      vertex 18.15 30.15 2.2002
      vertex 20.85 30.15 2.4004
      vertex 18.15 30.15 2.4004
    endloop
  endfacet
  facet normal 0 -1 -0
    outer loop
      vertex 20.85 30.15 2.4004
      vertex 18.15 30.15 2.2002
      vertex 20.85 30.15 2.2002
    endloop
  endfacet
endsolid OpenSCAD_Model
