solid OpenSCAD_Model
  facet normal 1 -0 0
    outer loop
      vertex 4.8 0.2 2.4004
      vertex 4.8 4.8 2
      vertex 4.8 4.8 2.4004
    endloop
  endfacet
  facet normal 1 0 0
    outer loop
      vertex 4.8 4.8 2
      vertex 4.8 0.2 2.4004
      vertex 4.8 0.2 2
    endloop
  endfacet
  facet normal 0 0 -1
    outer loop
      vertex 0.2 0.2 2
      vertex 4.8 4.8 2
      vertex 4.8 0.2 2
    endloop
  endfacet
  facet normal -0 0 -1
    outer loop
      vertex 4.8 4.8 2
      vertex 0.2 0.2 2
      vertex 0.2 4.8 2
    endloop
  endfacet
  facet normal -1 0 0
    outer loop
      vertex 0.2 0.2 2
      vertex 0.2 4.8 2.4004
      vertex 0.2 4.8 2
    endloop
  endfacet
  facet normal -1 -0 0
    outer loop
      vertex 0.2 4.8 2.4004
      vertex 0.2 0.2 2
      vertex 0.2 0.2 2.4004
    endloop
  endfacet
  facet normal 0 1 -0
    outer loop
      vertex 4.8 4.8 2
      vertex 0.2 4.8 2.4004
      vertex 4.8 4.8 2.4004
    endloop
  endfacet
  facet normal 0 1 0
    outer loop
      vertex 0.2 4.8 2.4004
      vertex 4.8 4.8 2
      vertex 0.2 4.8 2
    endloop
  endfacet
  facet normal 0 -1 0
    outer loop
      vertex 0.2 0.2 2
      vertex 4.8 0.2 2.4004
      vertex 0.2 0.2 2.4004
    endloop
  endfacet
  facet normal 0 -1 -0
    outer loop
      vertex 4.8 0.2 2.4004
      vertex 0.2 0.2 2
      vertex 4.8 0.2 2
    endloop
  endfacet
  facet normal -0 0 1
    outer loop
      vertex 0.2 4.8 2.4004
      vertex 4.8 0.2 2.4004
      vertex 4.8 4.8 2.4004
    endloop
  endfacet
  facet normal 0 0 1
    outer loop
      vertex 4.8 0.2 2.4004
      vertex 0.2 4.8 2.4004
      vertex 0.2 0.2 2.4004
    endloop
  endfacet
  facet normal 1 -0 0
    outer loop
      vertex 9.8 0.2 2.4004
      vertex 9.8 4.8 2.2002
      vertex 9.8 4.8 2.4004
    endloop
  endfacet
  facet normal 1 0 0
    outer loop
      vertex 9.8 4.8 2.2002
      vertex 9.8 0.2 2.4004
      vertex 9.8 0.2 2.2002
    endloop
  endfacet
  facet normal -0 0 1
    outer loop
      vertex 5.2 4.8 2.4004
      vertex 9.8 0.2 2.4004
      vertex 9.8 4.8 2.4004
    endloop
  endfacet
  facet normal 0 0 1
    outer loop
      vertex 9.8 0.2 2.4004
      vertex 5.2 4.8 2.4004
      vertex 5.2 0.2 2.4004
    endloop
  endfacet
  facet normal 0 0 -1
    outer loop
      vertex 5.2 0.2 2.2002
      vertex 9.8 4.8 2.2002
      vertex 9.8 0.2 2.2002
    endloop
  endfacet
  facet normal -0 0 -1
    outer loop
      vertex 9.8 4.8 2.2002
      vertex 5.2 0.2 2.2002
      vertex 5.2 4.8 2.2002
    endloop
  endfacet
  facet normal -1 0 0
    outer loop
      vertex 5.2 0.2 2.2002
      vertex 5.2 4.8 2.4004
      vertex 5.2 4.8 2.2002
    endloop
  endfacet
  facet normal -1 -0 0
    outer loop
      vertex 5.2 4.8 2.4004
      vertex 5.2 0.2 2.2002
      vertex 5.2 0.2 2.4004
    endloop
  endfacet
  facet normal 0 1 -0
    outer loop
      vertex 9.8 4.8 2.2002
      vertex 5.2 4.8 2.4004
      vertex 9.8 4.8 2.4004
    endloop
  endfacet
  facet normal 0 1 0
    outer loop
      vertex 5.2 4.8 2.4004
      vertex 9.8 4.8 2.2002
      vertex 5.2 4.8 2.2002
    endloop
  endfacet
  facet normal 0 -1 0
    outer loop
      vertex 5.2 0.2 2.2002
      vertex 9.8 0.2 2.4004
      vertex 5.2 0.2 2.4004
    endloop
  endfacet
  facet normal 0 -1 -0
    outer loop
      vertex 9.8 0.2 2.4004
      vertex 5.2 0.2 2.2002
      vertex 9.8 0.2 2.2002
    endloop
  endfacet
endsolid OpenSCAD_Model
