solid OpenSCAD_Model
  facet normal 1 -0 0
    outer loop
      vertex 17.85 6.15 2.4004
      vertex 17.85 8.85 2.2002
      vertex 17.85 8.85 2.4004
    endloop
  endfacet
  facet normal 1 0 0
    outer loop
      vertex 17.85 8.85 2.2002
      vertex 17.85 6.15 2.4004
      vertex 17.85 6.15 2.2002
    endloop
  endfacet
  facet normal -0 0 1
    outer loop
      vertex 15.15 8.85 2.4004
      vertex 17.85 6.15 2.4004
      vertex 17.85 8.85 2.4004
    endloop
  endfacet
  facet normal 0 0 1
    outer loop
      vertex 17.85 6.15 2.4004
      vertex 15.15 8.85 2.4004
      vertex 15.15 6.15 2.4004
    endloop
  endfacet
  facet normal 0 0 -1
    outer loop
      vertex 15.15 6.15 2.2002
      vertex 17.85 8.85 2.2002
      vertex 17.85 6.15 2.2002
    endloop
  endfacet
  facet normal -0 0 -1
    outer loop
      vertex 17.85 8.85 2.2002
      vertex 15.15 6.15 2.2002
      vertex 15.15 8.85 2.2002
    endloop
  endfacet
  facet normal -1 0 0
    outer loop
      vertex 15.15 6.15 2.2002
      vertex 15.15 8.85 2.4004
      vertex 15.15 8.85 2.2002
    endloop
  endfacet
  facet normal -1 -0 0
    outer loop
      vertex 15.15 8.85 2.4004
      vertex 15.15 6.15 2.2002
      vertex 15.15 6.15 2.4004
    endloop
  endfacet
  facet normal 0 1 -0
    outer loop
      vertex 17.85 8.85 2.2002
      vertex 15.15 8.85 2.4004
      vertex 17.85 8.85 2.4004
    endloop
  endfacet
  facet normal 0 1 0
    outer loop
      vertex 15.15 8.85 2.4004
      vertex 17.85 8.85 2.2002
      vertex 15.15 8.85 2.2002
    endloop
  endfacet
  facet normal 0 -1 0
    outer loop
      vertex 15.15 6.15 2.2002
      vertex 17.85 6.15 2.4004
      vertex 15.15 6.15 2.4004
    endloop
  endfacet
  facet normal 0 -1 -0
    outer loop
      vertex 17.85 6.15 2.4004
      vertex 15.15 6.15 2.2002
      vertex 17.85 6.15 2.2002
    endloop
  endfacet
  facet normal 1 -0 0
    outer loop
      vertex 14.85 9.15 2.4004
      vertex 14.85 11.85 2.2002
      vertex 14.85 11.85 2.4004
    endloop
  endfacet
  facet normal 1 0 0
    outer loop
      vertex 14.85 11.85 2.2002
      vertex 14.85 9.15 2.4004
      vertex 14.85 9.15 2.2002
    endloop
  endfacet
  facet normal -0 0 1
    outer loop
      vertex 12.15 11.85 2.4004
      vertex 14.85 9.15 2.4004
      vertex 14.85 11.85 2.4004
    endloop
  endfacet
  facet normal 0 0 1
    outer loop
      vertex 14.85 9.15 2.4004
      vertex 12.15 11.85 2.4004
      vertex 12.15 9.15 2.4004
    endloop
  endfacet
  facet normal 0 0 -1
    outer loop
      vertex 12.15 9.15 2.2002
      vertex 14.85 11.85 2.2002
      vertex 14.85 9.15 2.2002
    endloop
  endfacet
  facet normal -0 0 -1
    outer loop
      vertex 14.85 11.85 2.2002
      vertex 12.15 9.15 2.2002
      vertex 12.15 11.85 2.2002
    endloop
  endfacet
  facet normal -1 0 0
    outer loop
      vertex 12.15 9.15 2.2002
      vertex 12.15 11.85 2.4004
      vertex 12.15 11.85 2.2002
    endloop
  endfacet
  facet normal -1 -0 0
    outer loop
      vertex 12.15 11.85 2.4004
      vertex 12.15 9.15 2.2002
      vertex 12.15 9.15 2.4004
    endloop
  endfacet
  facet normal 0 1 -0
    outer loop
      vertex 14.85 11.85 2.2002
      vertex 12.15 11.85 2.4004
      vertex 14.85 11.85 2.4004
    endloop
  endfacet
  facet normal 0 1 0
    outer loop
      vertex 12.15 11.85 2.4004
      vertex 14.85 11.85 2.2002
      vertex 12.15 11.85 2.2002
    endloop
  endfacet
  facet normal 0 -1 0
    outer loop
      vertex 12.15 9.15 2.2002
      vertex 14.85 9.15 2.4004
      vertex 12.15 9.15 2.4004
    endloop
  endfacet
  facet normal 0 -1 -0
    outer loop
      vertex 14.85 9.15 2.4004
      vertex 12.15 9.15 2.2002
      vertex 14.85 9.15 2.2002
    endloop
  endfacet
  facet normal 1 -0 0
    outer loop
      vertex 17.85 9.15 2.4004
      vertex 17.85 11.85 2.2002
      vertex 17.85 11.85 2.4004
    endloop
  endfacet
  facet normal 1 0 0
    outer loop
      vertex 17.85 11.85 2.2002
      vertex 17.85 9.15 2.4004
      vertex 17.85 9.15 2.2002
    endloop
  endfacet
  facet normal -0 0 1
    outer loop
      vertex 15.15 11.85 2.4004
      vertex 17.85 9.15 2.4004
      vertex 17.85 11.85 2.4004
    endloop
  endfacet
  facet normal 0 0 1
    outer loop
      vertex 17.85 9.15 2.4004
      vertex 15.15 11.85 2.4004
      vertex 15.15 9.15 2.4004
    endloop
  endfacet
  facet normal 0 0 -1
    outer loop
      vertex 15.15 9.15 2.2002
      vertex 17.85 11.85 2.2002
      vertex 17.85 9.15 2.2002
    endloop
  endfacet
  facet normal -0 0 -1
    outer loop
      vertex 17.85 11.85 2.2002
      vertex 15.15 9.15 2.2002
      vertex 15.15 11.85 2.2002
    endloop
  endfacet
  facet normal -1 0 0
    outer loop
      vertex 15.15 9.15 2.2002
      vertex 15.15 11.85 2.4004
      vertex 15.15 11.85 2.2002
    endloop
  endfacet
  facet normal -1 -0 0
    outer loop
      vertex 15.15 11.85 2.4004
      vertex 15.15 9.15 2.2002
      vertex 15.15 9.15 2.4004
    endloop
  endfacet
  facet normal 0 1 -0
    outer loop
      vertex 17.85 11.85 2.2002
      vertex 15.15 11.85 2.4004
      vertex 17.85 11.85 2.4004
    endloop
  endfacet
  facet normal 0 1 0
    outer loop
      vertex 15.15 11.85 2.4004
      vertex 17.85 11.85 2.2002
      vertex 15.15 11.85 2.2002
    endloop
  endfacet
  facet normal 0 -1 0
    outer loop
      vertex 15.15 9.15 2.2002
      vertex 17.85 9.15 2.4004
      vertex 15.15 9.15 2.4004
    endloop
  endfacet
  facet normal 0 -1 -0
    outer loop
      vertex 17.85 9.15 2.4004
      vertex 15.15 9.15 2.2002
      vertex 17.85 9.15 2.2002
    endloop
  endfacet
  facet normal 1 -0 0
    outer loop
      vertex 20.85 9.15 2.4004
      vertex 20.85 11.85 2.2002
      vertex 20.85 11.85 2.4004
    endloop
  endfacet
  facet normal 1 0 0
    outer loop
      vertex 20.85 11.85 2.2002
      vertex 20.85 9.15 2.4004
      vertex 20.85 9.15 2.2002
    endloop
  endfacet
  facet normal -0 0 1
    outer loop
      vertex 18.15 11.85 2.4004
      vertex 20.85 9.15 2.4004
      vertex 20.85 11.85 2.4004
    endloop
  endfacet
  facet normal 0 0 1
    outer loop
      vertex 20.85 9.15 2.4004
      vertex 18.15 11.85 2.4004
      vertex 18.15 9.15 2.4004
    endloop
  endfacet
  facet normal 0 0 -1
    outer loop
      vertex 18.15 9.15 2.2002
      vertex 20.85 11.85 2.2002
      vertex 20.85 9.15 2.2002
    endloop
  endfacet
  facet normal -0 0 -1
    outer loop
      vertex 20.85 11.85 2.2002
      vertex 18.15 9.15 2.2002
      vertex 18.15 11.85 2.2002
    endloop
  endfacet
  facet normal -1 0 0
    outer loop
      vertex 18.15 9.15 2.2002
      vertex 18.15 11.85 2.4004
      vertex 18.15 11.85 2.2002
    endloop
  endfacet
  facet normal -1 -0 0
    outer loop
      vertex 18.15 11.85 2.4004
      vertex 18.15 9.15 2.2002
      vertex 18.15 9.15 2.4004
    endloop
  endfacet
  facet normal 0 1 -0
    outer loop
      vertex 20.85 11.85 2.2002
      vertex 18.15 11.85 2.4004
      vertex 20.85 11.85 2.4004
    endloop
  endfacet
  facet normal 0 1 0
    outer loop
      vertex 18.15 11.85 2.4004
      vertex 20.85 11.85 2.2002
      vertex 18.15 11.85 2.2002
    endloop
  endfacet
  facet normal 0 -1 0
    outer loop
      vertex 18.15 9.15 2.2002
      vertex 20.85 9.15 2.4004
      vertex 18.15 9.15 2.4004
    endloop
  endfacet
  facet normal 0 -1 -0
    outer loop
      vertex 20.85 9.15 2.4004
      vertex 18.15 9.15 2.2002
      vertex 20.85 9.15 2.2002
    endloop
  endfacet
  facet normal 1 -0 0
    outer loop
      vertex 14.85 33.15 2.2002
      vertex 14.85 35.85 2
      vertex 14.85 35.85 2.2002
    endloop
  endfacet
  facet normal 1 0 0
    outer loop
      vertex 14.85 35.85 2
      vertex 14.85 33.15 2.2002
      vertex 14.85 33.15 2
    endloop
  endfacet
  facet normal -0 0 1
    outer loop
      vertex 12.15 35.85 2.2002
      vertex 14.85 33.15 2.2002
      vertex 14.85 35.85 2.2002
    endloop
  endfacet
  facet normal 0 0 1
    outer loop
      vertex 14.85 33.15 2.2002
      vertex 12.15 35.85 2.2002
      vertex 12.15 33.15 2.2002
    endloop
  endfacet
  facet normal 0 0 -1
    outer loop
      vertex 12.15 33.15 2
      vertex 14.85 35.85 2
      vertex 14.85 33.15 2
    endloop
  endfacet
  facet normal -0 0 -1
    outer loop
      vertex 14.85 35.85 2
      vertex 12.15 33.15 2
      vertex 12.15 35.85 2
    endloop
  endfacet
  facet normal -1 0 0
    outer loop
      vertex 12.15 33.15 2
      vertex 12.15 35.85 2.2002
      vertex 12.15 35.85 2
    endloop
  endfacet
  facet normal -1 -0 0
    outer loop
      vertex 12.15 35.85 2.2002
      vertex 12.15 33.15 2
      vertex 12.15 33.15 2.2002
    endloop
  endfacet
  facet normal 0 1 -0
    outer loop
      vertex 14.85 35.85 2
      vertex 12.15 35.85 2.2002
      vertex 14.85 35.85 2.2002
    endloop
  endfacet
  facet normal 0 1 0
    outer loop
      vertex 12.15 35.85 2.2002
      vertex 14.85 35.85 2
      vertex 12.15 35.85 2
    endloop
  endfacet
  facet normal 0 -1 0
    outer loop
      vertex 12.15 33.15 2
      vertex 14.85 33.15 2.2002
      vertex 12.15 33.15 2.2002
    endloop
  endfacet
  facet normal 0 -1 -0
    outer loop
      vertex 14.85 33.15 2.2002
      vertex 12.15 33.15 2
      vertex 14.85 33.15 2
    endloop
  endfacet
  facet normal 1 -0 0
    outer loop
      vertex 11.85 36.15 2.2002
      vertex 11.85 38.85 2
      vertex 11.85 38.85 2.2002
    endloop
  endfacet
  facet normal 1 0 0
    outer loop
      vertex 11.85 38.85 2
      vertex 11.85 36.15 2.2002
      vertex 11.85 36.15 2
    endloop
  endfacet
  facet normal -0 0 1
    outer loop
      vertex 9.15 38.85 2.2002
      vertex 11.85 36.15 2.2002
      vertex 11.85 38.85 2.2002
    endloop
  endfacet
  facet normal 0 0 1
    outer loop
      vertex 11.85 36.15 2.2002
      vertex 9.15 38.85 2.2002
      vertex 9.15 36.15 2.2002
    endloop
  endfacet
  facet normal 0 0 -1
    outer loop
      vertex 9.15 36.15 2
      vertex 11.85 38.85 2
      vertex 11.85 36.15 2
    endloop
  endfacet
  facet normal -0 0 -1
    outer loop
      vertex 11.85 38.85 2
      vertex 9.15 36.15 2
      vertex 9.15 38.85 2
    endloop
  endfacet
  facet normal -1 0 0
    outer loop
      vertex 9.15 36.15 2
      vertex 9.15 38.85 2.2002
      vertex 9.15 38.85 2
    endloop
  endfacet
  facet normal -1 -0 0
    outer loop
      vertex 9.15 38.85 2.2002
      vertex 9.15 36.15 2
      vertex 9.15 36.15 2.2002
    endloop
  endfacet
  facet normal 0 1 -0
    outer loop
      vertex 11.85 38.85 2
      vertex 9.15 38.85 2.2002
      vertex 11.85 38.85 2.2002
    endloop
  endfacet
  facet normal 0 1 0
    outer loop
      vertex 9.15 38.85 2.2002
      vertex 11.85 38.85 2
      vertex 9.15 38.85 2
    endloop
  endfacet
  facet normal 0 -1 0
    outer loop
      vertex 9.15 36.15 2
      vertex 11.85 36.15 2.2002
      vertex 9.15 36.15 2.2002
    endloop
  endfacet
  facet normal 0 -1 -0
    outer loop
      vertex 11.85 36.15 2.2002
      vertex 9.15 36.15 2
      vertex 11.85 36.15 2
    endloop
  endfacet
  facet normal 1 -0 0
    outer loop
      vertex 14.85 36.15 2.2002
      vertex 14.85 38.85 2
      vertex 14.85 38.85 2.2002
    endloop
  endfacet
  facet normal 1 0 0
    outer loop
      vertex 14.85 38.85 2
      vertex 14.85 36.15 2.2002
      vertex 14.85 36.15 2
    endloop
  endfacet
  facet normal -0 0 1
    outer loop
      vertex 12.15 38.85 2.2002
      vertex 14.85 36.15 2.2002
      vertex 14.85 38.85 2.2002
    endloop
  endfacet
  facet normal 0 0 1
    outer loop
      vertex 14.85 36.15 2.2002
      vertex 12.15 38.85 2.2002
      vertex 12.15 36.15 2.2002
    endloop
  endfacet
  facet normal 0 0 -1
    outer loop
      vertex 12.15 36.15 2
      vertex 14.85 38.85 2
      vertex 14.85 36.15 2
    endloop
  endfacet
  facet normal -0 0 -1
    outer loop
      vertex 14.85 38.85 2
      vertex 12.15 36.15 2
      vertex 12.15 38.85 2
    endloop
  endfacet
  facet normal -1 0 0
    outer loop
      vertex 12.15 36.15 2
      vertex 12.15 38.85 2.2002
      vertex 12.15 38.85 2
    endloop
  endfacet
  facet normal -1 -0 0
    outer loop
      vertex 12.15 38.85 2.2002
      vertex 12.15 36.15 2
      vertex 12.15 36.15 2.2002
    endloop
  endfacet
  facet normal 0 1 -0
    outer loop
      vertex 14.85 38.85 2
      vertex 12.15 38.85 2.2002
      vertex 14.85 38.85 2.2002
    endloop
  endfacet
  facet normal 0 1 0
    outer loop
      vertex 12.15 38.85 2.2002
      vertex 14.85 38.85 2
      vertex 12.15 38.85 2
    endloop
  endfacet
  facet normal 0 -1 0
    outer loop
      vertex 12.15 36.15 2
      vertex 14.85 36.15 2.2002
      vertex 12.15 36.15 2.2002
    endloop
  endfacet
  facet normal 0 -1 -0
    outer loop
      vertex 14.85 36.15 2.2002
      vertex 12.15 36.15 2
      vertex 14.85 36.15 2
    endloop
  endfacet
  facet normal 1 -0 0
    outer loop
      vertex 17.85 36.15 2.2002
      vertex 17.85 38.85 2
      vertex 17.85 38.85 2.2002
    endloop
  endfacet
  facet normal 1 0 0
    outer loop
      vertex 17.85 38.85 2
      vertex 17.85 36.15 2.2002
      vertex 17.85 36.15 2
    endloop
  endfacet
  facet normal -0 0 1
    outer loop
      vertex 15.15 38.85 2.2002
      vertex 17.85 36.15 2.2002
      vertex 17.85 38.85 2.2002
    endloop
  endfacet
  facet normal 0 0 1
    outer loop
      vertex 17.85 36.15 2.2002
      vertex 15.15 38.85 2.2002
      vertex 15.15 36.15 2.2002
    endloop
  endfacet
  facet normal 0 0 -1
    outer loop
      vertex 15.15 36.15 2
      vertex 17.85 38.85 2
      vertex 17.85 36.15 2
    endloop
  endfacet
  facet normal -0 0 -1
    outer loop
      vertex 17.85 38.85 2
      vertex 15.15 36.15 2
      vertex 15.15 38.85 2
    endloop
  endfacet
  facet normal -1 0 0
    outer loop
      vertex 15.15 36.15 2
      vertex 15.15 38.85 2.2002
      vertex 15.15 38.85 2
    endloop
  endfacet
  facet normal -1 -0 0
    outer loop
      vertex 15.15 38.85 2.2002
      vertex 15.15 36.15 2
      vertex 15.15 36.15 2.2002
    endloop
  endfacet
  facet normal 0 1 -0
    outer loop
      vertex 17.85 38.85 2
      vertex 15.15 38.85 2.2002
      vertex 17.85 38.85 2.2002
    endloop
  endfacet
  facet normal 0 1 0
    outer loop
      vertex 15.15 38.85 2.2002
      vertex 17.85 38.85 2
      vertex 15.15 38.85 2
    endloop
  endfacet
  facet normal 0 -1 0
    outer loop
      vertex 15.15 36.15 2
      vertex 17.85 36.15 2.2002
      vertex 15.15 36.15 2.2002
    endloop
  endfacet
  facet normal 0 -1 -0
    outer loop
      vertex 17.85 36.15 2.2002
      vertex 15.15 36.15 2
      vertex 17.85 36.15 2
    endloop
  endfacet
  facet normal 1 -0 0
    outer loop
      vertex 20.85 36.15 2.2002
      vertex 20.85 38.85 2
      vertex 20.85 38.85 2.2002
    endloop
  endfacet
  facet normal 1 0 0
    outer loop
      vertex 20.85 38.85 2
      vertex 20.85 36.15 2.2002
      vertex 20.85 36.15 2
    endloop
  endfacet
  facet normal -0 0 1
    outer loop
      vertex 18.15 38.85 2.2002
      vertex 20.85 36.15 2.2002
      vertex 20.85 38.85 2.2002
    endloop
  endfacet
  facet normal 0 0 1
    outer loop
      vertex 20.85 36.15 2.2002
      vertex 18.15 38.85 2.2002
      vertex 18.15 36.15 2.2002
    endloop
  endfacet
  facet normal 0 0 -1
    outer loop
      vertex 18.15 36.15 2
      vertex 20.85 38.85 2
      vertex 20.85 36.15 2
    endloop
  endfacet
  facet normal -0 0 -1
    outer loop
      vertex 20.85 38.85 2
      vertex 18.15 36.15 2
      vertex 18.15 38.85 2
    endloop
  endfacet
  facet normal -1 0 0
    outer loop
      vertex 18.15 36.15 2
      vertex 18.15 38.85 2.2002
      vertex 18.15 38.85 2
    endloop
  endfacet
  facet normal -1 -0 0
    outer loop
      vertex 18.15 38.85 2.2002
      vertex 18.15 36.15 2
      vertex 18.15 36.15 2.2002
    endloop
  endfacet
  facet normal 0 1 -0
    outer loop
      vertex 20.85 38.85 2
      vertex 18.15 38.85 2.2002
      vertex 20.85 38.85 2.2002
    endloop
  endfacet
  facet normal 0 1 0
    outer loop
      vertex 18.15 38.85 2.2002
      vertex 20.85 38.85 2
      vertex 18.15 38.85 2
    endloop
  endfacet
  facet normal 0 -1 0
    outer loop
      vertex 18.15 36.15 2
      vertex 20.85 36.15 2.2002
      vertex 18.15 36.15 2.2002
    endloop
  endfacet
  facet normal 0 -1 -0
    outer loop
      vertex 20.85 36.15 2.2002
      vertex 18.15 36.15 2
      vertex 20.85 36.15 2
    endloop
  endfacet
  facet normal 1 -0 0
    outer loop
      vertex 11.85 39.15 2.2002
      vertex 11.85 41.85 2
      vertex 11.85 41.85 2.2002
    endloop
  endfacet
  facet normal 1 0 0
    outer loop
      vertex 11.85 41.85 2
      vertex 11.85 39.15 2.2002
      vertex 11.85 39.15 2
    endloop
  endfacet
  facet normal -0 0 1
    outer loop
      vertex 9.15 41.85 2.2002
      vertex 11.85 39.15 2.2002
      vertex 11.85 41.85 2.2002
    endloop
  endfacet
  facet normal 0 0 1
    outer loop
      vertex 11.85 39.15 2.2002
      vertex 9.15 41.85 2.2002
      vertex 9.15 39.15 2.2002
    endloop
  endfacet
  facet normal 0 0 -1
    outer loop
      vertex 9.15 39.15 2
      vertex 11.85 41.85 2
      vertex 11.85 39.15 2
    endloop
  endfacet
  facet normal -0 0 -1
    outer loop
      vertex 11.85 41.85 2
      vertex 9.15 39.15 2
      vertex 9.15 41.85 2
    endloop
  endfacet
  facet normal -1 0 0
    outer loop
      vertex 9.15 39.15 2
      vertex 9.15 41.85 2.2002
      vertex 9.15 41.85 2
    endloop
  endfacet
  facet normal -1 -0 0
    outer loop
      vertex 9.15 41.85 2.2002
      vertex 9.15 39.15 2
      vertex 9.15 39.15 2.2002
    endloop
  endfacet
  facet normal 0 1 -0
    outer loop
      vertex 11.85 41.85 2
      vertex 9.15 41.85 2.2002
      vertex 11.85 41.85 2.2002
    endloop
  endfacet
  facet normal 0 1 0
    outer loop
      vertex 9.15 41.85 2.2002
      vertex 11.85 41.85 2
      vertex 9.15 41.85 2
    endloop
  endfacet
  facet normal 0 -1 0
    outer loop
      vertex 9.15 39.15 2
      vertex 11.85 39.15 2.2002
      vertex 9.15 39.15 2.2002
    endloop
  endfacet
  facet normal 0 -1 -0
    outer loop
      vertex 11.85 39.15 2.2002
      vertex 9.15 39.15 2
      vertex 11.85 39.15 2
    endloop
  endfacet
  facet normal 1 -0 0
    outer loop
      vertex 14.85 39.15 2.2002
      vertex 14.85 41.85 2
      vertex 14.85 41.85 2.2002
    endloop
  endfacet
  facet normal 1 0 0
    outer loop
      vertex 14.85 41.85 2
      vertex 14.85 39.15 2.2002
      vertex 14.85 39.15 2
    endloop
  endfacet
  facet normal -0 0 1
    outer loop
      vertex 12.15 41.85 2.2002
      vertex 14.85 39.15 2.2002
      vertex 14.85 41.85 2.2002
    endloop
  endfacet
  facet normal 0 0 1
    outer loop
      vertex 14.85 39.15 2.2002
      vertex 12.15 41.85 2.2002
      vertex 12.15 39.15 2.2002
    endloop
  endfacet
  facet normal 0 0 -1
    outer loop
      vertex 12.15 39.15 2
      vertex 14.85 41.85 2
      vertex 14.85 39.15 2
    endloop
  endfacet
  facet normal -0 0 -1
    outer loop
      vertex 14.85 41.85 2
      vertex 12.15 39.15 2
      vertex 12.15 41.85 2
    endloop
  endfacet
  facet normal -1 0 0
    outer loop
      vertex 12.15 39.15 2
      vertex 12.15 41.85 2.2002
      vertex 12.15 41.85 2
    endloop
  endfacet
  facet normal -1 -0 0
    outer loop
      vertex 12.15 41.85 2.2002
      vertex 12.15 39.15 2
      vertex 12.15 39.15 2.2002
    endloop
  endfacet
  facet normal 0 1 -0
    outer loop
      vertex 14.85 41.85 2
      vertex 12.15 41.85 2.2002
      vertex 14.85 41.85 2.2002
    endloop
  endfacet
  facet normal 0 1 0
    outer loop
      vertex 12.15 41.85 2.2002
      vertex 14.85 41.85 2
      vertex 12.15 41.85 2
    endloop
  endfacet
  facet normal 0 -1 0
    outer loop
      vertex 12.15 39.15 2
      vertex 14.85 39.15 2.2002
      vertex 12.15 39.15 2.2002
    endloop
  endfacet
  facet normal 0 -1 -0
    outer loop
      vertex 14.85 39.15 2.2002
      vertex 12.15 39.15 2
      vertex 14.85 39.15 2
    endloop
  endfacet
  facet normal 1 -0 0
    outer loop
      vertex 5.85 42.15 2.4004
      vertex 5.85 44.85 2.2002
      vertex 5.85 44.85 2.4004
    endloop
  endfacet
  facet normal 1 0 0
    outer loop
      vertex 5.85 44.85 2.2002
      vertex 5.85 42.15 2.4004
      vertex 5.85 42.15 2.2002
    endloop
  endfacet
  facet normal -0 0 1
    outer loop
      vertex 3.15 44.85 2.4004
      vertex 5.85 42.15 2.4004
      vertex 5.85 44.85 2.4004
    endloop
  endfacet
  facet normal 0 0 1
    outer loop
      vertex 5.85 42.15 2.4004
      vertex 3.15 44.85 2.4004
      vertex 3.15 42.15 2.4004
    endloop
  endfacet
  facet normal 0 0 -1
    outer loop
      vertex 3.15 42.15 2.2002
      vertex 5.85 44.85 2.2002
      vertex 5.85 42.15 2.2002
    endloop
  endfacet
  facet normal -0 0 -1
    outer loop
      vertex 5.85 44.85 2.2002
      vertex 3.15 42.15 2.2002
      vertex 3.15 44.85 2.2002
    endloop
  endfacet
  facet normal -1 0 0
    outer loop
      vertex 3.15 42.15 2.2002
      vertex 3.15 44.85 2.4004
      vertex 3.15 44.85 2.2002
    endloop
  endfacet
  facet normal -1 -0 0
    outer loop
      vertex 3.15 44.85 2.4004
      vertex 3.15 42.15 2.2002
      vertex 3.15 42.15 2.4004
    endloop
  endfacet
  facet normal 0 1 -0
    outer loop
      vertex 5.85 44.85 2.2002
      vertex 3.15 44.85 2.4004
      vertex 5.85 44.85 2.4004
    endloop
  endfacet
  facet normal 0 1 0
    outer loop
      vertex 3.15 44.85 2.4004
      vertex 5.85 44.85 2.2002
      vertex 3.15 44.85 2.2002
    endloop
  endfacet
  facet normal 0 -1 0
    outer loop
      vertex 3.15 42.15 2.2002
      vertex 5.85 42.15 2.4004
      vertex 3.15 42.15 2.4004
    endloop
  endfacet
  facet normal 0 -1 -0
    outer loop
      vertex 5.85 42.15 2.4004
      vertex 3.15 42.15 2.2002
      vertex 5.85 42.15 2.2002
    endloop
  endfacet
  facet normal 1 -0 0
    outer loop
      vertex 8.85 42.15 2.2002
      vertex 8.85 44.85 2
      vertex 8.85 44.85 2.2002
    endloop
  endfacet
  facet normal 1 0 0
    outer loop
      vertex 8.85 44.85 2
      vertex 8.85 42.15 2.2002
      vertex 8.85 42.15 2
    endloop
  endfacet
  facet normal -0 0 1
    outer loop
      vertex 6.15 44.85 2.2002
      vertex 8.85 42.15 2.2002
      vertex 8.85 44.85 2.2002
    endloop
  endfacet
  facet normal 0 0 1
    outer loop
      vertex 8.85 42.15 2.2002
      vertex 6.15 44.85 2.2002
      vertex 6.15 42.15 2.2002
    endloop
  endfacet
  facet normal 0 0 -1
    outer loop
      vertex 6.15 42.15 2
      vertex 8.85 44.85 2
      vertex 8.85 42.15 2
    endloop
  endfacet
  facet normal -0 0 -1
    outer loop
      vertex 8.85 44.85 2
      vertex 6.15 42.15 2
      vertex 6.15 44.85 2
    endloop
  endfacet
  facet normal -1 0 0
    outer loop
      vertex 6.15 42.15 2
      vertex 6.15 44.85 2.2002
      vertex 6.15 44.85 2
    endloop
  endfacet
  facet normal -1 -0 0
    outer loop
      vertex 6.15 44.85 2.2002
      vertex 6.15 42.15 2
      vertex 6.15 42.15 2.2002
    endloop
  endfacet
  facet normal 0 1 -0
    outer loop
      vertex 8.85 44.85 2
      vertex 6.15 44.85 2.2002
      vertex 8.85 44.85 2.2002
    endloop
  endfacet
  facet normal 0 1 0
    outer loop
      vertex 6.15 44.85 2.2002
      vertex 8.85 44.85 2
      vertex 6.15 44.85 2
    endloop
  endfacet
  facet normal 0 -1 0
    outer loop
      vertex 6.15 42.15 2
      vertex 8.85 42.15 2.2002
      vertex 6.15 42.15 2.2002
    endloop
  endfacet
  facet normal 0 -1 -0
    outer loop
      vertex 8.85 42.15 2.2002
      vertex 6.15 42.15 2
      vertex 8.85 42.15 2
    endloop
  endfacet
  facet normal 1 -0 0
    outer loop
      vertex 11.85 42.15 2.2002
      vertex 11.85 44.85 2
      vertex 11.85 44.85 2.2002
    endloop
  endfacet
  facet normal 1 0 0
    outer loop
      vertex 11.85 44.85 2
      vertex 11.85 42.15 2.2002
      vertex 11.85 42.15 2
    endloop
  endfacet
  facet normal -0 0 1
    outer loop
      vertex 9.15 44.85 2.2002
      vertex 11.85 42.15 2.2002
      vertex 11.85 44.85 2.2002
    endloop
  endfacet
  facet normal 0 0 1
    outer loop
      vertex 11.85 42.15 2.2002
      vertex 9.15 44.85 2.2002
      vertex 9.15 42.15 2.2002
    endloop
  endfacet
  facet normal 0 0 -1
    outer loop
      vertex 9.15 42.15 2
      vertex 11.85 44.85 2
      vertex 11.85 42.15 2
    endloop
  endfacet
  facet normal -0 0 -1
    outer loop
      vertex 11.85 44.85 2
      vertex 9.15 42.15 2
      vertex 9.15 44.85 2
    endloop
  endfacet
  facet normal -1 0 0
    outer loop
      vertex 9.15 42.15 2
      vertex 9.15 44.85 2.2002
      vertex 9.15 44.85 2
    endloop
  endfacet
  facet normal -1 -0 0
    outer loop
      vertex 9.15 44.85 2.2002
      vertex 9.15 42.15 2
      vertex 9.15 42.15 2.2002
    endloop
  endfacet
  facet normal 0 1 -0
    outer loop
      vertex 11.85 44.85 2
      vertex 9.15 44.85 2.2002
      vertex 11.85 44.85 2.2002
    endloop
  endfacet
  facet normal 0 1 0
    outer loop
      vertex 9.15 44.85 2.2002
      vertex 11.85 44.85 2
      vertex 9.15 44.85 2
    endloop
  endfacet
  facet normal 0 -1 0
    outer loop
      vertex 9.15 42.15 2
      vertex 11.85 42.15 2.2002
      vertex 9.15 42.15 2.2002
    endloop
  endfacet
  facet normal 0 -1 -0
    outer loop
      vertex 11.85 42.15 2.2002
      vertex 9.15 42.15 2
      vertex 11.85 42.15 2
    endloop
  endfacet
  facet normal 1 -0 0
    outer loop
      vertex 14.85 42.15 2.2002
      vertex 14.85 44.85 2
      vertex 14.85 44.85 2.2002
    endloop
  endfacet
  facet normal 1 0 0
    outer loop
      vertex 14.85 44.85 2
      vertex 14.85 42.15 2.2002
      vertex 14.85 42.15 2
    endloop
  endfacet
  facet normal -0 0 1
    outer loop
      vertex 12.15 44.85 2.2002
      vertex 14.85 42.15 2.2002
      vertex 14.85 44.85 2.2002
    endloop
  endfacet
  facet normal 0 0 1
    outer loop
      vertex 14.85 42.15 2.2002
      vertex 12.15 44.85 2.2002
      vertex 12.15 42.15 2.2002
    endloop
  endfacet
  facet normal 0 0 -1
    outer loop
      vertex 12.15 42.15 2
      vertex 14.85 44.85 2
      vertex 14.85 42.15 2
    endloop
  endfacet
  facet normal -0 0 -1
    outer loop
      vertex 14.85 44.85 2
      vertex 12.15 42.15 2
      vertex 12.15 44.85 2
    endloop
  endfacet
  facet normal -1 0 0
    outer loop
      vertex 12.15 42.15 2
      vertex 12.15 44.85 2.2002
      vertex 12.15 44.85 2
    endloop
  endfacet
  facet normal -1 -0 0
    outer loop
      vertex 12.15 44.85 2.2002
      vertex 12.15 42.15 2
      vertex 12.15 42.15 2.2002
    endloop
  endfacet
  facet normal 0 1 -0
    outer loop
      vertex 14.85 44.85 2
      vertex 12.15 44.85 2.2002
      vertex 14.85 44.85 2.2002
    endloop
  endfacet
  facet normal 0 1 0
    outer loop
      vertex 12.15 44.85 2.2002
      vertex 14.85 44.85 2
      vertex 12.15 44.85 2
    endloop
  endfacet
  facet normal 0 -1 0
    outer loop
      vertex 12.15 42.15 2
      vertex 14.85 42.15 2.2002
      vertex 12.15 42.15 2.2002
    endloop
  endfacet
  facet normal 0 -1 -0
    outer loop
      vertex 14.85 42.15 2.2002
      vertex 12.15 42.15 2
      vertex 14.85 42.15 2
    endloop
  endfacet
  facet normal 1 -0 0
    outer loop
      vertex 5.85 45.15 2.4004
      vertex 5.85 47.85 2.2002
      vertex 5.85 47.85 2.4004
    endloop
  endfacet
  facet normal 1 0 0
    outer loop
      vertex 5.85 47.85 2.2002
      vertex 5.85 45.15 2.4004
      vertex 5.85 45.15 2.2002
    endloop
  endfacet
  facet normal -0 0 1
    outer loop
      vertex 3.15 47.85 2.4004
      vertex 5.85 45.15 2.4004
      vertex 5.85 47.85 2.4004
    endloop
  endfacet
  facet normal 0 0 1
    outer loop
      vertex 5.85 45.15 2.4004
      vertex 3.15 47.85 2.4004
      vertex 3.15 45.15 2.4004
    endloop
  endfacet
  facet normal 0 0 -1
    outer loop
      vertex 3.15 45.15 2.2002
      vertex 5.85 47.85 2.2002
      vertex 5.85 45.15 2.2002
    endloop
  endfacet
  facet normal -0 0 -1
    outer loop
      vertex 5.85 47.85 2.2002
      vertex 3.15 45.15 2.2002
      vertex 3.15 47.85 2.2002
    endloop
  endfacet
  facet normal -1 0 0
    outer loop
      vertex 3.15 45.15 2.2002
      vertex 3.15 47.85 2.4004
      vertex 3.15 47.85 2.2002
    endloop
  endfacet
  facet normal -1 -0 0
    outer loop
      vertex 3.15 47.85 2.4004
      vertex 3.15 45.15 2.2002
      vertex 3.15 45.15 2.4004
    endloop
  endfacet
  facet normal 0 1 -0
    outer loop
      vertex 5.85 47.85 2.2002
      vertex 3.15 47.85 2.4004
      vertex 5.85 47.85 2.4004
    endloop
  endfacet
  facet normal 0 1 0
    outer loop
      vertex 3.15 47.85 2.4004
      vertex 5.85 47.85 2.2002
      vertex 3.15 47.85 2.2002
    endloop
  endfacet
  facet normal 0 -1 0
    outer loop
      vertex 3.15 45.15 2.2002
      vertex 5.85 45.15 2.4004
      vertex 3.15 45.15 2.4004
    endloop
  endfacet
  facet normal 0 -1 -0
    outer loop
      vertex 5.85 45.15 2.4004
      vertex 3.15 45.15 2.2002
      vertex 5.85 45.15 2.2002
    endloop
  endfacet
  facet normal 1 -0 0
    outer loop
      vertex 8.85 45.15 2.4004
      vertex 8.85 47.85 2.2002
      vertex 8.85 47.85 2.4004
    endloop
  endfacet
  facet normal 1 0 0
    outer loop
      vertex 8.85 47.85 2.2002
      vertex 8.85 45.15 2.4004
      vertex 8.85 45.15 2.2002
    endloop
  endfacet
  facet normal -0 0 1
    outer loop
      vertex 6.15 47.85 2.4004
      vertex 8.85 45.15 2.4004
      vertex 8.85 47.85 2.4004
    endloop
  endfacet
  facet normal 0 0 1
    outer loop
      vertex 8.85 45.15 2.4004
      vertex 6.15 47.85 2.4004
      vertex 6.15 45.15 2.4004
    endloop
  endfacet
  facet normal 0 0 -1
    outer loop
      vertex 6.15 45.15 2.2002
      vertex 8.85 47.85 2.2002
      vertex 8.85 45.15 2.2002
    endloop
  endfacet
  facet normal -0 0 -1
    outer loop
      vertex 8.85 47.85 2.2002
      vertex 6.15 45.15 2.2002
      vertex 6.15 47.85 2.2002
    endloop
  endfacet
  facet normal -1 0 0
    outer loop
      vertex 6.15 45.15 2.2002
      vertex 6.15 47.85 2.4004
      vertex 6.15 47.85 2.2002
    endloop
  endfacet
  facet normal -1 -0 0
    outer loop
      vertex 6.15 47.85 2.4004
      vertex 6.15 45.15 2.2002
      vertex 6.15 45.15 2.4004
    endloop
  endfacet
  facet normal 0 1 -0
    outer loop
      vertex 8.85 47.85 2.2002
      vertex 6.15 47.85 2.4004
      vertex 8.85 47.85 2.4004
    endloop
  endfacet
  facet normal 0 1 0
    outer loop
      vertex 6.15 47.85 2.4004
      vertex 8.85 47.85 2.2002
      vertex 6.15 47.85 2.2002
    endloop
  endfacet
  facet normal 0 -1 0
    outer loop
      vertex 6.15 45.15 2.2002
      vertex 8.85 45.15 2.4004
      vertex 6.15 45.15 2.4004
    endloop
  endfacet
  facet normal 0 -1 -0
    outer loop
      vertex 8.85 45.15 2.4004
      vertex 6.15 45.15 2.2002
      vertex 8.85 45.15 2.2002
    endloop
  endfacet
  facet normal 1 -0 0
    outer loop
      vertex 11.85 45.15 2.2002
      vertex 11.85 47.85 2
      vertex 11.85 47.85 2.2002
    endloop
  endfacet
  facet normal 1 0 0
    outer loop
      vertex 11.85 47.85 2
      vertex 11.85 45.15 2.2002
      vertex 11.85 45.15 2
    endloop
  endfacet
  facet normal -0 0 1
    outer loop
      vertex 9.15 47.85 2.2002
      vertex 11.85 45.15 2.2002
      vertex 11.85 47.85 2.2002
    endloop
  endfacet
  facet normal 0 0 1
    outer loop
      vertex 11.85 45.15 2.2002
      vertex 9.15 47.85 2.2002
      vertex 9.15 45.15 2.2002
    endloop
  endfacet
  facet normal 0 0 -1
    outer loop
      vertex 9.15 45.15 2
      vertex 11.85 47.85 2
      vertex 11.85 45.15 2
    endloop
  endfacet
  facet normal -0 0 -1
    outer loop
      vertex 11.85 47.85 2
      vertex 9.15 45.15 2
      vertex 9.15 47.85 2
    endloop
  endfacet
  facet normal -1 0 0
    outer loop
      vertex 9.15 45.15 2
      vertex 9.15 47.85 2.2002
      vertex 9.15 47.85 2
    endloop
  endfacet
  facet normal -1 -0 0
    outer loop
      vertex 9.15 47.85 2.2002
      vertex 9.15 45.15 2
      vertex 9.15 45.15 2.2002
    endloop
  endfacet
  facet normal 0 1 -0
    outer loop
      vertex 11.85 47.85 2
      vertex 9.15 47.85 2.2002
      vertex 11.85 47.85 2.2002
    endloop
  endfacet
  facet normal 0 1 0
    outer loop
      vertex 9.15 47.85 2.2002
      vertex 11.85 47.85 2
      vertex 9.15 47.85 2
    endloop
  endfacet
  facet normal 0 -1 0
    outer loop
      vertex 9.15 45.15 2
      vertex 11.85 45.15 2.2002
      vertex 9.15 45.15 2.2002
    endloop
  endfacet
  facet normal 0 -1 -0
    outer loop
      vertex 11.85 45.15 2.2002
      vertex 9.15 45.15 2
      vertex 11.85 45.15 2
    endloop
  endfacet
  facet normal 1 -0 0
    outer loop
      vertex 14.85 45.15 2.2002
      vertex 14.85 47.85 2
      vertex 14.85 47.85 2.2002
    endloop
  endfacet
  facet normal 1 0 0
    outer loop
      vertex 14.85 47.85 2
      vertex 14.85 45.15 2.2002
      vertex 14.85 45.15 2
    endloop
  endfacet
  facet normal -0 0 1
    outer loop
      vertex 12.15 47.85 2.2002
      vertex 14.85 45.15 2.2002
      vertex 14.85 47.85 2.2002
    endloop
  endfacet
  facet normal 0 0 1
    outer loop
      vertex 14.85 45.15 2.2002
      vertex 12.15 47.85 2.2002
      vertex 12.15 45.15 2.2002
    endloop
  endfacet
  facet normal 0 0 -1
    outer loop
      vertex 12.15 45.15 2
      vertex 14.85 47.85 2
      vertex 14.85 45.15 2
    endloop
  endfacet
  facet normal -0 0 -1
    outer loop
      vertex 14.85 47.85 2
      vertex 12.15 45.15 2
      vertex 12.15 47.85 2
    endloop
  endfacet
  facet normal -1 0 0
    outer loop
      vertex 12.15 45.15 2
      vertex 12.15 47.85 2.2002
      vertex 12.15 47.85 2
    endloop
  endfacet
  facet normal -1 -0 0
    outer loop
      vertex 12.15 47.85 2.2002
      vertex 12.15 45.15 2
      vertex 12.15 45.15 2.2002
    endloop
  endfacet
  facet normal 0 1 -0
    outer loop
      vertex 14.85 47.85 2
      vertex 12.15 47.85 2.2002
      vertex 14.85 47.85 2.2002
    endloop
  endfacet
  facet normal 0 1 0
    outer loop
      vertex 12.15 47.85 2.2002
      vertex 14.85 47.85 2
      vertex 12.15 47.85 2
    endloop
  endfacet
  facet normal 0 -1 0
    outer loop
      vertex 12.15 45.15 2
      vertex 14.85 45.15 2.2002
      vertex 12.15 45.15 2.2002
    endloop
  endfacet
  facet normal 0 -1 -0
    outer loop
      vertex 14.85 45.15 2.2002
      vertex 12.15 45.15 2
      vertex 14.85 45.15 2
    endloop
  endfacet
  facet normal 1 -0 0
    outer loop
      vertex 17.85 45.15 2.2002
      vertex 17.85 47.85 2
      vertex 17.85 47.85 2.2002
    endloop
  endfacet
  facet normal 1 0 0
    outer loop
      vertex 17.85 47.85 2
      vertex 17.85 45.15 2.2002
      vertex 17.85 45.15 2
    endloop
  endfacet
  facet normal -0 0 1
    outer loop
      vertex 15.15 47.85 2.2002
      vertex 17.85 45.15 2.2002
      vertex 17.85 47.85 2.2002
    endloop
  endfacet
  facet normal 0 0 1
    outer loop
      vertex 17.85 45.15 2.2002
      vertex 15.15 47.85 2.2002
      vertex 15.15 45.15 2.2002
    endloop
  endfacet
  facet normal 0 0 -1
    outer loop
      vertex 15.15 45.15 2
      vertex 17.85 47.85 2
      vertex 17.85 45.15 2
    endloop
  endfacet
  facet normal -0 0 -1
    outer loop
      vertex 17.85 47.85 2
      vertex 15.15 45.15 2
      vertex 15.15 47.85 2
    endloop
  endfacet
  facet normal -1 0 0
    outer loop
      vertex 15.15 45.15 2
      vertex 15.15 47.85 2.2002
      vertex 15.15 47.85 2
    endloop
  endfacet
  facet normal -1 -0 0
    outer loop
      vertex 15.15 47.85 2.2002
      vertex 15.15 45.15 2
      vertex 15.15 45.15 2.2002
    endloop
  endfacet
  facet normal 0 1 -0
    outer loop
      vertex 17.85 47.85 2
      vertex 15.15 47.85 2.2002
      vertex 17.85 47.85 2.2002
    endloop
  endfacet
  facet normal 0 1 0
    outer loop
      vertex 15.15 47.85 2.2002
      vertex 17.85 47.85 2
      vertex 15.15 47.85 2
    endloop
  endfacet
  facet normal 0 -1 0
    outer loop
      vertex 15.15 45.15 2
      vertex 17.85 45.15 2.2002
      vertex 15.15 45.15 2.2002
    endloop
  endfacet
  facet normal 0 -1 -0
    outer loop
      vertex 17.85 45.15 2.2002
      vertex 15.15 45.15 2
      vertex 17.85 45.15 2
    endloop
  endfacet
  facet normal 1 -0 0
    outer loop
      vertex 20.85 45.15 2.2002
      vertex 20.85 47.85 2
      vertex 20.85 47.85 2.2002
    endloop
  endfacet
  facet normal 1 0 0
    outer loop
      vertex 20.85 47.85 2
      vertex 20.85 45.15 2.2002
      vertex 20.85 45.15 2
    endloop
  endfacet
  facet normal -0 0 1
    outer loop
      vertex 18.15 47.85 2.2002
      vertex 20.85 45.15 2.2002
      vertex 20.85 47.85 2.2002
    endloop
  endfacet
  facet normal 0 0 1
    outer loop
      vertex 20.85 45.15 2.2002
      vertex 18.15 47.85 2.2002
      vertex 18.15 45.15 2.2002
    endloop
  endfacet
  facet normal 0 0 -1
    outer loop
      vertex 18.15 45.15 2
      vertex 20.85 47.85 2
      vertex 20.85 45.15 2
    endloop
  endfacet
  facet normal -0 0 -1
    outer loop
      vertex 20.85 47.85 2
      vertex 18.15 45.15 2
      vertex 18.15 47.85 2
    endloop
  endfacet
  facet normal -1 0 0
    outer loop
      vertex 18.15 45.15 2
      vertex 18.15 47.85 2.2002
      vertex 18.15 47.85 2
    endloop
  endfacet
  facet normal -1 -0 0
    outer loop
      vertex 18.15 47.85 2.2002
      vertex 18.15 45.15 2
      vertex 18.15 45.15 2.2002
    endloop
  endfacet
  facet normal 0 1 -0
    outer loop
      vertex 20.85 47.85 2
      vertex 18.15 47.85 2.2002
      vertex 20.85 47.85 2.2002
    endloop
  endfacet
  facet normal 0 1 0
    outer loop
      vertex 18.15 47.85 2.2002
      vertex 20.85 47.85 2
      vertex 18.15 47.85 2
    endloop
  endfacet
  facet normal 0 -1 0
    outer loop
      vertex 18.15 45.15 2
      vertex 20.85 45.15 2.2002
      vertex 18.15 45.15 2.2002
    endloop
  endfacet
  facet normal 0 -1 -0
    outer loop
      vertex 20.85 45.15 2.2002
      vertex 18.15 45.15 2
      vertex 20.85 45.15 2
    endloop
  endfacet
  facet normal 1 -0 0
    outer loop
      vertex 5.85 48.15 2.4004
      vertex 5.85 50.85 2.2002
      vertex 5.85 50.85 2.4004
    endloop
  endfacet
  facet normal 1 0 0
    outer loop
      vertex 5.85 50.85 2.2002
      vertex 5.85 48.15 2.4004
      vertex 5.85 48.15 2.2002
    endloop
  endfacet
  facet normal -0 0 1
    outer loop
      vertex 3.15 50.85 2.4004
      vertex 5.85 48.15 2.4004
      vertex 5.85 50.85 2.4004
    endloop
  endfacet
  facet normal 0 0 1
    outer loop
      vertex 5.85 48.15 2.4004
      vertex 3.15 50.85 2.4004
      vertex 3.15 48.15 2.4004
    endloop
  endfacet
  facet normal 0 0 -1
    outer loop
      vertex 3.15 48.15 2.2002
      vertex 5.85 50.85 2.2002
      vertex 5.85 48.15 2.2002
    endloop
  endfacet
  facet normal -0 0 -1
    outer loop
      vertex 5.85 50.85 2.2002
      vertex 3.15 48.15 2.2002
      vertex 3.15 50.85 2.2002
    endloop
  endfacet
  facet normal -1 0 0
    outer loop
      vertex 3.15 48.15 2.2002
      vertex 3.15 50.85 2.4004
      vertex 3.15 50.85 2.2002
    endloop
  endfacet
  facet normal -1 -0 0
    outer loop
      vertex 3.15 50.85 2.4004
      vertex 3.15 48.15 2.2002
      vertex 3.15 48.15 2.4004
    endloop
  endfacet
  facet normal 0 1 -0
    outer loop
      vertex 5.85 50.85 2.2002
      vertex 3.15 50.85 2.4004
      vertex 5.85 50.85 2.4004
    endloop
  endfacet
  facet normal 0 1 0
    outer loop
      vertex 3.15 50.85 2.4004
      vertex 5.85 50.85 2.2002
      vertex 3.15 50.85 2.2002
    endloop
  endfacet
  facet normal 0 -1 0
    outer loop
      vertex 3.15 48.15 2.2002
      vertex 5.85 48.15 2.4004
      vertex 3.15 48.15 2.4004
    endloop
  endfacet
  facet normal 0 -1 -0
    outer loop
      vertex 5.85 48.15 2.4004
      vertex 3.15 48.15 2.2002
      vertex 5.85 48.15 2.2002
    endloop
  endfacet
  facet normal 1 -0 0
    outer loop
      vertex 8.85 48.15 2.4004
      vertex 8.85 50.85 2.2002
      vertex 8.85 50.85 2.4004
    endloop
  endfacet
  facet normal 1 0 0
    outer loop
      vertex 8.85 50.85 2.2002
      vertex 8.85 48.15 2.4004
      vertex 8.85 48.15 2.2002
    endloop
  endfacet
  facet normal -0 0 1
    outer loop
      vertex 6.15 50.85 2.4004
      vertex 8.85 48.15 2.4004
      vertex 8.85 50.85 2.4004
    endloop
  endfacet
  facet normal 0 0 1
    outer loop
      vertex 8.85 48.15 2.4004
      vertex 6.15 50.85 2.4004
      vertex 6.15 48.15 2.4004
    endloop
  endfacet
  facet normal 0 0 -1
    outer loop
      vertex 6.15 48.15 2.2002
      vertex 8.85 50.85 2.2002
      vertex 8.85 48.15 2.2002
    endloop
  endfacet
  facet normal -0 0 -1
    outer loop
      vertex 8.85 50.85 2.2002
      vertex 6.15 48.15 2.2002
      vertex 6.15 50.85 2.2002
    endloop
  endfacet
  facet normal -1 0 0
    outer loop
      vertex 6.15 48.15 2.2002
      vertex 6.15 50.85 2.4004
      vertex 6.15 50.85 2.2002
    endloop
  endfacet
  facet normal -1 -0 0
    outer loop
      vertex 6.15 50.85 2.4004
      vertex 6.15 48.15 2.2002
      vertex 6.15 48.15 2.4004
    endloop
  endfacet
  facet normal 0 1 -0
    outer loop
      vertex 8.85 50.85 2.2002
      vertex 6.15 50.85 2.4004
      vertex 8.85 50.85 2.4004
    endloop
  endfacet
  facet normal 0 1 0
    outer loop
      vertex 6.15 50.85 2.4004
      vertex 8.85 50.85 2.2002
      vertex 6.15 50.85 2.2002
    endloop
  endfacet
  facet normal 0 -1 0
    outer loop
      vertex 6.15 48.15 2.2002
      vertex 8.85 48.15 2.4004
      vertex 6.15 48.15 2.4004
    endloop
  endfacet
  facet normal 0 -1 -0
    outer loop
      vertex 8.85 48.15 2.4004
      vertex 6.15 48.15 2.2002
      vertex 8.85 48.15 2.2002
    endloop
  endfacet
  facet normal 1 -0 0
    outer loop
      vertex 11.85 48.15 2.2002
      vertex 11.85 50.85 2
      vertex 11.85 50.85 2.2002
    endloop
  endfacet
  facet normal 1 0 0
    outer loop
      vertex 11.85 50.85 2
      vertex 11.85 48.15 2.2002
      vertex 11.85 48.15 2
    endloop
  endfacet
  facet normal -0 0 1
    outer loop
      vertex 9.15 50.85 2.2002
      vertex 11.85 48.15 2.2002
      vertex 11.85 50.85 2.2002
    endloop
  endfacet
  facet normal 0 0 1
    outer loop
      vertex 11.85 48.15 2.2002
      vertex 9.15 50.85 2.2002
      vertex 9.15 48.15 2.2002
    endloop
  endfacet
  facet normal 0 0 -1
    outer loop
      vertex 9.15 48.15 2
      vertex 11.85 50.85 2
      vertex 11.85 48.15 2
    endloop
  endfacet
  facet normal -0 0 -1
    outer loop
      vertex 11.85 50.85 2
      vertex 9.15 48.15 2
      vertex 9.15 50.85 2
    endloop
  endfacet
  facet normal -1 0 0
    outer loop
      vertex 9.15 48.15 2
      vertex 9.15 50.85 2.2002
      vertex 9.15 50.85 2
    endloop
  endfacet
  facet normal -1 -0 0
    outer loop
      vertex 9.15 50.85 2.2002
      vertex 9.15 48.15 2
      vertex 9.15 48.15 2.2002
    endloop
  endfacet
  facet normal 0 1 -0
    outer loop
      vertex 11.85 50.85 2
      vertex 9.15 50.85 2.2002
      vertex 11.85 50.85 2.2002
    endloop
  endfacet
  facet normal 0 1 0
    outer loop
      vertex 9.15 50.85 2.2002
      vertex 11.85 50.85 2
      vertex 9.15 50.85 2
    endloop
  endfacet
  facet normal 0 -1 0
    outer loop
      vertex 9.15 48.15 2
      vertex 11.85 48.15 2.2002
      vertex 9.15 48.15 2.2002
    endloop
  endfacet
  facet normal 0 -1 -0
    outer loop
      vertex 11.85 48.15 2.2002
      vertex 9.15 48.15 2
      vertex 11.85 48.15 2
    endloop
  endfacet
  facet normal 1 -0 0
    outer loop
      vertex 20.85 48.15 2.2002
      vertex 20.85 50.85 2
      vertex 20.85 50.85 2.2002
    endloop
  endfacet
  facet normal 1 0 0
    outer loop
      vertex 20.85 50.85 2
      vertex 20.85 48.15 2.2002
      vertex 20.85 48.15 2
    endloop
  endfacet
  facet normal -0 0 1
    outer loop
      vertex 18.15 50.85 2.2002
      vertex 20.85 48.15 2.2002
      vertex 20.85 50.85 2.2002
    endloop
  endfacet
  facet normal 0 0 1
    outer loop
      vertex 20.85 48.15 2.2002
      vertex 18.15 50.85 2.2002
      vertex 18.15 48.15 2.2002
    endloop
  endfacet
  facet normal 0 0 -1
    outer loop
      vertex 18.15 48.15 2
      vertex 20.85 50.85 2
      vertex 20.85 48.15 2
    endloop
  endfacet
  facet normal -0 0 -1
    outer loop
      vertex 20.85 50.85 2
      vertex 18.15 48.15 2
      vertex 18.15 50.85 2
    endloop
  endfacet
  facet normal -1 0 0
    outer loop
      vertex 18.15 48.15 2
      vertex 18.15 50.85 2.2002
      vertex 18.15 50.85 2
    endloop
  endfacet
  facet normal -1 -0 0
    outer loop
      vertex 18.15 50.85 2.2002
      vertex 18.15 48.15 2
      vertex 18.15 48.15 2.2002
    endloop
  endfacet
  facet normal 0 1 -0
    outer loop
      vertex 20.85 50.85 2
      vertex 18.15 50.85 2.2002
      vertex 20.85 50.85 2.2002
    endloop
  endfacet
  facet normal 0 1 0
    outer loop
      vertex 18.15 50.85 2.2002
      vertex 20.85 50.85 2
      vertex 18.15 50.85 2
    endloop
  endfacet
  facet normal 0 -1 0
    outer loop
      vertex 18.15 48.15 2
      vertex 20.85 48.15 2.2002
      vertex 18.15 48.15 2.2002
    endloop
  endfacet
  facet normal 0 -1 -0
    outer loop
      vertex 20.85 48.15 2.2002
      vertex 18.15 48.15 2
      vertex 20.85 48.15 2
    endloop
  endfacet
  facet normal 1 -0 0
    outer loop
      vertex 26.85 48.15 2.4004
      vertex 26.85 50.85 2.2002
      vertex 26.85 50.85 2.4004
    endloop
  endfacet
  facet normal 1 0 0
    outer loop
      vertex 26.85 50.85 2.2002
      vertex 26.85 48.15 2.4004
      vertex 26.85 48.15 2.2002
    endloop
  endfacet
  facet normal -0 0 1
    outer loop
      vertex 24.15 50.85 2.4004
      vertex 26.85 48.15 2.4004
      vertex 26.85 50.85 2.4004
    endloop
  endfacet
  facet normal 0 0 1
    outer loop
      vertex 26.85 48.15 2.4004
      vertex 24.15 50.85 2.4004
      vertex 24.15 48.15 2.4004
    endloop
  endfacet
  facet normal 0 0 -1
    outer loop
      vertex 24.15 48.15 2.2002
      vertex 26.85 50.85 2.2002
      vertex 26.85 48.15 2.2002
    endloop
  endfacet
  facet normal -0 0 -1
    outer loop
      vertex 26.85 50.85 2.2002
      vertex 24.15 48.15 2.2002
      vertex 24.15 50.85 2.2002
    endloop
  endfacet
  facet normal -1 0 0
    outer loop
      vertex 24.15 48.15 2.2002
      vertex 24.15 50.85 2.4004
      vertex 24.15 50.85 2.2002
    endloop
  endfacet
  facet normal -1 -0 0
    outer loop
      vertex 24.15 50.85 2.4004
      vertex 24.15 48.15 2.2002
      vertex 24.15 48.15 2.4004
    endloop
  endfacet
  facet normal 0 1 -0
    outer loop
      vertex 26.85 50.85 2.2002
      vertex 24.15 50.85 2.4004
      vertex 26.85 50.85 2.4004
    endloop
  endfacet
  facet normal 0 1 0
    outer loop
      vertex 24.15 50.85 2.4004
      vertex 26.85 50.85 2.2002
      vertex 24.15 50.85 2.2002
    endloop
  endfacet
  facet normal 0 -1 0
    outer loop
      vertex 24.15 48.15 2.2002
      vertex 26.85 48.15 2.4004
      vertex 24.15 48.15 2.4004
    endloop
  endfacet
  facet normal 0 -1 -0
    outer loop
      vertex 26.85 48.15 2.4004
      vertex 24.15 48.15 2.2002
      vertex 26.85 48.15 2.2002
    endloop
  endfacet
  facet normal 1 -0 0
    outer loop
      vertex 5.85 51.15 2.4004
      vertex 5.85 53.85 2.2002
      vertex 5.85 53.85 2.4004
    endloop
  endfacet
  facet normal 1 0 0
    outer loop
      vertex 5.85 53.85 2.2002
      vertex 5.85 51.15 2.4004
      vertex 5.85 51.15 2.2002
    endloop
  endfacet
  facet normal -0 0 1
    outer loop
      vertex 3.15 53.85 2.4004
      vertex 5.85 51.15 2.4004
      vertex 5.85 53.85 2.4004
    endloop
  endfacet
  facet normal 0 0 1
    outer loop
      vertex 5.85 51.15 2.4004
      vertex 3.15 53.85 2.4004
      vertex 3.15 51.15 2.4004
    endloop
  endfacet
  facet normal 0 0 -1
    outer loop
      vertex 3.15 51.15 2.2002
      vertex 5.85 53.85 2.2002
      vertex 5.85 51.15 2.2002
    endloop
  endfacet
  facet normal -0 0 -1
    outer loop
      vertex 5.85 53.85 2.2002
      vertex 3.15 51.15 2.2002
      vertex 3.15 53.85 2.2002
    endloop
  endfacet
  facet normal -1 0 0
    outer loop
      vertex 3.15 51.15 2.2002
      vertex 3.15 53.85 2.4004
      vertex 3.15 53.85 2.2002
    endloop
  endfacet
  facet normal -1 -0 0
    outer loop
      vertex 3.15 53.85 2.4004
      vertex 3.15 51.15 2.2002
      vertex 3.15 51.15 2.4004
    endloop
  endfacet
  facet normal 0 1 -0
    outer loop
      vertex 5.85 53.85 2.2002
      vertex 3.15 53.85 2.4004
      vertex 5.85 53.85 2.4004
    endloop
  endfacet
  facet normal 0 1 0
    outer loop
      vertex 3.15 53.85 2.4004
      vertex 5.85 53.85 2.2002
      vertex 3.15 53.85 2.2002
    endloop
  endfacet
  facet normal 0 -1 0
    outer loop
      vertex 3.15 51.15 2.2002
      vertex 5.85 51.15 2.4004
      vertex 3.15 51.15 2.4004
    endloop
  endfacet
  facet normal 0 -1 -0
    outer loop
      vertex 5.85 51.15 2.4004
      vertex 3.15 51.15 2.2002
      vertex 5.85 51.15 2.2002
    endloop
  endfacet
  facet normal 1 -0 0
    outer loop
      vertex 8.85 51.15 2.4004
      vertex 8.85 53.85 2.2002
      vertex 8.85 53.85 2.4004
    endloop
  endfacet
  facet normal 1 0 0
    outer loop
      vertex 8.85 53.85 2.2002
      vertex 8.85 51.15 2.4004
      vertex 8.85 51.15 2.2002
    endloop
  endfacet
  facet normal -0 0 1
    outer loop
      vertex 6.15 53.85 2.4004
      vertex 8.85 51.15 2.4004
      vertex 8.85 53.85 2.4004
    endloop
  endfacet
  facet normal 0 0 1
    outer loop
      vertex 8.85 51.15 2.4004
      vertex 6.15 53.85 2.4004
      vertex 6.15 51.15 2.4004
    endloop
  endfacet
  facet normal 0 0 -1
    outer loop
      vertex 6.15 51.15 2.2002
      vertex 8.85 53.85 2.2002
      vertex 8.85 51.15 2.2002
    endloop
  endfacet
  facet normal -0 0 -1
    outer loop
      vertex 8.85 53.85 2.2002
      vertex 6.15 51.15 2.2002
      vertex 6.15 53.85 2.2002
    endloop
  endfacet
  facet normal -1 0 0
    outer loop
      vertex 6.15 51.15 2.2002
      vertex 6.15 53.85 2.4004
      vertex 6.15 53.85 2.2002
    endloop
  endfacet
  facet normal -1 -0 0
    outer loop
      vertex 6.15 53.85 2.4004
      vertex 6.15 51.15 2.2002
      vertex 6.15 51.15 2.4004
    endloop
  endfacet
  facet normal 0 1 -0
    outer loop
      vertex 8.85 53.85 2.2002
      vertex 6.15 53.85 2.4004
      vertex 8.85 53.85 2.4004
    endloop
  endfacet
  facet normal 0 1 0
    outer loop
      vertex 6.15 53.85 2.4004
      vertex 8.85 53.85 2.2002
      vertex 6.15 53.85 2.2002
    endloop
  endfacet
  facet normal 0 -1 0
    outer loop
      vertex 6.15 51.15 2.2002
      vertex 8.85 51.15 2.4004
      vertex 6.15 51.15 2.4004
    endloop
  endfacet
  facet normal 0 -1 -0
    outer loop
      vertex 8.85 51.15 2.4004
      vertex 6.15 51.15 2.2002
      vertex 8.85 51.15 2.2002
    endloop
  endfacet
  facet normal 1 -0 0
    outer loop
      vertex 11.85 51.15 2.2002
      vertex 11.85 53.85 2
      vertex 11.85 53.85 2.2002
    endloop
  endfacet
  facet normal 1 0 0
    outer loop
      vertex 11.85 53.85 2
      vertex 11.85 51.15 2.2002
      vertex 11.85 51.15 2
    endloop
  endfacet
  facet normal -0 0 1
    outer loop
      vertex 9.15 53.85 2.2002
      vertex 11.85 51.15 2.2002
      vertex 11.85 53.85 2.2002
    endloop
  endfacet
  facet normal 0 0 1
    outer loop
      vertex 11.85 51.15 2.2002
      vertex 9.15 53.85 2.2002
      vertex 9.15 51.15 2.2002
    endloop
  endfacet
  facet normal 0 0 -1
    outer loop
      vertex 9.15 51.15 2
      vertex 11.85 53.85 2
      vertex 11.85 51.15 2
    endloop
  endfacet
  facet normal -0 0 -1
    outer loop
      vertex 11.85 53.85 2
      vertex 9.15 51.15 2
      vertex 9.15 53.85 2
    endloop
  endfacet
  facet normal -1 0 0
    outer loop
      vertex 9.15 51.15 2
      vertex 9.15 53.85 2.2002
      vertex 9.15 53.85 2
    endloop
  endfacet
  facet normal -1 -0 0
    outer loop
      vertex 9.15 53.85 2.2002
      vertex 9.15 51.15 2
      vertex 9.15 51.15 2.2002
    endloop
  endfacet
  facet normal 0 1 -0
    outer loop
      vertex 11.85 53.85 2
      vertex 9.15 53.85 2.2002
      vertex 11.85 53.85 2.2002
    endloop
  endfacet
  facet normal 0 1 0
    outer loop
      vertex 9.15 53.85 2.2002
      vertex 11.85 53.85 2
      vertex 9.15 53.85 2
    endloop
  endfacet
  facet normal 0 -1 0
    outer loop
      vertex 9.15 51.15 2
      vertex 11.85 51.15 2.2002
      vertex 9.15 51.15 2.2002
    endloop
  endfacet
  facet normal 0 -1 -0
    outer loop
      vertex 11.85 51.15 2.2002
      vertex 9.15 51.15 2
      vertex 11.85 51.15 2
    endloop
  endfacet
  facet normal 1 -0 0
    outer loop
      vertex 20.85 51.15 2.2002
      vertex 20.85 53.85 2
      vertex 20.85 53.85 2.2002
    endloop
  endfacet
  facet normal 1 0 0
    outer loop
      vertex 20.85 53.85 2
      vertex 20.85 51.15 2.2002
      vertex 20.85 51.15 2
    endloop
  endfacet
  facet normal -0 0 1
    outer loop
      vertex 18.15 53.85 2.2002
      vertex 20.85 51.15 2.2002
      vertex 20.85 53.85 2.2002
    endloop
  endfacet
  facet normal 0 0 1
    outer loop
      vertex 20.85 51.15 2.2002
      vertex 18.15 53.85 2.2002
      vertex 18.15 51.15 2.2002
    endloop
  endfacet
  facet normal 0 0 -1
    outer loop
      vertex 18.15 51.15 2
      vertex 20.85 53.85 2
      vertex 20.85 51.15 2
    endloop
  endfacet
  facet normal -0 0 -1
    outer loop
      vertex 20.85 53.85 2
      vertex 18.15 51.15 2
      vertex 18.15 53.85 2
    endloop
  endfacet
  facet normal -1 0 0
    outer loop
      vertex 18.15 51.15 2
      vertex 18.15 53.85 2.2002
      vertex 18.15 53.85 2
    endloop
  endfacet
  facet normal -1 -0 0
    outer loop
      vertex 18.15 53.85 2.2002
      vertex 18.15 51.15 2
      vertex 18.15 51.15 2.2002
    endloop
  endfacet
  facet normal 0 1 -0
    outer loop
      vertex 20.85 53.85 2
      vertex 18.15 53.85 2.2002
      vertex 20.85 53.85 2.2002
    endloop
  endfacet
  facet normal 0 1 0
    outer loop
      vertex 18.15 53.85 2.2002
      vertex 20.85 53.85 2
      vertex 18.15 53.85 2
    endloop
  endfacet
  facet normal 0 -1 0
    outer loop
      vertex 18.15 51.15 2
      vertex 20.85 51.15 2.2002
      vertex 18.15 51.15 2.2002
    endloop
  endfacet
  facet normal 0 -1 -0
    outer loop
      vertex 20.85 51.15 2.2002
      vertex 18.15 51.15 2
      vertex 20.85 51.15 2
    endloop
  endfacet
  facet normal 1 -0 0
    outer loop
      vertex 23.85 51.15 2.4004
      vertex 23.85 53.85 2.2002
      vertex 23.85 53.85 2.4004
    endloop
  endfacet
  facet normal 1 0 0
    outer loop
      vertex 23.85 53.85 2.2002
      vertex 23.85 51.15 2.4004
      vertex 23.85 51.15 2.2002
    endloop
  endfacet
  facet normal -0 0 1
    outer loop
      vertex 21.15 53.85 2.4004
      vertex 23.85 51.15 2.4004
      vertex 23.85 53.85 2.4004
    endloop
  endfacet
  facet normal 0 0 1
    outer loop
      vertex 23.85 51.15 2.4004
      vertex 21.15 53.85 2.4004
      vertex 21.15 51.15 2.4004
    endloop
  endfacet
  facet normal 0 0 -1
    outer loop
      vertex 21.15 51.15 2.2002
      vertex 23.85 53.85 2.2002
      vertex 23.85 51.15 2.2002
    endloop
  endfacet
  facet normal -0 0 -1
    outer loop
      vertex 23.85 53.85 2.2002
      vertex 21.15 51.15 2.2002
      vertex 21.15 53.85 2.2002
    endloop
  endfacet
  facet normal -1 0 0
    outer loop
      vertex 21.15 51.15 2.2002
      vertex 21.15 53.85 2.4004
      vertex 21.15 53.85 2.2002
    endloop
  endfacet
  facet normal -1 -0 0
    outer loop
      vertex 21.15 53.85 2.4004
      vertex 21.15 51.15 2.2002
      vertex 21.15 51.15 2.4004
    endloop
  endfacet
  facet normal 0 1 -0
    outer loop
      vertex 23.85 53.85 2.2002
      vertex 21.15 53.85 2.4004
      vertex 23.85 53.85 2.4004
    endloop
  endfacet
  facet normal 0 1 0
    outer loop
      vertex 21.15 53.85 2.4004
      vertex 23.85 53.85 2.2002
      vertex 21.15 53.85 2.2002
    endloop
  endfacet
  facet normal 0 -1 0
    outer loop
      vertex 21.15 51.15 2.2002
      vertex 23.85 51.15 2.4004
      vertex 21.15 51.15 2.4004
    endloop
  endfacet
  facet normal 0 -1 -0
    outer loop
      vertex 23.85 51.15 2.4004
      vertex 21.15 51.15 2.2002
      vertex 23.85 51.15 2.2002
    endloop
  endfacet
  facet normal 1 -0 0
    outer loop
      vertex 26.85 51.15 2.4004
      vertex 26.85 53.85 2.2002
      vertex 26.85 53.85 2.4004
    endloop
  endfacet
  facet normal 1 0 0
    outer loop
      vertex 26.85 53.85 2.2002
      vertex 26.85 51.15 2.4004
      vertex 26.85 51.15 2.2002
    endloop
  endfacet
  facet normal -0 0 1
    outer loop
      vertex 24.15 53.85 2.4004
      vertex 26.85 51.15 2.4004
      vertex 26.85 53.85 2.4004
    endloop
  endfacet
  facet normal 0 0 1
    outer loop
      vertex 26.85 51.15 2.4004
      vertex 24.15 53.85 2.4004
      vertex 24.15 51.15 2.4004
    endloop
  endfacet
  facet normal 0 0 -1
    outer loop
      vertex 24.15 51.15 2.2002
      vertex 26.85 53.85 2.2002
      vertex 26.85 51.15 2.2002
    endloop
  endfacet
  facet normal -0 0 -1
    outer loop
      vertex 26.85 53.85 2.2002
      vertex 24.15 51.15 2.2002
      vertex 24.15 53.85 2.2002
    endloop
  endfacet
  facet normal -1 0 0
    outer loop
      vertex 24.15 51.15 2.2002
      vertex 24.15 53.85 2.4004
      vertex 24.15 53.85 2.2002
    endloop
  endfacet
  facet normal -1 -0 0
    outer loop
      vertex 24.15 53.85 2.4004
      vertex 24.15 51.15 2.2002
      vertex 24.15 51.15 2.4004
    endloop
  endfacet
  facet normal 0 1 -0
    outer loop
      vertex 26.85 53.85 2.2002
      vertex 24.15 53.85 2.4004
      vertex 26.85 53.85 2.4004
    endloop
  endfacet
  facet normal 0 1 0
    outer loop
      vertex 24.15 53.85 2.4004
      vertex 26.85 53.85 2.2002
      vertex 24.15 53.85 2.2002
    endloop
  endfacet
  facet normal 0 -1 0
    outer loop
      vertex 24.15 51.15 2.2002
      vertex 26.85 51.15 2.4004
      vertex 24.15 51.15 2.4004
    endloop
  endfacet
  facet normal 0 -1 -0
    outer loop
      vertex 26.85 51.15 2.4004
      vertex 24.15 51.15 2.2002
      vertex 26.85 51.15 2.2002
    endloop
  endfacet
  facet normal 1 -0 0
    outer loop
      vertex 29.85 51.15 2.4004
      vertex 29.85 53.85 2.2002
      vertex 29.85 53.85 2.4004
    endloop
  endfacet
  facet normal 1 0 0
    outer loop
      vertex 29.85 53.85 2.2002
      vertex 29.85 51.15 2.4004
      vertex 29.85 51.15 2.2002
    endloop
  endfacet
  facet normal -0 0 1
    outer loop
      vertex 27.15 53.85 2.4004
      vertex 29.85 51.15 2.4004
      vertex 29.85 53.85 2.4004
    endloop
  endfacet
  facet normal 0 0 1
    outer loop
      vertex 29.85 51.15 2.4004
      vertex 27.15 53.85 2.4004
      vertex 27.15 51.15 2.4004
    endloop
  endfacet
  facet normal 0 0 -1
    outer loop
      vertex 27.15 51.15 2.2002
      vertex 29.85 53.85 2.2002
      vertex 29.85 51.15 2.2002
    endloop
  endfacet
  facet normal -0 0 -1
    outer loop
      vertex 29.85 53.85 2.2002
      vertex 27.15 51.15 2.2002
      vertex 27.15 53.85 2.2002
    endloop
  endfacet
  facet normal -1 0 0
    outer loop
      vertex 27.15 51.15 2.2002
      vertex 27.15 53.85 2.4004
      vertex 27.15 53.85 2.2002
    endloop
  endfacet
  facet normal -1 -0 0
    outer loop
      vertex 27.15 53.85 2.4004
      vertex 27.15 51.15 2.2002
      vertex 27.15 51.15 2.4004
    endloop
  endfacet
  facet normal 0 1 -0
    outer loop
      vertex 29.85 53.85 2.2002
      vertex 27.15 53.85 2.4004
      vertex 29.85 53.85 2.4004
    endloop
  endfacet
  facet normal 0 1 0
    outer loop
      vertex 27.15 53.85 2.4004
      vertex 29.85 53.85 2.2002
      vertex 27.15 53.85 2.2002
    endloop
  endfacet
  facet normal 0 -1 0
    outer loop
      vertex 27.15 51.15 2.2002
      vertex 29.85 51.15 2.4004
      vertex 27.15 51.15 2.4004
    endloop
  endfacet
  facet normal 0 -1 -0
    outer loop
      vertex 29.85 51.15 2.4004
      vertex 27.15 51.15 2.2002
      vertex 29.85 51.15 2.2002
    endloop
  endfacet
  facet normal 1 -0 0
    outer loop
      vertex 5.85 54.15 2.4004
      vertex 5.85 56.85 2.2002
      vertex 5.85 56.85 2.4004
    endloop
  endfacet
  facet normal 1 0 0
    outer loop
      vertex 5.85 56.85 2.2002
      vertex 5.85 54.15 2.4004
      vertex 5.85 54.15 2.2002
    endloop
  endfacet
  facet normal -0 0 1
    outer loop
      vertex 3.15 56.85 2.4004
      vertex 5.85 54.15 2.4004
      vertex 5.85 56.85 2.4004
    endloop
  endfacet
  facet normal 0 0 1
    outer loop
      vertex 5.85 54.15 2.4004
      vertex 3.15 56.85 2.4004
      vertex 3.15 54.15 2.4004
    endloop
  endfacet
  facet normal 0 0 -1
    outer loop
      vertex 3.15 54.15 2.2002
      vertex 5.85 56.85 2.2002
      vertex 5.85 54.15 2.2002
    endloop
  endfacet
  facet normal -0 0 -1
    outer loop
      vertex 5.85 56.85 2.2002
      vertex 3.15 54.15 2.2002
      vertex 3.15 56.85 2.2002
    endloop
  endfacet
  facet normal -1 0 0
    outer loop
      vertex 3.15 54.15 2.2002
      vertex 3.15 56.85 2.4004
      vertex 3.15 56.85 2.2002
    endloop
  endfacet
  facet normal -1 -0 0
    outer loop
      vertex 3.15 56.85 2.4004
      vertex 3.15 54.15 2.2002
      vertex 3.15 54.15 2.4004
    endloop
  endfacet
  facet normal 0 1 -0
    outer loop
      vertex 5.85 56.85 2.2002
      vertex 3.15 56.85 2.4004
      vertex 5.85 56.85 2.4004
    endloop
  endfacet
  facet normal 0 1 0
    outer loop
      vertex 3.15 56.85 2.4004
      vertex 5.85 56.85 2.2002
      vertex 3.15 56.85 2.2002
    endloop
  endfacet
  facet normal 0 -1 0
    outer loop
      vertex 3.15 54.15 2.2002
      vertex 5.85 54.15 2.4004
      vertex 3.15 54.15 2.4004
    endloop
  endfacet
  facet normal 0 -1 -0
    outer loop
      vertex 5.85 54.15 2.4004
      vertex 3.15 54.15 2.2002
      vertex 5.85 54.15 2.2002
    endloop
  endfacet
  facet normal 1 -0 0
    outer loop
      vertex 8.85 54.15 2.2002
      vertex 8.85 56.85 2
      vertex 8.85 56.85 2.2002
    endloop
  endfacet
  facet normal 1 0 0
    outer loop
      vertex 8.85 56.85 2
      vertex 8.85 54.15 2.2002
      vertex 8.85 54.15 2
    endloop
  endfacet
  facet normal -0 0 1
    outer loop
      vertex 6.15 56.85 2.2002
      vertex 8.85 54.15 2.2002
      vertex 8.85 56.85 2.2002
    endloop
  endfacet
  facet normal 0 0 1
    outer loop
      vertex 8.85 54.15 2.2002
      vertex 6.15 56.85 2.2002
      vertex 6.15 54.15 2.2002
    endloop
  endfacet
  facet normal 0 0 -1
    outer loop
      vertex 6.15 54.15 2
      vertex 8.85 56.85 2
      vertex 8.85 54.15 2
    endloop
  endfacet
  facet normal -0 0 -1
    outer loop
      vertex 8.85 56.85 2
      vertex 6.15 54.15 2
      vertex 6.15 56.85 2
    endloop
  endfacet
  facet normal -1 0 0
    outer loop
      vertex 6.15 54.15 2
      vertex 6.15 56.85 2.2002
      vertex 6.15 56.85 2
    endloop
  endfacet
  facet normal -1 -0 0
    outer loop
      vertex 6.15 56.85 2.2002
      vertex 6.15 54.15 2
      vertex 6.15 54.15 2.2002
    endloop
  endfacet
  facet normal 0 1 -0
    outer loop
      vertex 8.85 56.85 2
      vertex 6.15 56.85 2.2002
      vertex 8.85 56.85 2.2002
    endloop
  endfacet
  facet normal 0 1 0
    outer loop
      vertex 6.15 56.85 2.2002
      vertex 8.85 56.85 2
      vertex 6.15 56.85 2
    endloop
  endfacet
  facet normal 0 -1 0
    outer loop
      vertex 6.15 54.15 2
      vertex 8.85 54.15 2.2002
      vertex 6.15 54.15 2.2002
    endloop
  endfacet
  facet normal 0 -1 -0
    outer loop
      vertex 8.85 54.15 2.2002
      vertex 6.15 54.15 2
      vertex 8.85 54.15 2
    endloop
  endfacet
  facet normal 1 -0 0
    outer loop
      vertex 11.85 54.15 2.2002
      vertex 11.85 56.85 2
      vertex 11.85 56.85 2.2002
    endloop
  endfacet
  facet normal 1 0 0
    outer loop
      vertex 11.85 56.85 2
      vertex 11.85 54.15 2.2002
      vertex 11.85 54.15 2
    endloop
  endfacet
  facet normal -0 0 1
    outer loop
      vertex 9.15 56.85 2.2002
      vertex 11.85 54.15 2.2002
      vertex 11.85 56.85 2.2002
    endloop
  endfacet
  facet normal 0 0 1
    outer loop
      vertex 11.85 54.15 2.2002
      vertex 9.15 56.85 2.2002
      vertex 9.15 54.15 2.2002
    endloop
  endfacet
  facet normal 0 0 -1
    outer loop
      vertex 9.15 54.15 2
      vertex 11.85 56.85 2
      vertex 11.85 54.15 2
    endloop
  endfacet
  facet normal -0 0 -1
    outer loop
      vertex 11.85 56.85 2
      vertex 9.15 54.15 2
      vertex 9.15 56.85 2
    endloop
  endfacet
  facet normal -1 0 0
    outer loop
      vertex 9.15 54.15 2
      vertex 9.15 56.85 2.2002
      vertex 9.15 56.85 2
    endloop
  endfacet
  facet normal -1 -0 0
    outer loop
      vertex 9.15 56.85 2.2002
      vertex 9.15 54.15 2
      vertex 9.15 54.15 2.2002
    endloop
  endfacet
  facet normal 0 1 -0
    outer loop
      vertex 11.85 56.85 2
      vertex 9.15 56.85 2.2002
      vertex 11.85 56.85 2.2002
    endloop
  endfacet
  facet normal 0 1 0
    outer loop
      vertex 9.15 56.85 2.2002
      vertex 11.85 56.85 2
      vertex 9.15 56.85 2
    endloop
  endfacet
  facet normal 0 -1 0
    outer loop
      vertex 9.15 54.15 2
      vertex 11.85 54.15 2.2002
      vertex 9.15 54.15 2.2002
    endloop
  endfacet
  facet normal 0 -1 -0
    outer loop
      vertex 11.85 54.15 2.2002
      vertex 9.15 54.15 2
      vertex 11.85 54.15 2
    endloop
  endfacet
  facet normal 1 -0 0
    outer loop
      vertex 23.85 54.15 2.2002
      vertex 23.85 56.85 2
      vertex 23.85 56.85 2.2002
    endloop
  endfacet
  facet normal 1 0 0
    outer loop
      vertex 23.85 56.85 2
      vertex 23.85 54.15 2.2002
      vertex 23.85 54.15 2
    endloop
  endfacet
  facet normal -0 0 1
    outer loop
      vertex 21.15 56.85 2.2002
      vertex 23.85 54.15 2.2002
      vertex 23.85 56.85 2.2002
    endloop
  endfacet
  facet normal 0 0 1
    outer loop
      vertex 23.85 54.15 2.2002
      vertex 21.15 56.85 2.2002
      vertex 21.15 54.15 2.2002
    endloop
  endfacet
  facet normal 0 0 -1
    outer loop
      vertex 21.15 54.15 2
      vertex 23.85 56.85 2
      vertex 23.85 54.15 2
    endloop
  endfacet
  facet normal -0 0 -1
    outer loop
      vertex 23.85 56.85 2
      vertex 21.15 54.15 2
      vertex 21.15 56.85 2
    endloop
  endfacet
  facet normal -1 0 0
    outer loop
      vertex 21.15 54.15 2
      vertex 21.15 56.85 2.2002
      vertex 21.15 56.85 2
    endloop
  endfacet
  facet normal -1 -0 0
    outer loop
      vertex 21.15 56.85 2.2002
      vertex 21.15 54.15 2
      vertex 21.15 54.15 2.2002
    endloop
  endfacet
  facet normal 0 1 -0
    outer loop
      vertex 23.85 56.85 2
      vertex 21.15 56.85 2.2002
      vertex 23.85 56.85 2.2002
    endloop
  endfacet
  facet normal 0 1 0
    outer loop
      vertex 21.15 56.85 2.2002
      vertex 23.85 56.85 2
      vertex 21.15 56.85 2
    endloop
  endfacet
  facet normal 0 -1 0
    outer loop
      vertex 21.15 54.15 2
      vertex 23.85 54.15 2.2002
      vertex 21.15 54.15 2.2002
    endloop
  endfacet
  facet normal 0 -1 -0
    outer loop
      vertex 23.85 54.15 2.2002
      vertex 21.15 54.15 2
      vertex 23.85 54.15 2
    endloop
  endfacet
  facet normal 1 -0 0
    outer loop
      vertex 26.85 54.15 2.2002
      vertex 26.85 56.85 2
      vertex 26.85 56.85 2.2002
    endloop
  endfacet
  facet normal 1 0 0
    outer loop
      vertex 26.85 56.85 2
      vertex 26.85 54.15 2.2002
      vertex 26.85 54.15 2
    endloop
  endfacet
  facet normal -0 0 1
    outer loop
      vertex 24.15 56.85 2.2002
      vertex 26.85 54.15 2.2002
      vertex 26.85 56.85 2.2002
    endloop
  endfacet
  facet normal 0 0 1
    outer loop
      vertex 26.85 54.15 2.2002
      vertex 24.15 56.85 2.2002
      vertex 24.15 54.15 2.2002
    endloop
  endfacet
  facet normal 0 0 -1
    outer loop
      vertex 24.15 54.15 2
      vertex 26.85 56.85 2
      vertex 26.85 54.15 2
    endloop
  endfacet
  facet normal -0 0 -1
    outer loop
      vertex 26.85 56.85 2
      vertex 24.15 54.15 2
      vertex 24.15 56.85 2
    endloop
  endfacet
  facet normal -1 0 0
    outer loop
      vertex 24.15 54.15 2
      vertex 24.15 56.85 2.2002
      vertex 24.15 56.85 2
    endloop
  endfacet
  facet normal -1 -0 0
    outer loop
      vertex 24.15 56.85 2.2002
      vertex 24.15 54.15 2
      vertex 24.15 54.15 2.2002
    endloop
  endfacet
  facet normal 0 1 -0
    outer loop
      vertex 26.85 56.85 2
      vertex 24.15 56.85 2.2002
      vertex 26.85 56.85 2.2002
    endloop
  endfacet
  facet normal 0 1 0
    outer loop
      vertex 24.15 56.85 2.2002
      vertex 26.85 56.85 2
      vertex 24.15 56.85 2
    endloop
  endfacet
  facet normal 0 -1 0
    outer loop
      vertex 24.15 54.15 2
      vertex 26.85 54.15 2.2002
      vertex 24.15 54.15 2.2002
    endloop
  endfacet
  facet normal 0 -1 -0
    outer loop
      vertex 26.85 54.15 2.2002
      vertex 24.15 54.15 2
      vertex 26.85 54.15 2
    endloop
  endfacet
  facet normal 1 -0 0
    outer loop
      vertex 29.85 54.15 2.2002
      vertex 29.85 56.85 2
      vertex 29.85 56.85 2.2002
    endloop
  endfacet
  facet normal 1 0 0
    outer loop
      vertex 29.85 56.85 2
      vertex 29.85 54.15 2.2002
      vertex 29.85 54.15 2
    endloop
  endfacet
  facet normal -0 0 1
    outer loop
      vertex 27.15 56.85 2.2002
      vertex 29.85 54.15 2.2002
      vertex 29.85 56.85 2.2002
    endloop
  endfacet
  facet normal 0 0 1
    outer loop
      vertex 29.85 54.15 2.2002
      vertex 27.15 56.85 2.2002
      vertex 27.15 54.15 2.2002
    endloop
  endfacet
  facet normal 0 0 -1
    outer loop
      vertex 27.15 54.15 2
      vertex 29.85 56.85 2
      vertex 29.85 54.15 2
    endloop
  endfacet
  facet normal -0 0 -1
    outer loop
      vertex 29.85 56.85 2
      vertex 27.15 54.15 2
      vertex 27.15 56.85 2
    endloop
  endfacet
  facet normal -1 0 0
    outer loop
      vertex 27.15 54.15 2
      vertex 27.15 56.85 2.2002
      vertex 27.15 56.85 2
    endloop
  endfacet
  facet normal -1 -0 0
    outer loop
      vertex 27.15 56.85 2.2002
      vertex 27.15 54.15 2
      vertex 27.15 54.15 2.2002
    endloop
  endfacet
  facet normal 0 1 -0
    outer loop
      vertex 29.85 56.85 2
      vertex 27.15 56.85 2.2002
      vertex 29.85 56.85 2.2002
    endloop
  endfacet
  facet normal 0 1 0
    outer loop
      vertex 27.15 56.85 2.2002
      vertex 29.85 56.85 2
      vertex 27.15 56.85 2
    endloop
  endfacet
  facet normal 0 -1 0
    outer loop
      vertex 27.15 54.15 2
      vertex 29.85 54.15 2.2002
      vertex 27.15 54.15 2.2002
    endloop
  endfacet
  facet normal 0 -1 -0
    outer loop
      vertex 29.85 54.15 2.2002
      vertex 27.15 54.15 2
      vertex 29.85 54.15 2
    endloop
  endfacet
  facet normal 1 -0 0
    outer loop
      vertex 5.85 57.15 2.4004
      vertex 5.85 59.85 2.2002
      vertex 5.85 59.85 2.4004
    endloop
  endfacet
  facet normal 1 0 0
    outer loop
      vertex 5.85 59.85 2.2002
      vertex 5.85 57.15 2.4004
      vertex 5.85 57.15 2.2002
    endloop
  endfacet
  facet normal -0 0 1
    outer loop
      vertex 3.15 59.85 2.4004
      vertex 5.85 57.15 2.4004
      vertex 5.85 59.85 2.4004
    endloop
  endfacet
  facet normal 0 0 1
    outer loop
      vertex 5.85 57.15 2.4004
      vertex 3.15 59.85 2.4004
      vertex 3.15 57.15 2.4004
    endloop
  endfacet
  facet normal 0 0 -1
    outer loop
      vertex 3.15 57.15 2.2002
      vertex 5.85 59.85 2.2002
      vertex 5.85 57.15 2.2002
    endloop
  endfacet
  facet normal -0 0 -1
    outer loop
      vertex 5.85 59.85 2.2002
      vertex 3.15 57.15 2.2002
      vertex 3.15 59.85 2.2002
    endloop
  endfacet
  facet normal -1 0 0
    outer loop
      vertex 3.15 57.15 2.2002
      vertex 3.15 59.85 2.4004
      vertex 3.15 59.85 2.2002
    endloop
  endfacet
  facet normal -1 -0 0
    outer loop
      vertex 3.15 59.85 2.4004
      vertex 3.15 57.15 2.2002
      vertex 3.15 57.15 2.4004
    endloop
  endfacet
  facet normal 0 1 -0
    outer loop
      vertex 5.85 59.85 2.2002
      vertex 3.15 59.85 2.4004
      vertex 5.85 59.85 2.4004
    endloop
  endfacet
  facet normal 0 1 0
    outer loop
      vertex 3.15 59.85 2.4004
      vertex 5.85 59.85 2.2002
      vertex 3.15 59.85 2.2002
    endloop
  endfacet
  facet normal 0 -1 0
    outer loop
      vertex 3.15 57.15 2.2002
      vertex 5.85 57.15 2.4004
      vertex 3.15 57.15 2.4004
    endloop
  endfacet
  facet normal 0 -1 -0
    outer loop
      vertex 5.85 57.15 2.4004
      vertex 3.15 57.15 2.2002
      vertex 5.85 57.15 2.2002
    endloop
  endfacet
  facet normal 1 -0 0
    outer loop
      vertex 8.85 57.15 2.4004
      vertex 8.85 59.85 2.2002
      vertex 8.85 59.85 2.4004
    endloop
  endfacet
  facet normal 1 0 0
    outer loop
      vertex 8.85 59.85 2.2002
      vertex 8.85 57.15 2.4004
      vertex 8.85 57.15 2.2002
    endloop
  endfacet
  facet normal -0 0 1
    outer loop
      vertex 6.15 59.85 2.4004
      vertex 8.85 57.15 2.4004
      vertex 8.85 59.85 2.4004
    endloop
  endfacet
  facet normal 0 0 1
    outer loop
      vertex 8.85 57.15 2.4004
      vertex 6.15 59.85 2.4004
      vertex 6.15 57.15 2.4004
    endloop
  endfacet
  facet normal 0 0 -1
    outer loop
      vertex 6.15 57.15 2.2002
      vertex 8.85 59.85 2.2002
      vertex 8.85 57.15 2.2002
    endloop
  endfacet
  facet normal -0 0 -1
    outer loop
      vertex 8.85 59.85 2.2002
      vertex 6.15 57.15 2.2002
      vertex 6.15 59.85 2.2002
    endloop
  endfacet
  facet normal -1 0 0
    outer loop
      vertex 6.15 57.15 2.2002
      vertex 6.15 59.85 2.4004
      vertex 6.15 59.85 2.2002
    endloop
  endfacet
  facet normal -1 -0 0
    outer loop
      vertex 6.15 59.85 2.4004
      vertex 6.15 57.15 2.2002
      vertex 6.15 57.15 2.4004
    endloop
  endfacet
  facet normal 0 1 -0
    outer loop
      vertex 8.85 59.85 2.2002
      vertex 6.15 59.85 2.4004
      vertex 8.85 59.85 2.4004
    endloop
  endfacet
  facet normal 0 1 0
    outer loop
      vertex 6.15 59.85 2.4004
      vertex 8.85 59.85 2.2002
      vertex 6.15 59.85 2.2002
    endloop
  endfacet
  facet normal 0 -1 0
    outer loop
      vertex 6.15 57.15 2.2002
      vertex 8.85 57.15 2.4004
      vertex 6.15 57.15 2.4004
    endloop
  endfacet
  facet normal 0 -1 -0
    outer loop
      vertex 8.85 57.15 2.4004
      vertex 6.15 57.15 2.2002
      vertex 8.85 57.15 2.2002
    endloop
  endfacet
  facet normal 1 -0 0
    outer loop
      vertex 23.85 57.15 2.2002
      vertex 23.85 59.85 2
      vertex 23.85 59.85 2.2002
    endloop
  endfacet
  facet normal 1 0 0
    outer loop
      vertex 23.85 59.85 2
      vertex 23.85 57.15 2.2002
      vertex 23.85 57.15 2
    endloop
  endfacet
  facet normal -0 0 1
    outer loop
      vertex 21.15 59.85 2.2002
      vertex 23.85 57.15 2.2002
      vertex 23.85 59.85 2.2002
    endloop
  endfacet
  facet normal 0 0 1
    outer loop
      vertex 23.85 57.15 2.2002
      vertex 21.15 59.85 2.2002
      vertex 21.15 57.15 2.2002
    endloop
  endfacet
  facet normal 0 0 -1
    outer loop
      vertex 21.15 57.15 2
      vertex 23.85 59.85 2
      vertex 23.85 57.15 2
    endloop
  endfacet
  facet normal -0 0 -1
    outer loop
      vertex 23.85 59.85 2
      vertex 21.15 57.15 2
      vertex 21.15 59.85 2
    endloop
  endfacet
  facet normal -1 0 0
    outer loop
      vertex 21.15 57.15 2
      vertex 21.15 59.85 2.2002
      vertex 21.15 59.85 2
    endloop
  endfacet
  facet normal -1 -0 0
    outer loop
      vertex 21.15 59.85 2.2002
      vertex 21.15 57.15 2
      vertex 21.15 57.15 2.2002
    endloop
  endfacet
  facet normal 0 1 -0
    outer loop
      vertex 23.85 59.85 2
      vertex 21.15 59.85 2.2002
      vertex 23.85 59.85 2.2002
    endloop
  endfacet
  facet normal 0 1 0
    outer loop
      vertex 21.15 59.85 2.2002
      vertex 23.85 59.85 2
      vertex 21.15 59.85 2
    endloop
  endfacet
  facet normal 0 -1 0
    outer loop
      vertex 21.15 57.15 2
      vertex 23.85 57.15 2.2002
      vertex 21.15 57.15 2.2002
    endloop
  endfacet
  facet normal 0 -1 -0
    outer loop
      vertex 23.85 57.15 2.2002
      vertex 21.15 57.15 2
      vertex 23.85 57.15 2
    endloop
  endfacet
  facet normal 1 -0 0
    outer loop
      vertex 26.85 57.15 2.4004
      vertex 26.85 59.85 2.2002
      vertex 26.85 59.85 2.4004
    endloop
  endfacet
  facet normal 1 0 0
    outer loop
      vertex 26.85 59.85 2.2002
      vertex 26.85 57.15 2.4004
      vertex 26.85 57.15 2.2002
    endloop
  endfacet
  facet normal -0 0 1
    outer loop
      vertex 24.15 59.85 2.4004
      vertex 26.85 57.15 2.4004
      vertex 26.85 59.85 2.4004
    endloop
  endfacet
  facet normal 0 0 1
    outer loop
      vertex 26.85 57.15 2.4004
      vertex 24.15 59.85 2.4004
      vertex 24.15 57.15 2.4004
    endloop
  endfacet
  facet normal 0 0 -1
    outer loop
      vertex 24.15 57.15 2.2002
      vertex 26.85 59.85 2.2002
      vertex 26.85 57.15 2.2002
    endloop
  endfacet
  facet normal -0 0 -1
    outer loop
      vertex 26.85 59.85 2.2002
      vertex 24.15 57.15 2.2002
      vertex 24.15 59.85 2.2002
    endloop
  endfacet
  facet normal -1 0 0
    outer loop
      vertex 24.15 57.15 2.2002
      vertex 24.15 59.85 2.4004
      vertex 24.15 59.85 2.2002
    endloop
  endfacet
  facet normal -1 -0 0
    outer loop
      vertex 24.15 59.85 2.4004
      vertex 24.15 57.15 2.2002
      vertex 24.15 57.15 2.4004
    endloop
  endfacet
  facet normal 0 1 -0
    outer loop
      vertex 26.85 59.85 2.2002
      vertex 24.15 59.85 2.4004
      vertex 26.85 59.85 2.4004
    endloop
  endfacet
  facet normal 0 1 0
    outer loop
      vertex 24.15 59.85 2.4004
      vertex 26.85 59.85 2.2002
      vertex 24.15 59.85 2.2002
    endloop
  endfacet
  facet normal 0 -1 0
    outer loop
      vertex 24.15 57.15 2.2002
      vertex 26.85 57.15 2.4004
      vertex 24.15 57.15 2.4004
    endloop
  endfacet
  facet normal 0 -1 -0
    outer loop
      vertex 26.85 57.15 2.4004
      vertex 24.15 57.15 2.2002
      vertex 26.85 57.15 2.2002
    endloop
  endfacet
  facet normal 1 -0 0
    outer loop
      vertex 29.85 57.15 2.4004
      vertex 29.85 59.85 2.2002
      vertex 29.85 59.85 2.4004
    endloop
  endfacet
  facet normal 1 0 0
    outer loop
      vertex 29.85 59.85 2.2002
      vertex 29.85 57.15 2.4004
      vertex 29.85 57.15 2.2002
    endloop
  endfacet
  facet normal -0 0 1
    outer loop
      vertex 27.15 59.85 2.4004
      vertex 29.85 57.15 2.4004
      vertex 29.85 59.85 2.4004
    endloop
  endfacet
  facet normal 0 0 1
    outer loop
      vertex 29.85 57.15 2.4004
      vertex 27.15 59.85 2.4004
      vertex 27.15 57.15 2.4004
    endloop
  endfacet
  facet normal 0 0 -1
    outer loop
      vertex 27.15 57.15 2.2002
      vertex 29.85 59.85 2.2002
      vertex 29.85 57.15 2.2002
    endloop
  endfacet
  facet normal -0 0 -1
    outer loop
      vertex 29.85 59.85 2.2002
      vertex 27.15 57.15 2.2002
      vertex 27.15 59.85 2.2002
    endloop
  endfacet
  facet normal -1 0 0
    outer loop
      vertex 27.15 57.15 2.2002
      vertex 27.15 59.85 2.4004
      vertex 27.15 59.85 2.2002
    endloop
  endfacet
  facet normal -1 -0 0
    outer loop
      vertex 27.15 59.85 2.4004
      vertex 27.15 57.15 2.2002
      vertex 27.15 57.15 2.4004
    endloop
  endfacet
  facet normal 0 1 -0
    outer loop
      vertex 29.85 59.85 2.2002
      vertex 27.15 59.85 2.4004
      vertex 29.85 59.85 2.4004
    endloop
  endfacet
  facet normal 0 1 0
    outer loop
      vertex 27.15 59.85 2.4004
      vertex 29.85 59.85 2.2002
      vertex 27.15 59.85 2.2002
    endloop
  endfacet
  facet normal 0 -1 0
    outer loop
      vertex 27.15 57.15 2.2002
      vertex 29.85 57.15 2.4004
      vertex 27.15 57.15 2.4004
    endloop
  endfacet
  facet normal 0 -1 -0
    outer loop
      vertex 29.85 57.15 2.4004
      vertex 27.15 57.15 2.2002
      vertex 29.85 57.15 2.2002
    endloop
  endfacet
endsolid OpenSCAD_Model
