solid OpenSCAD_Model
  facet normal 1 -0 0
    outer loop
      vertex 17.85 18.15 2.4004
      vertex 17.85 20.85 2.2002
      vertex 17.85 20.85 2.4004
    endloop
  endfacet
  facet normal 1 0 0
    outer loop
      vertex 17.85 20.85 2.2002
      vertex 17.85 18.15 2.4004
      vertex 17.85 18.15 2.2002
    endloop
  endfacet
  facet normal -0 0 1
    outer loop
      vertex 15.15 20.85 2.4004
      vertex 17.85 18.15 2.4004
      vertex 17.85 20.85 2.4004
    endloop
  endfacet
  facet normal 0 0 1
    outer loop
      vertex 17.85 18.15 2.4004
      vertex 15.15 20.85 2.4004
      vertex 15.15 18.15 2.4004
    endloop
  endfacet
  facet normal 0 0 -1
    outer loop
      vertex 15.15 18.15 2.2002
      vertex 17.85 20.85 2.2002
      vertex 17.85 18.15 2.2002
    endloop
  endfacet
  facet normal -0 0 -1
    outer loop
      vertex 17.85 20.85 2.2002
      vertex 15.15 18.15 2.2002
      vertex 15.15 20.85 2.2002
    endloop
  endfacet
  facet normal -1 0 0
    outer loop
      vertex 15.15 18.15 2.2002
      vertex 15.15 20.85 2.4004
      vertex 15.15 20.85 2.2002
    endloop
  endfacet
  facet normal -1 -0 0
    outer loop
      vertex 15.15 20.85 2.4004
      vertex 15.15 18.15 2.2002
      vertex 15.15 18.15 2.4004
    endloop
  endfacet
  facet normal 0 1 -0
    outer loop
      vertex 17.85 20.85 2.2002
      vertex 15.15 20.85 2.4004
      vertex 17.85 20.85 2.4004
    endloop
  endfacet
  facet normal 0 1 0
    outer loop
      vertex 15.15 20.85 2.4004
      vertex 17.85 20.85 2.2002
      vertex 15.15 20.85 2.2002
    endloop
  endfacet
  facet normal 0 -1 0
    outer loop
      vertex 15.15 18.15 2.2002
      vertex 17.85 18.15 2.4004
      vertex 15.15 18.15 2.4004
    endloop
  endfacet
  facet normal 0 -1 -0
    outer loop
      vertex 17.85 18.15 2.4004
      vertex 15.15 18.15 2.2002
      vertex 17.85 18.15 2.2002
    endloop
  endfacet
  facet normal 1 -0 0
    outer loop
      vertex 20.85 18.15 2.4004
      vertex 20.85 20.85 2.2002
      vertex 20.85 20.85 2.4004
    endloop
  endfacet
  facet normal 1 0 0
    outer loop
      vertex 20.85 20.85 2.2002
      vertex 20.85 18.15 2.4004
      vertex 20.85 18.15 2.2002
    endloop
  endfacet
  facet normal -0 0 1
    outer loop
      vertex 18.15 20.85 2.4004
      vertex 20.85 18.15 2.4004
      vertex 20.85 20.85 2.4004
    endloop
  endfacet
  facet normal 0 0 1
    outer loop
      vertex 20.85 18.15 2.4004
      vertex 18.15 20.85 2.4004
      vertex 18.15 18.15 2.4004
    endloop
  endfacet
  facet normal 0 0 -1
    outer loop
      vertex 18.15 18.15 2.2002
      vertex 20.85 20.85 2.2002
      vertex 20.85 18.15 2.2002
    endloop
  endfacet
  facet normal -0 0 -1
    outer loop
      vertex 20.85 20.85 2.2002
      vertex 18.15 18.15 2.2002
      vertex 18.15 20.85 2.2002
    endloop
  endfacet
  facet normal -1 0 0
    outer loop
      vertex 18.15 18.15 2.2002
      vertex 18.15 20.85 2.4004
      vertex 18.15 20.85 2.2002
    endloop
  endfacet
  facet normal -1 -0 0
    outer loop
      vertex 18.15 20.85 2.4004
      vertex 18.15 18.15 2.2002
      vertex 18.15 18.15 2.4004
    endloop
  endfacet
  facet normal 0 1 -0
    outer loop
      vertex 20.85 20.85 2.2002
      vertex 18.15 20.85 2.4004
      vertex 20.85 20.85 2.4004
    endloop
  endfacet
  facet normal 0 1 0
    outer loop
      vertex 18.15 20.85 2.4004
      vertex 20.85 20.85 2.2002
      vertex 18.15 20.85 2.2002
    endloop
  endfacet
  facet normal 0 -1 0
    outer loop
      vertex 18.15 18.15 2.2002
      vertex 20.85 18.15 2.4004
      vertex 18.15 18.15 2.4004
    endloop
  endfacet
  facet normal 0 -1 -0
    outer loop
      vertex 20.85 18.15 2.4004
      vertex 18.15 18.15 2.2002
      vertex 20.85 18.15 2.2002
    endloop
  endfacet
  facet normal 1 -0 0
    outer loop
      vertex 23.85 18.15 2.4004
      vertex 23.85 20.85 2.2002
      vertex 23.85 20.85 2.4004
    endloop
  endfacet
  facet normal 1 0 0
    outer loop
      vertex 23.85 20.85 2.2002
      vertex 23.85 18.15 2.4004
      vertex 23.85 18.15 2.2002
    endloop
  endfacet
  facet normal -0 0 1
    outer loop
      vertex 21.15 20.85 2.4004
      vertex 23.85 18.15 2.4004
      vertex 23.85 20.85 2.4004
    endloop
  endfacet
  facet normal 0 0 1
    outer loop
      vertex 23.85 18.15 2.4004
      vertex 21.15 20.85 2.4004
      vertex 21.15 18.15 2.4004
    endloop
  endfacet
  facet normal 0 0 -1
    outer loop
      vertex 21.15 18.15 2.2002
      vertex 23.85 20.85 2.2002
      vertex 23.85 18.15 2.2002
    endloop
  endfacet
  facet normal -0 0 -1
    outer loop
      vertex 23.85 20.85 2.2002
      vertex 21.15 18.15 2.2002
      vertex 21.15 20.85 2.2002
    endloop
  endfacet
  facet normal -1 0 0
    outer loop
      vertex 21.15 18.15 2.2002
      vertex 21.15 20.85 2.4004
      vertex 21.15 20.85 2.2002
    endloop
  endfacet
  facet normal -1 -0 0
    outer loop
      vertex 21.15 20.85 2.4004
      vertex 21.15 18.15 2.2002
      vertex 21.15 18.15 2.4004
    endloop
  endfacet
  facet normal 0 1 -0
    outer loop
      vertex 23.85 20.85 2.2002
      vertex 21.15 20.85 2.4004
      vertex 23.85 20.85 2.4004
    endloop
  endfacet
  facet normal 0 1 0
    outer loop
      vertex 21.15 20.85 2.4004
      vertex 23.85 20.85 2.2002
      vertex 21.15 20.85 2.2002
    endloop
  endfacet
  facet normal 0 -1 0
    outer loop
      vertex 21.15 18.15 2.2002
      vertex 23.85 18.15 2.4004
      vertex 21.15 18.15 2.4004
    endloop
  endfacet
  facet normal 0 -1 -0
    outer loop
      vertex 23.85 18.15 2.4004
      vertex 21.15 18.15 2.2002
      vertex 23.85 18.15 2.2002
    endloop
  endfacet
  facet normal 1 -0 0
    outer loop
      vertex 26.85 18.15 2.4004
      vertex 26.85 20.85 2.2002
      vertex 26.85 20.85 2.4004
    endloop
  endfacet
  facet normal 1 0 0
    outer loop
      vertex 26.85 20.85 2.2002
      vertex 26.85 18.15 2.4004
      vertex 26.85 18.15 2.2002
    endloop
  endfacet
  facet normal -0 0 1
    outer loop
      vertex 24.15 20.85 2.4004
      vertex 26.85 18.15 2.4004
      vertex 26.85 20.85 2.4004
    endloop
  endfacet
  facet normal 0 0 1
    outer loop
      vertex 26.85 18.15 2.4004
      vertex 24.15 20.85 2.4004
      vertex 24.15 18.15 2.4004
    endloop
  endfacet
  facet normal 0 0 -1
    outer loop
      vertex 24.15 18.15 2.2002
      vertex 26.85 20.85 2.2002
      vertex 26.85 18.15 2.2002
    endloop
  endfacet
  facet normal -0 0 -1
    outer loop
      vertex 26.85 20.85 2.2002
      vertex 24.15 18.15 2.2002
      vertex 24.15 20.85 2.2002
    endloop
  endfacet
  facet normal -1 0 0
    outer loop
      vertex 24.15 18.15 2.2002
      vertex 24.15 20.85 2.4004
      vertex 24.15 20.85 2.2002
    endloop
  endfacet
  facet normal -1 -0 0
    outer loop
      vertex 24.15 20.85 2.4004
      vertex 24.15 18.15 2.2002
      vertex 24.15 18.15 2.4004
    endloop
  endfacet
  facet normal 0 1 -0
    outer loop
      vertex 26.85 20.85 2.2002
      vertex 24.15 20.85 2.4004
      vertex 26.85 20.85 2.4004
    endloop
  endfacet
  facet normal 0 1 0
    outer loop
      vertex 24.15 20.85 2.4004
      vertex 26.85 20.85 2.2002
      vertex 24.15 20.85 2.2002
    endloop
  endfacet
  facet normal 0 -1 0
    outer loop
      vertex 24.15 18.15 2.2002
      vertex 26.85 18.15 2.4004
      vertex 24.15 18.15 2.4004
    endloop
  endfacet
  facet normal 0 -1 -0
    outer loop
      vertex 26.85 18.15 2.4004
      vertex 24.15 18.15 2.2002
      vertex 26.85 18.15 2.2002
    endloop
  endfacet
  facet normal 1 -0 0
    outer loop
      vertex 29.85 18.15 2.4004
      vertex 29.85 20.85 2.2002
      vertex 29.85 20.85 2.4004
    endloop
  endfacet
  facet normal 1 0 0
    outer loop
      vertex 29.85 20.85 2.2002
      vertex 29.85 18.15 2.4004
      vertex 29.85 18.15 2.2002
    endloop
  endfacet
  facet normal -0 0 1
    outer loop
      vertex 27.15 20.85 2.4004
      vertex 29.85 18.15 2.4004
      vertex 29.85 20.85 2.4004
    endloop
  endfacet
  facet normal 0 0 1
    outer loop
      vertex 29.85 18.15 2.4004
      vertex 27.15 20.85 2.4004
      vertex 27.15 18.15 2.4004
    endloop
  endfacet
  facet normal 0 0 -1
    outer loop
      vertex 27.15 18.15 2.2002
      vertex 29.85 20.85 2.2002
      vertex 29.85 18.15 2.2002
    endloop
  endfacet
  facet normal -0 0 -1
    outer loop
      vertex 29.85 20.85 2.2002
      vertex 27.15 18.15 2.2002
      vertex 27.15 20.85 2.2002
    endloop
  endfacet
  facet normal -1 0 0
    outer loop
      vertex 27.15 18.15 2.2002
      vertex 27.15 20.85 2.4004
      vertex 27.15 20.85 2.2002
    endloop
  endfacet
  facet normal -1 -0 0
    outer loop
      vertex 27.15 20.85 2.4004
      vertex 27.15 18.15 2.2002
      vertex 27.15 18.15 2.4004
    endloop
  endfacet
  facet normal 0 1 -0
    outer loop
      vertex 29.85 20.85 2.2002
      vertex 27.15 20.85 2.4004
      vertex 29.85 20.85 2.4004
    endloop
  endfacet
  facet normal 0 1 0
    outer loop
      vertex 27.15 20.85 2.4004
      vertex 29.85 20.85 2.2002
      vertex 27.15 20.85 2.2002
    endloop
  endfacet
  facet normal 0 -1 0
    outer loop
      vertex 27.15 18.15 2.2002
      vertex 29.85 18.15 2.4004
      vertex 27.15 18.15 2.4004
    endloop
  endfacet
  facet normal 0 -1 -0
    outer loop
      vertex 29.85 18.15 2.4004
      vertex 27.15 18.15 2.2002
      vertex 29.85 18.15 2.2002
    endloop
  endfacet
  facet normal 1 -0 0
    outer loop
      vertex 14.85 21.15 2.4004
      vertex 14.85 23.85 2.2002
      vertex 14.85 23.85 2.4004
    endloop
  endfacet
  facet normal 1 0 0
    outer loop
      vertex 14.85 23.85 2.2002
      vertex 14.85 21.15 2.4004
      vertex 14.85 21.15 2.2002
    endloop
  endfacet
  facet normal -0 0 1
    outer loop
      vertex 12.15 23.85 2.4004
      vertex 14.85 21.15 2.4004
      vertex 14.85 23.85 2.4004
    endloop
  endfacet
  facet normal 0 0 1
    outer loop
      vertex 14.85 21.15 2.4004
      vertex 12.15 23.85 2.4004
      vertex 12.15 21.15 2.4004
    endloop
  endfacet
  facet normal 0 0 -1
    outer loop
      vertex 12.15 21.15 2.2002
      vertex 14.85 23.85 2.2002
      vertex 14.85 21.15 2.2002
    endloop
  endfacet
  facet normal -0 0 -1
    outer loop
      vertex 14.85 23.85 2.2002
      vertex 12.15 21.15 2.2002
      vertex 12.15 23.85 2.2002
    endloop
  endfacet
  facet normal -1 0 0
    outer loop
      vertex 12.15 21.15 2.2002
      vertex 12.15 23.85 2.4004
      vertex 12.15 23.85 2.2002
    endloop
  endfacet
  facet normal -1 -0 0
    outer loop
      vertex 12.15 23.85 2.4004
      vertex 12.15 21.15 2.2002
      vertex 12.15 21.15 2.4004
    endloop
  endfacet
  facet normal 0 1 -0
    outer loop
      vertex 14.85 23.85 2.2002
      vertex 12.15 23.85 2.4004
      vertex 14.85 23.85 2.4004
    endloop
  endfacet
  facet normal 0 1 0
    outer loop
      vertex 12.15 23.85 2.4004
      vertex 14.85 23.85 2.2002
      vertex 12.15 23.85 2.2002
    endloop
  endfacet
  facet normal 0 -1 0
    outer loop
      vertex 12.15 21.15 2.2002
      vertex 14.85 21.15 2.4004
      vertex 12.15 21.15 2.4004
    endloop
  endfacet
  facet normal 0 -1 -0
    outer loop
      vertex 14.85 21.15 2.4004
      vertex 12.15 21.15 2.2002
      vertex 14.85 21.15 2.2002
    endloop
  endfacet
  facet normal 1 -0 0
    outer loop
      vertex 17.85 21.15 2.4004
      vertex 17.85 23.85 2.2002
      vertex 17.85 23.85 2.4004
    endloop
  endfacet
  facet normal 1 0 0
    outer loop
      vertex 17.85 23.85 2.2002
      vertex 17.85 21.15 2.4004
      vertex 17.85 21.15 2.2002
    endloop
  endfacet
  facet normal -0 0 1
    outer loop
      vertex 15.15 23.85 2.4004
      vertex 17.85 21.15 2.4004
      vertex 17.85 23.85 2.4004
    endloop
  endfacet
  facet normal 0 0 1
    outer loop
      vertex 17.85 21.15 2.4004
      vertex 15.15 23.85 2.4004
      vertex 15.15 21.15 2.4004
    endloop
  endfacet
  facet normal 0 0 -1
    outer loop
      vertex 15.15 21.15 2.2002
      vertex 17.85 23.85 2.2002
      vertex 17.85 21.15 2.2002
    endloop
  endfacet
  facet normal -0 0 -1
    outer loop
      vertex 17.85 23.85 2.2002
      vertex 15.15 21.15 2.2002
      vertex 15.15 23.85 2.2002
    endloop
  endfacet
  facet normal -1 0 0
    outer loop
      vertex 15.15 21.15 2.2002
      vertex 15.15 23.85 2.4004
      vertex 15.15 23.85 2.2002
    endloop
  endfacet
  facet normal -1 -0 0
    outer loop
      vertex 15.15 23.85 2.4004
      vertex 15.15 21.15 2.2002
      vertex 15.15 21.15 2.4004
    endloop
  endfacet
  facet normal 0 1 -0
    outer loop
      vertex 17.85 23.85 2.2002
      vertex 15.15 23.85 2.4004
      vertex 17.85 23.85 2.4004
    endloop
  endfacet
  facet normal 0 1 0
    outer loop
      vertex 15.15 23.85 2.4004
      vertex 17.85 23.85 2.2002
      vertex 15.15 23.85 2.2002
    endloop
  endfacet
  facet normal 0 -1 0
    outer loop
      vertex 15.15 21.15 2.2002
      vertex 17.85 21.15 2.4004
      vertex 15.15 21.15 2.4004
    endloop
  endfacet
  facet normal 0 -1 -0
    outer loop
      vertex 17.85 21.15 2.4004
      vertex 15.15 21.15 2.2002
      vertex 17.85 21.15 2.2002
    endloop
  endfacet
  facet normal 1 -0 0
    outer loop
      vertex 20.85 21.15 2.4004
      vertex 20.85 23.85 2.2002
      vertex 20.85 23.85 2.4004
    endloop
  endfacet
  facet normal 1 0 0
    outer loop
      vertex 20.85 23.85 2.2002
      vertex 20.85 21.15 2.4004
      vertex 20.85 21.15 2.2002
    endloop
  endfacet
  facet normal -0 0 1
    outer loop
      vertex 18.15 23.85 2.4004
      vertex 20.85 21.15 2.4004
      vertex 20.85 23.85 2.4004
    endloop
  endfacet
  facet normal 0 0 1
    outer loop
      vertex 20.85 21.15 2.4004
      vertex 18.15 23.85 2.4004
      vertex 18.15 21.15 2.4004
    endloop
  endfacet
  facet normal 0 0 -1
    outer loop
      vertex 18.15 21.15 2.2002
      vertex 20.85 23.85 2.2002
      vertex 20.85 21.15 2.2002
    endloop
  endfacet
  facet normal -0 0 -1
    outer loop
      vertex 20.85 23.85 2.2002
      vertex 18.15 21.15 2.2002
      vertex 18.15 23.85 2.2002
    endloop
  endfacet
  facet normal -1 0 0
    outer loop
      vertex 18.15 21.15 2.2002
      vertex 18.15 23.85 2.4004
      vertex 18.15 23.85 2.2002
    endloop
  endfacet
  facet normal -1 -0 0
    outer loop
      vertex 18.15 23.85 2.4004
      vertex 18.15 21.15 2.2002
      vertex 18.15 21.15 2.4004
    endloop
  endfacet
  facet normal 0 1 -0
    outer loop
      vertex 20.85 23.85 2.2002
      vertex 18.15 23.85 2.4004
      vertex 20.85 23.85 2.4004
    endloop
  endfacet
  facet normal 0 1 0
    outer loop
      vertex 18.15 23.85 2.4004
      vertex 20.85 23.85 2.2002
      vertex 18.15 23.85 2.2002
    endloop
  endfacet
  facet normal 0 -1 0
    outer loop
      vertex 18.15 21.15 2.2002
      vertex 20.85 21.15 2.4004
      vertex 18.15 21.15 2.4004
    endloop
  endfacet
  facet normal 0 -1 -0
    outer loop
      vertex 20.85 21.15 2.4004
      vertex 18.15 21.15 2.2002
      vertex 20.85 21.15 2.2002
    endloop
  endfacet
  facet normal 1 -0 0
    outer loop
      vertex 23.85 21.15 2.4004
      vertex 23.85 23.85 2.2002
      vertex 23.85 23.85 2.4004
    endloop
  endfacet
  facet normal 1 0 0
    outer loop
      vertex 23.85 23.85 2.2002
      vertex 23.85 21.15 2.4004
      vertex 23.85 21.15 2.2002
    endloop
  endfacet
  facet normal -0 0 1
    outer loop
      vertex 21.15 23.85 2.4004
      vertex 23.85 21.15 2.4004
      vertex 23.85 23.85 2.4004
    endloop
  endfacet
  facet normal 0 0 1
    outer loop
      vertex 23.85 21.15 2.4004
      vertex 21.15 23.85 2.4004
      vertex 21.15 21.15 2.4004
    endloop
  endfacet
  facet normal 0 0 -1
    outer loop
      vertex 21.15 21.15 2.2002
      vertex 23.85 23.85 2.2002
      vertex 23.85 21.15 2.2002
    endloop
  endfacet
  facet normal -0 0 -1
    outer loop
      vertex 23.85 23.85 2.2002
      vertex 21.15 21.15 2.2002
      vertex 21.15 23.85 2.2002
    endloop
  endfacet
  facet normal -1 0 0
    outer loop
      vertex 21.15 21.15 2.2002
      vertex 21.15 23.85 2.4004
      vertex 21.15 23.85 2.2002
    endloop
  endfacet
  facet normal -1 -0 0
    outer loop
      vertex 21.15 23.85 2.4004
      vertex 21.15 21.15 2.2002
      vertex 21.15 21.15 2.4004
    endloop
  endfacet
  facet normal 0 1 -0
    outer loop
      vertex 23.85 23.85 2.2002
      vertex 21.15 23.85 2.4004
      vertex 23.85 23.85 2.4004
    endloop
  endfacet
  facet normal 0 1 0
    outer loop
      vertex 21.15 23.85 2.4004
      vertex 23.85 23.85 2.2002
      vertex 21.15 23.85 2.2002
    endloop
  endfacet
  facet normal 0 -1 0
    outer loop
      vertex 21.15 21.15 2.2002
      vertex 23.85 21.15 2.4004
      vertex 21.15 21.15 2.4004
    endloop
  endfacet
  facet normal 0 -1 -0
    outer loop
      vertex 23.85 21.15 2.4004
      vertex 21.15 21.15 2.2002
      vertex 23.85 21.15 2.2002
    endloop
  endfacet
  facet normal 1 -0 0
    outer loop
      vertex 26.85 21.15 2.4004
      vertex 26.85 23.85 2.2002
      vertex 26.85 23.85 2.4004
    endloop
  endfacet
  facet normal 1 0 0
    outer loop
      vertex 26.85 23.85 2.2002
      vertex 26.85 21.15 2.4004
      vertex 26.85 21.15 2.2002
    endloop
  endfacet
  facet normal -0 0 1
    outer loop
      vertex 24.15 23.85 2.4004
      vertex 26.85 21.15 2.4004
      vertex 26.85 23.85 2.4004
    endloop
  endfacet
  facet normal 0 0 1
    outer loop
      vertex 26.85 21.15 2.4004
      vertex 24.15 23.85 2.4004
      vertex 24.15 21.15 2.4004
    endloop
  endfacet
  facet normal 0 0 -1
    outer loop
      vertex 24.15 21.15 2.2002
      vertex 26.85 23.85 2.2002
      vertex 26.85 21.15 2.2002
    endloop
  endfacet
  facet normal -0 0 -1
    outer loop
      vertex 26.85 23.85 2.2002
      vertex 24.15 21.15 2.2002
      vertex 24.15 23.85 2.2002
    endloop
  endfacet
  facet normal -1 0 0
    outer loop
      vertex 24.15 21.15 2.2002
      vertex 24.15 23.85 2.4004
      vertex 24.15 23.85 2.2002
    endloop
  endfacet
  facet normal -1 -0 0
    outer loop
      vertex 24.15 23.85 2.4004
      vertex 24.15 21.15 2.2002
      vertex 24.15 21.15 2.4004
    endloop
  endfacet
  facet normal 0 1 -0
    outer loop
      vertex 26.85 23.85 2.2002
      vertex 24.15 23.85 2.4004
      vertex 26.85 23.85 2.4004
    endloop
  endfacet
  facet normal 0 1 0
    outer loop
      vertex 24.15 23.85 2.4004
      vertex 26.85 23.85 2.2002
      vertex 24.15 23.85 2.2002
    endloop
  endfacet
  facet normal 0 -1 0
    outer loop
      vertex 24.15 21.15 2.2002
      vertex 26.85 21.15 2.4004
      vertex 24.15 21.15 2.4004
    endloop
  endfacet
  facet normal 0 -1 -0
    outer loop
      vertex 26.85 21.15 2.4004
      vertex 24.15 21.15 2.2002
      vertex 26.85 21.15 2.2002
    endloop
  endfacet
  facet normal 1 -0 0
    outer loop
      vertex 29.85 21.15 2.4004
      vertex 29.85 23.85 2.2002
      vertex 29.85 23.85 2.4004
    endloop
  endfacet
  facet normal 1 0 0
    outer loop
      vertex 29.85 23.85 2.2002
      vertex 29.85 21.15 2.4004
      vertex 29.85 21.15 2.2002
    endloop
  endfacet
  facet normal -0 0 1
    outer loop
      vertex 27.15 23.85 2.4004
      vertex 29.85 21.15 2.4004
      vertex 29.85 23.85 2.4004
    endloop
  endfacet
  facet normal 0 0 1
    outer loop
      vertex 29.85 21.15 2.4004
      vertex 27.15 23.85 2.4004
      vertex 27.15 21.15 2.4004
    endloop
  endfacet
  facet normal 0 0 -1
    outer loop
      vertex 27.15 21.15 2.2002
      vertex 29.85 23.85 2.2002
      vertex 29.85 21.15 2.2002
    endloop
  endfacet
  facet normal -0 0 -1
    outer loop
      vertex 29.85 23.85 2.2002
      vertex 27.15 21.15 2.2002
      vertex 27.15 23.85 2.2002
    endloop
  endfacet
  facet normal -1 0 0
    outer loop
      vertex 27.15 21.15 2.2002
      vertex 27.15 23.85 2.4004
      vertex 27.15 23.85 2.2002
    endloop
  endfacet
  facet normal -1 -0 0
    outer loop
      vertex 27.15 23.85 2.4004
      vertex 27.15 21.15 2.2002
      vertex 27.15 21.15 2.4004
    endloop
  endfacet
  facet normal 0 1 -0
    outer loop
      vertex 29.85 23.85 2.2002
      vertex 27.15 23.85 2.4004
      vertex 29.85 23.85 2.4004
    endloop
  endfacet
  facet normal 0 1 0
    outer loop
      vertex 27.15 23.85 2.4004
      vertex 29.85 23.85 2.2002
      vertex 27.15 23.85 2.2002
    endloop
  endfacet
  facet normal 0 -1 0
    outer loop
      vertex 27.15 21.15 2.2002
      vertex 29.85 21.15 2.4004
      vertex 27.15 21.15 2.4004
    endloop
  endfacet
  facet normal 0 -1 -0
    outer loop
      vertex 29.85 21.15 2.4004
      vertex 27.15 21.15 2.2002
      vertex 29.85 21.15 2.2002
    endloop
  endfacet
  facet normal 1 -0 0
    outer loop
      vertex 14.85 24.15 2.4004
      vertex 14.85 26.85 2.2002
      vertex 14.85 26.85 2.4004
    endloop
  endfacet
  facet normal 1 0 0
    outer loop
      vertex 14.85 26.85 2.2002
      vertex 14.85 24.15 2.4004
      vertex 14.85 24.15 2.2002
    endloop
  endfacet
  facet normal -0 0 1
    outer loop
      vertex 12.15 26.85 2.4004
      vertex 14.85 24.15 2.4004
      vertex 14.85 26.85 2.4004
    endloop
  endfacet
  facet normal 0 0 1
    outer loop
      vertex 14.85 24.15 2.4004
      vertex 12.15 26.85 2.4004
      vertex 12.15 24.15 2.4004
    endloop
  endfacet
  facet normal 0 0 -1
    outer loop
      vertex 12.15 24.15 2.2002
      vertex 14.85 26.85 2.2002
      vertex 14.85 24.15 2.2002
    endloop
  endfacet
  facet normal -0 0 -1
    outer loop
      vertex 14.85 26.85 2.2002
      vertex 12.15 24.15 2.2002
      vertex 12.15 26.85 2.2002
    endloop
  endfacet
  facet normal -1 0 0
    outer loop
      vertex 12.15 24.15 2.2002
      vertex 12.15 26.85 2.4004
      vertex 12.15 26.85 2.2002
    endloop
  endfacet
  facet normal -1 -0 0
    outer loop
      vertex 12.15 26.85 2.4004
      vertex 12.15 24.15 2.2002
      vertex 12.15 24.15 2.4004
    endloop
  endfacet
  facet normal 0 1 -0
    outer loop
      vertex 14.85 26.85 2.2002
      vertex 12.15 26.85 2.4004
      vertex 14.85 26.85 2.4004
    endloop
  endfacet
  facet normal 0 1 0
    outer loop
      vertex 12.15 26.85 2.4004
      vertex 14.85 26.85 2.2002
      vertex 12.15 26.85 2.2002
    endloop
  endfacet
  facet normal 0 -1 0
    outer loop
      vertex 12.15 24.15 2.2002
      vertex 14.85 24.15 2.4004
      vertex 12.15 24.15 2.4004
    endloop
  endfacet
  facet normal 0 -1 -0
    outer loop
      vertex 14.85 24.15 2.4004
      vertex 12.15 24.15 2.2002
      vertex 14.85 24.15 2.2002
    endloop
  endfacet
  facet normal 1 -0 0
    outer loop
      vertex 17.85 24.15 2.4004
      vertex 17.85 26.85 2.2002
      vertex 17.85 26.85 2.4004
    endloop
  endfacet
  facet normal 1 0 0
    outer loop
      vertex 17.85 26.85 2.2002
      vertex 17.85 24.15 2.4004
      vertex 17.85 24.15 2.2002
    endloop
  endfacet
  facet normal -0 0 1
    outer loop
      vertex 15.15 26.85 2.4004
      vertex 17.85 24.15 2.4004
      vertex 17.85 26.85 2.4004
    endloop
  endfacet
  facet normal 0 0 1
    outer loop
      vertex 17.85 24.15 2.4004
      vertex 15.15 26.85 2.4004
      vertex 15.15 24.15 2.4004
    endloop
  endfacet
  facet normal 0 0 -1
    outer loop
      vertex 15.15 24.15 2.2002
      vertex 17.85 26.85 2.2002
      vertex 17.85 24.15 2.2002
    endloop
  endfacet
  facet normal -0 0 -1
    outer loop
      vertex 17.85 26.85 2.2002
      vertex 15.15 24.15 2.2002
      vertex 15.15 26.85 2.2002
    endloop
  endfacet
  facet normal -1 0 0
    outer loop
      vertex 15.15 24.15 2.2002
      vertex 15.15 26.85 2.4004
      vertex 15.15 26.85 2.2002
    endloop
  endfacet
  facet normal -1 -0 0
    outer loop
      vertex 15.15 26.85 2.4004
      vertex 15.15 24.15 2.2002
      vertex 15.15 24.15 2.4004
    endloop
  endfacet
  facet normal 0 1 -0
    outer loop
      vertex 17.85 26.85 2.2002
      vertex 15.15 26.85 2.4004
      vertex 17.85 26.85 2.4004
    endloop
  endfacet
  facet normal 0 1 0
    outer loop
      vertex 15.15 26.85 2.4004
      vertex 17.85 26.85 2.2002
      vertex 15.15 26.85 2.2002
    endloop
  endfacet
  facet normal 0 -1 0
    outer loop
      vertex 15.15 24.15 2.2002
      vertex 17.85 24.15 2.4004
      vertex 15.15 24.15 2.4004
    endloop
  endfacet
  facet normal 0 -1 -0
    outer loop
      vertex 17.85 24.15 2.4004
      vertex 15.15 24.15 2.2002
      vertex 17.85 24.15 2.2002
    endloop
  endfacet
  facet normal 1 -0 0
    outer loop
      vertex 20.85 24.15 2.4004
      vertex 20.85 26.85 2.2002
      vertex 20.85 26.85 2.4004
    endloop
  endfacet
  facet normal 1 0 0
    outer loop
      vertex 20.85 26.85 2.2002
      vertex 20.85 24.15 2.4004
      vertex 20.85 24.15 2.2002
    endloop
  endfacet
  facet normal -0 0 1
    outer loop
      vertex 18.15 26.85 2.4004
      vertex 20.85 24.15 2.4004
      vertex 20.85 26.85 2.4004
    endloop
  endfacet
  facet normal 0 0 1
    outer loop
      vertex 20.85 24.15 2.4004
      vertex 18.15 26.85 2.4004
      vertex 18.15 24.15 2.4004
    endloop
  endfacet
  facet normal 0 0 -1
    outer loop
      vertex 18.15 24.15 2.2002
      vertex 20.85 26.85 2.2002
      vertex 20.85 24.15 2.2002
    endloop
  endfacet
  facet normal -0 0 -1
    outer loop
      vertex 20.85 26.85 2.2002
      vertex 18.15 24.15 2.2002
      vertex 18.15 26.85 2.2002
    endloop
  endfacet
  facet normal -1 0 0
    outer loop
      vertex 18.15 24.15 2.2002
      vertex 18.15 26.85 2.4004
      vertex 18.15 26.85 2.2002
    endloop
  endfacet
  facet normal -1 -0 0
    outer loop
      vertex 18.15 26.85 2.4004
      vertex 18.15 24.15 2.2002
      vertex 18.15 24.15 2.4004
    endloop
  endfacet
  facet normal 0 1 -0
    outer loop
      vertex 20.85 26.85 2.2002
      vertex 18.15 26.85 2.4004
      vertex 20.85 26.85 2.4004
    endloop
  endfacet
  facet normal 0 1 0
    outer loop
      vertex 18.15 26.85 2.4004
      vertex 20.85 26.85 2.2002
      vertex 18.15 26.85 2.2002
    endloop
  endfacet
  facet normal 0 -1 0
    outer loop
      vertex 18.15 24.15 2.2002
      vertex 20.85 24.15 2.4004
      vertex 18.15 24.15 2.4004
    endloop
  endfacet
  facet normal 0 -1 -0
    outer loop
      vertex 20.85 24.15 2.4004
      vertex 18.15 24.15 2.2002
      vertex 20.85 24.15 2.2002
    endloop
  endfacet
  facet normal 1 -0 0
    outer loop
      vertex 23.85 24.15 2.4004
      vertex 23.85 26.85 2.2002
      vertex 23.85 26.85 2.4004
    endloop
  endfacet
  facet normal 1 0 0
    outer loop
      vertex 23.85 26.85 2.2002
      vertex 23.85 24.15 2.4004
      vertex 23.85 24.15 2.2002
    endloop
  endfacet
  facet normal -0 0 1
    outer loop
      vertex 21.15 26.85 2.4004
      vertex 23.85 24.15 2.4004
      vertex 23.85 26.85 2.4004
    endloop
  endfacet
  facet normal 0 0 1
    outer loop
      vertex 23.85 24.15 2.4004
      vertex 21.15 26.85 2.4004
      vertex 21.15 24.15 2.4004
    endloop
  endfacet
  facet normal 0 0 -1
    outer loop
      vertex 21.15 24.15 2.2002
      vertex 23.85 26.85 2.2002
      vertex 23.85 24.15 2.2002
    endloop
  endfacet
  facet normal -0 0 -1
    outer loop
      vertex 23.85 26.85 2.2002
      vertex 21.15 24.15 2.2002
      vertex 21.15 26.85 2.2002
    endloop
  endfacet
  facet normal -1 0 0
    outer loop
      vertex 21.15 24.15 2.2002
      vertex 21.15 26.85 2.4004
      vertex 21.15 26.85 2.2002
    endloop
  endfacet
  facet normal -1 -0 0
    outer loop
      vertex 21.15 26.85 2.4004
      vertex 21.15 24.15 2.2002
      vertex 21.15 24.15 2.4004
    endloop
  endfacet
  facet normal 0 1 -0
    outer loop
      vertex 23.85 26.85 2.2002
      vertex 21.15 26.85 2.4004
      vertex 23.85 26.85 2.4004
    endloop
  endfacet
  facet normal 0 1 0
    outer loop
      vertex 21.15 26.85 2.4004
      vertex 23.85 26.85 2.2002
      vertex 21.15 26.85 2.2002
    endloop
  endfacet
  facet normal 0 -1 0
    outer loop
      vertex 21.15 24.15 2.2002
      vertex 23.85 24.15 2.4004
      vertex 21.15 24.15 2.4004
    endloop
  endfacet
  facet normal 0 -1 -0
    outer loop
      vertex 23.85 24.15 2.4004
      vertex 21.15 24.15 2.2002
      vertex 23.85 24.15 2.2002
    endloop
  endfacet
  facet normal 1 -0 0
    outer loop
      vertex 26.85 24.15 2.4004
      vertex 26.85 26.85 2.2002
      vertex 26.85 26.85 2.4004
    endloop
  endfacet
  facet normal 1 0 0
    outer loop
      vertex 26.85 26.85 2.2002
      vertex 26.85 24.15 2.4004
      vertex 26.85 24.15 2.2002
    endloop
  endfacet
  facet normal -0 0 1
    outer loop
      vertex 24.15 26.85 2.4004
      vertex 26.85 24.15 2.4004
      vertex 26.85 26.85 2.4004
    endloop
  endfacet
  facet normal 0 0 1
    outer loop
      vertex 26.85 24.15 2.4004
      vertex 24.15 26.85 2.4004
      vertex 24.15 24.15 2.4004
    endloop
  endfacet
  facet normal 0 0 -1
    outer loop
      vertex 24.15 24.15 2.2002
      vertex 26.85 26.85 2.2002
      vertex 26.85 24.15 2.2002
    endloop
  endfacet
  facet normal -0 0 -1
    outer loop
      vertex 26.85 26.85 2.2002
      vertex 24.15 24.15 2.2002
      vertex 24.15 26.85 2.2002
    endloop
  endfacet
  facet normal -1 0 0
    outer loop
      vertex 24.15 24.15 2.2002
      vertex 24.15 26.85 2.4004
      vertex 24.15 26.85 2.2002
    endloop
  endfacet
  facet normal -1 -0 0
    outer loop
      vertex 24.15 26.85 2.4004
      vertex 24.15 24.15 2.2002
      vertex 24.15 24.15 2.4004
    endloop
  endfacet
  facet normal 0 1 -0
    outer loop
      vertex 26.85 26.85 2.2002
      vertex 24.15 26.85 2.4004
      vertex 26.85 26.85 2.4004
    endloop
  endfacet
  facet normal 0 1 0
    outer loop
      vertex 24.15 26.85 2.4004
      vertex 26.85 26.85 2.2002
      vertex 24.15 26.85 2.2002
    endloop
  endfacet
  facet normal 0 -1 0
    outer loop
      vertex 24.15 24.15 2.2002
      vertex 26.85 24.15 2.4004
      vertex 24.15 24.15 2.4004
    endloop
  endfacet
  facet normal 0 -1 -0
    outer loop
      vertex 26.85 24.15 2.4004
      vertex 24.15 24.15 2.2002
      vertex 26.85 24.15 2.2002
    endloop
  endfacet
  facet normal 1 -0 0
    outer loop
      vertex 29.85 24.15 2.4004
      vertex 29.85 26.85 2.2002
      vertex 29.85 26.85 2.4004
    endloop
  endfacet
  facet normal 1 0 0
    outer loop
      vertex 29.85 26.85 2.2002
      vertex 29.85 24.15 2.4004
      vertex 29.85 24.15 2.2002
    endloop
  endfacet
  facet normal -0 0 1
    outer loop
      vertex 27.15 26.85 2.4004
      vertex 29.85 24.15 2.4004
      vertex 29.85 26.85 2.4004
    endloop
  endfacet
  facet normal 0 0 1
    outer loop
      vertex 29.85 24.15 2.4004
      vertex 27.15 26.85 2.4004
      vertex 27.15 24.15 2.4004
    endloop
  endfacet
  facet normal 0 0 -1
    outer loop
      vertex 27.15 24.15 2.2002
      vertex 29.85 26.85 2.2002
      vertex 29.85 24.15 2.2002
    endloop
  endfacet
  facet normal -0 0 -1
    outer loop
      vertex 29.85 26.85 2.2002
      vertex 27.15 24.15 2.2002
      vertex 27.15 26.85 2.2002
    endloop
  endfacet
  facet normal -1 0 0
    outer loop
      vertex 27.15 24.15 2.2002
      vertex 27.15 26.85 2.4004
      vertex 27.15 26.85 2.2002
    endloop
  endfacet
  facet normal -1 -0 0
    outer loop
      vertex 27.15 26.85 2.4004
      vertex 27.15 24.15 2.2002
      vertex 27.15 24.15 2.4004
    endloop
  endfacet
  facet normal 0 1 -0
    outer loop
      vertex 29.85 26.85 2.2002
      vertex 27.15 26.85 2.4004
      vertex 29.85 26.85 2.4004
    endloop
  endfacet
  facet normal 0 1 0
    outer loop
      vertex 27.15 26.85 2.4004
      vertex 29.85 26.85 2.2002
      vertex 27.15 26.85 2.2002
    endloop
  endfacet
  facet normal 0 -1 0
    outer loop
      vertex 27.15 24.15 2.2002
      vertex 29.85 24.15 2.4004
      vertex 27.15 24.15 2.4004
    endloop
  endfacet
  facet normal 0 -1 -0
    outer loop
      vertex 29.85 24.15 2.4004
      vertex 27.15 24.15 2.2002
      vertex 29.85 24.15 2.2002
    endloop
  endfacet
  facet normal 1 -0 0
    outer loop
      vertex 11.85 27.15 2.4004
      vertex 11.85 29.85 2.2002
      vertex 11.85 29.85 2.4004
    endloop
  endfacet
  facet normal 1 0 0
    outer loop
      vertex 11.85 29.85 2.2002
      vertex 11.85 27.15 2.4004
      vertex 11.85 27.15 2.2002
    endloop
  endfacet
  facet normal -0 0 1
    outer loop
      vertex 9.15 29.85 2.4004
      vertex 11.85 27.15 2.4004
      vertex 11.85 29.85 2.4004
    endloop
  endfacet
  facet normal 0 0 1
    outer loop
      vertex 11.85 27.15 2.4004
      vertex 9.15 29.85 2.4004
      vertex 9.15 27.15 2.4004
    endloop
  endfacet
  facet normal 0 0 -1
    outer loop
      vertex 9.15 27.15 2.2002
      vertex 11.85 29.85 2.2002
      vertex 11.85 27.15 2.2002
    endloop
  endfacet
  facet normal -0 0 -1
    outer loop
      vertex 11.85 29.85 2.2002
      vertex 9.15 27.15 2.2002
      vertex 9.15 29.85 2.2002
    endloop
  endfacet
  facet normal -1 0 0
    outer loop
      vertex 9.15 27.15 2.2002
      vertex 9.15 29.85 2.4004
      vertex 9.15 29.85 2.2002
    endloop
  endfacet
  facet normal -1 -0 0
    outer loop
      vertex 9.15 29.85 2.4004
      vertex 9.15 27.15 2.2002
      vertex 9.15 27.15 2.4004
    endloop
  endfacet
  facet normal 0 1 -0
    outer loop
      vertex 11.85 29.85 2.2002
      vertex 9.15 29.85 2.4004
      vertex 11.85 29.85 2.4004
    endloop
  endfacet
  facet normal 0 1 0
    outer loop
      vertex 9.15 29.85 2.4004
      vertex 11.85 29.85 2.2002
      vertex 9.15 29.85 2.2002
    endloop
  endfacet
  facet normal 0 -1 0
    outer loop
      vertex 9.15 27.15 2.2002
      vertex 11.85 27.15 2.4004
      vertex 9.15 27.15 2.4004
    endloop
  endfacet
  facet normal 0 -1 -0
    outer loop
      vertex 11.85 27.15 2.4004
      vertex 9.15 27.15 2.2002
      vertex 11.85 27.15 2.2002
    endloop
  endfacet
  facet normal 1 -0 0
    outer loop
      vertex 14.85 27.15 2.4004
      vertex 14.85 29.85 2.2002
      vertex 14.85 29.85 2.4004
    endloop
  endfacet
  facet normal 1 0 0
    outer loop
      vertex 14.85 29.85 2.2002
      vertex 14.85 27.15 2.4004
      vertex 14.85 27.15 2.2002
    endloop
  endfacet
  facet normal -0 0 1
    outer loop
      vertex 12.15 29.85 2.4004
      vertex 14.85 27.15 2.4004
      vertex 14.85 29.85 2.4004
    endloop
  endfacet
  facet normal 0 0 1
    outer loop
      vertex 14.85 27.15 2.4004
      vertex 12.15 29.85 2.4004
      vertex 12.15 27.15 2.4004
    endloop
  endfacet
  facet normal 0 0 -1
    outer loop
      vertex 12.15 27.15 2.2002
      vertex 14.85 29.85 2.2002
      vertex 14.85 27.15 2.2002
    endloop
  endfacet
  facet normal -0 0 -1
    outer loop
      vertex 14.85 29.85 2.2002
      vertex 12.15 27.15 2.2002
      vertex 12.15 29.85 2.2002
    endloop
  endfacet
  facet normal -1 0 0
    outer loop
      vertex 12.15 27.15 2.2002
      vertex 12.15 29.85 2.4004
      vertex 12.15 29.85 2.2002
    endloop
  endfacet
  facet normal -1 -0 0
    outer loop
      vertex 12.15 29.85 2.4004
      vertex 12.15 27.15 2.2002
      vertex 12.15 27.15 2.4004
    endloop
  endfacet
  facet normal 0 1 -0
    outer loop
      vertex 14.85 29.85 2.2002
      vertex 12.15 29.85 2.4004
      vertex 14.85 29.85 2.4004
    endloop
  endfacet
  facet normal 0 1 0
    outer loop
      vertex 12.15 29.85 2.4004
      vertex 14.85 29.85 2.2002
      vertex 12.15 29.85 2.2002
    endloop
  endfacet
  facet normal 0 -1 0
    outer loop
      vertex 12.15 27.15 2.2002
      vertex 14.85 27.15 2.4004
      vertex 12.15 27.15 2.4004
    endloop
  endfacet
  facet normal 0 -1 -0
    outer loop
      vertex 14.85 27.15 2.4004
      vertex 12.15 27.15 2.2002
      vertex 14.85 27.15 2.2002
    endloop
  endfacet
  facet normal 1 -0 0
    outer loop
      vertex 17.85 27.15 2.4004
      vertex 17.85 29.85 2.2002
      vertex 17.85 29.85 2.4004
    endloop
  endfacet
  facet normal 1 0 0
    outer loop
      vertex 17.85 29.85 2.2002
      vertex 17.85 27.15 2.4004
      vertex 17.85 27.15 2.2002
    endloop
  endfacet
  facet normal -0 0 1
    outer loop
      vertex 15.15 29.85 2.4004
      vertex 17.85 27.15 2.4004
      vertex 17.85 29.85 2.4004
    endloop
  endfacet
  facet normal 0 0 1
    outer loop
      vertex 17.85 27.15 2.4004
      vertex 15.15 29.85 2.4004
      vertex 15.15 27.15 2.4004
    endloop
  endfacet
  facet normal 0 0 -1
    outer loop
      vertex 15.15 27.15 2.2002
      vertex 17.85 29.85 2.2002
      vertex 17.85 27.15 2.2002
    endloop
  endfacet
  facet normal -0 0 -1
    outer loop
      vertex 17.85 29.85 2.2002
      vertex 15.15 27.15 2.2002
      vertex 15.15 29.85 2.2002
    endloop
  endfacet
  facet normal -1 0 0
    outer loop
      vertex 15.15 27.15 2.2002
      vertex 15.15 29.85 2.4004
      vertex 15.15 29.85 2.2002
    endloop
  endfacet
  facet normal -1 -0 0
    outer loop
      vertex 15.15 29.85 2.4004
      vertex 15.15 27.15 2.2002
      vertex 15.15 27.15 2.4004
    endloop
  endfacet
  facet normal 0 1 -0
    outer loop
      vertex 17.85 29.85 2.2002
      vertex 15.15 29.85 2.4004
      vertex 17.85 29.85 2.4004
    endloop
  endfacet
  facet normal 0 1 0
    outer loop
      vertex 15.15 29.85 2.4004
      vertex 17.85 29.85 2.2002
      vertex 15.15 29.85 2.2002
    endloop
  endfacet
  facet normal 0 -1 0
    outer loop
      vertex 15.15 27.15 2.2002
      vertex 17.85 27.15 2.4004
      vertex 15.15 27.15 2.4004
    endloop
  endfacet
  facet normal 0 -1 -0
    outer loop
      vertex 17.85 27.15 2.4004
      vertex 15.15 27.15 2.2002
      vertex 17.85 27.15 2.2002
    endloop
  endfacet
  facet normal 1 -0 0
    outer loop
      vertex 20.85 27.15 2.4004
      vertex 20.85 29.85 2.2002
      vertex 20.85 29.85 2.4004
    endloop
  endfacet
  facet normal 1 0 0
    outer loop
      vertex 20.85 29.85 2.2002
      vertex 20.85 27.15 2.4004
      vertex 20.85 27.15 2.2002
    endloop
  endfacet
  facet normal -0 0 1
    outer loop
      vertex 18.15 29.85 2.4004
      vertex 20.85 27.15 2.4004
      vertex 20.85 29.85 2.4004
    endloop
  endfacet
  facet normal 0 0 1
    outer loop
      vertex 20.85 27.15 2.4004
      vertex 18.15 29.85 2.4004
      vertex 18.15 27.15 2.4004
    endloop
  endfacet
  facet normal 0 0 -1
    outer loop
      vertex 18.15 27.15 2.2002
      vertex 20.85 29.85 2.2002
      vertex 20.85 27.15 2.2002
    endloop
  endfacet
  facet normal -0 0 -1
    outer loop
      vertex 20.85 29.85 2.2002
      vertex 18.15 27.15 2.2002
      vertex 18.15 29.85 2.2002
    endloop
  endfacet
  facet normal -1 0 0
    outer loop
      vertex 18.15 27.15 2.2002
      vertex 18.15 29.85 2.4004
      vertex 18.15 29.85 2.2002
    endloop
  endfacet
  facet normal -1 -0 0
    outer loop
      vertex 18.15 29.85 2.4004
      vertex 18.15 27.15 2.2002
      vertex 18.15 27.15 2.4004
    endloop
  endfacet
  facet normal 0 1 -0
    outer loop
      vertex 20.85 29.85 2.2002
      vertex 18.15 29.85 2.4004
      vertex 20.85 29.85 2.4004
    endloop
  endfacet
  facet normal 0 1 0
    outer loop
      vertex 18.15 29.85 2.4004
      vertex 20.85 29.85 2.2002
      vertex 18.15 29.85 2.2002
    endloop
  endfacet
  facet normal 0 -1 0
    outer loop
      vertex 18.15 27.15 2.2002
      vertex 20.85 27.15 2.4004
      vertex 18.15 27.15 2.4004
    endloop
  endfacet
  facet normal 0 -1 -0
    outer loop
      vertex 20.85 27.15 2.4004
      vertex 18.15 27.15 2.2002
      vertex 20.85 27.15 2.2002
    endloop
  endfacet
  facet normal 1 -0 0
    outer loop
      vertex 14.85 30.15 2.4004
      vertex 14.85 32.85 2.2002
      vertex 14.85 32.85 2.4004
    endloop
  endfacet
  facet normal 1 0 0
    outer loop
      vertex 14.85 32.85 2.2002
      vertex 14.85 30.15 2.4004
      vertex 14.85 30.15 2.2002
    endloop
  endfacet
  facet normal -0 0 1
    outer loop
      vertex 12.15 32.85 2.4004
      vertex 14.85 30.15 2.4004
      vertex 14.85 32.85 2.4004
    endloop
  endfacet
  facet normal 0 0 1
    outer loop
      vertex 14.85 30.15 2.4004
      vertex 12.15 32.85 2.4004
      vertex 12.15 30.15 2.4004
    endloop
  endfacet
  facet normal 0 0 -1
    outer loop
      vertex 12.15 30.15 2.2002
      vertex 14.85 32.85 2.2002
      vertex 14.85 30.15 2.2002
    endloop
  endfacet
  facet normal -0 0 -1
    outer loop
      vertex 14.85 32.85 2.2002
      vertex 12.15 30.15 2.2002
      vertex 12.15 32.85 2.2002
    endloop
  endfacet
  facet normal -1 0 0
    outer loop
      vertex 12.15 30.15 2.2002
      vertex 12.15 32.85 2.4004
      vertex 12.15 32.85 2.2002
    endloop
  endfacet
  facet normal -1 -0 0
    outer loop
      vertex 12.15 32.85 2.4004
      vertex 12.15 30.15 2.2002
      vertex 12.15 30.15 2.4004
    endloop
  endfacet
  facet normal 0 1 -0
    outer loop
      vertex 14.85 32.85 2.2002
      vertex 12.15 32.85 2.4004
      vertex 14.85 32.85 2.4004
    endloop
  endfacet
  facet normal 0 1 0
    outer loop
      vertex 12.15 32.85 2.4004
      vertex 14.85 32.85 2.2002
      vertex 12.15 32.85 2.2002
    endloop
  endfacet
  facet normal 0 -1 0
    outer loop
      vertex 12.15 30.15 2.2002
      vertex 14.85 30.15 2.4004
      vertex 12.15 30.15 2.4004
    endloop
  endfacet
  facet normal 0 -1 -0
    outer loop
      vertex 14.85 30.15 2.4004
      vertex 12.15 30.15 2.2002
      vertex 14.85 30.15 2.2002
    endloop
  endfacet
endsolid OpenSCAD_Model
