solid OpenSCAD_Model
  facet normal 1 -0 0
    outer loop
      vertex 20.85 18.15 2.2002
      vertex 20.85 20.85 2
      vertex 20.85 20.85 2.2002
    endloop
  endfacet
  facet normal 1 0 0
    outer loop
      vertex 20.85 20.85 2
      vertex 20.85 18.15 2.2002
      vertex 20.85 18.15 2
    endloop
  endfacet
  facet normal -0 0 1
    outer loop
      vertex 18.15 20.85 2.2002
      vertex 20.85 18.15 2.2002
      vertex 20.85 20.85 2.2002
    endloop
  endfacet
  facet normal 0 0 1
    outer loop
      vertex 20.85 18.15 2.2002
      vertex 18.15 20.85 2.2002
      vertex 18.15 18.15 2.2002
    endloop
  endfacet
  facet normal 0 0 -1
    outer loop
      vertex 18.15 18.15 2
      vertex 20.85 20.85 2
      vertex 20.85 18.15 2
    endloop
  endfacet
  facet normal -0 0 -1
    outer loop
      vertex 20.85 20.85 2
      vertex 18.15 18.15 2
      vertex 18.15 20.85 2
    endloop
  endfacet
  facet normal -1 0 0
    outer loop
      vertex 18.15 18.15 2
      vertex 18.15 20.85 2.2002
      vertex 18.15 20.85 2
    endloop
  endfacet
  facet normal -1 -0 0
    outer loop
      vertex 18.15 20.85 2.2002
      vertex 18.15 18.15 2
      vertex 18.15 18.15 2.2002
    endloop
  endfacet
  facet normal 0 1 -0
    outer loop
      vertex 20.85 20.85 2
      vertex 18.15 20.85 2.2002
      vertex 20.85 20.85 2.2002
    endloop
  endfacet
  facet normal 0 1 0
    outer loop
      vertex 18.15 20.85 2.2002
      vertex 20.85 20.85 2
      vertex 18.15 20.85 2
    endloop
  endfacet
  facet normal 0 -1 0
    outer loop
      vertex 18.15 18.15 2
      vertex 20.85 18.15 2.2002
      vertex 18.15 18.15 2.2002
    endloop
  endfacet
  facet normal 0 -1 -0
    outer loop
      vertex 20.85 18.15 2.2002
      vertex 18.15 18.15 2
      vertex 20.85 18.15 2
    endloop
  endfacet
  facet normal 1 -0 0
    outer loop
      vertex 23.85 21.15 2.2002
      vertex 23.85 23.85 2
      vertex 23.85 23.85 2.2002
    endloop
  endfacet
  facet normal 1 0 0
    outer loop
      vertex 23.85 23.85 2
      vertex 23.85 21.15 2.2002
      vertex 23.85 21.15 2
    endloop
  endfacet
  facet normal -0 0 1
    outer loop
      vertex 21.15 23.85 2.2002
      vertex 23.85 21.15 2.2002
      vertex 23.85 23.85 2.2002
    endloop
  endfacet
  facet normal 0 0 1
    outer loop
      vertex 23.85 21.15 2.2002
      vertex 21.15 23.85 2.2002
      vertex 21.15 21.15 2.2002
    endloop
  endfacet
  facet normal 0 0 -1
    outer loop
      vertex 21.15 21.15 2
      vertex 23.85 23.85 2
      vertex 23.85 21.15 2
    endloop
  endfacet
  facet normal -0 0 -1
    outer loop
      vertex 23.85 23.85 2
      vertex 21.15 21.15 2
      vertex 21.15 23.85 2
    endloop
  endfacet
  facet normal -1 0 0
    outer loop
      vertex 21.15 21.15 2
      vertex 21.15 23.85 2.2002
      vertex 21.15 23.85 2
    endloop
  endfacet
  facet normal -1 -0 0
    outer loop
      vertex 21.15 23.85 2.2002
      vertex 21.15 21.15 2
      vertex 21.15 21.15 2.2002
    endloop
  endfacet
  facet normal 0 1 -0
    outer loop
      vertex 23.85 23.85 2
      vertex 21.15 23.85 2.2002
      vertex 23.85 23.85 2.2002
    endloop
  endfacet
  facet normal 0 1 0
    outer loop
      vertex 21.15 23.85 2.2002
      vertex 23.85 23.85 2
      vertex 21.15 23.85 2
    endloop
  endfacet
  facet normal 0 -1 0
    outer loop
      vertex 21.15 21.15 2
      vertex 23.85 21.15 2.2002
      vertex 21.15 21.15 2.2002
    endloop
  endfacet
  facet normal 0 -1 -0
    outer loop
      vertex 23.85 21.15 2.2002
      vertex 21.15 21.15 2
      vertex 23.85 21.15 2
    endloop
  endfacet
  facet normal 1 -0 0
    outer loop
      vertex 23.85 24.15 2.2002
      vertex 23.85 26.85 2
      vertex 23.85 26.85 2.2002
    endloop
  endfacet
  facet normal 1 0 0
    outer loop
      vertex 23.85 26.85 2
      vertex 23.85 24.15 2.2002
      vertex 23.85 24.15 2
    endloop
  endfacet
  facet normal -0 0 1
    outer loop
      vertex 21.15 26.85 2.2002
      vertex 23.85 24.15 2.2002
      vertex 23.85 26.85 2.2002
    endloop
  endfacet
  facet normal 0 0 1
    outer loop
      vertex 23.85 24.15 2.2002
      vertex 21.15 26.85 2.2002
      vertex 21.15 24.15 2.2002
    endloop
  endfacet
  facet normal 0 0 -1
    outer loop
      vertex 21.15 24.15 2
      vertex 23.85 26.85 2
      vertex 23.85 24.15 2
    endloop
  endfacet
  facet normal -0 0 -1
    outer loop
      vertex 23.85 26.85 2
      vertex 21.15 24.15 2
      vertex 21.15 26.85 2
    endloop
  endfacet
  facet normal -1 0 0
    outer loop
      vertex 21.15 24.15 2
      vertex 21.15 26.85 2.2002
      vertex 21.15 26.85 2
    endloop
  endfacet
  facet normal -1 -0 0
    outer loop
      vertex 21.15 26.85 2.2002
      vertex 21.15 24.15 2
      vertex 21.15 24.15 2.2002
    endloop
  endfacet
  facet normal 0 1 -0
    outer loop
      vertex 23.85 26.85 2
      vertex 21.15 26.85 2.2002
      vertex 23.85 26.85 2.2002
    endloop
  endfacet
  facet normal 0 1 0
    outer loop
      vertex 21.15 26.85 2.2002
      vertex 23.85 26.85 2
      vertex 21.15 26.85 2
    endloop
  endfacet
  facet normal 0 -1 0
    outer loop
      vertex 21.15 24.15 2
      vertex 23.85 24.15 2.2002
      vertex 21.15 24.15 2.2002
    endloop
  endfacet
  facet normal 0 -1 -0
    outer loop
      vertex 23.85 24.15 2.2002
      vertex 21.15 24.15 2
      vertex 23.85 24.15 2
    endloop
  endfacet
  facet normal 1 -0 0
    outer loop
      vertex 2.85 27.15 2.2002
      vertex 2.85 29.85 2
      vertex 2.85 29.85 2.2002
    endloop
  endfacet
  facet normal 1 0 0
    outer loop
      vertex 2.85 29.85 2
      vertex 2.85 27.15 2.2002
      vertex 2.85 27.15 2
    endloop
  endfacet
  facet normal -0 0 1
    outer loop
      vertex 0.15 29.85 2.2002
      vertex 2.85 27.15 2.2002
      vertex 2.85 29.85 2.2002
    endloop
  endfacet
  facet normal 0 0 1
    outer loop
      vertex 2.85 27.15 2.2002
      vertex 0.15 29.85 2.2002
      vertex 0.15 27.15 2.2002
    endloop
  endfacet
  facet normal 0 0 -1
    outer loop
      vertex 0.15 27.15 2
      vertex 2.85 29.85 2
      vertex 2.85 27.15 2
    endloop
  endfacet
  facet normal -0 0 -1
    outer loop
      vertex 2.85 29.85 2
      vertex 0.15 27.15 2
      vertex 0.15 29.85 2
    endloop
  endfacet
  facet normal -1 0 0
    outer loop
      vertex 0.15 27.15 2
      vertex 0.15 29.85 2.2002
      vertex 0.15 29.85 2
    endloop
  endfacet
  facet normal -1 -0 0
    outer loop
      vertex 0.15 29.85 2.2002
      vertex 0.15 27.15 2
      vertex 0.15 27.15 2.2002
    endloop
  endfacet
  facet normal 0 1 -0
    outer loop
      vertex 2.85 29.85 2
      vertex 0.15 29.85 2.2002
      vertex 2.85 29.85 2.2002
    endloop
  endfacet
  facet normal 0 1 0
    outer loop
      vertex 0.15 29.85 2.2002
      vertex 2.85 29.85 2
      vertex 0.15 29.85 2
    endloop
  endfacet
  facet normal 0 -1 0
    outer loop
      vertex 0.15 27.15 2
      vertex 2.85 27.15 2.2002
      vertex 0.15 27.15 2.2002
    endloop
  endfacet
  facet normal 0 -1 -0
    outer loop
      vertex 2.85 27.15 2.2002
      vertex 0.15 27.15 2
      vertex 2.85 27.15 2
    endloop
  endfacet
  facet normal 1 -0 0
    outer loop
      vertex 5.85 27.15 2.2002
      vertex 5.85 29.85 2
      vertex 5.85 29.85 2.2002
    endloop
  endfacet
  facet normal 1 0 0
    outer loop
      vertex 5.85 29.85 2
      vertex 5.85 27.15 2.2002
      vertex 5.85 27.15 2
    endloop
  endfacet
  facet normal -0 0 1
    outer loop
      vertex 3.15 29.85 2.2002
      vertex 5.85 27.15 2.2002
      vertex 5.85 29.85 2.2002
    endloop
  endfacet
  facet normal 0 0 1
    outer loop
      vertex 5.85 27.15 2.2002
      vertex 3.15 29.85 2.2002
      vertex 3.15 27.15 2.2002
    endloop
  endfacet
  facet normal 0 0 -1
    outer loop
      vertex 3.15 27.15 2
      vertex 5.85 29.85 2
      vertex 5.85 27.15 2
    endloop
  endfacet
  facet normal -0 0 -1
    outer loop
      vertex 5.85 29.85 2
      vertex 3.15 27.15 2
      vertex 3.15 29.85 2
    endloop
  endfacet
  facet normal -1 0 0
    outer loop
      vertex 3.15 27.15 2
      vertex 3.15 29.85 2.2002
      vertex 3.15 29.85 2
    endloop
  endfacet
  facet normal -1 -0 0
    outer loop
      vertex 3.15 29.85 2.2002
      vertex 3.15 27.15 2
      vertex 3.15 27.15 2.2002
    endloop
  endfacet
  facet normal 0 1 -0
    outer loop
      vertex 5.85 29.85 2
      vertex 3.15 29.85 2.2002
      vertex 5.85 29.85 2.2002
    endloop
  endfacet
  facet normal 0 1 0
    outer loop
      vertex 3.15 29.85 2.2002
      vertex 5.85 29.85 2
      vertex 3.15 29.85 2
    endloop
  endfacet
  facet normal 0 -1 0
    outer loop
      vertex 3.15 27.15 2
      vertex 5.85 27.15 2.2002
      vertex 3.15 27.15 2.2002
    endloop
  endfacet
  facet normal 0 -1 -0
    outer loop
      vertex 5.85 27.15 2.2002
      vertex 3.15 27.15 2
      vertex 5.85 27.15 2
    endloop
  endfacet
  facet normal 1 -0 0
    outer loop
      vertex 8.85 27.15 2.2002
      vertex 8.85 29.85 2
      vertex 8.85 29.85 2.2002
    endloop
  endfacet
  facet normal 1 0 0
    outer loop
      vertex 8.85 29.85 2
      vertex 8.85 27.15 2.2002
      vertex 8.85 27.15 2
    endloop
  endfacet
  facet normal -0 0 1
    outer loop
      vertex 6.15 29.85 2.2002
      vertex 8.85 27.15 2.2002
      vertex 8.85 29.85 2.2002
    endloop
  endfacet
  facet normal 0 0 1
    outer loop
      vertex 8.85 27.15 2.2002
      vertex 6.15 29.85 2.2002
      vertex 6.15 27.15 2.2002
    endloop
  endfacet
  facet normal 0 0 -1
    outer loop
      vertex 6.15 27.15 2
      vertex 8.85 29.85 2
      vertex 8.85 27.15 2
    endloop
  endfacet
  facet normal -0 0 -1
    outer loop
      vertex 8.85 29.85 2
      vertex 6.15 27.15 2
      vertex 6.15 29.85 2
    endloop
  endfacet
  facet normal -1 0 0
    outer loop
      vertex 6.15 27.15 2
      vertex 6.15 29.85 2.2002
      vertex 6.15 29.85 2
    endloop
  endfacet
  facet normal -1 -0 0
    outer loop
      vertex 6.15 29.85 2.2002
      vertex 6.15 27.15 2
      vertex 6.15 27.15 2.2002
    endloop
  endfacet
  facet normal 0 1 -0
    outer loop
      vertex 8.85 29.85 2
      vertex 6.15 29.85 2.2002
      vertex 8.85 29.85 2.2002
    endloop
  endfacet
  facet normal 0 1 0
    outer loop
      vertex 6.15 29.85 2.2002
      vertex 8.85 29.85 2
      vertex 6.15 29.85 2
    endloop
  endfacet
  facet normal 0 -1 0
    outer loop
      vertex 6.15 27.15 2
      vertex 8.85 27.15 2.2002
      vertex 6.15 27.15 2.2002
    endloop
  endfacet
  facet normal 0 -1 -0
    outer loop
      vertex 8.85 27.15 2.2002
      vertex 6.15 27.15 2
      vertex 8.85 27.15 2
    endloop
  endfacet
  facet normal 1 -0 0
    outer loop
      vertex 26.85 27.15 2.2002
      vertex 26.85 29.85 2
      vertex 26.85 29.85 2.2002
    endloop
  endfacet
  facet normal 1 0 0
    outer loop
      vertex 26.85 29.85 2
      vertex 26.85 27.15 2.2002
      vertex 26.85 27.15 2
    endloop
  endfacet
  facet normal -0 0 1
    outer loop
      vertex 24.15 29.85 2.2002
      vertex 26.85 27.15 2.2002
      vertex 26.85 29.85 2.2002
    endloop
  endfacet
  facet normal 0 0 1
    outer loop
      vertex 26.85 27.15 2.2002
      vertex 24.15 29.85 2.2002
      vertex 24.15 27.15 2.2002
    endloop
  endfacet
  facet normal 0 0 -1
    outer loop
      vertex 24.15 27.15 2
      vertex 26.85 29.85 2
      vertex 26.85 27.15 2
    endloop
  endfacet
  facet normal -0 0 -1
    outer loop
      vertex 26.85 29.85 2
      vertex 24.15 27.15 2
      vertex 24.15 29.85 2
    endloop
  endfacet
  facet normal -1 0 0
    outer loop
      vertex 24.15 27.15 2
      vertex 24.15 29.85 2.2002
      vertex 24.15 29.85 2
    endloop
  endfacet
  facet normal -1 -0 0
    outer loop
      vertex 24.15 29.85 2.2002
      vertex 24.15 27.15 2
      vertex 24.15 27.15 2.2002
    endloop
  endfacet
  facet normal 0 1 -0
    outer loop
      vertex 26.85 29.85 2
      vertex 24.15 29.85 2.2002
      vertex 26.85 29.85 2.2002
    endloop
  endfacet
  facet normal 0 1 0
    outer loop
      vertex 24.15 29.85 2.2002
      vertex 26.85 29.85 2
      vertex 24.15 29.85 2
    endloop
  endfacet
  facet normal 0 -1 0
    outer loop
      vertex 24.15 27.15 2
      vertex 26.85 27.15 2.2002
      vertex 24.15 27.15 2.2002
    endloop
  endfacet
  facet normal 0 -1 -0
    outer loop
      vertex 26.85 27.15 2.2002
      vertex 24.15 27.15 2
      vertex 26.85 27.15 2
    endloop
  endfacet
  facet normal 1 -0 0
    outer loop
      vertex 11.85 30.15 2.2002
      vertex 11.85 32.85 2
      vertex 11.85 32.85 2.2002
    endloop
  endfacet
  facet normal 1 0 0
    outer loop
      vertex 11.85 32.85 2
      vertex 11.85 30.15 2.2002
      vertex 11.85 30.15 2
    endloop
  endfacet
  facet normal -0 0 1
    outer loop
      vertex 9.15 32.85 2.2002
      vertex 11.85 30.15 2.2002
      vertex 11.85 32.85 2.2002
    endloop
  endfacet
  facet normal 0 0 1
    outer loop
      vertex 11.85 30.15 2.2002
      vertex 9.15 32.85 2.2002
      vertex 9.15 30.15 2.2002
    endloop
  endfacet
  facet normal 0 0 -1
    outer loop
      vertex 9.15 30.15 2
      vertex 11.85 32.85 2
      vertex 11.85 30.15 2
    endloop
  endfacet
  facet normal -0 0 -1
    outer loop
      vertex 11.85 32.85 2
      vertex 9.15 30.15 2
      vertex 9.15 32.85 2
    endloop
  endfacet
  facet normal -1 0 0
    outer loop
      vertex 9.15 30.15 2
      vertex 9.15 32.85 2.2002
      vertex 9.15 32.85 2
    endloop
  endfacet
  facet normal -1 -0 0
    outer loop
      vertex 9.15 32.85 2.2002
      vertex 9.15 30.15 2
      vertex 9.15 30.15 2.2002
    endloop
  endfacet
  facet normal 0 1 -0
    outer loop
      vertex 11.85 32.85 2
      vertex 9.15 32.85 2.2002
      vertex 11.85 32.85 2.2002
    endloop
  endfacet
  facet normal 0 1 0
    outer loop
      vertex 9.15 32.85 2.2002
      vertex 11.85 32.85 2
      vertex 9.15 32.85 2
    endloop
  endfacet
  facet normal 0 -1 0
    outer loop
      vertex 9.15 30.15 2
      vertex 11.85 30.15 2.2002
      vertex 9.15 30.15 2.2002
    endloop
  endfacet
  facet normal 0 -1 -0
    outer loop
      vertex 11.85 30.15 2.2002
      vertex 9.15 30.15 2
      vertex 11.85 30.15 2
    endloop
  endfacet
  facet normal 1 -0 0
    outer loop
      vertex 14.85 30.15 2.2002
      vertex 14.85 32.85 2
      vertex 14.85 32.85 2.2002
    endloop
  endfacet
  facet normal 1 0 0
    outer loop
      vertex 14.85 32.85 2
      vertex 14.85 30.15 2.2002
      vertex 14.85 30.15 2
    endloop
  endfacet
  facet normal -0 0 1
    outer loop
      vertex 12.15 32.85 2.2002
      vertex 14.85 30.15 2.2002
      vertex 14.85 32.85 2.2002
    endloop
  endfacet
  facet normal 0 0 1
    outer loop
      vertex 14.85 30.15 2.2002
      vertex 12.15 32.85 2.2002
      vertex 12.15 30.15 2.2002
    endloop
  endfacet
  facet normal 0 0 -1
    outer loop
      vertex 12.15 30.15 2
      vertex 14.85 32.85 2
      vertex 14.85 30.15 2
    endloop
  endfacet
  facet normal -0 0 -1
    outer loop
      vertex 14.85 32.85 2
      vertex 12.15 30.15 2
      vertex 12.15 32.85 2
    endloop
  endfacet
  facet normal -1 0 0
    outer loop
      vertex 12.15 30.15 2
      vertex 12.15 32.85 2.2002
      vertex 12.15 32.85 2
    endloop
  endfacet
  facet normal -1 -0 0
    outer loop
      vertex 12.15 32.85 2.2002
      vertex 12.15 30.15 2
      vertex 12.15 30.15 2.2002
    endloop
  endfacet
  facet normal 0 1 -0
    outer loop
      vertex 14.85 32.85 2
      vertex 12.15 32.85 2.2002
      vertex 14.85 32.85 2.2002
    endloop
  endfacet
  facet normal 0 1 0
    outer loop
      vertex 12.15 32.85 2.2002
      vertex 14.85 32.85 2
      vertex 12.15 32.85 2
    endloop
  endfacet
  facet normal 0 -1 0
    outer loop
      vertex 12.15 30.15 2
      vertex 14.85 30.15 2.2002
      vertex 12.15 30.15 2.2002
    endloop
  endfacet
  facet normal 0 -1 -0
    outer loop
      vertex 14.85 30.15 2.2002
      vertex 12.15 30.15 2
      vertex 14.85 30.15 2
    endloop
  endfacet
  facet normal 1 -0 0
    outer loop
      vertex 23.85 30.15 2.2002
      vertex 23.85 32.85 2
      vertex 23.85 32.85 2.2002
    endloop
  endfacet
  facet normal 1 0 0
    outer loop
      vertex 23.85 32.85 2
      vertex 23.85 30.15 2.2002
      vertex 23.85 30.15 2
    endloop
  endfacet
  facet normal -0 0 1
    outer loop
      vertex 21.15 32.85 2.2002
      vertex 23.85 30.15 2.2002
      vertex 23.85 32.85 2.2002
    endloop
  endfacet
  facet normal 0 0 1
    outer loop
      vertex 23.85 30.15 2.2002
      vertex 21.15 32.85 2.2002
      vertex 21.15 30.15 2.2002
    endloop
  endfacet
  facet normal 0 0 -1
    outer loop
      vertex 21.15 30.15 2
      vertex 23.85 32.85 2
      vertex 23.85 30.15 2
    endloop
  endfacet
  facet normal -0 0 -1
    outer loop
      vertex 23.85 32.85 2
      vertex 21.15 30.15 2
      vertex 21.15 32.85 2
    endloop
  endfacet
  facet normal -1 0 0
    outer loop
      vertex 21.15 30.15 2
      vertex 21.15 32.85 2.2002
      vertex 21.15 32.85 2
    endloop
  endfacet
  facet normal -1 -0 0
    outer loop
      vertex 21.15 32.85 2.2002
      vertex 21.15 30.15 2
      vertex 21.15 30.15 2.2002
    endloop
  endfacet
  facet normal 0 1 -0
    outer loop
      vertex 23.85 32.85 2
      vertex 21.15 32.85 2.2002
      vertex 23.85 32.85 2.2002
    endloop
  endfacet
  facet normal 0 1 0
    outer loop
      vertex 21.15 32.85 2.2002
      vertex 23.85 32.85 2
      vertex 21.15 32.85 2
    endloop
  endfacet
  facet normal 0 -1 0
    outer loop
      vertex 21.15 30.15 2
      vertex 23.85 30.15 2.2002
      vertex 21.15 30.15 2.2002
    endloop
  endfacet
  facet normal 0 -1 -0
    outer loop
      vertex 23.85 30.15 2.2002
      vertex 21.15 30.15 2
      vertex 23.85 30.15 2
    endloop
  endfacet
  facet normal 1 -0 0
    outer loop
      vertex 17.85 33.15 2.2002
      vertex 17.85 35.85 2
      vertex 17.85 35.85 2.2002
    endloop
  endfacet
  facet normal 1 0 0
    outer loop
      vertex 17.85 35.85 2
      vertex 17.85 33.15 2.2002
      vertex 17.85 33.15 2
    endloop
  endfacet
  facet normal -0 0 1
    outer loop
      vertex 15.15 35.85 2.2002
      vertex 17.85 33.15 2.2002
      vertex 17.85 35.85 2.2002
    endloop
  endfacet
  facet normal 0 0 1
    outer loop
      vertex 17.85 33.15 2.2002
      vertex 15.15 35.85 2.2002
      vertex 15.15 33.15 2.2002
    endloop
  endfacet
  facet normal 0 0 -1
    outer loop
      vertex 15.15 33.15 2
      vertex 17.85 35.85 2
      vertex 17.85 33.15 2
    endloop
  endfacet
  facet normal -0 0 -1
    outer loop
      vertex 17.85 35.85 2
      vertex 15.15 33.15 2
      vertex 15.15 35.85 2
    endloop
  endfacet
  facet normal -1 0 0
    outer loop
      vertex 15.15 33.15 2
      vertex 15.15 35.85 2.2002
      vertex 15.15 35.85 2
    endloop
  endfacet
  facet normal -1 -0 0
    outer loop
      vertex 15.15 35.85 2.2002
      vertex 15.15 33.15 2
      vertex 15.15 33.15 2.2002
    endloop
  endfacet
  facet normal 0 1 -0
    outer loop
      vertex 17.85 35.85 2
      vertex 15.15 35.85 2.2002
      vertex 17.85 35.85 2.2002
    endloop
  endfacet
  facet normal 0 1 0
    outer loop
      vertex 15.15 35.85 2.2002
      vertex 17.85 35.85 2
      vertex 15.15 35.85 2
    endloop
  endfacet
  facet normal 0 -1 0
    outer loop
      vertex 15.15 33.15 2
      vertex 17.85 33.15 2.2002
      vertex 15.15 33.15 2.2002
    endloop
  endfacet
  facet normal 0 -1 -0
    outer loop
      vertex 17.85 33.15 2.2002
      vertex 15.15 33.15 2
      vertex 17.85 33.15 2
    endloop
  endfacet
  facet normal 1 -0 0
    outer loop
      vertex 20.85 33.15 2.2002
      vertex 20.85 35.85 2
      vertex 20.85 35.85 2.2002
    endloop
  endfacet
  facet normal 1 0 0
    outer loop
      vertex 20.85 35.85 2
      vertex 20.85 33.15 2.2002
      vertex 20.85 33.15 2
    endloop
  endfacet
  facet normal -0 0 1
    outer loop
      vertex 18.15 35.85 2.2002
      vertex 20.85 33.15 2.2002
      vertex 20.85 35.85 2.2002
    endloop
  endfacet
  facet normal 0 0 1
    outer loop
      vertex 20.85 33.15 2.2002
      vertex 18.15 35.85 2.2002
      vertex 18.15 33.15 2.2002
    endloop
  endfacet
  facet normal 0 0 -1
    outer loop
      vertex 18.15 33.15 2
      vertex 20.85 35.85 2
      vertex 20.85 33.15 2
    endloop
  endfacet
  facet normal -0 0 -1
    outer loop
      vertex 20.85 35.85 2
      vertex 18.15 33.15 2
      vertex 18.15 35.85 2
    endloop
  endfacet
  facet normal -1 0 0
    outer loop
      vertex 18.15 33.15 2
      vertex 18.15 35.85 2.2002
      vertex 18.15 35.85 2
    endloop
  endfacet
  facet normal -1 -0 0
    outer loop
      vertex 18.15 35.85 2.2002
      vertex 18.15 33.15 2
      vertex 18.15 33.15 2.2002
    endloop
  endfacet
  facet normal 0 1 -0
    outer loop
      vertex 20.85 35.85 2
      vertex 18.15 35.85 2.2002
      vertex 20.85 35.85 2.2002
    endloop
  endfacet
  facet normal 0 1 0
    outer loop
      vertex 18.15 35.85 2.2002
      vertex 20.85 35.85 2
      vertex 18.15 35.85 2
    endloop
  endfacet
  facet normal 0 -1 0
    outer loop
      vertex 18.15 33.15 2
      vertex 20.85 33.15 2.2002
      vertex 18.15 33.15 2.2002
    endloop
  endfacet
  facet normal 0 -1 -0
    outer loop
      vertex 20.85 33.15 2.2002
      vertex 18.15 33.15 2
      vertex 20.85 33.15 2
    endloop
  endfacet
  facet normal 1 -0 0
    outer loop
      vertex 26.85 33.15 2.2002
      vertex 26.85 35.85 2
      vertex 26.85 35.85 2.2002
    endloop
  endfacet
  facet normal 1 0 0
    outer loop
      vertex 26.85 35.85 2
      vertex 26.85 33.15 2.2002
      vertex 26.85 33.15 2
    endloop
  endfacet
  facet normal -0 0 1
    outer loop
      vertex 24.15 35.85 2.2002
      vertex 26.85 33.15 2.2002
      vertex 26.85 35.85 2.2002
    endloop
  endfacet
  facet normal 0 0 1
    outer loop
      vertex 26.85 33.15 2.2002
      vertex 24.15 35.85 2.2002
      vertex 24.15 33.15 2.2002
    endloop
  endfacet
  facet normal 0 0 -1
    outer loop
      vertex 24.15 33.15 2
      vertex 26.85 35.85 2
      vertex 26.85 33.15 2
    endloop
  endfacet
  facet normal -0 0 -1
    outer loop
      vertex 26.85 35.85 2
      vertex 24.15 33.15 2
      vertex 24.15 35.85 2
    endloop
  endfacet
  facet normal -1 0 0
    outer loop
      vertex 24.15 33.15 2
      vertex 24.15 35.85 2.2002
      vertex 24.15 35.85 2
    endloop
  endfacet
  facet normal -1 -0 0
    outer loop
      vertex 24.15 35.85 2.2002
      vertex 24.15 33.15 2
      vertex 24.15 33.15 2.2002
    endloop
  endfacet
  facet normal 0 1 -0
    outer loop
      vertex 26.85 35.85 2
      vertex 24.15 35.85 2.2002
      vertex 26.85 35.85 2.2002
    endloop
  endfacet
  facet normal 0 1 0
    outer loop
      vertex 24.15 35.85 2.2002
      vertex 26.85 35.85 2
      vertex 24.15 35.85 2
    endloop
  endfacet
  facet normal 0 -1 0
    outer loop
      vertex 24.15 33.15 2
      vertex 26.85 33.15 2.2002
      vertex 24.15 33.15 2.2002
    endloop
  endfacet
  facet normal 0 -1 -0
    outer loop
      vertex 26.85 33.15 2.2002
      vertex 24.15 33.15 2
      vertex 26.85 33.15 2
    endloop
  endfacet
  facet normal 1 -0 0
    outer loop
      vertex 5.85 36.15 2.2002
      vertex 5.85 38.85 2
      vertex 5.85 38.85 2.2002
    endloop
  endfacet
  facet normal 1 0 0
    outer loop
      vertex 5.85 38.85 2
      vertex 5.85 36.15 2.2002
      vertex 5.85 36.15 2
    endloop
  endfacet
  facet normal -0 0 1
    outer loop
      vertex 3.15 38.85 2.2002
      vertex 5.85 36.15 2.2002
      vertex 5.85 38.85 2.2002
    endloop
  endfacet
  facet normal 0 0 1
    outer loop
      vertex 5.85 36.15 2.2002
      vertex 3.15 38.85 2.2002
      vertex 3.15 36.15 2.2002
    endloop
  endfacet
  facet normal 0 0 -1
    outer loop
      vertex 3.15 36.15 2
      vertex 5.85 38.85 2
      vertex 5.85 36.15 2
    endloop
  endfacet
  facet normal -0 0 -1
    outer loop
      vertex 5.85 38.85 2
      vertex 3.15 36.15 2
      vertex 3.15 38.85 2
    endloop
  endfacet
  facet normal -1 0 0
    outer loop
      vertex 3.15 36.15 2
      vertex 3.15 38.85 2.2002
      vertex 3.15 38.85 2
    endloop
  endfacet
  facet normal -1 -0 0
    outer loop
      vertex 3.15 38.85 2.2002
      vertex 3.15 36.15 2
      vertex 3.15 36.15 2.2002
    endloop
  endfacet
  facet normal 0 1 -0
    outer loop
      vertex 5.85 38.85 2
      vertex 3.15 38.85 2.2002
      vertex 5.85 38.85 2.2002
    endloop
  endfacet
  facet normal 0 1 0
    outer loop
      vertex 3.15 38.85 2.2002
      vertex 5.85 38.85 2
      vertex 3.15 38.85 2
    endloop
  endfacet
  facet normal 0 -1 0
    outer loop
      vertex 3.15 36.15 2
      vertex 5.85 36.15 2.2002
      vertex 3.15 36.15 2.2002
    endloop
  endfacet
  facet normal 0 -1 -0
    outer loop
      vertex 5.85 36.15 2.2002
      vertex 3.15 36.15 2
      vertex 5.85 36.15 2
    endloop
  endfacet
  facet normal 1 -0 0
    outer loop
      vertex 8.85 36.15 2.2002
      vertex 8.85 38.85 2
      vertex 8.85 38.85 2.2002
    endloop
  endfacet
  facet normal 1 0 0
    outer loop
      vertex 8.85 38.85 2
      vertex 8.85 36.15 2.2002
      vertex 8.85 36.15 2
    endloop
  endfacet
  facet normal -0 0 1
    outer loop
      vertex 6.15 38.85 2.2002
      vertex 8.85 36.15 2.2002
      vertex 8.85 38.85 2.2002
    endloop
  endfacet
  facet normal 0 0 1
    outer loop
      vertex 8.85 36.15 2.2002
      vertex 6.15 38.85 2.2002
      vertex 6.15 36.15 2.2002
    endloop
  endfacet
  facet normal 0 0 -1
    outer loop
      vertex 6.15 36.15 2
      vertex 8.85 38.85 2
      vertex 8.85 36.15 2
    endloop
  endfacet
  facet normal -0 0 -1
    outer loop
      vertex 8.85 38.85 2
      vertex 6.15 36.15 2
      vertex 6.15 38.85 2
    endloop
  endfacet
  facet normal -1 0 0
    outer loop
      vertex 6.15 36.15 2
      vertex 6.15 38.85 2.2002
      vertex 6.15 38.85 2
    endloop
  endfacet
  facet normal -1 -0 0
    outer loop
      vertex 6.15 38.85 2.2002
      vertex 6.15 36.15 2
      vertex 6.15 36.15 2.2002
    endloop
  endfacet
  facet normal 0 1 -0
    outer loop
      vertex 8.85 38.85 2
      vertex 6.15 38.85 2.2002
      vertex 8.85 38.85 2.2002
    endloop
  endfacet
  facet normal 0 1 0
    outer loop
      vertex 6.15 38.85 2.2002
      vertex 8.85 38.85 2
      vertex 6.15 38.85 2
    endloop
  endfacet
  facet normal 0 -1 0
    outer loop
      vertex 6.15 36.15 2
      vertex 8.85 36.15 2.2002
      vertex 6.15 36.15 2.2002
    endloop
  endfacet
  facet normal 0 -1 -0
    outer loop
      vertex 8.85 36.15 2.2002
      vertex 6.15 36.15 2
      vertex 8.85 36.15 2
    endloop
  endfacet
  facet normal 1 -0 0
    outer loop
      vertex 23.85 36.15 2.2002
      vertex 23.85 38.85 2
      vertex 23.85 38.85 2.2002
    endloop
  endfacet
  facet normal 1 0 0
    outer loop
      vertex 23.85 38.85 2
      vertex 23.85 36.15 2.2002
      vertex 23.85 36.15 2
    endloop
  endfacet
  facet normal -0 0 1
    outer loop
      vertex 21.15 38.85 2.2002
      vertex 23.85 36.15 2.2002
      vertex 23.85 38.85 2.2002
    endloop
  endfacet
  facet normal 0 0 1
    outer loop
      vertex 23.85 36.15 2.2002
      vertex 21.15 38.85 2.2002
      vertex 21.15 36.15 2.2002
    endloop
  endfacet
  facet normal 0 0 -1
    outer loop
      vertex 21.15 36.15 2
      vertex 23.85 38.85 2
      vertex 23.85 36.15 2
    endloop
  endfacet
  facet normal -0 0 -1
    outer loop
      vertex 23.85 38.85 2
      vertex 21.15 36.15 2
      vertex 21.15 38.85 2
    endloop
  endfacet
  facet normal -1 0 0
    outer loop
      vertex 21.15 36.15 2
      vertex 21.15 38.85 2.2002
      vertex 21.15 38.85 2
    endloop
  endfacet
  facet normal -1 -0 0
    outer loop
      vertex 21.15 38.85 2.2002
      vertex 21.15 36.15 2
      vertex 21.15 36.15 2.2002
    endloop
  endfacet
  facet normal 0 1 -0
    outer loop
      vertex 23.85 38.85 2
      vertex 21.15 38.85 2.2002
      vertex 23.85 38.85 2.2002
    endloop
  endfacet
  facet normal 0 1 0
    outer loop
      vertex 21.15 38.85 2.2002
      vertex 23.85 38.85 2
      vertex 21.15 38.85 2
    endloop
  endfacet
  facet normal 0 -1 0
    outer loop
      vertex 21.15 36.15 2
      vertex 23.85 36.15 2.2002
      vertex 21.15 36.15 2.2002
    endloop
  endfacet
  facet normal 0 -1 -0
    outer loop
      vertex 23.85 36.15 2.2002
      vertex 21.15 36.15 2
      vertex 23.85 36.15 2
    endloop
  endfacet
  facet normal 1 -0 0
    outer loop
      vertex 2.85 39.15 2.2002
      vertex 2.85 41.85 2
      vertex 2.85 41.85 2.2002
    endloop
  endfacet
  facet normal 1 0 0
    outer loop
      vertex 2.85 41.85 2
      vertex 2.85 39.15 2.2002
      vertex 2.85 39.15 2
    endloop
  endfacet
  facet normal -0 0 1
    outer loop
      vertex 0.15 41.85 2.2002
      vertex 2.85 39.15 2.2002
      vertex 2.85 41.85 2.2002
    endloop
  endfacet
  facet normal 0 0 1
    outer loop
      vertex 2.85 39.15 2.2002
      vertex 0.15 41.85 2.2002
      vertex 0.15 39.15 2.2002
    endloop
  endfacet
  facet normal 0 0 -1
    outer loop
      vertex 0.15 39.15 2
      vertex 2.85 41.85 2
      vertex 2.85 39.15 2
    endloop
  endfacet
  facet normal -0 0 -1
    outer loop
      vertex 2.85 41.85 2
      vertex 0.15 39.15 2
      vertex 0.15 41.85 2
    endloop
  endfacet
  facet normal -1 0 0
    outer loop
      vertex 0.15 39.15 2
      vertex 0.15 41.85 2.2002
      vertex 0.15 41.85 2
    endloop
  endfacet
  facet normal -1 -0 0
    outer loop
      vertex 0.15 41.85 2.2002
      vertex 0.15 39.15 2
      vertex 0.15 39.15 2.2002
    endloop
  endfacet
  facet normal 0 1 -0
    outer loop
      vertex 2.85 41.85 2
      vertex 0.15 41.85 2.2002
      vertex 2.85 41.85 2.2002
    endloop
  endfacet
  facet normal 0 1 0
    outer loop
      vertex 0.15 41.85 2.2002
      vertex 2.85 41.85 2
      vertex 0.15 41.85 2
    endloop
  endfacet
  facet normal 0 -1 0
    outer loop
      vertex 0.15 39.15 2
      vertex 2.85 39.15 2.2002
      vertex 0.15 39.15 2.2002
    endloop
  endfacet
  facet normal 0 -1 -0
    outer loop
      vertex 2.85 39.15 2.2002
      vertex 0.15 39.15 2
      vertex 2.85 39.15 2
    endloop
  endfacet
  facet normal 1 -0 0
    outer loop
      vertex 11.85 39.15 2.2002
      vertex 11.85 41.85 2
      vertex 11.85 41.85 2.2002
    endloop
  endfacet
  facet normal 1 0 0
    outer loop
      vertex 11.85 41.85 2
      vertex 11.85 39.15 2.2002
      vertex 11.85 39.15 2
    endloop
  endfacet
  facet normal -0 0 1
    outer loop
      vertex 9.15 41.85 2.2002
      vertex 11.85 39.15 2.2002
      vertex 11.85 41.85 2.2002
    endloop
  endfacet
  facet normal 0 0 1
    outer loop
      vertex 11.85 39.15 2.2002
      vertex 9.15 41.85 2.2002
      vertex 9.15 39.15 2.2002
    endloop
  endfacet
  facet normal 0 0 -1
    outer loop
      vertex 9.15 39.15 2
      vertex 11.85 41.85 2
      vertex 11.85 39.15 2
    endloop
  endfacet
  facet normal -0 0 -1
    outer loop
      vertex 11.85 41.85 2
      vertex 9.15 39.15 2
      vertex 9.15 41.85 2
    endloop
  endfacet
  facet normal -1 0 0
    outer loop
      vertex 9.15 39.15 2
      vertex 9.15 41.85 2.2002
      vertex 9.15 41.85 2
    endloop
  endfacet
  facet normal -1 -0 0
    outer loop
      vertex 9.15 41.85 2.2002
      vertex 9.15 39.15 2
      vertex 9.15 39.15 2.2002
    endloop
  endfacet
  facet normal 0 1 -0
    outer loop
      vertex 11.85 41.85 2
      vertex 9.15 41.85 2.2002
      vertex 11.85 41.85 2.2002
    endloop
  endfacet
  facet normal 0 1 0
    outer loop
      vertex 9.15 41.85 2.2002
      vertex 11.85 41.85 2
      vertex 9.15 41.85 2
    endloop
  endfacet
  facet normal 0 -1 0
    outer loop
      vertex 9.15 39.15 2
      vertex 11.85 39.15 2.2002
      vertex 9.15 39.15 2.2002
    endloop
  endfacet
  facet normal 0 -1 -0
    outer loop
      vertex 11.85 39.15 2.2002
      vertex 9.15 39.15 2
      vertex 11.85 39.15 2
    endloop
  endfacet
  facet normal 1 -0 0
    outer loop
      vertex 20.85 39.15 2.2002
      vertex 20.85 41.85 2
      vertex 20.85 41.85 2.2002
    endloop
  endfacet
  facet normal 1 0 0
    outer loop
      vertex 20.85 41.85 2
      vertex 20.85 39.15 2.2002
      vertex 20.85 39.15 2
    endloop
  endfacet
  facet normal -0 0 1
    outer loop
      vertex 18.15 41.85 2.2002
      vertex 20.85 39.15 2.2002
      vertex 20.85 41.85 2.2002
    endloop
  endfacet
  facet normal 0 0 1
    outer loop
      vertex 20.85 39.15 2.2002
      vertex 18.15 41.85 2.2002
      vertex 18.15 39.15 2.2002
    endloop
  endfacet
  facet normal 0 0 -1
    outer loop
      vertex 18.15 39.15 2
      vertex 20.85 41.85 2
      vertex 20.85 39.15 2
    endloop
  endfacet
  facet normal -0 0 -1
    outer loop
      vertex 20.85 41.85 2
      vertex 18.15 39.15 2
      vertex 18.15 41.85 2
    endloop
  endfacet
  facet normal -1 0 0
    outer loop
      vertex 18.15 39.15 2
      vertex 18.15 41.85 2.2002
      vertex 18.15 41.85 2
    endloop
  endfacet
  facet normal -1 -0 0
    outer loop
      vertex 18.15 41.85 2.2002
      vertex 18.15 39.15 2
      vertex 18.15 39.15 2.2002
    endloop
  endfacet
  facet normal 0 1 -0
    outer loop
      vertex 20.85 41.85 2
      vertex 18.15 41.85 2.2002
      vertex 20.85 41.85 2.2002
    endloop
  endfacet
  facet normal 0 1 0
    outer loop
      vertex 18.15 41.85 2.2002
      vertex 20.85 41.85 2
      vertex 18.15 41.85 2
    endloop
  endfacet
  facet normal 0 -1 0
    outer loop
      vertex 18.15 39.15 2
      vertex 20.85 39.15 2.2002
      vertex 18.15 39.15 2.2002
    endloop
  endfacet
  facet normal 0 -1 -0
    outer loop
      vertex 20.85 39.15 2.2002
      vertex 18.15 39.15 2
      vertex 20.85 39.15 2
    endloop
  endfacet
  facet normal 1 -0 0
    outer loop
      vertex 20.85 42.15 2.2002
      vertex 20.85 44.85 2
      vertex 20.85 44.85 2.2002
    endloop
  endfacet
  facet normal 1 0 0
    outer loop
      vertex 20.85 44.85 2
      vertex 20.85 42.15 2.2002
      vertex 20.85 42.15 2
    endloop
  endfacet
  facet normal -0 0 1
    outer loop
      vertex 18.15 44.85 2.2002
      vertex 20.85 42.15 2.2002
      vertex 20.85 44.85 2.2002
    endloop
  endfacet
  facet normal 0 0 1
    outer loop
      vertex 20.85 42.15 2.2002
      vertex 18.15 44.85 2.2002
      vertex 18.15 42.15 2.2002
    endloop
  endfacet
  facet normal 0 0 -1
    outer loop
      vertex 18.15 42.15 2
      vertex 20.85 44.85 2
      vertex 20.85 42.15 2
    endloop
  endfacet
  facet normal -0 0 -1
    outer loop
      vertex 20.85 44.85 2
      vertex 18.15 42.15 2
      vertex 18.15 44.85 2
    endloop
  endfacet
  facet normal -1 0 0
    outer loop
      vertex 18.15 42.15 2
      vertex 18.15 44.85 2.2002
      vertex 18.15 44.85 2
    endloop
  endfacet
  facet normal -1 -0 0
    outer loop
      vertex 18.15 44.85 2.2002
      vertex 18.15 42.15 2
      vertex 18.15 42.15 2.2002
    endloop
  endfacet
  facet normal 0 1 -0
    outer loop
      vertex 20.85 44.85 2
      vertex 18.15 44.85 2.2002
      vertex 20.85 44.85 2.2002
    endloop
  endfacet
  facet normal 0 1 0
    outer loop
      vertex 18.15 44.85 2.2002
      vertex 20.85 44.85 2
      vertex 18.15 44.85 2
    endloop
  endfacet
  facet normal 0 -1 0
    outer loop
      vertex 18.15 42.15 2
      vertex 20.85 42.15 2.2002
      vertex 18.15 42.15 2.2002
    endloop
  endfacet
  facet normal 0 -1 -0
    outer loop
      vertex 20.85 42.15 2.2002
      vertex 18.15 42.15 2
      vertex 20.85 42.15 2
    endloop
  endfacet
  facet normal 1 -0 0
    outer loop
      vertex 20.85 45.15 2.2002
      vertex 20.85 47.85 2
      vertex 20.85 47.85 2.2002
    endloop
  endfacet
  facet normal 1 0 0
    outer loop
      vertex 20.85 47.85 2
      vertex 20.85 45.15 2.2002
      vertex 20.85 45.15 2
    endloop
  endfacet
  facet normal -0 0 1
    outer loop
      vertex 18.15 47.85 2.2002
      vertex 20.85 45.15 2.2002
      vertex 20.85 47.85 2.2002
    endloop
  endfacet
  facet normal 0 0 1
    outer loop
      vertex 20.85 45.15 2.2002
      vertex 18.15 47.85 2.2002
      vertex 18.15 45.15 2.2002
    endloop
  endfacet
  facet normal 0 0 -1
    outer loop
      vertex 18.15 45.15 2
      vertex 20.85 47.85 2
      vertex 20.85 45.15 2
    endloop
  endfacet
  facet normal -0 0 -1
    outer loop
      vertex 20.85 47.85 2
      vertex 18.15 45.15 2
      vertex 18.15 47.85 2
    endloop
  endfacet
  facet normal -1 0 0
    outer loop
      vertex 18.15 45.15 2
      vertex 18.15 47.85 2.2002
      vertex 18.15 47.85 2
    endloop
  endfacet
  facet normal -1 -0 0
    outer loop
      vertex 18.15 47.85 2.2002
      vertex 18.15 45.15 2
      vertex 18.15 45.15 2.2002
    endloop
  endfacet
  facet normal 0 1 -0
    outer loop
      vertex 20.85 47.85 2
      vertex 18.15 47.85 2.2002
      vertex 20.85 47.85 2.2002
    endloop
  endfacet
  facet normal 0 1 0
    outer loop
      vertex 18.15 47.85 2.2002
      vertex 20.85 47.85 2
      vertex 18.15 47.85 2
    endloop
  endfacet
  facet normal 0 -1 0
    outer loop
      vertex 18.15 45.15 2
      vertex 20.85 45.15 2.2002
      vertex 18.15 45.15 2.2002
    endloop
  endfacet
  facet normal 0 -1 -0
    outer loop
      vertex 20.85 45.15 2.2002
      vertex 18.15 45.15 2
      vertex 20.85 45.15 2
    endloop
  endfacet
  facet normal 1 -0 0
    outer loop
      vertex 20.85 48.15 2.2002
      vertex 20.85 50.85 2
      vertex 20.85 50.85 2.2002
    endloop
  endfacet
  facet normal 1 0 0
    outer loop
      vertex 20.85 50.85 2
      vertex 20.85 48.15 2.2002
      vertex 20.85 48.15 2
    endloop
  endfacet
  facet normal -0 0 1
    outer loop
      vertex 18.15 50.85 2.2002
      vertex 20.85 48.15 2.2002
      vertex 20.85 50.85 2.2002
    endloop
  endfacet
  facet normal 0 0 1
    outer loop
      vertex 20.85 48.15 2.2002
      vertex 18.15 50.85 2.2002
      vertex 18.15 48.15 2.2002
    endloop
  endfacet
  facet normal 0 0 -1
    outer loop
      vertex 18.15 48.15 2
      vertex 20.85 50.85 2
      vertex 20.85 48.15 2
    endloop
  endfacet
  facet normal -0 0 -1
    outer loop
      vertex 20.85 50.85 2
      vertex 18.15 48.15 2
      vertex 18.15 50.85 2
    endloop
  endfacet
  facet normal -1 0 0
    outer loop
      vertex 18.15 48.15 2
      vertex 18.15 50.85 2.2002
      vertex 18.15 50.85 2
    endloop
  endfacet
  facet normal -1 -0 0
    outer loop
      vertex 18.15 50.85 2.2002
      vertex 18.15 48.15 2
      vertex 18.15 48.15 2.2002
    endloop
  endfacet
  facet normal 0 1 -0
    outer loop
      vertex 20.85 50.85 2
      vertex 18.15 50.85 2.2002
      vertex 20.85 50.85 2.2002
    endloop
  endfacet
  facet normal 0 1 0
    outer loop
      vertex 18.15 50.85 2.2002
      vertex 20.85 50.85 2
      vertex 18.15 50.85 2
    endloop
  endfacet
  facet normal 0 -1 0
    outer loop
      vertex 18.15 48.15 2
      vertex 20.85 48.15 2.2002
      vertex 18.15 48.15 2.2002
    endloop
  endfacet
  facet normal 0 -1 -0
    outer loop
      vertex 20.85 48.15 2.2002
      vertex 18.15 48.15 2
      vertex 20.85 48.15 2
    endloop
  endfacet
  facet normal 1 -0 0
    outer loop
      vertex 17.85 51.15 2.2002
      vertex 17.85 53.85 2
      vertex 17.85 53.85 2.2002
    endloop
  endfacet
  facet normal 1 0 0
    outer loop
      vertex 17.85 53.85 2
      vertex 17.85 51.15 2.2002
      vertex 17.85 51.15 2
    endloop
  endfacet
  facet normal -0 0 1
    outer loop
      vertex 15.15 53.85 2.2002
      vertex 17.85 51.15 2.2002
      vertex 17.85 53.85 2.2002
    endloop
  endfacet
  facet normal 0 0 1
    outer loop
      vertex 17.85 51.15 2.2002
      vertex 15.15 53.85 2.2002
      vertex 15.15 51.15 2.2002
    endloop
  endfacet
  facet normal 0 0 -1
    outer loop
      vertex 15.15 51.15 2
      vertex 17.85 53.85 2
      vertex 17.85 51.15 2
    endloop
  endfacet
  facet normal -0 0 -1
    outer loop
      vertex 17.85 53.85 2
      vertex 15.15 51.15 2
      vertex 15.15 53.85 2
    endloop
  endfacet
  facet normal -1 0 0
    outer loop
      vertex 15.15 51.15 2
      vertex 15.15 53.85 2.2002
      vertex 15.15 53.85 2
    endloop
  endfacet
  facet normal -1 -0 0
    outer loop
      vertex 15.15 53.85 2.2002
      vertex 15.15 51.15 2
      vertex 15.15 51.15 2.2002
    endloop
  endfacet
  facet normal 0 1 -0
    outer loop
      vertex 17.85 53.85 2
      vertex 15.15 53.85 2.2002
      vertex 17.85 53.85 2.2002
    endloop
  endfacet
  facet normal 0 1 0
    outer loop
      vertex 15.15 53.85 2.2002
      vertex 17.85 53.85 2
      vertex 15.15 53.85 2
    endloop
  endfacet
  facet normal 0 -1 0
    outer loop
      vertex 15.15 51.15 2
      vertex 17.85 51.15 2.2002
      vertex 15.15 51.15 2.2002
    endloop
  endfacet
  facet normal 0 -1 -0
    outer loop
      vertex 17.85 51.15 2.2002
      vertex 15.15 51.15 2
      vertex 17.85 51.15 2
    endloop
  endfacet
  facet normal 1 -0 0
    outer loop
      vertex 23.85 51.15 2.2002
      vertex 23.85 53.85 2
      vertex 23.85 53.85 2.2002
    endloop
  endfacet
  facet normal 1 0 0
    outer loop
      vertex 23.85 53.85 2
      vertex 23.85 51.15 2.2002
      vertex 23.85 51.15 2
    endloop
  endfacet
  facet normal -0 0 1
    outer loop
      vertex 21.15 53.85 2.2002
      vertex 23.85 51.15 2.2002
      vertex 23.85 53.85 2.2002
    endloop
  endfacet
  facet normal 0 0 1
    outer loop
      vertex 23.85 51.15 2.2002
      vertex 21.15 53.85 2.2002
      vertex 21.15 51.15 2.2002
    endloop
  endfacet
  facet normal 0 0 -1
    outer loop
      vertex 21.15 51.15 2
      vertex 23.85 53.85 2
      vertex 23.85 51.15 2
    endloop
  endfacet
  facet normal -0 0 -1
    outer loop
      vertex 23.85 53.85 2
      vertex 21.15 51.15 2
      vertex 21.15 53.85 2
    endloop
  endfacet
  facet normal -1 0 0
    outer loop
      vertex 21.15 51.15 2
      vertex 21.15 53.85 2.2002
      vertex 21.15 53.85 2
    endloop
  endfacet
  facet normal -1 -0 0
    outer loop
      vertex 21.15 53.85 2.2002
      vertex 21.15 51.15 2
      vertex 21.15 51.15 2.2002
    endloop
  endfacet
  facet normal 0 1 -0
    outer loop
      vertex 23.85 53.85 2
      vertex 21.15 53.85 2.2002
      vertex 23.85 53.85 2.2002
    endloop
  endfacet
  facet normal 0 1 0
    outer loop
      vertex 21.15 53.85 2.2002
      vertex 23.85 53.85 2
      vertex 21.15 53.85 2
    endloop
  endfacet
  facet normal 0 -1 0
    outer loop
      vertex 21.15 51.15 2
      vertex 23.85 51.15 2.2002
      vertex 21.15 51.15 2.2002
    endloop
  endfacet
  facet normal 0 -1 -0
    outer loop
      vertex 23.85 51.15 2.2002
      vertex 21.15 51.15 2
      vertex 23.85 51.15 2
    endloop
  endfacet
  facet normal 1 -0 0
    outer loop
      vertex 26.85 51.15 2.2002
      vertex 26.85 53.85 2
      vertex 26.85 53.85 2.2002
    endloop
  endfacet
  facet normal 1 0 0
    outer loop
      vertex 26.85 53.85 2
      vertex 26.85 51.15 2.2002
      vertex 26.85 51.15 2
    endloop
  endfacet
  facet normal -0 0 1
    outer loop
      vertex 24.15 53.85 2.2002
      vertex 26.85 51.15 2.2002
      vertex 26.85 53.85 2.2002
    endloop
  endfacet
  facet normal 0 0 1
    outer loop
      vertex 26.85 51.15 2.2002
      vertex 24.15 53.85 2.2002
      vertex 24.15 51.15 2.2002
    endloop
  endfacet
  facet normal 0 0 -1
    outer loop
      vertex 24.15 51.15 2
      vertex 26.85 53.85 2
      vertex 26.85 51.15 2
    endloop
  endfacet
  facet normal -0 0 -1
    outer loop
      vertex 26.85 53.85 2
      vertex 24.15 51.15 2
      vertex 24.15 53.85 2
    endloop
  endfacet
  facet normal -1 0 0
    outer loop
      vertex 24.15 51.15 2
      vertex 24.15 53.85 2.2002
      vertex 24.15 53.85 2
    endloop
  endfacet
  facet normal -1 -0 0
    outer loop
      vertex 24.15 53.85 2.2002
      vertex 24.15 51.15 2
      vertex 24.15 51.15 2.2002
    endloop
  endfacet
  facet normal 0 1 -0
    outer loop
      vertex 26.85 53.85 2
      vertex 24.15 53.85 2.2002
      vertex 26.85 53.85 2.2002
    endloop
  endfacet
  facet normal 0 1 0
    outer loop
      vertex 24.15 53.85 2.2002
      vertex 26.85 53.85 2
      vertex 24.15 53.85 2
    endloop
  endfacet
  facet normal 0 -1 0
    outer loop
      vertex 24.15 51.15 2
      vertex 26.85 51.15 2.2002
      vertex 24.15 51.15 2.2002
    endloop
  endfacet
  facet normal 0 -1 -0
    outer loop
      vertex 26.85 51.15 2.2002
      vertex 24.15 51.15 2
      vertex 26.85 51.15 2
    endloop
  endfacet
  facet normal 1 -0 0
    outer loop
      vertex 8.85 54.15 2.2002
      vertex 8.85 56.85 2
      vertex 8.85 56.85 2.2002
    endloop
  endfacet
  facet normal 1 0 0
    outer loop
      vertex 8.85 56.85 2
      vertex 8.85 54.15 2.2002
      vertex 8.85 54.15 2
    endloop
  endfacet
  facet normal -0 0 1
    outer loop
      vertex 6.15 56.85 2.2002
      vertex 8.85 54.15 2.2002
      vertex 8.85 56.85 2.2002
    endloop
  endfacet
  facet normal 0 0 1
    outer loop
      vertex 8.85 54.15 2.2002
      vertex 6.15 56.85 2.2002
      vertex 6.15 54.15 2.2002
    endloop
  endfacet
  facet normal 0 0 -1
    outer loop
      vertex 6.15 54.15 2
      vertex 8.85 56.85 2
      vertex 8.85 54.15 2
    endloop
  endfacet
  facet normal -0 0 -1
    outer loop
      vertex 8.85 56.85 2
      vertex 6.15 54.15 2
      vertex 6.15 56.85 2
    endloop
  endfacet
  facet normal -1 0 0
    outer loop
      vertex 6.15 54.15 2
      vertex 6.15 56.85 2.2002
      vertex 6.15 56.85 2
    endloop
  endfacet
  facet normal -1 -0 0
    outer loop
      vertex 6.15 56.85 2.2002
      vertex 6.15 54.15 2
      vertex 6.15 54.15 2.2002
    endloop
  endfacet
  facet normal 0 1 -0
    outer loop
      vertex 8.85 56.85 2
      vertex 6.15 56.85 2.2002
      vertex 8.85 56.85 2.2002
    endloop
  endfacet
  facet normal 0 1 0
    outer loop
      vertex 6.15 56.85 2.2002
      vertex 8.85 56.85 2
      vertex 6.15 56.85 2
    endloop
  endfacet
  facet normal 0 -1 0
    outer loop
      vertex 6.15 54.15 2
      vertex 8.85 54.15 2.2002
      vertex 6.15 54.15 2.2002
    endloop
  endfacet
  facet normal 0 -1 -0
    outer loop
      vertex 8.85 54.15 2.2002
      vertex 6.15 54.15 2
      vertex 8.85 54.15 2
    endloop
  endfacet
  facet normal 1 -0 0
    outer loop
      vertex 17.85 54.15 2.2002
      vertex 17.85 56.85 2
      vertex 17.85 56.85 2.2002
    endloop
  endfacet
  facet normal 1 0 0
    outer loop
      vertex 17.85 56.85 2
      vertex 17.85 54.15 2.2002
      vertex 17.85 54.15 2
    endloop
  endfacet
  facet normal -0 0 1
    outer loop
      vertex 15.15 56.85 2.2002
      vertex 17.85 54.15 2.2002
      vertex 17.85 56.85 2.2002
    endloop
  endfacet
  facet normal 0 0 1
    outer loop
      vertex 17.85 54.15 2.2002
      vertex 15.15 56.85 2.2002
      vertex 15.15 54.15 2.2002
    endloop
  endfacet
  facet normal 0 0 -1
    outer loop
      vertex 15.15 54.15 2
      vertex 17.85 56.85 2
      vertex 17.85 54.15 2
    endloop
  endfacet
  facet normal -0 0 -1
    outer loop
      vertex 17.85 56.85 2
      vertex 15.15 54.15 2
      vertex 15.15 56.85 2
    endloop
  endfacet
  facet normal -1 0 0
    outer loop
      vertex 15.15 54.15 2
      vertex 15.15 56.85 2.2002
      vertex 15.15 56.85 2
    endloop
  endfacet
  facet normal -1 -0 0
    outer loop
      vertex 15.15 56.85 2.2002
      vertex 15.15 54.15 2
      vertex 15.15 54.15 2.2002
    endloop
  endfacet
  facet normal 0 1 -0
    outer loop
      vertex 17.85 56.85 2
      vertex 15.15 56.85 2.2002
      vertex 17.85 56.85 2.2002
    endloop
  endfacet
  facet normal 0 1 0
    outer loop
      vertex 15.15 56.85 2.2002
      vertex 17.85 56.85 2
      vertex 15.15 56.85 2
    endloop
  endfacet
  facet normal 0 -1 0
    outer loop
      vertex 15.15 54.15 2
      vertex 17.85 54.15 2.2002
      vertex 15.15 54.15 2.2002
    endloop
  endfacet
  facet normal 0 -1 -0
    outer loop
      vertex 17.85 54.15 2.2002
      vertex 15.15 54.15 2
      vertex 17.85 54.15 2
    endloop
  endfacet
  facet normal 1 -0 0
    outer loop
      vertex 20.85 54.15 2.2002
      vertex 20.85 56.85 2
      vertex 20.85 56.85 2.2002
    endloop
  endfacet
  facet normal 1 0 0
    outer loop
      vertex 20.85 56.85 2
      vertex 20.85 54.15 2.2002
      vertex 20.85 54.15 2
    endloop
  endfacet
  facet normal -0 0 1
    outer loop
      vertex 18.15 56.85 2.2002
      vertex 20.85 54.15 2.2002
      vertex 20.85 56.85 2.2002
    endloop
  endfacet
  facet normal 0 0 1
    outer loop
      vertex 20.85 54.15 2.2002
      vertex 18.15 56.85 2.2002
      vertex 18.15 54.15 2.2002
    endloop
  endfacet
  facet normal 0 0 -1
    outer loop
      vertex 18.15 54.15 2
      vertex 20.85 56.85 2
      vertex 20.85 54.15 2
    endloop
  endfacet
  facet normal -0 0 -1
    outer loop
      vertex 20.85 56.85 2
      vertex 18.15 54.15 2
      vertex 18.15 56.85 2
    endloop
  endfacet
  facet normal -1 0 0
    outer loop
      vertex 18.15 54.15 2
      vertex 18.15 56.85 2.2002
      vertex 18.15 56.85 2
    endloop
  endfacet
  facet normal -1 -0 0
    outer loop
      vertex 18.15 56.85 2.2002
      vertex 18.15 54.15 2
      vertex 18.15 54.15 2.2002
    endloop
  endfacet
  facet normal 0 1 -0
    outer loop
      vertex 20.85 56.85 2
      vertex 18.15 56.85 2.2002
      vertex 20.85 56.85 2.2002
    endloop
  endfacet
  facet normal 0 1 0
    outer loop
      vertex 18.15 56.85 2.2002
      vertex 20.85 56.85 2
      vertex 18.15 56.85 2
    endloop
  endfacet
  facet normal 0 -1 0
    outer loop
      vertex 18.15 54.15 2
      vertex 20.85 54.15 2.2002
      vertex 18.15 54.15 2.2002
    endloop
  endfacet
  facet normal 0 -1 -0
    outer loop
      vertex 20.85 54.15 2.2002
      vertex 18.15 54.15 2
      vertex 20.85 54.15 2
    endloop
  endfacet
  facet normal 1 -0 0
    outer loop
      vertex 5.85 57.15 2.2002
      vertex 5.85 59.85 2
      vertex 5.85 59.85 2.2002
    endloop
  endfacet
  facet normal 1 0 0
    outer loop
      vertex 5.85 59.85 2
      vertex 5.85 57.15 2.2002
      vertex 5.85 57.15 2
    endloop
  endfacet
  facet normal -0 0 1
    outer loop
      vertex 3.15 59.85 2.2002
      vertex 5.85 57.15 2.2002
      vertex 5.85 59.85 2.2002
    endloop
  endfacet
  facet normal 0 0 1
    outer loop
      vertex 5.85 57.15 2.2002
      vertex 3.15 59.85 2.2002
      vertex 3.15 57.15 2.2002
    endloop
  endfacet
  facet normal 0 0 -1
    outer loop
      vertex 3.15 57.15 2
      vertex 5.85 59.85 2
      vertex 5.85 57.15 2
    endloop
  endfacet
  facet normal -0 0 -1
    outer loop
      vertex 5.85 59.85 2
      vertex 3.15 57.15 2
      vertex 3.15 59.85 2
    endloop
  endfacet
  facet normal -1 0 0
    outer loop
      vertex 3.15 57.15 2
      vertex 3.15 59.85 2.2002
      vertex 3.15 59.85 2
    endloop
  endfacet
  facet normal -1 -0 0
    outer loop
      vertex 3.15 59.85 2.2002
      vertex 3.15 57.15 2
      vertex 3.15 57.15 2.2002
    endloop
  endfacet
  facet normal 0 1 -0
    outer loop
      vertex 5.85 59.85 2
      vertex 3.15 59.85 2.2002
      vertex 5.85 59.85 2.2002
    endloop
  endfacet
  facet normal 0 1 0
    outer loop
      vertex 3.15 59.85 2.2002
      vertex 5.85 59.85 2
      vertex 3.15 59.85 2
    endloop
  endfacet
  facet normal 0 -1 0
    outer loop
      vertex 3.15 57.15 2
      vertex 5.85 57.15 2.2002
      vertex 3.15 57.15 2.2002
    endloop
  endfacet
  facet normal 0 -1 -0
    outer loop
      vertex 5.85 57.15 2.2002
      vertex 3.15 57.15 2
      vertex 5.85 57.15 2
    endloop
  endfacet
  facet normal 1 -0 0
    outer loop
      vertex 11.85 57.15 2.2002
      vertex 11.85 59.85 2
      vertex 11.85 59.85 2.2002
    endloop
  endfacet
  facet normal 1 0 0
    outer loop
      vertex 11.85 59.85 2
      vertex 11.85 57.15 2.2002
      vertex 11.85 57.15 2
    endloop
  endfacet
  facet normal -0 0 1
    outer loop
      vertex 9.15 59.85 2.2002
      vertex 11.85 57.15 2.2002
      vertex 11.85 59.85 2.2002
    endloop
  endfacet
  facet normal 0 0 1
    outer loop
      vertex 11.85 57.15 2.2002
      vertex 9.15 59.85 2.2002
      vertex 9.15 57.15 2.2002
    endloop
  endfacet
  facet normal 0 0 -1
    outer loop
      vertex 9.15 57.15 2
      vertex 11.85 59.85 2
      vertex 11.85 57.15 2
    endloop
  endfacet
  facet normal -0 0 -1
    outer loop
      vertex 11.85 59.85 2
      vertex 9.15 57.15 2
      vertex 9.15 59.85 2
    endloop
  endfacet
  facet normal -1 0 0
    outer loop
      vertex 9.15 57.15 2
      vertex 9.15 59.85 2.2002
      vertex 9.15 59.85 2
    endloop
  endfacet
  facet normal -1 -0 0
    outer loop
      vertex 9.15 59.85 2.2002
      vertex 9.15 57.15 2
      vertex 9.15 57.15 2.2002
    endloop
  endfacet
  facet normal 0 1 -0
    outer loop
      vertex 11.85 59.85 2
      vertex 9.15 59.85 2.2002
      vertex 11.85 59.85 2.2002
    endloop
  endfacet
  facet normal 0 1 0
    outer loop
      vertex 9.15 59.85 2.2002
      vertex 11.85 59.85 2
      vertex 9.15 59.85 2
    endloop
  endfacet
  facet normal 0 -1 0
    outer loop
      vertex 9.15 57.15 2
      vertex 11.85 57.15 2.2002
      vertex 9.15 57.15 2.2002
    endloop
  endfacet
  facet normal 0 -1 -0
    outer loop
      vertex 11.85 57.15 2.2002
      vertex 9.15 57.15 2
      vertex 11.85 57.15 2
    endloop
  endfacet
  facet normal 1 -0 0
    outer loop
      vertex 14.85 57.15 2.2002
      vertex 14.85 59.85 2
      vertex 14.85 59.85 2.2002
    endloop
  endfacet
  facet normal 1 0 0
    outer loop
      vertex 14.85 59.85 2
      vertex 14.85 57.15 2.2002
      vertex 14.85 57.15 2
    endloop
  endfacet
  facet normal -0 0 1
    outer loop
      vertex 12.15 59.85 2.2002
      vertex 14.85 57.15 2.2002
      vertex 14.85 59.85 2.2002
    endloop
  endfacet
  facet normal 0 0 1
    outer loop
      vertex 14.85 57.15 2.2002
      vertex 12.15 59.85 2.2002
      vertex 12.15 57.15 2.2002
    endloop
  endfacet
  facet normal 0 0 -1
    outer loop
      vertex 12.15 57.15 2
      vertex 14.85 59.85 2
      vertex 14.85 57.15 2
    endloop
  endfacet
  facet normal -0 0 -1
    outer loop
      vertex 14.85 59.85 2
      vertex 12.15 57.15 2
      vertex 12.15 59.85 2
    endloop
  endfacet
  facet normal -1 0 0
    outer loop
      vertex 12.15 57.15 2
      vertex 12.15 59.85 2.2002
      vertex 12.15 59.85 2
    endloop
  endfacet
  facet normal -1 -0 0
    outer loop
      vertex 12.15 59.85 2.2002
      vertex 12.15 57.15 2
      vertex 12.15 57.15 2.2002
    endloop
  endfacet
  facet normal 0 1 -0
    outer loop
      vertex 14.85 59.85 2
      vertex 12.15 59.85 2.2002
      vertex 14.85 59.85 2.2002
    endloop
  endfacet
  facet normal 0 1 0
    outer loop
      vertex 12.15 59.85 2.2002
      vertex 14.85 59.85 2
      vertex 12.15 59.85 2
    endloop
  endfacet
  facet normal 0 -1 0
    outer loop
      vertex 12.15 57.15 2
      vertex 14.85 57.15 2.2002
      vertex 12.15 57.15 2.2002
    endloop
  endfacet
  facet normal 0 -1 -0
    outer loop
      vertex 14.85 57.15 2.2002
      vertex 12.15 57.15 2
      vertex 14.85 57.15 2
    endloop
  endfacet
  facet normal 1 -0 0
    outer loop
      vertex 2.85 60.15 2.2002
      vertex 2.85 62.85 2
      vertex 2.85 62.85 2.2002
    endloop
  endfacet
  facet normal 1 0 0
    outer loop
      vertex 2.85 62.85 2
      vertex 2.85 60.15 2.2002
      vertex 2.85 60.15 2
    endloop
  endfacet
  facet normal -0 0 1
    outer loop
      vertex 0.15 62.85 2.2002
      vertex 2.85 60.15 2.2002
      vertex 2.85 62.85 2.2002
    endloop
  endfacet
  facet normal 0 0 1
    outer loop
      vertex 2.85 60.15 2.2002
      vertex 0.15 62.85 2.2002
      vertex 0.15 60.15 2.2002
    endloop
  endfacet
  facet normal 0 0 -1
    outer loop
      vertex 0.15 60.15 2
      vertex 2.85 62.85 2
      vertex 2.85 60.15 2
    endloop
  endfacet
  facet normal -0 0 -1
    outer loop
      vertex 2.85 62.85 2
      vertex 0.15 60.15 2
      vertex 0.15 62.85 2
    endloop
  endfacet
  facet normal -1 0 0
    outer loop
      vertex 0.15 60.15 2
      vertex 0.15 62.85 2.2002
      vertex 0.15 62.85 2
    endloop
  endfacet
  facet normal -1 -0 0
    outer loop
      vertex 0.15 62.85 2.2002
      vertex 0.15 60.15 2
      vertex 0.15 60.15 2.2002
    endloop
  endfacet
  facet normal 0 1 -0
    outer loop
      vertex 2.85 62.85 2
      vertex 0.15 62.85 2.2002
      vertex 2.85 62.85 2.2002
    endloop
  endfacet
  facet normal 0 1 0
    outer loop
      vertex 0.15 62.85 2.2002
      vertex 2.85 62.85 2
      vertex 0.15 62.85 2
    endloop
  endfacet
  facet normal 0 -1 0
    outer loop
      vertex 0.15 60.15 2
      vertex 2.85 60.15 2.2002
      vertex 0.15 60.15 2.2002
    endloop
  endfacet
  facet normal 0 -1 -0
    outer loop
      vertex 2.85 60.15 2.2002
      vertex 0.15 60.15 2
      vertex 2.85 60.15 2
    endloop
  endfacet
  facet normal 1 -0 0
    outer loop
      vertex 20.85 60.15 2.2002
      vertex 20.85 62.85 2
      vertex 20.85 62.85 2.2002
    endloop
  endfacet
  facet normal 1 0 0
    outer loop
      vertex 20.85 62.85 2
      vertex 20.85 60.15 2.2002
      vertex 20.85 60.15 2
    endloop
  endfacet
  facet normal -0 0 1
    outer loop
      vertex 18.15 62.85 2.2002
      vertex 20.85 60.15 2.2002
      vertex 20.85 62.85 2.2002
    endloop
  endfacet
  facet normal 0 0 1
    outer loop
      vertex 20.85 60.15 2.2002
      vertex 18.15 62.85 2.2002
      vertex 18.15 60.15 2.2002
    endloop
  endfacet
  facet normal 0 0 -1
    outer loop
      vertex 18.15 60.15 2
      vertex 20.85 62.85 2
      vertex 20.85 60.15 2
    endloop
  endfacet
  facet normal -0 0 -1
    outer loop
      vertex 20.85 62.85 2
      vertex 18.15 60.15 2
      vertex 18.15 62.85 2
    endloop
  endfacet
  facet normal -1 0 0
    outer loop
      vertex 18.15 60.15 2
      vertex 18.15 62.85 2.2002
      vertex 18.15 62.85 2
    endloop
  endfacet
  facet normal -1 -0 0
    outer loop
      vertex 18.15 62.85 2.2002
      vertex 18.15 60.15 2
      vertex 18.15 60.15 2.2002
    endloop
  endfacet
  facet normal 0 1 -0
    outer loop
      vertex 20.85 62.85 2
      vertex 18.15 62.85 2.2002
      vertex 20.85 62.85 2.2002
    endloop
  endfacet
  facet normal 0 1 0
    outer loop
      vertex 18.15 62.85 2.2002
      vertex 20.85 62.85 2
      vertex 18.15 62.85 2
    endloop
  endfacet
  facet normal 0 -1 0
    outer loop
      vertex 18.15 60.15 2
      vertex 20.85 60.15 2.2002
      vertex 18.15 60.15 2.2002
    endloop
  endfacet
  facet normal 0 -1 -0
    outer loop
      vertex 20.85 60.15 2.2002
      vertex 18.15 60.15 2
      vertex 20.85 60.15 2
    endloop
  endfacet
  facet normal 1 -0 0
    outer loop
      vertex 23.85 60.15 2.2002
      vertex 23.85 62.85 2
      vertex 23.85 62.85 2.2002
    endloop
  endfacet
  facet normal 1 0 0
    outer loop
      vertex 23.85 62.85 2
      vertex 23.85 60.15 2.2002
      vertex 23.85 60.15 2
    endloop
  endfacet
  facet normal -0 0 1
    outer loop
      vertex 21.15 62.85 2.2002
      vertex 23.85 60.15 2.2002
      vertex 23.85 62.85 2.2002
    endloop
  endfacet
  facet normal 0 0 1
    outer loop
      vertex 23.85 60.15 2.2002
      vertex 21.15 62.85 2.2002
      vertex 21.15 60.15 2.2002
    endloop
  endfacet
  facet normal 0 0 -1
    outer loop
      vertex 21.15 60.15 2
      vertex 23.85 62.85 2
      vertex 23.85 60.15 2
    endloop
  endfacet
  facet normal -0 0 -1
    outer loop
      vertex 23.85 62.85 2
      vertex 21.15 60.15 2
      vertex 21.15 62.85 2
    endloop
  endfacet
  facet normal -1 0 0
    outer loop
      vertex 21.15 60.15 2
      vertex 21.15 62.85 2.2002
      vertex 21.15 62.85 2
    endloop
  endfacet
  facet normal -1 -0 0
    outer loop
      vertex 21.15 62.85 2.2002
      vertex 21.15 60.15 2
      vertex 21.15 60.15 2.2002
    endloop
  endfacet
  facet normal 0 1 -0
    outer loop
      vertex 23.85 62.85 2
      vertex 21.15 62.85 2.2002
      vertex 23.85 62.85 2.2002
    endloop
  endfacet
  facet normal 0 1 0
    outer loop
      vertex 21.15 62.85 2.2002
      vertex 23.85 62.85 2
      vertex 21.15 62.85 2
    endloop
  endfacet
  facet normal 0 -1 0
    outer loop
      vertex 21.15 60.15 2
      vertex 23.85 60.15 2.2002
      vertex 21.15 60.15 2.2002
    endloop
  endfacet
  facet normal 0 -1 -0
    outer loop
      vertex 23.85 60.15 2.2002
      vertex 21.15 60.15 2
      vertex 23.85 60.15 2
    endloop
  endfacet
  facet normal 1 -0 0
    outer loop
      vertex 26.85 60.15 2.2002
      vertex 26.85 62.85 2
      vertex 26.85 62.85 2.2002
    endloop
  endfacet
  facet normal 1 0 0
    outer loop
      vertex 26.85 62.85 2
      vertex 26.85 60.15 2.2002
      vertex 26.85 60.15 2
    endloop
  endfacet
  facet normal -0 0 1
    outer loop
      vertex 24.15 62.85 2.2002
      vertex 26.85 60.15 2.2002
      vertex 26.85 62.85 2.2002
    endloop
  endfacet
  facet normal 0 0 1
    outer loop
      vertex 26.85 60.15 2.2002
      vertex 24.15 62.85 2.2002
      vertex 24.15 60.15 2.2002
    endloop
  endfacet
  facet normal 0 0 -1
    outer loop
      vertex 24.15 60.15 2
      vertex 26.85 62.85 2
      vertex 26.85 60.15 2
    endloop
  endfacet
  facet normal -0 0 -1
    outer loop
      vertex 26.85 62.85 2
      vertex 24.15 60.15 2
      vertex 24.15 62.85 2
    endloop
  endfacet
  facet normal -1 0 0
    outer loop
      vertex 24.15 60.15 2
      vertex 24.15 62.85 2.2002
      vertex 24.15 62.85 2
    endloop
  endfacet
  facet normal -1 -0 0
    outer loop
      vertex 24.15 62.85 2.2002
      vertex 24.15 60.15 2
      vertex 24.15 60.15 2.2002
    endloop
  endfacet
  facet normal 0 1 -0
    outer loop
      vertex 26.85 62.85 2
      vertex 24.15 62.85 2.2002
      vertex 26.85 62.85 2.2002
    endloop
  endfacet
  facet normal 0 1 0
    outer loop
      vertex 24.15 62.85 2.2002
      vertex 26.85 62.85 2
      vertex 24.15 62.85 2
    endloop
  endfacet
  facet normal 0 -1 0
    outer loop
      vertex 24.15 60.15 2
      vertex 26.85 60.15 2.2002
      vertex 24.15 60.15 2.2002
    endloop
  endfacet
  facet normal 0 -1 -0
    outer loop
      vertex 26.85 60.15 2.2002
      vertex 24.15 60.15 2
      vertex 26.85 60.15 2
    endloop
  endfacet
  facet normal 1 -0 0
    outer loop
      vertex 5.85 63.15 2.2002
      vertex 5.85 65.85 2
      vertex 5.85 65.85 2.2002
    endloop
  endfacet
  facet normal 1 0 0
    outer loop
      vertex 5.85 65.85 2
      vertex 5.85 63.15 2.2002
      vertex 5.85 63.15 2
    endloop
  endfacet
  facet normal -0 0 1
    outer loop
      vertex 3.15 65.85 2.2002
      vertex 5.85 63.15 2.2002
      vertex 5.85 65.85 2.2002
    endloop
  endfacet
  facet normal 0 0 1
    outer loop
      vertex 5.85 63.15 2.2002
      vertex 3.15 65.85 2.2002
      vertex 3.15 63.15 2.2002
    endloop
  endfacet
  facet normal 0 0 -1
    outer loop
      vertex 3.15 63.15 2
      vertex 5.85 65.85 2
      vertex 5.85 63.15 2
    endloop
  endfacet
  facet normal -0 0 -1
    outer loop
      vertex 5.85 65.85 2
      vertex 3.15 63.15 2
      vertex 3.15 65.85 2
    endloop
  endfacet
  facet normal -1 0 0
    outer loop
      vertex 3.15 63.15 2
      vertex 3.15 65.85 2.2002
      vertex 3.15 65.85 2
    endloop
  endfacet
  facet normal -1 -0 0
    outer loop
      vertex 3.15 65.85 2.2002
      vertex 3.15 63.15 2
      vertex 3.15 63.15 2.2002
    endloop
  endfacet
  facet normal 0 1 -0
    outer loop
      vertex 5.85 65.85 2
      vertex 3.15 65.85 2.2002
      vertex 5.85 65.85 2.2002
    endloop
  endfacet
  facet normal 0 1 0
    outer loop
      vertex 3.15 65.85 2.2002
      vertex 5.85 65.85 2
      vertex 3.15 65.85 2
    endloop
  endfacet
  facet normal 0 -1 0
    outer loop
      vertex 3.15 63.15 2
      vertex 5.85 63.15 2.2002
      vertex 3.15 63.15 2.2002
    endloop
  endfacet
  facet normal 0 -1 -0
    outer loop
      vertex 5.85 63.15 2.2002
      vertex 3.15 63.15 2
      vertex 5.85 63.15 2
    endloop
  endfacet
  facet normal 1 -0 0
    outer loop
      vertex 8.85 63.15 2.2002
      vertex 8.85 65.85 2
      vertex 8.85 65.85 2.2002
    endloop
  endfacet
  facet normal 1 0 0
    outer loop
      vertex 8.85 65.85 2
      vertex 8.85 63.15 2.2002
      vertex 8.85 63.15 2
    endloop
  endfacet
  facet normal -0 0 1
    outer loop
      vertex 6.15 65.85 2.2002
      vertex 8.85 63.15 2.2002
      vertex 8.85 65.85 2.2002
    endloop
  endfacet
  facet normal 0 0 1
    outer loop
      vertex 8.85 63.15 2.2002
      vertex 6.15 65.85 2.2002
      vertex 6.15 63.15 2.2002
    endloop
  endfacet
  facet normal 0 0 -1
    outer loop
      vertex 6.15 63.15 2
      vertex 8.85 65.85 2
      vertex 8.85 63.15 2
    endloop
  endfacet
  facet normal -0 0 -1
    outer loop
      vertex 8.85 65.85 2
      vertex 6.15 63.15 2
      vertex 6.15 65.85 2
    endloop
  endfacet
  facet normal -1 0 0
    outer loop
      vertex 6.15 63.15 2
      vertex 6.15 65.85 2.2002
      vertex 6.15 65.85 2
    endloop
  endfacet
  facet normal -1 -0 0
    outer loop
      vertex 6.15 65.85 2.2002
      vertex 6.15 63.15 2
      vertex 6.15 63.15 2.2002
    endloop
  endfacet
  facet normal 0 1 -0
    outer loop
      vertex 8.85 65.85 2
      vertex 6.15 65.85 2.2002
      vertex 8.85 65.85 2.2002
    endloop
  endfacet
  facet normal 0 1 0
    outer loop
      vertex 6.15 65.85 2.2002
      vertex 8.85 65.85 2
      vertex 6.15 65.85 2
    endloop
  endfacet
  facet normal 0 -1 0
    outer loop
      vertex 6.15 63.15 2
      vertex 8.85 63.15 2.2002
      vertex 6.15 63.15 2.2002
    endloop
  endfacet
  facet normal 0 -1 -0
    outer loop
      vertex 8.85 63.15 2.2002
      vertex 6.15 63.15 2
      vertex 8.85 63.15 2
    endloop
  endfacet
  facet normal 1 -0 0
    outer loop
      vertex 11.85 63.15 2.2002
      vertex 11.85 65.85 2
      vertex 11.85 65.85 2.2002
    endloop
  endfacet
  facet normal 1 0 0
    outer loop
      vertex 11.85 65.85 2
      vertex 11.85 63.15 2.2002
      vertex 11.85 63.15 2
    endloop
  endfacet
  facet normal -0 0 1
    outer loop
      vertex 9.15 65.85 2.2002
      vertex 11.85 63.15 2.2002
      vertex 11.85 65.85 2.2002
    endloop
  endfacet
  facet normal 0 0 1
    outer loop
      vertex 11.85 63.15 2.2002
      vertex 9.15 65.85 2.2002
      vertex 9.15 63.15 2.2002
    endloop
  endfacet
  facet normal 0 0 -1
    outer loop
      vertex 9.15 63.15 2
      vertex 11.85 65.85 2
      vertex 11.85 63.15 2
    endloop
  endfacet
  facet normal -0 0 -1
    outer loop
      vertex 11.85 65.85 2
      vertex 9.15 63.15 2
      vertex 9.15 65.85 2
    endloop
  endfacet
  facet normal -1 0 0
    outer loop
      vertex 9.15 63.15 2
      vertex 9.15 65.85 2.2002
      vertex 9.15 65.85 2
    endloop
  endfacet
  facet normal -1 -0 0
    outer loop
      vertex 9.15 65.85 2.2002
      vertex 9.15 63.15 2
      vertex 9.15 63.15 2.2002
    endloop
  endfacet
  facet normal 0 1 -0
    outer loop
      vertex 11.85 65.85 2
      vertex 9.15 65.85 2.2002
      vertex 11.85 65.85 2.2002
    endloop
  endfacet
  facet normal 0 1 0
    outer loop
      vertex 9.15 65.85 2.2002
      vertex 11.85 65.85 2
      vertex 9.15 65.85 2
    endloop
  endfacet
  facet normal 0 -1 0
    outer loop
      vertex 9.15 63.15 2
      vertex 11.85 63.15 2.2002
      vertex 9.15 63.15 2.2002
    endloop
  endfacet
  facet normal 0 -1 -0
    outer loop
      vertex 11.85 63.15 2.2002
      vertex 9.15 63.15 2
      vertex 11.85 63.15 2
    endloop
  endfacet
  facet normal 1 -0 0
    outer loop
      vertex 14.85 63.15 2.2002
      vertex 14.85 65.85 2
      vertex 14.85 65.85 2.2002
    endloop
  endfacet
  facet normal 1 0 0
    outer loop
      vertex 14.85 65.85 2
      vertex 14.85 63.15 2.2002
      vertex 14.85 63.15 2
    endloop
  endfacet
  facet normal -0 0 1
    outer loop
      vertex 12.15 65.85 2.2002
      vertex 14.85 63.15 2.2002
      vertex 14.85 65.85 2.2002
    endloop
  endfacet
  facet normal 0 0 1
    outer loop
      vertex 14.85 63.15 2.2002
      vertex 12.15 65.85 2.2002
      vertex 12.15 63.15 2.2002
    endloop
  endfacet
  facet normal 0 0 -1
    outer loop
      vertex 12.15 63.15 2
      vertex 14.85 65.85 2
      vertex 14.85 63.15 2
    endloop
  endfacet
  facet normal -0 0 -1
    outer loop
      vertex 14.85 65.85 2
      vertex 12.15 63.15 2
      vertex 12.15 65.85 2
    endloop
  endfacet
  facet normal -1 0 0
    outer loop
      vertex 12.15 63.15 2
      vertex 12.15 65.85 2.2002
      vertex 12.15 65.85 2
    endloop
  endfacet
  facet normal -1 -0 0
    outer loop
      vertex 12.15 65.85 2.2002
      vertex 12.15 63.15 2
      vertex 12.15 63.15 2.2002
    endloop
  endfacet
  facet normal 0 1 -0
    outer loop
      vertex 14.85 65.85 2
      vertex 12.15 65.85 2.2002
      vertex 14.85 65.85 2.2002
    endloop
  endfacet
  facet normal 0 1 0
    outer loop
      vertex 12.15 65.85 2.2002
      vertex 14.85 65.85 2
      vertex 12.15 65.85 2
    endloop
  endfacet
  facet normal 0 -1 0
    outer loop
      vertex 12.15 63.15 2
      vertex 14.85 63.15 2.2002
      vertex 12.15 63.15 2.2002
    endloop
  endfacet
  facet normal 0 -1 -0
    outer loop
      vertex 14.85 63.15 2.2002
      vertex 12.15 63.15 2
      vertex 14.85 63.15 2
    endloop
  endfacet
  facet normal 1 -0 0
    outer loop
      vertex 17.85 63.15 2.2002
      vertex 17.85 65.85 2
      vertex 17.85 65.85 2.2002
    endloop
  endfacet
  facet normal 1 0 0
    outer loop
      vertex 17.85 65.85 2
      vertex 17.85 63.15 2.2002
      vertex 17.85 63.15 2
    endloop
  endfacet
  facet normal -0 0 1
    outer loop
      vertex 15.15 65.85 2.2002
      vertex 17.85 63.15 2.2002
      vertex 17.85 65.85 2.2002
    endloop
  endfacet
  facet normal 0 0 1
    outer loop
      vertex 17.85 63.15 2.2002
      vertex 15.15 65.85 2.2002
      vertex 15.15 63.15 2.2002
    endloop
  endfacet
  facet normal 0 0 -1
    outer loop
      vertex 15.15 63.15 2
      vertex 17.85 65.85 2
      vertex 17.85 63.15 2
    endloop
  endfacet
  facet normal -0 0 -1
    outer loop
      vertex 17.85 65.85 2
      vertex 15.15 63.15 2
      vertex 15.15 65.85 2
    endloop
  endfacet
  facet normal -1 0 0
    outer loop
      vertex 15.15 63.15 2
      vertex 15.15 65.85 2.2002
      vertex 15.15 65.85 2
    endloop
  endfacet
  facet normal -1 -0 0
    outer loop
      vertex 15.15 65.85 2.2002
      vertex 15.15 63.15 2
      vertex 15.15 63.15 2.2002
    endloop
  endfacet
  facet normal 0 1 -0
    outer loop
      vertex 17.85 65.85 2
      vertex 15.15 65.85 2.2002
      vertex 17.85 65.85 2.2002
    endloop
  endfacet
  facet normal 0 1 0
    outer loop
      vertex 15.15 65.85 2.2002
      vertex 17.85 65.85 2
      vertex 15.15 65.85 2
    endloop
  endfacet
  facet normal 0 -1 0
    outer loop
      vertex 15.15 63.15 2
      vertex 17.85 63.15 2.2002
      vertex 15.15 63.15 2.2002
    endloop
  endfacet
  facet normal 0 -1 -0
    outer loop
      vertex 17.85 63.15 2.2002
      vertex 15.15 63.15 2
      vertex 17.85 63.15 2
    endloop
  endfacet
endsolid OpenSCAD_Model
