solid OpenSCAD_Model
  facet normal 1 -0 0
    outer loop
      vertex 1.9 0.0999994 0.400399
      vertex 1.9 1.9 0.200199
      vertex 1.9 1.9 0.400399
    endloop
  endfacet
  facet normal 1 0 0
    outer loop
      vertex 1.9 1.9 0.200199
      vertex 1.9 0.0999994 0.400399
      vertex 1.9 0.0999994 0.200199
    endloop
  endfacet
  facet normal -0 0 1
    outer loop
      vertex 0.0999994 1.9 0.400399
      vertex 1.9 0.0999994 0.400399
      vertex 1.9 1.9 0.400399
    endloop
  endfacet
  facet normal 0 0 1
    outer loop
      vertex 1.9 0.0999994 0.400399
      vertex 0.0999994 1.9 0.400399
      vertex 0.0999994 0.0999994 0.400399
    endloop
  endfacet
  facet normal 0 0 -1
    outer loop
      vertex 0.0999994 0.0999994 0.200199
      vertex 1.9 1.9 0.200199
      vertex 1.9 0.0999994 0.200199
    endloop
  endfacet
  facet normal -0 0 -1
    outer loop
      vertex 1.9 1.9 0.200199
      vertex 0.0999994 0.0999994 0.200199
      vertex 0.0999994 1.9 0.200199
    endloop
  endfacet
  facet normal -1 0 0
    outer loop
      vertex 0.0999994 0.0999994 0.200199
      vertex 0.0999994 1.9 0.400399
      vertex 0.0999994 1.9 0.200199
    endloop
  endfacet
  facet normal -1 -0 0
    outer loop
      vertex 0.0999994 1.9 0.400399
      vertex 0.0999994 0.0999994 0.200199
      vertex 0.0999994 0.0999994 0.400399
    endloop
  endfacet
  facet normal 0 1 -0
    outer loop
      vertex 1.9 1.9 0.200199
      vertex 0.0999994 1.9 0.400399
      vertex 1.9 1.9 0.400399
    endloop
  endfacet
  facet normal 0 1 0
    outer loop
      vertex 0.0999994 1.9 0.400399
      vertex 1.9 1.9 0.200199
      vertex 0.0999994 1.9 0.200199
    endloop
  endfacet
  facet normal 0 -1 0
    outer loop
      vertex 0.0999994 0.0999994 0.200199
      vertex 1.9 0.0999994 0.400399
      vertex 0.0999994 0.0999994 0.400399
    endloop
  endfacet
  facet normal 0 -1 -0
    outer loop
      vertex 1.9 0.0999994 0.400399
      vertex 0.0999994 0.0999994 0.200199
      vertex 1.9 0.0999994 0.200199
    endloop
  endfacet
  facet normal 0 0 1
    outer loop
      vertex 8 8 1
      vertex 6 8 1
      vertex 8 6 1
    endloop
  endfacet
  facet normal 0 0 1
    outer loop
      vertex 18 6 1
      vertex 20 8 1
      vertex 18 8 1
    endloop
  endfacet
  facet normal 0 0 1
    outer loop
      vertex 20 8 1
      vertex 18 6 1
      vertex 20 4 1
    endloop
  endfacet
  facet normal 0 0 1
    outer loop
      vertex 18 6 1
      vertex 18 4 1
      vertex 20 4 1
    endloop
  endfacet
  facet normal -0 0 1
    outer loop
      vertex 8 6 1
      vertex 18 4 1
      vertex 18 6 1
    endloop
  endfacet
  facet normal 0 0 1
    outer loop
      vertex 18 4 1
      vertex 8 6 1
      vertex 18 2 1
    endloop
  endfacet
  facet normal -0 0 1
    outer loop
      vertex 18 2 1
      vertex 20 0 1
      vertex 20 2 1
    endloop
  endfacet
  facet normal 0 0 1
    outer loop
      vertex 6 2 1
      vertex 18 2 1
      vertex 8 6 1
    endloop
  endfacet
  facet normal 0 0 1
    outer loop
      vertex 6 4 1
      vertex 8 6 1
      vertex 6 8 1
    endloop
  endfacet
  facet normal 0 0 1
    outer loop
      vertex 6 2 1
      vertex 8 6 1
      vertex 6 4 1
    endloop
  endfacet
  facet normal 0 0 1
    outer loop
      vertex 18 2 1
      vertex 6 2 1
      vertex 20 0 1
    endloop
  endfacet
  facet normal 0 0 1
    outer loop
      vertex 2 0 1
      vertex 6 2 1
      vertex 4 2 1
    endloop
  endfacet
  facet normal 0 0 1
    outer loop
      vertex 6 2 1
      vertex 2 0 1
      vertex 20 0 1
    endloop
  endfacet
  facet normal 0 0 1
    outer loop
      vertex 4 4 1
      vertex 2 0 1
      vertex 4 2 1
    endloop
  endfacet
  facet normal -0 0 1
    outer loop
      vertex 12 22 1
      vertex 16 20 1
      vertex 16 22 1
    endloop
  endfacet
  facet normal 0 0 1
    outer loop
      vertex 16 20 1
      vertex 12 22 1
      vertex 12 20 1
    endloop
  endfacet
  facet normal 0 0 1
    outer loop
      vertex 20 32 1
      vertex 18 30 1
      vertex 20 30 1
    endloop
  endfacet
  facet normal 0 0 1
    outer loop
      vertex 18 30 1
      vertex 16 26 1
      vertex 18 28 1
    endloop
  endfacet
  facet normal 0 0 1
    outer loop
      vertex 18 30 1
      vertex 12 26 1
      vertex 16 26 1
    endloop
  endfacet
  facet normal 0 0 1
    outer loop
      vertex 6 30 1
      vertex 18 30 1
      vertex 20 32 1
    endloop
  endfacet
  facet normal 0 0 1
    outer loop
      vertex 6 28 1
      vertex 12 22 1
      vertex 12 26 1
    endloop
  endfacet
  facet normal 0 0 1
    outer loop
      vertex 6 16 1
      vertex 12 22 1
      vertex 6 28 1
    endloop
  endfacet
  facet normal -0 0 1
    outer loop
      vertex 6 28 1
      vertex 12 26 1
      vertex 6 30 1
    endloop
  endfacet
  facet normal 0 0 1
    outer loop
      vertex 18 30 1
      vertex 6 30 1
      vertex 12 26 1
    endloop
  endfacet
  facet normal -0 0 1
    outer loop
      vertex 2 32 1
      vertex 6 30 1
      vertex 20 32 1
    endloop
  endfacet
  facet normal 0 0 1
    outer loop
      vertex 2 32 1
      vertex 4 28 1
      vertex 4 30 1
    endloop
  endfacet
  facet normal 0 0 1
    outer loop
      vertex 4 28 1
      vertex 2 32 1
      vertex 4 4 1
    endloop
  endfacet
  facet normal 0 0 1
    outer loop
      vertex 2 0 1
      vertex 4 4 1
      vertex 2 32 1
    endloop
  endfacet
  facet normal 0 0 1
    outer loop
      vertex 6 30 1
      vertex 2 32 1
      vertex 4 30 1
    endloop
  endfacet
  facet normal 0 0 1
    outer loop
      vertex 16 26 1
      vertex 20 28 1
      vertex 18 28 1
    endloop
  endfacet
  facet normal 0 0 1
    outer loop
      vertex 20 28 1
      vertex 16 26 1
      vertex 16 22 1
    endloop
  endfacet
  facet normal 0 0 1
    outer loop
      vertex 20 28 1
      vertex 16 22 1
      vertex 20 14 1
    endloop
  endfacet
  facet normal -0 0 1
    outer loop
      vertex 16 20 1
      vertex 20 14 1
      vertex 16 22 1
    endloop
  endfacet
  facet normal -0 0 1
    outer loop
      vertex 16 16 1
      vertex 20 14 1
      vertex 16 20 1
    endloop
  endfacet
  facet normal 0 0 1
    outer loop
      vertex 16 16 1
      vertex 16 14 1
      vertex 20 14 1
    endloop
  endfacet
  facet normal 0 0 1
    outer loop
      vertex 12 14 1
      vertex 16 14 1
      vertex 16 16 1
    endloop
  endfacet
  facet normal 0 0 1
    outer loop
      vertex 12 14 1
      vertex 16 16 1
      vertex 12 16 1
    endloop
  endfacet
  facet normal 0 0 1
    outer loop
      vertex 16 14 1
      vertex 12 14 1
      vertex 16 8 1
    endloop
  endfacet
  facet normal 0 0 1
    outer loop
      vertex 10 8 1
      vertex 12 14 1
      vertex 10 14 1
    endloop
  endfacet
  facet normal 0 0 1
    outer loop
      vertex 12 14 1
      vertex 10 8 1
      vertex 16 8 1
    endloop
  endfacet
  facet normal 0 0 1
    outer loop
      vertex 12 22 1
      vertex 6 16 1
      vertex 12 20 1
    endloop
  endfacet
  facet normal 0 0 1
    outer loop
      vertex 12 20 1
      vertex 6 16 1
      vertex 12 16 1
    endloop
  endfacet
  facet normal -0 0 1
    outer loop
      vertex 4 28 1
      vertex 6 16 1
      vertex 6 28 1
    endloop
  endfacet
  facet normal 0 0 1
    outer loop
      vertex 4 4 1
      vertex 6 16 1
      vertex 4 28 1
    endloop
  endfacet
  facet normal 0 0 1
    outer loop
      vertex 6 16 1
      vertex 4 4 1
      vertex 6 8 1
    endloop
  endfacet
  facet normal 0 0 1
    outer loop
      vertex 6 8 1
      vertex 4 4 1
      vertex 6 4 1
    endloop
  endfacet
  facet normal 0 0 -1
    outer loop
      vertex 2 0 0
      vertex 20 32 0
      vertex 20 0 0
    endloop
  endfacet
  facet normal -0 0 -1
    outer loop
      vertex 20 32 0
      vertex 2 0 0
      vertex 2 32 0
    endloop
  endfacet
  facet normal -1 0 0
    outer loop
      vertex 2 0 0
      vertex 2 32 1
      vertex 2 32 0
    endloop
  endfacet
  facet normal -1 -0 0
    outer loop
      vertex 2 32 1
      vertex 2 0 0
      vertex 2 0 1
    endloop
  endfacet
  facet normal 0 -1 0
    outer loop
      vertex 4 2 1
      vertex 6 2 2
      vertex 4 2 2
    endloop
  endfacet
  facet normal 0 -1 -0
    outer loop
      vertex 6 2 2
      vertex 4 2 1
      vertex 6 2 1
    endloop
  endfacet
  facet normal 0 -1 0
    outer loop
      vertex 2 0 0
      vertex 20 0 1
      vertex 2 0 1
    endloop
  endfacet
  facet normal 0 -1 -0
    outer loop
      vertex 20 0 1
      vertex 2 0 0
      vertex 20 0 0
    endloop
  endfacet
  facet normal 1 -0 0
    outer loop
      vertex 6 2 2
      vertex 6 4 1
      vertex 6 4 2
    endloop
  endfacet
  facet normal 1 0 0
    outer loop
      vertex 6 4 1
      vertex 6 2 2
      vertex 6 2 1
    endloop
  endfacet
  facet normal -1 0 0
    outer loop
      vertex 18 2 1
      vertex 18 4 2
      vertex 18 4 1
    endloop
  endfacet
  facet normal -1 -0 0
    outer loop
      vertex 18 4 2
      vertex 18 2 1
      vertex 18 2 2
    endloop
  endfacet
  facet normal 1 0 0
    outer loop
      vertex 20 4 2
      vertex 20 2 2
      vertex 20 4 1
    endloop
  endfacet
  facet normal 1 0 0
    outer loop
      vertex 20 14 2
      vertex 20 8 2
      vertex 20 14 1
    endloop
  endfacet
  facet normal 1 0 0
    outer loop
      vertex 20 30 2
      vertex 20 28 2
      vertex 20 30 1
    endloop
  endfacet
  facet normal 1 -0 0
    outer loop
      vertex 20 30 1
      vertex 20 32 0
      vertex 20 32 1
    endloop
  endfacet
  facet normal 1 0 0
    outer loop
      vertex 20 28 1
      vertex 20 30 1
      vertex 20 28 2
    endloop
  endfacet
  facet normal 1 0 0
    outer loop
      vertex 20 30 1
      vertex 20 28 1
      vertex 20 32 0
    endloop
  endfacet
  facet normal 1 -0 0
    outer loop
      vertex 20 14 1
      vertex 20 32 0
      vertex 20 28 1
    endloop
  endfacet
  facet normal 1 0 0
    outer loop
      vertex 20 8 1
      vertex 20 14 1
      vertex 20 8 2
    endloop
  endfacet
  facet normal 1 0 0
    outer loop
      vertex 20 0 0
      vertex 20 14 1
      vertex 20 8 1
    endloop
  endfacet
  facet normal 1 0 0
    outer loop
      vertex 20 0 0
      vertex 20 8 1
      vertex 20 4 1
    endloop
  endfacet
  facet normal 1 0 0
    outer loop
      vertex 20 2 1
      vertex 20 4 1
      vertex 20 2 2
    endloop
  endfacet
  facet normal 1 0 0
    outer loop
      vertex 20 0 0
      vertex 20 4 1
      vertex 20 2 1
    endloop
  endfacet
  facet normal 1 0 0
    outer loop
      vertex 20 0 0
      vertex 20 2 1
      vertex 20 0 1
    endloop
  endfacet
  facet normal 1 0 0
    outer loop
      vertex 20 14 1
      vertex 20 0 0
      vertex 20 32 0
    endloop
  endfacet
  facet normal 0 -1 0
    outer loop
      vertex 18 2 1
      vertex 20 2 2
      vertex 18 2 2
    endloop
  endfacet
  facet normal 0 -1 -0
    outer loop
      vertex 20 2 2
      vertex 18 2 1
      vertex 20 2 1
    endloop
  endfacet
  facet normal 1 -0 0
    outer loop
      vertex 1.9 2.1 0.400399
      vertex 1.9 3.9 0.200199
      vertex 1.9 3.9 0.400399
    endloop
  endfacet
  facet normal 1 0 0
    outer loop
      vertex 1.9 3.9 0.200199
      vertex 1.9 2.1 0.400399
      vertex 1.9 2.1 0.200199
    endloop
  endfacet
  facet normal -0 0 1
    outer loop
      vertex 0.0999994 3.9 0.400399
      vertex 1.9 2.1 0.400399
      vertex 1.9 3.9 0.400399
    endloop
  endfacet
  facet normal 0 0 1
    outer loop
      vertex 1.9 2.1 0.400399
      vertex 0.0999994 3.9 0.400399
      vertex 0.0999994 2.1 0.400399
    endloop
  endfacet
  facet normal 0 0 -1
    outer loop
      vertex 0.0999994 2.1 0.200199
      vertex 1.9 3.9 0.200199
      vertex 1.9 2.1 0.200199
    endloop
  endfacet
  facet normal -0 0 -1
    outer loop
      vertex 1.9 3.9 0.200199
      vertex 0.0999994 2.1 0.200199
      vertex 0.0999994 3.9 0.200199
    endloop
  endfacet
  facet normal -1 0 0
    outer loop
      vertex 0.0999994 2.1 0.200199
      vertex 0.0999994 3.9 0.400399
      vertex 0.0999994 3.9 0.200199
    endloop
  endfacet
  facet normal -1 -0 0
    outer loop
      vertex 0.0999994 3.9 0.400399
      vertex 0.0999994 2.1 0.200199
      vertex 0.0999994 2.1 0.400399
    endloop
  endfacet
  facet normal 0 1 -0
    outer loop
      vertex 1.9 3.9 0.200199
      vertex 0.0999994 3.9 0.400399
      vertex 1.9 3.9 0.400399
    endloop
  endfacet
  facet normal 0 1 0
    outer loop
      vertex 0.0999994 3.9 0.400399
      vertex 1.9 3.9 0.200199
      vertex 0.0999994 3.9 0.200199
    endloop
  endfacet
  facet normal 0 -1 0
    outer loop
      vertex 0.0999994 2.1 0.200199
      vertex 1.9 2.1 0.400399
      vertex 0.0999994 2.1 0.400399
    endloop
  endfacet
  facet normal 0 -1 -0
    outer loop
      vertex 1.9 2.1 0.400399
      vertex 0.0999994 2.1 0.200199
      vertex 1.9 2.1 0.200199
    endloop
  endfacet
  facet normal -1 0 0
    outer loop
      vertex 4 2 1
      vertex 4 4 2
      vertex 4 4 1
    endloop
  endfacet
  facet normal -1 -0 0
    outer loop
      vertex 4 4 2
      vertex 4 2 1
      vertex 4 2 2
    endloop
  endfacet
  facet normal -0 0 1
    outer loop
      vertex 4 4 2
      vertex 6 2 2
      vertex 6 4 2
    endloop
  endfacet
  facet normal 0 0 1
    outer loop
      vertex 6 2 2
      vertex 4 4 2
      vertex 4 2 2
    endloop
  endfacet
  facet normal 0 1 -0
    outer loop
      vertex 6 4 1
      vertex 4 4 2
      vertex 6 4 2
    endloop
  endfacet
  facet normal 0 1 0
    outer loop
      vertex 4 4 2
      vertex 6 4 1
      vertex 4 4 1
    endloop
  endfacet
  facet normal -0 0 1
    outer loop
      vertex 18 4 2
      vertex 20 2 2
      vertex 20 4 2
    endloop
  endfacet
  facet normal 0 0 1
    outer loop
      vertex 20 2 2
      vertex 18 4 2
      vertex 18 2 2
    endloop
  endfacet
  facet normal 0 1 -0
    outer loop
      vertex 20 4 1
      vertex 18 4 2
      vertex 20 4 2
    endloop
  endfacet
  facet normal 0 1 0
    outer loop
      vertex 18 4 2
      vertex 20 4 1
      vertex 18 4 1
    endloop
  endfacet
  facet normal 1 -0 0
    outer loop
      vertex 1.9 4.1 0.400399
      vertex 1.9 5.9 0.200199
      vertex 1.9 5.9 0.400399
    endloop
  endfacet
  facet normal 1 0 0
    outer loop
      vertex 1.9 5.9 0.200199
      vertex 1.9 4.1 0.400399
      vertex 1.9 4.1 0.200199
    endloop
  endfacet
  facet normal -0 0 1
    outer loop
      vertex 0.0999994 5.9 0.400399
      vertex 1.9 4.1 0.400399
      vertex 1.9 5.9 0.400399
    endloop
  endfacet
  facet normal 0 0 1
    outer loop
      vertex 1.9 4.1 0.400399
      vertex 0.0999994 5.9 0.400399
      vertex 0.0999994 4.1 0.400399
    endloop
  endfacet
  facet normal 0 0 -1
    outer loop
      vertex 0.0999994 4.1 0.200199
      vertex 1.9 5.9 0.200199
      vertex 1.9 4.1 0.200199
    endloop
  endfacet
  facet normal -0 0 -1
    outer loop
      vertex 1.9 5.9 0.200199
      vertex 0.0999994 4.1 0.200199
      vertex 0.0999994 5.9 0.200199
    endloop
  endfacet
  facet normal -1 0 0
    outer loop
      vertex 0.0999994 4.1 0.200199
      vertex 0.0999994 5.9 0.400399
      vertex 0.0999994 5.9 0.200199
    endloop
  endfacet
  facet normal -1 -0 0
    outer loop
      vertex 0.0999994 5.9 0.400399
      vertex 0.0999994 4.1 0.200199
      vertex 0.0999994 4.1 0.400399
    endloop
  endfacet
  facet normal 0 1 -0
    outer loop
      vertex 1.9 5.9 0.200199
      vertex 0.0999994 5.9 0.400399
      vertex 1.9 5.9 0.400399
    endloop
  endfacet
  facet normal 0 1 0
    outer loop
      vertex 0.0999994 5.9 0.400399
      vertex 1.9 5.9 0.200199
      vertex 0.0999994 5.9 0.200199
    endloop
  endfacet
  facet normal 0 -1 0
    outer loop
      vertex 0.0999994 4.1 0.200199
      vertex 1.9 4.1 0.400399
      vertex 0.0999994 4.1 0.400399
    endloop
  endfacet
  facet normal 0 -1 -0
    outer loop
      vertex 1.9 4.1 0.400399
      vertex 0.0999994 4.1 0.200199
      vertex 1.9 4.1 0.200199
    endloop
  endfacet
  facet normal 0 -1 0
    outer loop
      vertex 8 6 1
      vertex 18 6 2
      vertex 8 6 2
    endloop
  endfacet
  facet normal 0 -1 -0
    outer loop
      vertex 18 6 2
      vertex 8 6 1
      vertex 18 6 1
    endloop
  endfacet
  facet normal 1 -0 0
    outer loop
      vertex 1.9 6.1 0.400399
      vertex 1.9 7.9 0.200199
      vertex 1.9 7.9 0.400399
    endloop
  endfacet
  facet normal 1 0 0
    outer loop
      vertex 1.9 7.9 0.200199
      vertex 1.9 6.1 0.400399
      vertex 1.9 6.1 0.200199
    endloop
  endfacet
  facet normal -0 0 1
    outer loop
      vertex 0.0999994 7.9 0.400399
      vertex 1.9 6.1 0.400399
      vertex 1.9 7.9 0.400399
    endloop
  endfacet
  facet normal 0 0 1
    outer loop
      vertex 1.9 6.1 0.400399
      vertex 0.0999994 7.9 0.400399
      vertex 0.0999994 6.1 0.400399
    endloop
  endfacet
  facet normal 0 0 -1
    outer loop
      vertex 0.0999994 6.1 0.200199
      vertex 1.9 7.9 0.200199
      vertex 1.9 6.1 0.200199
    endloop
  endfacet
  facet normal -0 0 -1
    outer loop
      vertex 1.9 7.9 0.200199
      vertex 0.0999994 6.1 0.200199
      vertex 0.0999994 7.9 0.200199
    endloop
  endfacet
  facet normal -1 0 0
    outer loop
      vertex 0.0999994 6.1 0.200199
      vertex 0.0999994 7.9 0.400399
      vertex 0.0999994 7.9 0.200199
    endloop
  endfacet
  facet normal -1 -0 0
    outer loop
      vertex 0.0999994 7.9 0.400399
      vertex 0.0999994 6.1 0.200199
      vertex 0.0999994 6.1 0.400399
    endloop
  endfacet
  facet normal 0 1 -0
    outer loop
      vertex 1.9 7.9 0.200199
      vertex 0.0999994 7.9 0.400399
      vertex 1.9 7.9 0.400399
    endloop
  endfacet
  facet normal 0 1 0
    outer loop
      vertex 0.0999994 7.9 0.400399
      vertex 1.9 7.9 0.200199
      vertex 0.0999994 7.9 0.200199
    endloop
  endfacet
  facet normal 0 -1 0
    outer loop
      vertex 0.0999994 6.1 0.200199
      vertex 1.9 6.1 0.400399
      vertex 0.0999994 6.1 0.400399
    endloop
  endfacet
  facet normal 0 -1 -0
    outer loop
      vertex 1.9 6.1 0.400399
      vertex 0.0999994 6.1 0.200199
      vertex 1.9 6.1 0.200199
    endloop
  endfacet
  facet normal -1 0 0
    outer loop
      vertex 8 6 1
      vertex 8 8 2
      vertex 8 8 1
    endloop
  endfacet
  facet normal -1 -0 0
    outer loop
      vertex 8 8 2
      vertex 8 6 1
      vertex 8 6 2
    endloop
  endfacet
  facet normal 0 -1 0
    outer loop
      vertex 6 8 1
      vertex 8 8 2
      vertex 6 8 2
    endloop
  endfacet
  facet normal 0 -1 -0
    outer loop
      vertex 8 8 2
      vertex 6 8 1
      vertex 8 8 1
    endloop
  endfacet
  facet normal 0 0 1
    outer loop
      vertex 12 16 2
      vertex 10 14 2
      vertex 12 14 2
    endloop
  endfacet
  facet normal 0 0 1
    outer loop
      vertex 10 14 2
      vertex 8 8 2
      vertex 10 8 2
    endloop
  endfacet
  facet normal -0 0 1
    outer loop
      vertex 6 16 2
      vertex 10 14 2
      vertex 12 16 2
    endloop
  endfacet
  facet normal 0 0 1
    outer loop
      vertex 6 8 2
      vertex 10 14 2
      vertex 6 16 2
    endloop
  endfacet
  facet normal 0 0 1
    outer loop
      vertex 10 14 2
      vertex 6 8 2
      vertex 8 8 2
    endloop
  endfacet
  facet normal 0 0 1
    outer loop
      vertex 20 14 2
      vertex 18 8 2
      vertex 20 8 2
    endloop
  endfacet
  facet normal -0 0 1
    outer loop
      vertex 16 14 2
      vertex 18 8 2
      vertex 20 14 2
    endloop
  endfacet
  facet normal 0 0 1
    outer loop
      vertex 16 8 2
      vertex 18 8 2
      vertex 16 14 2
    endloop
  endfacet
  facet normal 0 0 1
    outer loop
      vertex 18 8 2
      vertex 16 8 2
      vertex 18 6 2
    endloop
  endfacet
  facet normal -0 0 1
    outer loop
      vertex 10 8 2
      vertex 18 6 2
      vertex 16 8 2
    endloop
  endfacet
  facet normal 0 0 1
    outer loop
      vertex 8 6 2
      vertex 10 8 2
      vertex 8 8 2
    endloop
  endfacet
  facet normal 0 0 1
    outer loop
      vertex 10 8 2
      vertex 8 6 2
      vertex 18 6 2
    endloop
  endfacet
  facet normal 0 -1 0
    outer loop
      vertex 18 8 1
      vertex 20 8 2
      vertex 18 8 2
    endloop
  endfacet
  facet normal 0 -1 -0
    outer loop
      vertex 20 8 2
      vertex 18 8 1
      vertex 20 8 1
    endloop
  endfacet
  facet normal 0 1 -0
    outer loop
      vertex 16 8 1
      vertex 10 8 2
      vertex 16 8 2
    endloop
  endfacet
  facet normal 0 1 0
    outer loop
      vertex 10 8 2
      vertex 16 8 1
      vertex 10 8 1
    endloop
  endfacet
  facet normal 1 -0 0
    outer loop
      vertex 18 6 2
      vertex 18 8 1
      vertex 18 8 2
    endloop
  endfacet
  facet normal 1 0 0
    outer loop
      vertex 18 8 1
      vertex 18 6 2
      vertex 18 6 1
    endloop
  endfacet
  facet normal 1 -0 0
    outer loop
      vertex 1.9 8.1 0.400399
      vertex 1.9 9.9 0.200199
      vertex 1.9 9.9 0.400399
    endloop
  endfacet
  facet normal 1 0 0
    outer loop
      vertex 1.9 9.9 0.200199
      vertex 1.9 8.1 0.400399
      vertex 1.9 8.1 0.200199
    endloop
  endfacet
  facet normal -0 0 1
    outer loop
      vertex 0.0999994 9.9 0.400399
      vertex 1.9 8.1 0.400399
      vertex 1.9 9.9 0.400399
    endloop
  endfacet
  facet normal 0 0 1
    outer loop
      vertex 1.9 8.1 0.400399
      vertex 0.0999994 9.9 0.400399
      vertex 0.0999994 8.1 0.400399
    endloop
  endfacet
  facet normal 0 0 -1
    outer loop
      vertex 0.0999994 8.1 0.200199
      vertex 1.9 9.9 0.200199
      vertex 1.9 8.1 0.200199
    endloop
  endfacet
  facet normal -0 0 -1
    outer loop
      vertex 1.9 9.9 0.200199
      vertex 0.0999994 8.1 0.200199
      vertex 0.0999994 9.9 0.200199
    endloop
  endfacet
  facet normal -1 0 0
    outer loop
      vertex 0.0999994 8.1 0.200199
      vertex 0.0999994 9.9 0.400399
      vertex 0.0999994 9.9 0.200199
    endloop
  endfacet
  facet normal -1 -0 0
    outer loop
      vertex 0.0999994 9.9 0.400399
      vertex 0.0999994 8.1 0.200199
      vertex 0.0999994 8.1 0.400399
    endloop
  endfacet
  facet normal 0 1 -0
    outer loop
      vertex 1.9 9.9 0.200199
      vertex 0.0999994 9.9 0.400399
      vertex 1.9 9.9 0.400399
    endloop
  endfacet
  facet normal 0 1 0
    outer loop
      vertex 0.0999994 9.9 0.400399
      vertex 1.9 9.9 0.200199
      vertex 0.0999994 9.9 0.200199
    endloop
  endfacet
  facet normal 0 -1 0
    outer loop
      vertex 0.0999994 8.1 0.200199
      vertex 1.9 8.1 0.400399
      vertex 0.0999994 8.1 0.400399
    endloop
  endfacet
  facet normal 0 -1 -0
    outer loop
      vertex 1.9 8.1 0.400399
      vertex 0.0999994 8.1 0.200199
      vertex 1.9 8.1 0.200199
    endloop
  endfacet
  facet normal -1 0 0
    outer loop
      vertex 6 8 1
      vertex 6 16 2
      vertex 6 16 1
    endloop
  endfacet
  facet normal -1 -0 0
    outer loop
      vertex 6 16 2
      vertex 6 8 1
      vertex 6 8 2
    endloop
  endfacet
  facet normal 1 -0 0
    outer loop
      vertex 10 8 2
      vertex 10 14 1
      vertex 10 14 2
    endloop
  endfacet
  facet normal 1 0 0
    outer loop
      vertex 10 14 1
      vertex 10 8 2
      vertex 10 8 1
    endloop
  endfacet
  facet normal -1 0 0
    outer loop
      vertex 16 8 1
      vertex 16 14 2
      vertex 16 14 1
    endloop
  endfacet
  facet normal -1 -0 0
    outer loop
      vertex 16 14 2
      vertex 16 8 1
      vertex 16 8 2
    endloop
  endfacet
  facet normal 1 -0 0
    outer loop
      vertex 1.9 10.1 0.400399
      vertex 1.9 11.9 0.200199
      vertex 1.9 11.9 0.400399
    endloop
  endfacet
  facet normal 1 0 0
    outer loop
      vertex 1.9 11.9 0.200199
      vertex 1.9 10.1 0.400399
      vertex 1.9 10.1 0.200199
    endloop
  endfacet
  facet normal -0 0 1
    outer loop
      vertex 0.0999994 11.9 0.400399
      vertex 1.9 10.1 0.400399
      vertex 1.9 11.9 0.400399
    endloop
  endfacet
  facet normal 0 0 1
    outer loop
      vertex 1.9 10.1 0.400399
      vertex 0.0999994 11.9 0.400399
      vertex 0.0999994 10.1 0.400399
    endloop
  endfacet
  facet normal 0 0 -1
    outer loop
      vertex 0.0999994 10.1 0.200199
      vertex 1.9 11.9 0.200199
      vertex 1.9 10.1 0.200199
    endloop
  endfacet
  facet normal -0 0 -1
    outer loop
      vertex 1.9 11.9 0.200199
      vertex 0.0999994 10.1 0.200199
      vertex 0.0999994 11.9 0.200199
    endloop
  endfacet
  facet normal -1 0 0
    outer loop
      vertex 0.0999994 10.1 0.200199
      vertex 0.0999994 11.9 0.400399
      vertex 0.0999994 11.9 0.200199
    endloop
  endfacet
  facet normal -1 -0 0
    outer loop
      vertex 0.0999994 11.9 0.400399
      vertex 0.0999994 10.1 0.200199
      vertex 0.0999994 10.1 0.400399
    endloop
  endfacet
  facet normal 0 1 -0
    outer loop
      vertex 1.9 11.9 0.200199
      vertex 0.0999994 11.9 0.400399
      vertex 1.9 11.9 0.400399
    endloop
  endfacet
  facet normal 0 1 0
    outer loop
      vertex 0.0999994 11.9 0.400399
      vertex 1.9 11.9 0.200199
      vertex 0.0999994 11.9 0.200199
    endloop
  endfacet
  facet normal 0 -1 0
    outer loop
      vertex 0.0999994 10.1 0.200199
      vertex 1.9 10.1 0.400399
      vertex 0.0999994 10.1 0.400399
    endloop
  endfacet
  facet normal 0 -1 -0
    outer loop
      vertex 1.9 10.1 0.400399
      vertex 0.0999994 10.1 0.200199
      vertex 1.9 10.1 0.200199
    endloop
  endfacet
  facet normal 1 -0 0
    outer loop
      vertex 1.9 12.1 0.400399
      vertex 1.9 13.9 0.200199
      vertex 1.9 13.9 0.400399
    endloop
  endfacet
  facet normal 1 0 0
    outer loop
      vertex 1.9 13.9 0.200199
      vertex 1.9 12.1 0.400399
      vertex 1.9 12.1 0.200199
    endloop
  endfacet
  facet normal -0 0 1
    outer loop
      vertex 0.0999994 13.9 0.400399
      vertex 1.9 12.1 0.400399
      vertex 1.9 13.9 0.400399
    endloop
  endfacet
  facet normal 0 0 1
    outer loop
      vertex 1.9 12.1 0.400399
      vertex 0.0999994 13.9 0.400399
      vertex 0.0999994 12.1 0.400399
    endloop
  endfacet
  facet normal 0 0 -1
    outer loop
      vertex 0.0999994 12.1 0.200199
      vertex 1.9 13.9 0.200199
      vertex 1.9 12.1 0.200199
    endloop
  endfacet
  facet normal -0 0 -1
    outer loop
      vertex 1.9 13.9 0.200199
      vertex 0.0999994 12.1 0.200199
      vertex 0.0999994 13.9 0.200199
    endloop
  endfacet
  facet normal -1 0 0
    outer loop
      vertex 0.0999994 12.1 0.200199
      vertex 0.0999994 13.9 0.400399
      vertex 0.0999994 13.9 0.200199
    endloop
  endfacet
  facet normal -1 -0 0
    outer loop
      vertex 0.0999994 13.9 0.400399
      vertex 0.0999994 12.1 0.200199
      vertex 0.0999994 12.1 0.400399
    endloop
  endfacet
  facet normal 0 1 -0
    outer loop
      vertex 1.9 13.9 0.200199
      vertex 0.0999994 13.9 0.400399
      vertex 1.9 13.9 0.400399
    endloop
  endfacet
  facet normal 0 1 0
    outer loop
      vertex 0.0999994 13.9 0.400399
      vertex 1.9 13.9 0.200199
      vertex 0.0999994 13.9 0.200199
    endloop
  endfacet
  facet normal 0 -1 0
    outer loop
      vertex 0.0999994 12.1 0.200199
      vertex 1.9 12.1 0.400399
      vertex 0.0999994 12.1 0.400399
    endloop
  endfacet
  facet normal 0 -1 -0
    outer loop
      vertex 1.9 12.1 0.400399
      vertex 0.0999994 12.1 0.200199
      vertex 1.9 12.1 0.200199
    endloop
  endfacet
  facet normal 0 -1 0
    outer loop
      vertex 10 14 1
      vertex 12 14 2
      vertex 10 14 2
    endloop
  endfacet
  facet normal 0 -1 -0
    outer loop
      vertex 12 14 2
      vertex 10 14 1
      vertex 12 14 1
    endloop
  endfacet
  facet normal 0 1 -0
    outer loop
      vertex 20 14 1
      vertex 16 14 2
      vertex 20 14 2
    endloop
  endfacet
  facet normal 0 1 0
    outer loop
      vertex 16 14 2
      vertex 20 14 1
      vertex 16 14 1
    endloop
  endfacet
  facet normal 1 -0 0
    outer loop
      vertex 1.9 14.1 0.400399
      vertex 1.9 15.9 0.200199
      vertex 1.9 15.9 0.400399
    endloop
  endfacet
  facet normal 1 0 0
    outer loop
      vertex 1.9 15.9 0.200199
      vertex 1.9 14.1 0.400399
      vertex 1.9 14.1 0.200199
    endloop
  endfacet
  facet normal -0 0 1
    outer loop
      vertex 0.0999994 15.9 0.400399
      vertex 1.9 14.1 0.400399
      vertex 1.9 15.9 0.400399
    endloop
  endfacet
  facet normal 0 0 1
    outer loop
      vertex 1.9 14.1 0.400399
      vertex 0.0999994 15.9 0.400399
      vertex 0.0999994 14.1 0.400399
    endloop
  endfacet
  facet normal 0 0 -1
    outer loop
      vertex 0.0999994 14.1 0.200199
      vertex 1.9 15.9 0.200199
      vertex 1.9 14.1 0.200199
    endloop
  endfacet
  facet normal -0 0 -1
    outer loop
      vertex 1.9 15.9 0.200199
      vertex 0.0999994 14.1 0.200199
      vertex 0.0999994 15.9 0.200199
    endloop
  endfacet
  facet normal -1 0 0
    outer loop
      vertex 0.0999994 14.1 0.200199
      vertex 0.0999994 15.9 0.400399
      vertex 0.0999994 15.9 0.200199
    endloop
  endfacet
  facet normal -1 -0 0
    outer loop
      vertex 0.0999994 15.9 0.400399
      vertex 0.0999994 14.1 0.200199
      vertex 0.0999994 14.1 0.400399
    endloop
  endfacet
  facet normal 0 1 -0
    outer loop
      vertex 1.9 15.9 0.200199
      vertex 0.0999994 15.9 0.400399
      vertex 1.9 15.9 0.400399
    endloop
  endfacet
  facet normal 0 1 0
    outer loop
      vertex 0.0999994 15.9 0.400399
      vertex 1.9 15.9 0.200199
      vertex 0.0999994 15.9 0.200199
    endloop
  endfacet
  facet normal 0 -1 0
    outer loop
      vertex 0.0999994 14.1 0.200199
      vertex 1.9 14.1 0.400399
      vertex 0.0999994 14.1 0.400399
    endloop
  endfacet
  facet normal 0 -1 -0
    outer loop
      vertex 1.9 14.1 0.400399
      vertex 0.0999994 14.1 0.200199
      vertex 1.9 14.1 0.200199
    endloop
  endfacet
  facet normal 0 1 -0
    outer loop
      vertex 12 16 1
      vertex 6 16 2
      vertex 12 16 2
    endloop
  endfacet
  facet normal 0 1 0
    outer loop
      vertex 6 16 2
      vertex 12 16 1
      vertex 6 16 1
    endloop
  endfacet
  facet normal 1 -0 0
    outer loop
      vertex 12 14 2
      vertex 12 16 1
      vertex 12 16 2
    endloop
  endfacet
  facet normal 1 0 0
    outer loop
      vertex 12 16 1
      vertex 12 14 2
      vertex 12 14 1
    endloop
  endfacet
  facet normal 0 -1 0
    outer loop
      vertex 12 16 1
      vertex 16 16 2
      vertex 12 16 2
    endloop
  endfacet
  facet normal 0 -1 -0
    outer loop
      vertex 16 16 2
      vertex 12 16 1
      vertex 16 16 1
    endloop
  endfacet
  facet normal 1 -0 0
    outer loop
      vertex 1.9 16.1 0.400399
      vertex 1.9 17.9 0.200199
      vertex 1.9 17.9 0.400399
    endloop
  endfacet
  facet normal 1 0 0
    outer loop
      vertex 1.9 17.9 0.200199
      vertex 1.9 16.1 0.400399
      vertex 1.9 16.1 0.200199
    endloop
  endfacet
  facet normal -0 0 1
    outer loop
      vertex 0.0999994 17.9 0.400399
      vertex 1.9 16.1 0.400399
      vertex 1.9 17.9 0.400399
    endloop
  endfacet
  facet normal 0 0 1
    outer loop
      vertex 1.9 16.1 0.400399
      vertex 0.0999994 17.9 0.400399
      vertex 0.0999994 16.1 0.400399
    endloop
  endfacet
  facet normal 0 0 -1
    outer loop
      vertex 0.0999994 16.1 0.200199
      vertex 1.9 17.9 0.200199
      vertex 1.9 16.1 0.200199
    endloop
  endfacet
  facet normal -0 0 -1
    outer loop
      vertex 1.9 17.9 0.200199
      vertex 0.0999994 16.1 0.200199
      vertex 0.0999994 17.9 0.200199
    endloop
  endfacet
  facet normal -1 0 0
    outer loop
      vertex 0.0999994 16.1 0.200199
      vertex 0.0999994 17.9 0.400399
      vertex 0.0999994 17.9 0.200199
    endloop
  endfacet
  facet normal -1 -0 0
    outer loop
      vertex 0.0999994 17.9 0.400399
      vertex 0.0999994 16.1 0.200199
      vertex 0.0999994 16.1 0.400399
    endloop
  endfacet
  facet normal 0 1 -0
    outer loop
      vertex 1.9 17.9 0.200199
      vertex 0.0999994 17.9 0.400399
      vertex 1.9 17.9 0.400399
    endloop
  endfacet
  facet normal 0 1 0
    outer loop
      vertex 0.0999994 17.9 0.400399
      vertex 1.9 17.9 0.200199
      vertex 0.0999994 17.9 0.200199
    endloop
  endfacet
  facet normal 0 -1 0
    outer loop
      vertex 0.0999994 16.1 0.200199
      vertex 1.9 16.1 0.400399
      vertex 0.0999994 16.1 0.400399
    endloop
  endfacet
  facet normal 0 -1 -0
    outer loop
      vertex 1.9 16.1 0.400399
      vertex 0.0999994 16.1 0.200199
      vertex 1.9 16.1 0.200199
    endloop
  endfacet
  facet normal -1 0 0
    outer loop
      vertex 12 16 1
      vertex 12 20 2
      vertex 12 20 1
    endloop
  endfacet
  facet normal -1 -0 0
    outer loop
      vertex 12 20 2
      vertex 12 16 1
      vertex 12 16 2
    endloop
  endfacet
  facet normal -0 0 1
    outer loop
      vertex 12 20 2
      vertex 16 16 2
      vertex 16 20 2
    endloop
  endfacet
  facet normal 0 0 1
    outer loop
      vertex 16 16 2
      vertex 12 20 2
      vertex 12 16 2
    endloop
  endfacet
  facet normal 1 -0 0
    outer loop
      vertex 16 16 2
      vertex 16 20 1
      vertex 16 20 2
    endloop
  endfacet
  facet normal 1 0 0
    outer loop
      vertex 16 20 1
      vertex 16 16 2
      vertex 16 16 1
    endloop
  endfacet
  facet normal 1 -0 0
    outer loop
      vertex 1.9 18.1 0.400399
      vertex 1.9 19.9 0.200199
      vertex 1.9 19.9 0.400399
    endloop
  endfacet
  facet normal 1 0 0
    outer loop
      vertex 1.9 19.9 0.200199
      vertex 1.9 18.1 0.400399
      vertex 1.9 18.1 0.200199
    endloop
  endfacet
  facet normal -0 0 1
    outer loop
      vertex 0.0999994 19.9 0.400399
      vertex 1.9 18.1 0.400399
      vertex 1.9 19.9 0.400399
    endloop
  endfacet
  facet normal 0 0 1
    outer loop
      vertex 1.9 18.1 0.400399
      vertex 0.0999994 19.9 0.400399
      vertex 0.0999994 18.1 0.400399
    endloop
  endfacet
  facet normal 0 0 -1
    outer loop
      vertex 0.0999994 18.1 0.200199
      vertex 1.9 19.9 0.200199
      vertex 1.9 18.1 0.200199
    endloop
  endfacet
  facet normal -0 0 -1
    outer loop
      vertex 1.9 19.9 0.200199
      vertex 0.0999994 18.1 0.200199
      vertex 0.0999994 19.9 0.200199
    endloop
  endfacet
  facet normal -1 0 0
    outer loop
      vertex 0.0999994 18.1 0.200199
      vertex 0.0999994 19.9 0.400399
      vertex 0.0999994 19.9 0.200199
    endloop
  endfacet
  facet normal -1 -0 0
    outer loop
      vertex 0.0999994 19.9 0.400399
      vertex 0.0999994 18.1 0.200199
      vertex 0.0999994 18.1 0.400399
    endloop
  endfacet
  facet normal 0 1 -0
    outer loop
      vertex 1.9 19.9 0.200199
      vertex 0.0999994 19.9 0.400399
      vertex 1.9 19.9 0.400399
    endloop
  endfacet
  facet normal 0 1 0
    outer loop
      vertex 0.0999994 19.9 0.400399
      vertex 1.9 19.9 0.200199
      vertex 0.0999994 19.9 0.200199
    endloop
  endfacet
  facet normal 0 -1 0
    outer loop
      vertex 0.0999994 18.1 0.200199
      vertex 1.9 18.1 0.400399
      vertex 0.0999994 18.1 0.400399
    endloop
  endfacet
  facet normal 0 -1 -0
    outer loop
      vertex 1.9 18.1 0.400399
      vertex 0.0999994 18.1 0.200199
      vertex 1.9 18.1 0.200199
    endloop
  endfacet
  facet normal 0 1 -0
    outer loop
      vertex 16 20 1
      vertex 12 20 2
      vertex 16 20 2
    endloop
  endfacet
  facet normal 0 1 0
    outer loop
      vertex 12 20 2
      vertex 16 20 1
      vertex 12 20 1
    endloop
  endfacet
  facet normal 1 -0 0
    outer loop
      vertex 1.9 20.1 0.400399
      vertex 1.9 21.9 0.200199
      vertex 1.9 21.9 0.400399
    endloop
  endfacet
  facet normal 1 0 0
    outer loop
      vertex 1.9 21.9 0.200199
      vertex 1.9 20.1 0.400399
      vertex 1.9 20.1 0.200199
    endloop
  endfacet
  facet normal -0 0 1
    outer loop
      vertex 0.0999994 21.9 0.400399
      vertex 1.9 20.1 0.400399
      vertex 1.9 21.9 0.400399
    endloop
  endfacet
  facet normal 0 0 1
    outer loop
      vertex 1.9 20.1 0.400399
      vertex 0.0999994 21.9 0.400399
      vertex 0.0999994 20.1 0.400399
    endloop
  endfacet
  facet normal 0 0 -1
    outer loop
      vertex 0.0999994 20.1 0.200199
      vertex 1.9 21.9 0.200199
      vertex 1.9 20.1 0.200199
    endloop
  endfacet
  facet normal -0 0 -1
    outer loop
      vertex 1.9 21.9 0.200199
      vertex 0.0999994 20.1 0.200199
      vertex 0.0999994 21.9 0.200199
    endloop
  endfacet
  facet normal -1 0 0
    outer loop
      vertex 0.0999994 20.1 0.200199
      vertex 0.0999994 21.9 0.400399
      vertex 0.0999994 21.9 0.200199
    endloop
  endfacet
  facet normal -1 -0 0
    outer loop
      vertex 0.0999994 21.9 0.400399
      vertex 0.0999994 20.1 0.200199
      vertex 0.0999994 20.1 0.400399
    endloop
  endfacet
  facet normal 0 1 -0
    outer loop
      vertex 1.9 21.9 0.200199
      vertex 0.0999994 21.9 0.400399
      vertex 1.9 21.9 0.400399
    endloop
  endfacet
  facet normal 0 1 0
    outer loop
      vertex 0.0999994 21.9 0.400399
      vertex 1.9 21.9 0.200199
      vertex 0.0999994 21.9 0.200199
    endloop
  endfacet
  facet normal 0 -1 0
    outer loop
      vertex 0.0999994 20.1 0.200199
      vertex 1.9 20.1 0.400399
      vertex 0.0999994 20.1 0.400399
    endloop
  endfacet
  facet normal 0 -1 -0
    outer loop
      vertex 1.9 20.1 0.400399
      vertex 0.0999994 20.1 0.200199
      vertex 1.9 20.1 0.200199
    endloop
  endfacet
  facet normal -1 0 0
    outer loop
      vertex 12 22 1
      vertex 12 26 2
      vertex 12 26 1
    endloop
  endfacet
  facet normal -1 -0 0
    outer loop
      vertex 12 26 2
      vertex 12 22 1
      vertex 12 22 2
    endloop
  endfacet
  facet normal 0 -1 0
    outer loop
      vertex 12 22 1
      vertex 16 22 2
      vertex 12 22 2
    endloop
  endfacet
  facet normal 0 -1 -0
    outer loop
      vertex 16 22 2
      vertex 12 22 1
      vertex 16 22 1
    endloop
  endfacet
  facet normal 1 -0 0
    outer loop
      vertex 1.9 22.1 0.400399
      vertex 1.9 23.9 0.200199
      vertex 1.9 23.9 0.400399
    endloop
  endfacet
  facet normal 1 0 0
    outer loop
      vertex 1.9 23.9 0.200199
      vertex 1.9 22.1 0.400399
      vertex 1.9 22.1 0.200199
    endloop
  endfacet
  facet normal -0 0 1
    outer loop
      vertex 0.0999994 23.9 0.400399
      vertex 1.9 22.1 0.400399
      vertex 1.9 23.9 0.400399
    endloop
  endfacet
  facet normal 0 0 1
    outer loop
      vertex 1.9 22.1 0.400399
      vertex 0.0999994 23.9 0.400399
      vertex 0.0999994 22.1 0.400399
    endloop
  endfacet
  facet normal 0 0 -1
    outer loop
      vertex 0.0999994 22.1 0.200199
      vertex 1.9 23.9 0.200199
      vertex 1.9 22.1 0.200199
    endloop
  endfacet
  facet normal -0 0 -1
    outer loop
      vertex 1.9 23.9 0.200199
      vertex 0.0999994 22.1 0.200199
      vertex 0.0999994 23.9 0.200199
    endloop
  endfacet
  facet normal -1 0 0
    outer loop
      vertex 0.0999994 22.1 0.200199
      vertex 0.0999994 23.9 0.400399
      vertex 0.0999994 23.9 0.200199
    endloop
  endfacet
  facet normal -1 -0 0
    outer loop
      vertex 0.0999994 23.9 0.400399
      vertex 0.0999994 22.1 0.200199
      vertex 0.0999994 22.1 0.400399
    endloop
  endfacet
  facet normal 0 1 -0
    outer loop
      vertex 1.9 23.9 0.200199
      vertex 0.0999994 23.9 0.400399
      vertex 1.9 23.9 0.400399
    endloop
  endfacet
  facet normal 0 1 0
    outer loop
      vertex 0.0999994 23.9 0.400399
      vertex 1.9 23.9 0.200199
      vertex 0.0999994 23.9 0.200199
    endloop
  endfacet
  facet normal 0 -1 0
    outer loop
      vertex 0.0999994 22.1 0.200199
      vertex 1.9 22.1 0.400399
      vertex 0.0999994 22.1 0.400399
    endloop
  endfacet
  facet normal 0 -1 -0
    outer loop
      vertex 1.9 22.1 0.400399
      vertex 0.0999994 22.1 0.200199
      vertex 1.9 22.1 0.200199
    endloop
  endfacet
  facet normal -0 0 1
    outer loop
      vertex 12 26 2
      vertex 16 22 2
      vertex 16 26 2
    endloop
  endfacet
  facet normal 0 0 1
    outer loop
      vertex 16 22 2
      vertex 12 26 2
      vertex 12 22 2
    endloop
  endfacet
  facet normal 1 -0 0
    outer loop
      vertex 16 22 2
      vertex 16 26 1
      vertex 16 26 2
    endloop
  endfacet
  facet normal 1 0 0
    outer loop
      vertex 16 26 1
      vertex 16 22 2
      vertex 16 22 1
    endloop
  endfacet
  facet normal 1 -0 0
    outer loop
      vertex 1.9 24.1 0.400399
      vertex 1.9 25.9 0.200199
      vertex 1.9 25.9 0.400399
    endloop
  endfacet
  facet normal 1 0 0
    outer loop
      vertex 1.9 25.9 0.200199
      vertex 1.9 24.1 0.400399
      vertex 1.9 24.1 0.200199
    endloop
  endfacet
  facet normal -0 0 1
    outer loop
      vertex 0.0999994 25.9 0.400399
      vertex 1.9 24.1 0.400399
      vertex 1.9 25.9 0.400399
    endloop
  endfacet
  facet normal 0 0 1
    outer loop
      vertex 1.9 24.1 0.400399
      vertex 0.0999994 25.9 0.400399
      vertex 0.0999994 24.1 0.400399
    endloop
  endfacet
  facet normal 0 0 -1
    outer loop
      vertex 0.0999994 24.1 0.200199
      vertex 1.9 25.9 0.200199
      vertex 1.9 24.1 0.200199
    endloop
  endfacet
  facet normal -0 0 -1
    outer loop
      vertex 1.9 25.9 0.200199
      vertex 0.0999994 24.1 0.200199
      vertex 0.0999994 25.9 0.200199
    endloop
  endfacet
  facet normal -1 0 0
    outer loop
      vertex 0.0999994 24.1 0.200199
      vertex 0.0999994 25.9 0.400399
      vertex 0.0999994 25.9 0.200199
    endloop
  endfacet
  facet normal -1 -0 0
    outer loop
      vertex 0.0999994 25.9 0.400399
      vertex 0.0999994 24.1 0.200199
      vertex 0.0999994 24.1 0.400399
    endloop
  endfacet
  facet normal 0 1 -0
    outer loop
      vertex 1.9 25.9 0.200199
      vertex 0.0999994 25.9 0.400399
      vertex 1.9 25.9 0.400399
    endloop
  endfacet
  facet normal 0 1 0
    outer loop
      vertex 0.0999994 25.9 0.400399
      vertex 1.9 25.9 0.200199
      vertex 0.0999994 25.9 0.200199
    endloop
  endfacet
  facet normal 0 -1 0
    outer loop
      vertex 0.0999994 24.1 0.200199
      vertex 1.9 24.1 0.400399
      vertex 0.0999994 24.1 0.400399
    endloop
  endfacet
  facet normal 0 -1 -0
    outer loop
      vertex 1.9 24.1 0.400399
      vertex 0.0999994 24.1 0.200199
      vertex 1.9 24.1 0.200199
    endloop
  endfacet
  facet normal 0 1 -0
    outer loop
      vertex 16 26 1
      vertex 12 26 2
      vertex 16 26 2
    endloop
  endfacet
  facet normal 0 1 0
    outer loop
      vertex 12 26 2
      vertex 16 26 1
      vertex 12 26 1
    endloop
  endfacet
  facet normal 1 -0 0
    outer loop
      vertex 1.9 26.1 0.400399
      vertex 1.9 27.9 0.200199
      vertex 1.9 27.9 0.400399
    endloop
  endfacet
  facet normal 1 0 0
    outer loop
      vertex 1.9 27.9 0.200199
      vertex 1.9 26.1 0.400399
      vertex 1.9 26.1 0.200199
    endloop
  endfacet
  facet normal -0 0 1
    outer loop
      vertex 0.0999994 27.9 0.400399
      vertex 1.9 26.1 0.400399
      vertex 1.9 27.9 0.400399
    endloop
  endfacet
  facet normal 0 0 1
    outer loop
      vertex 1.9 26.1 0.400399
      vertex 0.0999994 27.9 0.400399
      vertex 0.0999994 26.1 0.400399
    endloop
  endfacet
  facet normal 0 0 -1
    outer loop
      vertex 0.0999994 26.1 0.200199
      vertex 1.9 27.9 0.200199
      vertex 1.9 26.1 0.200199
    endloop
  endfacet
  facet normal -0 0 -1
    outer loop
      vertex 1.9 27.9 0.200199
      vertex 0.0999994 26.1 0.200199
      vertex 0.0999994 27.9 0.200199
    endloop
  endfacet
  facet normal -1 0 0
    outer loop
      vertex 0.0999994 26.1 0.200199
      vertex 0.0999994 27.9 0.400399
      vertex 0.0999994 27.9 0.200199
    endloop
  endfacet
  facet normal -1 -0 0
    outer loop
      vertex 0.0999994 27.9 0.400399
      vertex 0.0999994 26.1 0.200199
      vertex 0.0999994 26.1 0.400399
    endloop
  endfacet
  facet normal 0 1 -0
    outer loop
      vertex 1.9 27.9 0.200199
      vertex 0.0999994 27.9 0.400399
      vertex 1.9 27.9 0.400399
    endloop
  endfacet
  facet normal 0 1 0
    outer loop
      vertex 0.0999994 27.9 0.400399
      vertex 1.9 27.9 0.200199
      vertex 0.0999994 27.9 0.200199
    endloop
  endfacet
  facet normal 0 -1 0
    outer loop
      vertex 0.0999994 26.1 0.200199
      vertex 1.9 26.1 0.400399
      vertex 0.0999994 26.1 0.400399
    endloop
  endfacet
  facet normal 0 -1 -0
    outer loop
      vertex 1.9 26.1 0.400399
      vertex 0.0999994 26.1 0.200199
      vertex 1.9 26.1 0.200199
    endloop
  endfacet
  facet normal 0 -1 0
    outer loop
      vertex 4 28 1
      vertex 6 28 2
      vertex 4 28 2
    endloop
  endfacet
  facet normal 0 -1 -0
    outer loop
      vertex 6 28 2
      vertex 4 28 1
      vertex 6 28 1
    endloop
  endfacet
  facet normal 0 -1 0
    outer loop
      vertex 18 28 1
      vertex 20 28 2
      vertex 18 28 2
    endloop
  endfacet
  facet normal 0 -1 -0
    outer loop
      vertex 20 28 2
      vertex 18 28 1
      vertex 20 28 1
    endloop
  endfacet
  facet normal 1 -0 0
    outer loop
      vertex 1.9 28.1 0.400399
      vertex 1.9 29.9 0.200199
      vertex 1.9 29.9 0.400399
    endloop
  endfacet
  facet normal 1 0 0
    outer loop
      vertex 1.9 29.9 0.200199
      vertex 1.9 28.1 0.400399
      vertex 1.9 28.1 0.200199
    endloop
  endfacet
  facet normal -0 0 1
    outer loop
      vertex 0.0999994 29.9 0.400399
      vertex 1.9 28.1 0.400399
      vertex 1.9 29.9 0.400399
    endloop
  endfacet
  facet normal 0 0 1
    outer loop
      vertex 1.9 28.1 0.400399
      vertex 0.0999994 29.9 0.400399
      vertex 0.0999994 28.1 0.400399
    endloop
  endfacet
  facet normal 0 0 -1
    outer loop
      vertex 0.0999994 28.1 0.200199
      vertex 1.9 29.9 0.200199
      vertex 1.9 28.1 0.200199
    endloop
  endfacet
  facet normal -0 0 -1
    outer loop
      vertex 1.9 29.9 0.200199
      vertex 0.0999994 28.1 0.200199
      vertex 0.0999994 29.9 0.200199
    endloop
  endfacet
  facet normal -1 0 0
    outer loop
      vertex 0.0999994 28.1 0.200199
      vertex 0.0999994 29.9 0.400399
      vertex 0.0999994 29.9 0.200199
    endloop
  endfacet
  facet normal -1 -0 0
    outer loop
      vertex 0.0999994 29.9 0.400399
      vertex 0.0999994 28.1 0.200199
      vertex 0.0999994 28.1 0.400399
    endloop
  endfacet
  facet normal 0 1 -0
    outer loop
      vertex 1.9 29.9 0.200199
      vertex 0.0999994 29.9 0.400399
      vertex 1.9 29.9 0.400399
    endloop
  endfacet
  facet normal 0 1 0
    outer loop
      vertex 0.0999994 29.9 0.400399
      vertex 1.9 29.9 0.200199
      vertex 0.0999994 29.9 0.200199
    endloop
  endfacet
  facet normal 0 -1 0
    outer loop
      vertex 0.0999994 28.1 0.200199
      vertex 1.9 28.1 0.400399
      vertex 0.0999994 28.1 0.400399
    endloop
  endfacet
  facet normal 0 -1 -0
    outer loop
      vertex 1.9 28.1 0.400399
      vertex 0.0999994 28.1 0.200199
      vertex 1.9 28.1 0.200199
    endloop
  endfacet
  facet normal -1 0 0
    outer loop
      vertex 4 28 1
      vertex 4 30 2
      vertex 4 30 1
    endloop
  endfacet
  facet normal -1 -0 0
    outer loop
      vertex 4 30 2
      vertex 4 28 1
      vertex 4 28 2
    endloop
  endfacet
  facet normal 0 1 -0
    outer loop
      vertex 6 30 1
      vertex 4 30 2
      vertex 6 30 2
    endloop
  endfacet
  facet normal 0 1 0
    outer loop
      vertex 4 30 2
      vertex 6 30 1
      vertex 4 30 1
    endloop
  endfacet
  facet normal 1 -0 0
    outer loop
      vertex 6 28 2
      vertex 6 30 1
      vertex 6 30 2
    endloop
  endfacet
  facet normal 1 0 0
    outer loop
      vertex 6 30 1
      vertex 6 28 2
      vertex 6 28 1
    endloop
  endfacet
  facet normal -0 0 1
    outer loop
      vertex 4 30 2
      vertex 6 28 2
      vertex 6 30 2
    endloop
  endfacet
  facet normal 0 0 1
    outer loop
      vertex 6 28 2
      vertex 4 30 2
      vertex 4 28 2
    endloop
  endfacet
  facet normal 0 1 -0
    outer loop
      vertex 20 30 1
      vertex 18 30 2
      vertex 20 30 2
    endloop
  endfacet
  facet normal 0 1 0
    outer loop
      vertex 18 30 2
      vertex 20 30 1
      vertex 18 30 1
    endloop
  endfacet
  facet normal -1 0 0
    outer loop
      vertex 18 28 1
      vertex 18 30 2
      vertex 18 30 1
    endloop
  endfacet
  facet normal -1 -0 0
    outer loop
      vertex 18 30 2
      vertex 18 28 1
      vertex 18 28 2
    endloop
  endfacet
  facet normal -0 0 1
    outer loop
      vertex 18 30 2
      vertex 20 28 2
      vertex 20 30 2
    endloop
  endfacet
  facet normal 0 0 1
    outer loop
      vertex 20 28 2
      vertex 18 30 2
      vertex 18 28 2
    endloop
  endfacet
  facet normal 1 -0 0
    outer loop
      vertex 1.9 30.1 0.400399
      vertex 1.9 31.9 0.200199
      vertex 1.9 31.9 0.400399
    endloop
  endfacet
  facet normal 1 0 0
    outer loop
      vertex 1.9 31.9 0.200199
      vertex 1.9 30.1 0.400399
      vertex 1.9 30.1 0.200199
    endloop
  endfacet
  facet normal -0 0 1
    outer loop
      vertex 0.0999994 31.9 0.400399
      vertex 1.9 30.1 0.400399
      vertex 1.9 31.9 0.400399
    endloop
  endfacet
  facet normal 0 0 1
    outer loop
      vertex 1.9 30.1 0.400399
      vertex 0.0999994 31.9 0.400399
      vertex 0.0999994 30.1 0.400399
    endloop
  endfacet
  facet normal 0 0 -1
    outer loop
      vertex 0.0999994 30.1 0.200199
      vertex 1.9 31.9 0.200199
      vertex 1.9 30.1 0.200199
    endloop
  endfacet
  facet normal -0 0 -1
    outer loop
      vertex 1.9 31.9 0.200199
      vertex 0.0999994 30.1 0.200199
      vertex 0.0999994 31.9 0.200199
    endloop
  endfacet
  facet normal -1 0 0
    outer loop
      vertex 0.0999994 30.1 0.200199
      vertex 0.0999994 31.9 0.400399
      vertex 0.0999994 31.9 0.200199
    endloop
  endfacet
  facet normal -1 -0 0
    outer loop
      vertex 0.0999994 31.9 0.400399
      vertex 0.0999994 30.1 0.200199
      vertex 0.0999994 30.1 0.400399
    endloop
  endfacet
  facet normal 0 1 -0
    outer loop
      vertex 1.9 31.9 0.200199
      vertex 0.0999994 31.9 0.400399
      vertex 1.9 31.9 0.400399
    endloop
  endfacet
  facet normal 0 1 0
    outer loop
      vertex 0.0999994 31.9 0.400399
      vertex 1.9 31.9 0.200199
      vertex 0.0999994 31.9 0.200199
    endloop
  endfacet
  facet normal 0 -1 0
    outer loop
      vertex 0.0999994 30.1 0.200199
      vertex 1.9 30.1 0.400399
      vertex 0.0999994 30.1 0.400399
    endloop
  endfacet
  facet normal 0 -1 -0
    outer loop
      vertex 1.9 30.1 0.400399
      vertex 0.0999994 30.1 0.200199
      vertex 1.9 30.1 0.200199
    endloop
  endfacet
  facet normal 0 1 -0
    outer loop
      vertex 20 32 0
      vertex 2 32 1
      vertex 20 32 1
    endloop
  endfacet
  facet normal 0 1 0
    outer loop
      vertex 2 32 1
      vertex 20 32 0
      vertex 2 32 0
    endloop
  endfacet
endsolid OpenSCAD_Model
