solid OpenSCAD_Model
  facet normal 1 -0 0
    outer loop
      vertex 5.9 2.1 2.2002
      vertex 5.9 3.9 2
      vertex 5.9 3.9 2.2002
    endloop
  endfacet
  facet normal 1 0 0
    outer loop
      vertex 5.9 3.9 2
      vertex 5.9 2.1 2.2002
      vertex 5.9 2.1 2
    endloop
  endfacet
  facet normal -0 0 1
    outer loop
      vertex 4.1 3.9 2.2002
      vertex 5.9 2.1 2.2002
      vertex 5.9 3.9 2.2002
    endloop
  endfacet
  facet normal 0 0 1
    outer loop
      vertex 5.9 2.1 2.2002
      vertex 4.1 3.9 2.2002
      vertex 4.1 2.1 2.2002
    endloop
  endfacet
  facet normal 0 0 -1
    outer loop
      vertex 4.1 2.1 2
      vertex 5.9 3.9 2
      vertex 5.9 2.1 2
    endloop
  endfacet
  facet normal -0 0 -1
    outer loop
      vertex 5.9 3.9 2
      vertex 4.1 2.1 2
      vertex 4.1 3.9 2
    endloop
  endfacet
  facet normal -1 0 0
    outer loop
      vertex 4.1 2.1 2
      vertex 4.1 3.9 2.2002
      vertex 4.1 3.9 2
    endloop
  endfacet
  facet normal -1 -0 0
    outer loop
      vertex 4.1 3.9 2.2002
      vertex 4.1 2.1 2
      vertex 4.1 2.1 2.2002
    endloop
  endfacet
  facet normal 0 1 -0
    outer loop
      vertex 5.9 3.9 2
      vertex 4.1 3.9 2.2002
      vertex 5.9 3.9 2.2002
    endloop
  endfacet
  facet normal 0 1 0
    outer loop
      vertex 4.1 3.9 2.2002
      vertex 5.9 3.9 2
      vertex 4.1 3.9 2
    endloop
  endfacet
  facet normal 0 -1 0
    outer loop
      vertex 4.1 2.1 2
      vertex 5.9 2.1 2.2002
      vertex 4.1 2.1 2.2002
    endloop
  endfacet
  facet normal 0 -1 -0
    outer loop
      vertex 5.9 2.1 2.2002
      vertex 4.1 2.1 2
      vertex 5.9 2.1 2
    endloop
  endfacet
  facet normal 1 -0 0
    outer loop
      vertex 19.9 2.1 2.2002
      vertex 19.9 3.9 2
      vertex 19.9 3.9 2.2002
    endloop
  endfacet
  facet normal 1 0 0
    outer loop
      vertex 19.9 3.9 2
      vertex 19.9 2.1 2.2002
      vertex 19.9 2.1 2
    endloop
  endfacet
  facet normal -0 0 1
    outer loop
      vertex 18.1 3.9 2.2002
      vertex 19.9 2.1 2.2002
      vertex 19.9 3.9 2.2002
    endloop
  endfacet
  facet normal 0 0 1
    outer loop
      vertex 19.9 2.1 2.2002
      vertex 18.1 3.9 2.2002
      vertex 18.1 2.1 2.2002
    endloop
  endfacet
  facet normal 0 0 -1
    outer loop
      vertex 18.1 2.1 2
      vertex 19.9 3.9 2
      vertex 19.9 2.1 2
    endloop
  endfacet
  facet normal -0 0 -1
    outer loop
      vertex 19.9 3.9 2
      vertex 18.1 2.1 2
      vertex 18.1 3.9 2
    endloop
  endfacet
  facet normal -1 0 0
    outer loop
      vertex 18.1 2.1 2
      vertex 18.1 3.9 2.2002
      vertex 18.1 3.9 2
    endloop
  endfacet
  facet normal -1 -0 0
    outer loop
      vertex 18.1 3.9 2.2002
      vertex 18.1 2.1 2
      vertex 18.1 2.1 2.2002
    endloop
  endfacet
  facet normal 0 1 -0
    outer loop
      vertex 19.9 3.9 2
      vertex 18.1 3.9 2.2002
      vertex 19.9 3.9 2.2002
    endloop
  endfacet
  facet normal 0 1 0
    outer loop
      vertex 18.1 3.9 2.2002
      vertex 19.9 3.9 2
      vertex 18.1 3.9 2
    endloop
  endfacet
  facet normal 0 -1 0
    outer loop
      vertex 18.1 2.1 2
      vertex 19.9 2.1 2.2002
      vertex 18.1 2.1 2.2002
    endloop
  endfacet
  facet normal 0 -1 -0
    outer loop
      vertex 19.9 2.1 2.2002
      vertex 18.1 2.1 2
      vertex 19.9 2.1 2
    endloop
  endfacet
  facet normal 1 -0 0
    outer loop
      vertex 9.9 6.1 2.2002
      vertex 9.9 7.9 2
      vertex 9.9 7.9 2.2002
    endloop
  endfacet
  facet normal 1 0 0
    outer loop
      vertex 9.9 7.9 2
      vertex 9.9 6.1 2.2002
      vertex 9.9 6.1 2
    endloop
  endfacet
  facet normal -0 0 1
    outer loop
      vertex 8.1 7.9 2.2002
      vertex 9.9 6.1 2.2002
      vertex 9.9 7.9 2.2002
    endloop
  endfacet
  facet normal 0 0 1
    outer loop
      vertex 9.9 6.1 2.2002
      vertex 8.1 7.9 2.2002
      vertex 8.1 6.1 2.2002
    endloop
  endfacet
  facet normal 0 0 -1
    outer loop
      vertex 8.1 6.1 2
      vertex 9.9 7.9 2
      vertex 9.9 6.1 2
    endloop
  endfacet
  facet normal -0 0 -1
    outer loop
      vertex 9.9 7.9 2
      vertex 8.1 6.1 2
      vertex 8.1 7.9 2
    endloop
  endfacet
  facet normal -1 0 0
    outer loop
      vertex 8.1 6.1 2
      vertex 8.1 7.9 2.2002
      vertex 8.1 7.9 2
    endloop
  endfacet
  facet normal -1 -0 0
    outer loop
      vertex 8.1 7.9 2.2002
      vertex 8.1 6.1 2
      vertex 8.1 6.1 2.2002
    endloop
  endfacet
  facet normal 0 1 -0
    outer loop
      vertex 9.9 7.9 2
      vertex 8.1 7.9 2.2002
      vertex 9.9 7.9 2.2002
    endloop
  endfacet
  facet normal 0 1 0
    outer loop
      vertex 8.1 7.9 2.2002
      vertex 9.9 7.9 2
      vertex 8.1 7.9 2
    endloop
  endfacet
  facet normal 0 -1 0
    outer loop
      vertex 8.1 6.1 2
      vertex 9.9 6.1 2.2002
      vertex 8.1 6.1 2.2002
    endloop
  endfacet
  facet normal 0 -1 -0
    outer loop
      vertex 9.9 6.1 2.2002
      vertex 8.1 6.1 2
      vertex 9.9 6.1 2
    endloop
  endfacet
  facet normal 1 -0 0
    outer loop
      vertex 11.9 6.1 2.2002
      vertex 11.9 7.9 2
      vertex 11.9 7.9 2.2002
    endloop
  endfacet
  facet normal 1 0 0
    outer loop
      vertex 11.9 7.9 2
      vertex 11.9 6.1 2.2002
      vertex 11.9 6.1 2
    endloop
  endfacet
  facet normal -0 0 1
    outer loop
      vertex 10.1 7.9 2.2002
      vertex 11.9 6.1 2.2002
      vertex 11.9 7.9 2.2002
    endloop
  endfacet
  facet normal 0 0 1
    outer loop
      vertex 11.9 6.1 2.2002
      vertex 10.1 7.9 2.2002
      vertex 10.1 6.1 2.2002
    endloop
  endfacet
  facet normal 0 0 -1
    outer loop
      vertex 10.1 6.1 2
      vertex 11.9 7.9 2
      vertex 11.9 6.1 2
    endloop
  endfacet
  facet normal -0 0 -1
    outer loop
      vertex 11.9 7.9 2
      vertex 10.1 6.1 2
      vertex 10.1 7.9 2
    endloop
  endfacet
  facet normal -1 0 0
    outer loop
      vertex 10.1 6.1 2
      vertex 10.1 7.9 2.2002
      vertex 10.1 7.9 2
    endloop
  endfacet
  facet normal -1 -0 0
    outer loop
      vertex 10.1 7.9 2.2002
      vertex 10.1 6.1 2
      vertex 10.1 6.1 2.2002
    endloop
  endfacet
  facet normal 0 1 -0
    outer loop
      vertex 11.9 7.9 2
      vertex 10.1 7.9 2.2002
      vertex 11.9 7.9 2.2002
    endloop
  endfacet
  facet normal 0 1 0
    outer loop
      vertex 10.1 7.9 2.2002
      vertex 11.9 7.9 2
      vertex 10.1 7.9 2
    endloop
  endfacet
  facet normal 0 -1 0
    outer loop
      vertex 10.1 6.1 2
      vertex 11.9 6.1 2.2002
      vertex 10.1 6.1 2.2002
    endloop
  endfacet
  facet normal 0 -1 -0
    outer loop
      vertex 11.9 6.1 2.2002
      vertex 10.1 6.1 2
      vertex 11.9 6.1 2
    endloop
  endfacet
  facet normal 1 -0 0
    outer loop
      vertex 13.9 6.1 2.2002
      vertex 13.9 7.9 2
      vertex 13.9 7.9 2.2002
    endloop
  endfacet
  facet normal 1 0 0
    outer loop
      vertex 13.9 7.9 2
      vertex 13.9 6.1 2.2002
      vertex 13.9 6.1 2
    endloop
  endfacet
  facet normal -0 0 1
    outer loop
      vertex 12.1 7.9 2.2002
      vertex 13.9 6.1 2.2002
      vertex 13.9 7.9 2.2002
    endloop
  endfacet
  facet normal 0 0 1
    outer loop
      vertex 13.9 6.1 2.2002
      vertex 12.1 7.9 2.2002
      vertex 12.1 6.1 2.2002
    endloop
  endfacet
  facet normal 0 0 -1
    outer loop
      vertex 12.1 6.1 2
      vertex 13.9 7.9 2
      vertex 13.9 6.1 2
    endloop
  endfacet
  facet normal -0 0 -1
    outer loop
      vertex 13.9 7.9 2
      vertex 12.1 6.1 2
      vertex 12.1 7.9 2
    endloop
  endfacet
  facet normal -1 0 0
    outer loop
      vertex 12.1 6.1 2
      vertex 12.1 7.9 2.2002
      vertex 12.1 7.9 2
    endloop
  endfacet
  facet normal -1 -0 0
    outer loop
      vertex 12.1 7.9 2.2002
      vertex 12.1 6.1 2
      vertex 12.1 6.1 2.2002
    endloop
  endfacet
  facet normal 0 1 -0
    outer loop
      vertex 13.9 7.9 2
      vertex 12.1 7.9 2.2002
      vertex 13.9 7.9 2.2002
    endloop
  endfacet
  facet normal 0 1 0
    outer loop
      vertex 12.1 7.9 2.2002
      vertex 13.9 7.9 2
      vertex 12.1 7.9 2
    endloop
  endfacet
  facet normal 0 -1 0
    outer loop
      vertex 12.1 6.1 2
      vertex 13.9 6.1 2.2002
      vertex 12.1 6.1 2.2002
    endloop
  endfacet
  facet normal 0 -1 -0
    outer loop
      vertex 13.9 6.1 2.2002
      vertex 12.1 6.1 2
      vertex 13.9 6.1 2
    endloop
  endfacet
  facet normal 1 -0 0
    outer loop
      vertex 15.9 6.1 2.2002
      vertex 15.9 7.9 2
      vertex 15.9 7.9 2.2002
    endloop
  endfacet
  facet normal 1 0 0
    outer loop
      vertex 15.9 7.9 2
      vertex 15.9 6.1 2.2002
      vertex 15.9 6.1 2
    endloop
  endfacet
  facet normal -0 0 1
    outer loop
      vertex 14.1 7.9 2.2002
      vertex 15.9 6.1 2.2002
      vertex 15.9 7.9 2.2002
    endloop
  endfacet
  facet normal 0 0 1
    outer loop
      vertex 15.9 6.1 2.2002
      vertex 14.1 7.9 2.2002
      vertex 14.1 6.1 2.2002
    endloop
  endfacet
  facet normal 0 0 -1
    outer loop
      vertex 14.1 6.1 2
      vertex 15.9 7.9 2
      vertex 15.9 6.1 2
    endloop
  endfacet
  facet normal -0 0 -1
    outer loop
      vertex 15.9 7.9 2
      vertex 14.1 6.1 2
      vertex 14.1 7.9 2
    endloop
  endfacet
  facet normal -1 0 0
    outer loop
      vertex 14.1 6.1 2
      vertex 14.1 7.9 2.2002
      vertex 14.1 7.9 2
    endloop
  endfacet
  facet normal -1 -0 0
    outer loop
      vertex 14.1 7.9 2.2002
      vertex 14.1 6.1 2
      vertex 14.1 6.1 2.2002
    endloop
  endfacet
  facet normal 0 1 -0
    outer loop
      vertex 15.9 7.9 2
      vertex 14.1 7.9 2.2002
      vertex 15.9 7.9 2.2002
    endloop
  endfacet
  facet normal 0 1 0
    outer loop
      vertex 14.1 7.9 2.2002
      vertex 15.9 7.9 2
      vertex 14.1 7.9 2
    endloop
  endfacet
  facet normal 0 -1 0
    outer loop
      vertex 14.1 6.1 2
      vertex 15.9 6.1 2.2002
      vertex 14.1 6.1 2.2002
    endloop
  endfacet
  facet normal 0 -1 -0
    outer loop
      vertex 15.9 6.1 2.2002
      vertex 14.1 6.1 2
      vertex 15.9 6.1 2
    endloop
  endfacet
  facet normal 1 -0 0
    outer loop
      vertex 17.9 6.1 2.2002
      vertex 17.9 7.9 2
      vertex 17.9 7.9 2.2002
    endloop
  endfacet
  facet normal 1 0 0
    outer loop
      vertex 17.9 7.9 2
      vertex 17.9 6.1 2.2002
      vertex 17.9 6.1 2
    endloop
  endfacet
  facet normal -0 0 1
    outer loop
      vertex 16.1 7.9 2.2002
      vertex 17.9 6.1 2.2002
      vertex 17.9 7.9 2.2002
    endloop
  endfacet
  facet normal 0 0 1
    outer loop
      vertex 17.9 6.1 2.2002
      vertex 16.1 7.9 2.2002
      vertex 16.1 6.1 2.2002
    endloop
  endfacet
  facet normal 0 0 -1
    outer loop
      vertex 16.1 6.1 2
      vertex 17.9 7.9 2
      vertex 17.9 6.1 2
    endloop
  endfacet
  facet normal -0 0 -1
    outer loop
      vertex 17.9 7.9 2
      vertex 16.1 6.1 2
      vertex 16.1 7.9 2
    endloop
  endfacet
  facet normal -1 0 0
    outer loop
      vertex 16.1 6.1 2
      vertex 16.1 7.9 2.2002
      vertex 16.1 7.9 2
    endloop
  endfacet
  facet normal -1 -0 0
    outer loop
      vertex 16.1 7.9 2.2002
      vertex 16.1 6.1 2
      vertex 16.1 6.1 2.2002
    endloop
  endfacet
  facet normal 0 1 -0
    outer loop
      vertex 17.9 7.9 2
      vertex 16.1 7.9 2.2002
      vertex 17.9 7.9 2.2002
    endloop
  endfacet
  facet normal 0 1 0
    outer loop
      vertex 16.1 7.9 2.2002
      vertex 17.9 7.9 2
      vertex 16.1 7.9 2
    endloop
  endfacet
  facet normal 0 -1 0
    outer loop
      vertex 16.1 6.1 2
      vertex 17.9 6.1 2.2002
      vertex 16.1 6.1 2.2002
    endloop
  endfacet
  facet normal 0 -1 -0
    outer loop
      vertex 17.9 6.1 2.2002
      vertex 16.1 6.1 2
      vertex 17.9 6.1 2
    endloop
  endfacet
  facet normal 1 -0 0
    outer loop
      vertex 7.9 8.1 2.2002
      vertex 7.9 9.9 2
      vertex 7.9 9.9 2.2002
    endloop
  endfacet
  facet normal 1 0 0
    outer loop
      vertex 7.9 9.9 2
      vertex 7.9 8.1 2.2002
      vertex 7.9 8.1 2
    endloop
  endfacet
  facet normal -0 0 1
    outer loop
      vertex 6.1 9.9 2.2002
      vertex 7.9 8.1 2.2002
      vertex 7.9 9.9 2.2002
    endloop
  endfacet
  facet normal 0 0 1
    outer loop
      vertex 7.9 8.1 2.2002
      vertex 6.1 9.9 2.2002
      vertex 6.1 8.1 2.2002
    endloop
  endfacet
  facet normal 0 0 -1
    outer loop
      vertex 6.1 8.1 2
      vertex 7.9 9.9 2
      vertex 7.9 8.1 2
    endloop
  endfacet
  facet normal -0 0 -1
    outer loop
      vertex 7.9 9.9 2
      vertex 6.1 8.1 2
      vertex 6.1 9.9 2
    endloop
  endfacet
  facet normal -1 0 0
    outer loop
      vertex 6.1 8.1 2
      vertex 6.1 9.9 2.2002
      vertex 6.1 9.9 2
    endloop
  endfacet
  facet normal -1 -0 0
    outer loop
      vertex 6.1 9.9 2.2002
      vertex 6.1 8.1 2
      vertex 6.1 8.1 2.2002
    endloop
  endfacet
  facet normal 0 1 -0
    outer loop
      vertex 7.9 9.9 2
      vertex 6.1 9.9 2.2002
      vertex 7.9 9.9 2.2002
    endloop
  endfacet
  facet normal 0 1 0
    outer loop
      vertex 6.1 9.9 2.2002
      vertex 7.9 9.9 2
      vertex 6.1 9.9 2
    endloop
  endfacet
  facet normal 0 -1 0
    outer loop
      vertex 6.1 8.1 2
      vertex 7.9 8.1 2.2002
      vertex 6.1 8.1 2.2002
    endloop
  endfacet
  facet normal 0 -1 -0
    outer loop
      vertex 7.9 8.1 2.2002
      vertex 6.1 8.1 2
      vertex 7.9 8.1 2
    endloop
  endfacet
  facet normal 1 -0 0
    outer loop
      vertex 9.9 8.1 2.2002
      vertex 9.9 9.9 2
      vertex 9.9 9.9 2.2002
    endloop
  endfacet
  facet normal 1 0 0
    outer loop
      vertex 9.9 9.9 2
      vertex 9.9 8.1 2.2002
      vertex 9.9 8.1 2
    endloop
  endfacet
  facet normal -0 0 1
    outer loop
      vertex 8.1 9.9 2.2002
      vertex 9.9 8.1 2.2002
      vertex 9.9 9.9 2.2002
    endloop
  endfacet
  facet normal 0 0 1
    outer loop
      vertex 9.9 8.1 2.2002
      vertex 8.1 9.9 2.2002
      vertex 8.1 8.1 2.2002
    endloop
  endfacet
  facet normal 0 0 -1
    outer loop
      vertex 8.1 8.1 2
      vertex 9.9 9.9 2
      vertex 9.9 8.1 2
    endloop
  endfacet
  facet normal -0 0 -1
    outer loop
      vertex 9.9 9.9 2
      vertex 8.1 8.1 2
      vertex 8.1 9.9 2
    endloop
  endfacet
  facet normal -1 0 0
    outer loop
      vertex 8.1 8.1 2
      vertex 8.1 9.9 2.2002
      vertex 8.1 9.9 2
    endloop
  endfacet
  facet normal -1 -0 0
    outer loop
      vertex 8.1 9.9 2.2002
      vertex 8.1 8.1 2
      vertex 8.1 8.1 2.2002
    endloop
  endfacet
  facet normal 0 1 -0
    outer loop
      vertex 9.9 9.9 2
      vertex 8.1 9.9 2.2002
      vertex 9.9 9.9 2.2002
    endloop
  endfacet
  facet normal 0 1 0
    outer loop
      vertex 8.1 9.9 2.2002
      vertex 9.9 9.9 2
      vertex 8.1 9.9 2
    endloop
  endfacet
  facet normal 0 -1 0
    outer loop
      vertex 8.1 8.1 2
      vertex 9.9 8.1 2.2002
      vertex 8.1 8.1 2.2002
    endloop
  endfacet
  facet normal 0 -1 -0
    outer loop
      vertex 9.9 8.1 2.2002
      vertex 8.1 8.1 2
      vertex 9.9 8.1 2
    endloop
  endfacet
  facet normal 1 -0 0
    outer loop
      vertex 17.9 8.1 2.2002
      vertex 17.9 9.9 2
      vertex 17.9 9.9 2.2002
    endloop
  endfacet
  facet normal 1 0 0
    outer loop
      vertex 17.9 9.9 2
      vertex 17.9 8.1 2.2002
      vertex 17.9 8.1 2
    endloop
  endfacet
  facet normal -0 0 1
    outer loop
      vertex 16.1 9.9 2.2002
      vertex 17.9 8.1 2.2002
      vertex 17.9 9.9 2.2002
    endloop
  endfacet
  facet normal 0 0 1
    outer loop
      vertex 17.9 8.1 2.2002
      vertex 16.1 9.9 2.2002
      vertex 16.1 8.1 2.2002
    endloop
  endfacet
  facet normal 0 0 -1
    outer loop
      vertex 16.1 8.1 2
      vertex 17.9 9.9 2
      vertex 17.9 8.1 2
    endloop
  endfacet
  facet normal -0 0 -1
    outer loop
      vertex 17.9 9.9 2
      vertex 16.1 8.1 2
      vertex 16.1 9.9 2
    endloop
  endfacet
  facet normal -1 0 0
    outer loop
      vertex 16.1 8.1 2
      vertex 16.1 9.9 2.2002
      vertex 16.1 9.9 2
    endloop
  endfacet
  facet normal -1 -0 0
    outer loop
      vertex 16.1 9.9 2.2002
      vertex 16.1 8.1 2
      vertex 16.1 8.1 2.2002
    endloop
  endfacet
  facet normal 0 1 -0
    outer loop
      vertex 17.9 9.9 2
      vertex 16.1 9.9 2.2002
      vertex 17.9 9.9 2.2002
    endloop
  endfacet
  facet normal 0 1 0
    outer loop
      vertex 16.1 9.9 2.2002
      vertex 17.9 9.9 2
      vertex 16.1 9.9 2
    endloop
  endfacet
  facet normal 0 -1 0
    outer loop
      vertex 16.1 8.1 2
      vertex 17.9 8.1 2.2002
      vertex 16.1 8.1 2.2002
    endloop
  endfacet
  facet normal 0 -1 -0
    outer loop
      vertex 17.9 8.1 2.2002
      vertex 16.1 8.1 2
      vertex 17.9 8.1 2
    endloop
  endfacet
  facet normal 1 -0 0
    outer loop
      vertex 19.9 8.1 2.2002
      vertex 19.9 9.9 2
      vertex 19.9 9.9 2.2002
    endloop
  endfacet
  facet normal 1 0 0
    outer loop
      vertex 19.9 9.9 2
      vertex 19.9 8.1 2.2002
      vertex 19.9 8.1 2
    endloop
  endfacet
  facet normal -0 0 1
    outer loop
      vertex 18.1 9.9 2.2002
      vertex 19.9 8.1 2.2002
      vertex 19.9 9.9 2.2002
    endloop
  endfacet
  facet normal 0 0 1
    outer loop
      vertex 19.9 8.1 2.2002
      vertex 18.1 9.9 2.2002
      vertex 18.1 8.1 2.2002
    endloop
  endfacet
  facet normal 0 0 -1
    outer loop
      vertex 18.1 8.1 2
      vertex 19.9 9.9 2
      vertex 19.9 8.1 2
    endloop
  endfacet
  facet normal -0 0 -1
    outer loop
      vertex 19.9 9.9 2
      vertex 18.1 8.1 2
      vertex 18.1 9.9 2
    endloop
  endfacet
  facet normal -1 0 0
    outer loop
      vertex 18.1 8.1 2
      vertex 18.1 9.9 2.2002
      vertex 18.1 9.9 2
    endloop
  endfacet
  facet normal -1 -0 0
    outer loop
      vertex 18.1 9.9 2.2002
      vertex 18.1 8.1 2
      vertex 18.1 8.1 2.2002
    endloop
  endfacet
  facet normal 0 1 -0
    outer loop
      vertex 19.9 9.9 2
      vertex 18.1 9.9 2.2002
      vertex 19.9 9.9 2.2002
    endloop
  endfacet
  facet normal 0 1 0
    outer loop
      vertex 18.1 9.9 2.2002
      vertex 19.9 9.9 2
      vertex 18.1 9.9 2
    endloop
  endfacet
  facet normal 0 -1 0
    outer loop
      vertex 18.1 8.1 2
      vertex 19.9 8.1 2.2002
      vertex 18.1 8.1 2.2002
    endloop
  endfacet
  facet normal 0 -1 -0
    outer loop
      vertex 19.9 8.1 2.2002
      vertex 18.1 8.1 2
      vertex 19.9 8.1 2
    endloop
  endfacet
  facet normal 1 -0 0
    outer loop
      vertex 7.9 10.1 2.2002
      vertex 7.9 11.9 2
      vertex 7.9 11.9 2.2002
    endloop
  endfacet
  facet normal 1 0 0
    outer loop
      vertex 7.9 11.9 2
      vertex 7.9 10.1 2.2002
      vertex 7.9 10.1 2
    endloop
  endfacet
  facet normal -0 0 1
    outer loop
      vertex 6.1 11.9 2.2002
      vertex 7.9 10.1 2.2002
      vertex 7.9 11.9 2.2002
    endloop
  endfacet
  facet normal 0 0 1
    outer loop
      vertex 7.9 10.1 2.2002
      vertex 6.1 11.9 2.2002
      vertex 6.1 10.1 2.2002
    endloop
  endfacet
  facet normal 0 0 -1
    outer loop
      vertex 6.1 10.1 2
      vertex 7.9 11.9 2
      vertex 7.9 10.1 2
    endloop
  endfacet
  facet normal -0 0 -1
    outer loop
      vertex 7.9 11.9 2
      vertex 6.1 10.1 2
      vertex 6.1 11.9 2
    endloop
  endfacet
  facet normal -1 0 0
    outer loop
      vertex 6.1 10.1 2
      vertex 6.1 11.9 2.2002
      vertex 6.1 11.9 2
    endloop
  endfacet
  facet normal -1 -0 0
    outer loop
      vertex 6.1 11.9 2.2002
      vertex 6.1 10.1 2
      vertex 6.1 10.1 2.2002
    endloop
  endfacet
  facet normal 0 1 -0
    outer loop
      vertex 7.9 11.9 2
      vertex 6.1 11.9 2.2002
      vertex 7.9 11.9 2.2002
    endloop
  endfacet
  facet normal 0 1 0
    outer loop
      vertex 6.1 11.9 2.2002
      vertex 7.9 11.9 2
      vertex 6.1 11.9 2
    endloop
  endfacet
  facet normal 0 -1 0
    outer loop
      vertex 6.1 10.1 2
      vertex 7.9 10.1 2.2002
      vertex 6.1 10.1 2.2002
    endloop
  endfacet
  facet normal 0 -1 -0
    outer loop
      vertex 7.9 10.1 2.2002
      vertex 6.1 10.1 2
      vertex 7.9 10.1 2
    endloop
  endfacet
  facet normal 1 -0 0
    outer loop
      vertex 9.9 10.1 2.2002
      vertex 9.9 11.9 2
      vertex 9.9 11.9 2.2002
    endloop
  endfacet
  facet normal 1 0 0
    outer loop
      vertex 9.9 11.9 2
      vertex 9.9 10.1 2.2002
      vertex 9.9 10.1 2
    endloop
  endfacet
  facet normal -0 0 1
    outer loop
      vertex 8.1 11.9 2.2002
      vertex 9.9 10.1 2.2002
      vertex 9.9 11.9 2.2002
    endloop
  endfacet
  facet normal 0 0 1
    outer loop
      vertex 9.9 10.1 2.2002
      vertex 8.1 11.9 2.2002
      vertex 8.1 10.1 2.2002
    endloop
  endfacet
  facet normal 0 0 -1
    outer loop
      vertex 8.1 10.1 2
      vertex 9.9 11.9 2
      vertex 9.9 10.1 2
    endloop
  endfacet
  facet normal -0 0 -1
    outer loop
      vertex 9.9 11.9 2
      vertex 8.1 10.1 2
      vertex 8.1 11.9 2
    endloop
  endfacet
  facet normal -1 0 0
    outer loop
      vertex 8.1 10.1 2
      vertex 8.1 11.9 2.2002
      vertex 8.1 11.9 2
    endloop
  endfacet
  facet normal -1 -0 0
    outer loop
      vertex 8.1 11.9 2.2002
      vertex 8.1 10.1 2
      vertex 8.1 10.1 2.2002
    endloop
  endfacet
  facet normal 0 1 -0
    outer loop
      vertex 9.9 11.9 2
      vertex 8.1 11.9 2.2002
      vertex 9.9 11.9 2.2002
    endloop
  endfacet
  facet normal 0 1 0
    outer loop
      vertex 8.1 11.9 2.2002
      vertex 9.9 11.9 2
      vertex 8.1 11.9 2
    endloop
  endfacet
  facet normal 0 -1 0
    outer loop
      vertex 8.1 10.1 2
      vertex 9.9 10.1 2.2002
      vertex 8.1 10.1 2.2002
    endloop
  endfacet
  facet normal 0 -1 -0
    outer loop
      vertex 9.9 10.1 2.2002
      vertex 8.1 10.1 2
      vertex 9.9 10.1 2
    endloop
  endfacet
  facet normal 1 -0 0
    outer loop
      vertex 17.9 10.1 2.2002
      vertex 17.9 11.9 2
      vertex 17.9 11.9 2.2002
    endloop
  endfacet
  facet normal 1 0 0
    outer loop
      vertex 17.9 11.9 2
      vertex 17.9 10.1 2.2002
      vertex 17.9 10.1 2
    endloop
  endfacet
  facet normal -0 0 1
    outer loop
      vertex 16.1 11.9 2.2002
      vertex 17.9 10.1 2.2002
      vertex 17.9 11.9 2.2002
    endloop
  endfacet
  facet normal 0 0 1
    outer loop
      vertex 17.9 10.1 2.2002
      vertex 16.1 11.9 2.2002
      vertex 16.1 10.1 2.2002
    endloop
  endfacet
  facet normal 0 0 -1
    outer loop
      vertex 16.1 10.1 2
      vertex 17.9 11.9 2
      vertex 17.9 10.1 2
    endloop
  endfacet
  facet normal -0 0 -1
    outer loop
      vertex 17.9 11.9 2
      vertex 16.1 10.1 2
      vertex 16.1 11.9 2
    endloop
  endfacet
  facet normal -1 0 0
    outer loop
      vertex 16.1 10.1 2
      vertex 16.1 11.9 2.2002
      vertex 16.1 11.9 2
    endloop
  endfacet
  facet normal -1 -0 0
    outer loop
      vertex 16.1 11.9 2.2002
      vertex 16.1 10.1 2
      vertex 16.1 10.1 2.2002
    endloop
  endfacet
  facet normal 0 1 -0
    outer loop
      vertex 17.9 11.9 2
      vertex 16.1 11.9 2.2002
      vertex 17.9 11.9 2.2002
    endloop
  endfacet
  facet normal 0 1 0
    outer loop
      vertex 16.1 11.9 2.2002
      vertex 17.9 11.9 2
      vertex 16.1 11.9 2
    endloop
  endfacet
  facet normal 0 -1 0
    outer loop
      vertex 16.1 10.1 2
      vertex 17.9 10.1 2.2002
      vertex 16.1 10.1 2.2002
    endloop
  endfacet
  facet normal 0 -1 -0
    outer loop
      vertex 17.9 10.1 2.2002
      vertex 16.1 10.1 2
      vertex 17.9 10.1 2
    endloop
  endfacet
  facet normal 1 -0 0
    outer loop
      vertex 19.9 10.1 2.2002
      vertex 19.9 11.9 2
      vertex 19.9 11.9 2.2002
    endloop
  endfacet
  facet normal 1 0 0
    outer loop
      vertex 19.9 11.9 2
      vertex 19.9 10.1 2.2002
      vertex 19.9 10.1 2
    endloop
  endfacet
  facet normal -0 0 1
    outer loop
      vertex 18.1 11.9 2.2002
      vertex 19.9 10.1 2.2002
      vertex 19.9 11.9 2.2002
    endloop
  endfacet
  facet normal 0 0 1
    outer loop
      vertex 19.9 10.1 2.2002
      vertex 18.1 11.9 2.2002
      vertex 18.1 10.1 2.2002
    endloop
  endfacet
  facet normal 0 0 -1
    outer loop
      vertex 18.1 10.1 2
      vertex 19.9 11.9 2
      vertex 19.9 10.1 2
    endloop
  endfacet
  facet normal -0 0 -1
    outer loop
      vertex 19.9 11.9 2
      vertex 18.1 10.1 2
      vertex 18.1 11.9 2
    endloop
  endfacet
  facet normal -1 0 0
    outer loop
      vertex 18.1 10.1 2
      vertex 18.1 11.9 2.2002
      vertex 18.1 11.9 2
    endloop
  endfacet
  facet normal -1 -0 0
    outer loop
      vertex 18.1 11.9 2.2002
      vertex 18.1 10.1 2
      vertex 18.1 10.1 2.2002
    endloop
  endfacet
  facet normal 0 1 -0
    outer loop
      vertex 19.9 11.9 2
      vertex 18.1 11.9 2.2002
      vertex 19.9 11.9 2.2002
    endloop
  endfacet
  facet normal 0 1 0
    outer loop
      vertex 18.1 11.9 2.2002
      vertex 19.9 11.9 2
      vertex 18.1 11.9 2
    endloop
  endfacet
  facet normal 0 -1 0
    outer loop
      vertex 18.1 10.1 2
      vertex 19.9 10.1 2.2002
      vertex 18.1 10.1 2.2002
    endloop
  endfacet
  facet normal 0 -1 -0
    outer loop
      vertex 19.9 10.1 2.2002
      vertex 18.1 10.1 2
      vertex 19.9 10.1 2
    endloop
  endfacet
  facet normal 1 -0 0
    outer loop
      vertex 7.9 12.1 2.2002
      vertex 7.9 13.9 2
      vertex 7.9 13.9 2.2002
    endloop
  endfacet
  facet normal 1 0 0
    outer loop
      vertex 7.9 13.9 2
      vertex 7.9 12.1 2.2002
      vertex 7.9 12.1 2
    endloop
  endfacet
  facet normal -0 0 1
    outer loop
      vertex 6.1 13.9 2.2002
      vertex 7.9 12.1 2.2002
      vertex 7.9 13.9 2.2002
    endloop
  endfacet
  facet normal 0 0 1
    outer loop
      vertex 7.9 12.1 2.2002
      vertex 6.1 13.9 2.2002
      vertex 6.1 12.1 2.2002
    endloop
  endfacet
  facet normal 0 0 -1
    outer loop
      vertex 6.1 12.1 2
      vertex 7.9 13.9 2
      vertex 7.9 12.1 2
    endloop
  endfacet
  facet normal -0 0 -1
    outer loop
      vertex 7.9 13.9 2
      vertex 6.1 12.1 2
      vertex 6.1 13.9 2
    endloop
  endfacet
  facet normal -1 0 0
    outer loop
      vertex 6.1 12.1 2
      vertex 6.1 13.9 2.2002
      vertex 6.1 13.9 2
    endloop
  endfacet
  facet normal -1 -0 0
    outer loop
      vertex 6.1 13.9 2.2002
      vertex 6.1 12.1 2
      vertex 6.1 12.1 2.2002
    endloop
  endfacet
  facet normal 0 1 -0
    outer loop
      vertex 7.9 13.9 2
      vertex 6.1 13.9 2.2002
      vertex 7.9 13.9 2.2002
    endloop
  endfacet
  facet normal 0 1 0
    outer loop
      vertex 6.1 13.9 2.2002
      vertex 7.9 13.9 2
      vertex 6.1 13.9 2
    endloop
  endfacet
  facet normal 0 -1 0
    outer loop
      vertex 6.1 12.1 2
      vertex 7.9 12.1 2.2002
      vertex 6.1 12.1 2.2002
    endloop
  endfacet
  facet normal 0 -1 -0
    outer loop
      vertex 7.9 12.1 2.2002
      vertex 6.1 12.1 2
      vertex 7.9 12.1 2
    endloop
  endfacet
  facet normal 1 -0 0
    outer loop
      vertex 9.9 12.1 2.2002
      vertex 9.9 13.9 2
      vertex 9.9 13.9 2.2002
    endloop
  endfacet
  facet normal 1 0 0
    outer loop
      vertex 9.9 13.9 2
      vertex 9.9 12.1 2.2002
      vertex 9.9 12.1 2
    endloop
  endfacet
  facet normal -0 0 1
    outer loop
      vertex 8.1 13.9 2.2002
      vertex 9.9 12.1 2.2002
      vertex 9.9 13.9 2.2002
    endloop
  endfacet
  facet normal 0 0 1
    outer loop
      vertex 9.9 12.1 2.2002
      vertex 8.1 13.9 2.2002
      vertex 8.1 12.1 2.2002
    endloop
  endfacet
  facet normal 0 0 -1
    outer loop
      vertex 8.1 12.1 2
      vertex 9.9 13.9 2
      vertex 9.9 12.1 2
    endloop
  endfacet
  facet normal -0 0 -1
    outer loop
      vertex 9.9 13.9 2
      vertex 8.1 12.1 2
      vertex 8.1 13.9 2
    endloop
  endfacet
  facet normal -1 0 0
    outer loop
      vertex 8.1 12.1 2
      vertex 8.1 13.9 2.2002
      vertex 8.1 13.9 2
    endloop
  endfacet
  facet normal -1 -0 0
    outer loop
      vertex 8.1 13.9 2.2002
      vertex 8.1 12.1 2
      vertex 8.1 12.1 2.2002
    endloop
  endfacet
  facet normal 0 1 -0
    outer loop
      vertex 9.9 13.9 2
      vertex 8.1 13.9 2.2002
      vertex 9.9 13.9 2.2002
    endloop
  endfacet
  facet normal 0 1 0
    outer loop
      vertex 8.1 13.9 2.2002
      vertex 9.9 13.9 2
      vertex 8.1 13.9 2
    endloop
  endfacet
  facet normal 0 -1 0
    outer loop
      vertex 8.1 12.1 2
      vertex 9.9 12.1 2.2002
      vertex 8.1 12.1 2.2002
    endloop
  endfacet
  facet normal 0 -1 -0
    outer loop
      vertex 9.9 12.1 2.2002
      vertex 8.1 12.1 2
      vertex 9.9 12.1 2
    endloop
  endfacet
  facet normal 1 -0 0
    outer loop
      vertex 17.9 12.1 2.2002
      vertex 17.9 13.9 2
      vertex 17.9 13.9 2.2002
    endloop
  endfacet
  facet normal 1 0 0
    outer loop
      vertex 17.9 13.9 2
      vertex 17.9 12.1 2.2002
      vertex 17.9 12.1 2
    endloop
  endfacet
  facet normal -0 0 1
    outer loop
      vertex 16.1 13.9 2.2002
      vertex 17.9 12.1 2.2002
      vertex 17.9 13.9 2.2002
    endloop
  endfacet
  facet normal 0 0 1
    outer loop
      vertex 17.9 12.1 2.2002
      vertex 16.1 13.9 2.2002
      vertex 16.1 12.1 2.2002
    endloop
  endfacet
  facet normal 0 0 -1
    outer loop
      vertex 16.1 12.1 2
      vertex 17.9 13.9 2
      vertex 17.9 12.1 2
    endloop
  endfacet
  facet normal -0 0 -1
    outer loop
      vertex 17.9 13.9 2
      vertex 16.1 12.1 2
      vertex 16.1 13.9 2
    endloop
  endfacet
  facet normal -1 0 0
    outer loop
      vertex 16.1 12.1 2
      vertex 16.1 13.9 2.2002
      vertex 16.1 13.9 2
    endloop
  endfacet
  facet normal -1 -0 0
    outer loop
      vertex 16.1 13.9 2.2002
      vertex 16.1 12.1 2
      vertex 16.1 12.1 2.2002
    endloop
  endfacet
  facet normal 0 1 -0
    outer loop
      vertex 17.9 13.9 2
      vertex 16.1 13.9 2.2002
      vertex 17.9 13.9 2.2002
    endloop
  endfacet
  facet normal 0 1 0
    outer loop
      vertex 16.1 13.9 2.2002
      vertex 17.9 13.9 2
      vertex 16.1 13.9 2
    endloop
  endfacet
  facet normal 0 -1 0
    outer loop
      vertex 16.1 12.1 2
      vertex 17.9 12.1 2.2002
      vertex 16.1 12.1 2.2002
    endloop
  endfacet
  facet normal 0 -1 -0
    outer loop
      vertex 17.9 12.1 2.2002
      vertex 16.1 12.1 2
      vertex 17.9 12.1 2
    endloop
  endfacet
  facet normal 1 -0 0
    outer loop
      vertex 19.9 12.1 2.2002
      vertex 19.9 13.9 2
      vertex 19.9 13.9 2.2002
    endloop
  endfacet
  facet normal 1 0 0
    outer loop
      vertex 19.9 13.9 2
      vertex 19.9 12.1 2.2002
      vertex 19.9 12.1 2
    endloop
  endfacet
  facet normal -0 0 1
    outer loop
      vertex 18.1 13.9 2.2002
      vertex 19.9 12.1 2.2002
      vertex 19.9 13.9 2.2002
    endloop
  endfacet
  facet normal 0 0 1
    outer loop
      vertex 19.9 12.1 2.2002
      vertex 18.1 13.9 2.2002
      vertex 18.1 12.1 2.2002
    endloop
  endfacet
  facet normal 0 0 -1
    outer loop
      vertex 18.1 12.1 2
      vertex 19.9 13.9 2
      vertex 19.9 12.1 2
    endloop
  endfacet
  facet normal -0 0 -1
    outer loop
      vertex 19.9 13.9 2
      vertex 18.1 12.1 2
      vertex 18.1 13.9 2
    endloop
  endfacet
  facet normal -1 0 0
    outer loop
      vertex 18.1 12.1 2
      vertex 18.1 13.9 2.2002
      vertex 18.1 13.9 2
    endloop
  endfacet
  facet normal -1 -0 0
    outer loop
      vertex 18.1 13.9 2.2002
      vertex 18.1 12.1 2
      vertex 18.1 12.1 2.2002
    endloop
  endfacet
  facet normal 0 1 -0
    outer loop
      vertex 19.9 13.9 2
      vertex 18.1 13.9 2.2002
      vertex 19.9 13.9 2.2002
    endloop
  endfacet
  facet normal 0 1 0
    outer loop
      vertex 18.1 13.9 2.2002
      vertex 19.9 13.9 2
      vertex 18.1 13.9 2
    endloop
  endfacet
  facet normal 0 -1 0
    outer loop
      vertex 18.1 12.1 2
      vertex 19.9 12.1 2.2002
      vertex 18.1 12.1 2.2002
    endloop
  endfacet
  facet normal 0 -1 -0
    outer loop
      vertex 19.9 12.1 2.2002
      vertex 18.1 12.1 2
      vertex 19.9 12.1 2
    endloop
  endfacet
  facet normal 1 -0 0
    outer loop
      vertex 7.9 14.1 2.2002
      vertex 7.9 15.9 2
      vertex 7.9 15.9 2.2002
    endloop
  endfacet
  facet normal 1 0 0
    outer loop
      vertex 7.9 15.9 2
      vertex 7.9 14.1 2.2002
      vertex 7.9 14.1 2
    endloop
  endfacet
  facet normal -0 0 1
    outer loop
      vertex 6.1 15.9 2.2002
      vertex 7.9 14.1 2.2002
      vertex 7.9 15.9 2.2002
    endloop
  endfacet
  facet normal 0 0 1
    outer loop
      vertex 7.9 14.1 2.2002
      vertex 6.1 15.9 2.2002
      vertex 6.1 14.1 2.2002
    endloop
  endfacet
  facet normal 0 0 -1
    outer loop
      vertex 6.1 14.1 2
      vertex 7.9 15.9 2
      vertex 7.9 14.1 2
    endloop
  endfacet
  facet normal -0 0 -1
    outer loop
      vertex 7.9 15.9 2
      vertex 6.1 14.1 2
      vertex 6.1 15.9 2
    endloop
  endfacet
  facet normal -1 0 0
    outer loop
      vertex 6.1 14.1 2
      vertex 6.1 15.9 2.2002
      vertex 6.1 15.9 2
    endloop
  endfacet
  facet normal -1 -0 0
    outer loop
      vertex 6.1 15.9 2.2002
      vertex 6.1 14.1 2
      vertex 6.1 14.1 2.2002
    endloop
  endfacet
  facet normal 0 1 -0
    outer loop
      vertex 7.9 15.9 2
      vertex 6.1 15.9 2.2002
      vertex 7.9 15.9 2.2002
    endloop
  endfacet
  facet normal 0 1 0
    outer loop
      vertex 6.1 15.9 2.2002
      vertex 7.9 15.9 2
      vertex 6.1 15.9 2
    endloop
  endfacet
  facet normal 0 -1 0
    outer loop
      vertex 6.1 14.1 2
      vertex 7.9 14.1 2.2002
      vertex 6.1 14.1 2.2002
    endloop
  endfacet
  facet normal 0 -1 -0
    outer loop
      vertex 7.9 14.1 2.2002
      vertex 6.1 14.1 2
      vertex 7.9 14.1 2
    endloop
  endfacet
  facet normal 1 -0 0
    outer loop
      vertex 9.9 14.1 2.2002
      vertex 9.9 15.9 2
      vertex 9.9 15.9 2.2002
    endloop
  endfacet
  facet normal 1 0 0
    outer loop
      vertex 9.9 15.9 2
      vertex 9.9 14.1 2.2002
      vertex 9.9 14.1 2
    endloop
  endfacet
  facet normal -0 0 1
    outer loop
      vertex 8.1 15.9 2.2002
      vertex 9.9 14.1 2.2002
      vertex 9.9 15.9 2.2002
    endloop
  endfacet
  facet normal 0 0 1
    outer loop
      vertex 9.9 14.1 2.2002
      vertex 8.1 15.9 2.2002
      vertex 8.1 14.1 2.2002
    endloop
  endfacet
  facet normal 0 0 -1
    outer loop
      vertex 8.1 14.1 2
      vertex 9.9 15.9 2
      vertex 9.9 14.1 2
    endloop
  endfacet
  facet normal -0 0 -1
    outer loop
      vertex 9.9 15.9 2
      vertex 8.1 14.1 2
      vertex 8.1 15.9 2
    endloop
  endfacet
  facet normal -1 0 0
    outer loop
      vertex 8.1 14.1 2
      vertex 8.1 15.9 2.2002
      vertex 8.1 15.9 2
    endloop
  endfacet
  facet normal -1 -0 0
    outer loop
      vertex 8.1 15.9 2.2002
      vertex 8.1 14.1 2
      vertex 8.1 14.1 2.2002
    endloop
  endfacet
  facet normal 0 1 -0
    outer loop
      vertex 9.9 15.9 2
      vertex 8.1 15.9 2.2002
      vertex 9.9 15.9 2.2002
    endloop
  endfacet
  facet normal 0 1 0
    outer loop
      vertex 8.1 15.9 2.2002
      vertex 9.9 15.9 2
      vertex 8.1 15.9 2
    endloop
  endfacet
  facet normal 0 -1 0
    outer loop
      vertex 8.1 14.1 2
      vertex 9.9 14.1 2.2002
      vertex 8.1 14.1 2.2002
    endloop
  endfacet
  facet normal 0 -1 -0
    outer loop
      vertex 9.9 14.1 2.2002
      vertex 8.1 14.1 2
      vertex 9.9 14.1 2
    endloop
  endfacet
  facet normal 1 -0 0
    outer loop
      vertex 11.9 14.1 2.2002
      vertex 11.9 15.9 2
      vertex 11.9 15.9 2.2002
    endloop
  endfacet
  facet normal 1 0 0
    outer loop
      vertex 11.9 15.9 2
      vertex 11.9 14.1 2.2002
      vertex 11.9 14.1 2
    endloop
  endfacet
  facet normal -0 0 1
    outer loop
      vertex 10.1 15.9 2.2002
      vertex 11.9 14.1 2.2002
      vertex 11.9 15.9 2.2002
    endloop
  endfacet
  facet normal 0 0 1
    outer loop
      vertex 11.9 14.1 2.2002
      vertex 10.1 15.9 2.2002
      vertex 10.1 14.1 2.2002
    endloop
  endfacet
  facet normal 0 0 -1
    outer loop
      vertex 10.1 14.1 2
      vertex 11.9 15.9 2
      vertex 11.9 14.1 2
    endloop
  endfacet
  facet normal -0 0 -1
    outer loop
      vertex 11.9 15.9 2
      vertex 10.1 14.1 2
      vertex 10.1 15.9 2
    endloop
  endfacet
  facet normal -1 0 0
    outer loop
      vertex 10.1 14.1 2
      vertex 10.1 15.9 2.2002
      vertex 10.1 15.9 2
    endloop
  endfacet
  facet normal -1 -0 0
    outer loop
      vertex 10.1 15.9 2.2002
      vertex 10.1 14.1 2
      vertex 10.1 14.1 2.2002
    endloop
  endfacet
  facet normal 0 1 -0
    outer loop
      vertex 11.9 15.9 2
      vertex 10.1 15.9 2.2002
      vertex 11.9 15.9 2.2002
    endloop
  endfacet
  facet normal 0 1 0
    outer loop
      vertex 10.1 15.9 2.2002
      vertex 11.9 15.9 2
      vertex 10.1 15.9 2
    endloop
  endfacet
  facet normal 0 -1 0
    outer loop
      vertex 10.1 14.1 2
      vertex 11.9 14.1 2.2002
      vertex 10.1 14.1 2.2002
    endloop
  endfacet
  facet normal 0 -1 -0
    outer loop
      vertex 11.9 14.1 2.2002
      vertex 10.1 14.1 2
      vertex 11.9 14.1 2
    endloop
  endfacet
  facet normal 1 -0 0
    outer loop
      vertex 13.9 16.1 2.2002
      vertex 13.9 17.9 2
      vertex 13.9 17.9 2.2002
    endloop
  endfacet
  facet normal 1 0 0
    outer loop
      vertex 13.9 17.9 2
      vertex 13.9 16.1 2.2002
      vertex 13.9 16.1 2
    endloop
  endfacet
  facet normal -0 0 1
    outer loop
      vertex 12.1 17.9 2.2002
      vertex 13.9 16.1 2.2002
      vertex 13.9 17.9 2.2002
    endloop
  endfacet
  facet normal 0 0 1
    outer loop
      vertex 13.9 16.1 2.2002
      vertex 12.1 17.9 2.2002
      vertex 12.1 16.1 2.2002
    endloop
  endfacet
  facet normal 0 0 -1
    outer loop
      vertex 12.1 16.1 2
      vertex 13.9 17.9 2
      vertex 13.9 16.1 2
    endloop
  endfacet
  facet normal -0 0 -1
    outer loop
      vertex 13.9 17.9 2
      vertex 12.1 16.1 2
      vertex 12.1 17.9 2
    endloop
  endfacet
  facet normal -1 0 0
    outer loop
      vertex 12.1 16.1 2
      vertex 12.1 17.9 2.2002
      vertex 12.1 17.9 2
    endloop
  endfacet
  facet normal -1 -0 0
    outer loop
      vertex 12.1 17.9 2.2002
      vertex 12.1 16.1 2
      vertex 12.1 16.1 2.2002
    endloop
  endfacet
  facet normal 0 1 -0
    outer loop
      vertex 13.9 17.9 2
      vertex 12.1 17.9 2.2002
      vertex 13.9 17.9 2.2002
    endloop
  endfacet
  facet normal 0 1 0
    outer loop
      vertex 12.1 17.9 2.2002
      vertex 13.9 17.9 2
      vertex 12.1 17.9 2
    endloop
  endfacet
  facet normal 0 -1 0
    outer loop
      vertex 12.1 16.1 2
      vertex 13.9 16.1 2.2002
      vertex 12.1 16.1 2.2002
    endloop
  endfacet
  facet normal 0 -1 -0
    outer loop
      vertex 13.9 16.1 2.2002
      vertex 12.1 16.1 2
      vertex 13.9 16.1 2
    endloop
  endfacet
  facet normal 1 -0 0
    outer loop
      vertex 15.9 16.1 2.2002
      vertex 15.9 17.9 2
      vertex 15.9 17.9 2.2002
    endloop
  endfacet
  facet normal 1 0 0
    outer loop
      vertex 15.9 17.9 2
      vertex 15.9 16.1 2.2002
      vertex 15.9 16.1 2
    endloop
  endfacet
  facet normal -0 0 1
    outer loop
      vertex 14.1 17.9 2.2002
      vertex 15.9 16.1 2.2002
      vertex 15.9 17.9 2.2002
    endloop
  endfacet
  facet normal 0 0 1
    outer loop
      vertex 15.9 16.1 2.2002
      vertex 14.1 17.9 2.2002
      vertex 14.1 16.1 2.2002
    endloop
  endfacet
  facet normal 0 0 -1
    outer loop
      vertex 14.1 16.1 2
      vertex 15.9 17.9 2
      vertex 15.9 16.1 2
    endloop
  endfacet
  facet normal -0 0 -1
    outer loop
      vertex 15.9 17.9 2
      vertex 14.1 16.1 2
      vertex 14.1 17.9 2
    endloop
  endfacet
  facet normal -1 0 0
    outer loop
      vertex 14.1 16.1 2
      vertex 14.1 17.9 2.2002
      vertex 14.1 17.9 2
    endloop
  endfacet
  facet normal -1 -0 0
    outer loop
      vertex 14.1 17.9 2.2002
      vertex 14.1 16.1 2
      vertex 14.1 16.1 2.2002
    endloop
  endfacet
  facet normal 0 1 -0
    outer loop
      vertex 15.9 17.9 2
      vertex 14.1 17.9 2.2002
      vertex 15.9 17.9 2.2002
    endloop
  endfacet
  facet normal 0 1 0
    outer loop
      vertex 14.1 17.9 2.2002
      vertex 15.9 17.9 2
      vertex 14.1 17.9 2
    endloop
  endfacet
  facet normal 0 -1 0
    outer loop
      vertex 14.1 16.1 2
      vertex 15.9 16.1 2.2002
      vertex 14.1 16.1 2.2002
    endloop
  endfacet
  facet normal 0 -1 -0
    outer loop
      vertex 15.9 16.1 2.2002
      vertex 14.1 16.1 2
      vertex 15.9 16.1 2
    endloop
  endfacet
  facet normal 1 -0 0
    outer loop
      vertex 13.9 18.1 2.2002
      vertex 13.9 19.9 2
      vertex 13.9 19.9 2.2002
    endloop
  endfacet
  facet normal 1 0 0
    outer loop
      vertex 13.9 19.9 2
      vertex 13.9 18.1 2.2002
      vertex 13.9 18.1 2
    endloop
  endfacet
  facet normal -0 0 1
    outer loop
      vertex 12.1 19.9 2.2002
      vertex 13.9 18.1 2.2002
      vertex 13.9 19.9 2.2002
    endloop
  endfacet
  facet normal 0 0 1
    outer loop
      vertex 13.9 18.1 2.2002
      vertex 12.1 19.9 2.2002
      vertex 12.1 18.1 2.2002
    endloop
  endfacet
  facet normal 0 0 -1
    outer loop
      vertex 12.1 18.1 2
      vertex 13.9 19.9 2
      vertex 13.9 18.1 2
    endloop
  endfacet
  facet normal -0 0 -1
    outer loop
      vertex 13.9 19.9 2
      vertex 12.1 18.1 2
      vertex 12.1 19.9 2
    endloop
  endfacet
  facet normal -1 0 0
    outer loop
      vertex 12.1 18.1 2
      vertex 12.1 19.9 2.2002
      vertex 12.1 19.9 2
    endloop
  endfacet
  facet normal -1 -0 0
    outer loop
      vertex 12.1 19.9 2.2002
      vertex 12.1 18.1 2
      vertex 12.1 18.1 2.2002
    endloop
  endfacet
  facet normal 0 1 -0
    outer loop
      vertex 13.9 19.9 2
      vertex 12.1 19.9 2.2002
      vertex 13.9 19.9 2.2002
    endloop
  endfacet
  facet normal 0 1 0
    outer loop
      vertex 12.1 19.9 2.2002
      vertex 13.9 19.9 2
      vertex 12.1 19.9 2
    endloop
  endfacet
  facet normal 0 -1 0
    outer loop
      vertex 12.1 18.1 2
      vertex 13.9 18.1 2.2002
      vertex 12.1 18.1 2.2002
    endloop
  endfacet
  facet normal 0 -1 -0
    outer loop
      vertex 13.9 18.1 2.2002
      vertex 12.1 18.1 2
      vertex 13.9 18.1 2
    endloop
  endfacet
  facet normal 1 -0 0
    outer loop
      vertex 15.9 18.1 2.2002
      vertex 15.9 19.9 2
      vertex 15.9 19.9 2.2002
    endloop
  endfacet
  facet normal 1 0 0
    outer loop
      vertex 15.9 19.9 2
      vertex 15.9 18.1 2.2002
      vertex 15.9 18.1 2
    endloop
  endfacet
  facet normal -0 0 1
    outer loop
      vertex 14.1 19.9 2.2002
      vertex 15.9 18.1 2.2002
      vertex 15.9 19.9 2.2002
    endloop
  endfacet
  facet normal 0 0 1
    outer loop
      vertex 15.9 18.1 2.2002
      vertex 14.1 19.9 2.2002
      vertex 14.1 18.1 2.2002
    endloop
  endfacet
  facet normal 0 0 -1
    outer loop
      vertex 14.1 18.1 2
      vertex 15.9 19.9 2
      vertex 15.9 18.1 2
    endloop
  endfacet
  facet normal -0 0 -1
    outer loop
      vertex 15.9 19.9 2
      vertex 14.1 18.1 2
      vertex 14.1 19.9 2
    endloop
  endfacet
  facet normal -1 0 0
    outer loop
      vertex 14.1 18.1 2
      vertex 14.1 19.9 2.2002
      vertex 14.1 19.9 2
    endloop
  endfacet
  facet normal -1 -0 0
    outer loop
      vertex 14.1 19.9 2.2002
      vertex 14.1 18.1 2
      vertex 14.1 18.1 2.2002
    endloop
  endfacet
  facet normal 0 1 -0
    outer loop
      vertex 15.9 19.9 2
      vertex 14.1 19.9 2.2002
      vertex 15.9 19.9 2.2002
    endloop
  endfacet
  facet normal 0 1 0
    outer loop
      vertex 14.1 19.9 2.2002
      vertex 15.9 19.9 2
      vertex 14.1 19.9 2
    endloop
  endfacet
  facet normal 0 -1 0
    outer loop
      vertex 14.1 18.1 2
      vertex 15.9 18.1 2.2002
      vertex 14.1 18.1 2.2002
    endloop
  endfacet
  facet normal 0 -1 -0
    outer loop
      vertex 15.9 18.1 2.2002
      vertex 14.1 18.1 2
      vertex 15.9 18.1 2
    endloop
  endfacet
  facet normal 1 -0 0
    outer loop
      vertex 13.9 22.1 2.2002
      vertex 13.9 23.9 2
      vertex 13.9 23.9 2.2002
    endloop
  endfacet
  facet normal 1 0 0
    outer loop
      vertex 13.9 23.9 2
      vertex 13.9 22.1 2.2002
      vertex 13.9 22.1 2
    endloop
  endfacet
  facet normal -0 0 1
    outer loop
      vertex 12.1 23.9 2.2002
      vertex 13.9 22.1 2.2002
      vertex 13.9 23.9 2.2002
    endloop
  endfacet
  facet normal 0 0 1
    outer loop
      vertex 13.9 22.1 2.2002
      vertex 12.1 23.9 2.2002
      vertex 12.1 22.1 2.2002
    endloop
  endfacet
  facet normal 0 0 -1
    outer loop
      vertex 12.1 22.1 2
      vertex 13.9 23.9 2
      vertex 13.9 22.1 2
    endloop
  endfacet
  facet normal -0 0 -1
    outer loop
      vertex 13.9 23.9 2
      vertex 12.1 22.1 2
      vertex 12.1 23.9 2
    endloop
  endfacet
  facet normal -1 0 0
    outer loop
      vertex 12.1 22.1 2
      vertex 12.1 23.9 2.2002
      vertex 12.1 23.9 2
    endloop
  endfacet
  facet normal -1 -0 0
    outer loop
      vertex 12.1 23.9 2.2002
      vertex 12.1 22.1 2
      vertex 12.1 22.1 2.2002
    endloop
  endfacet
  facet normal 0 1 -0
    outer loop
      vertex 13.9 23.9 2
      vertex 12.1 23.9 2.2002
      vertex 13.9 23.9 2.2002
    endloop
  endfacet
  facet normal 0 1 0
    outer loop
      vertex 12.1 23.9 2.2002
      vertex 13.9 23.9 2
      vertex 12.1 23.9 2
    endloop
  endfacet
  facet normal 0 -1 0
    outer loop
      vertex 12.1 22.1 2
      vertex 13.9 22.1 2.2002
      vertex 12.1 22.1 2.2002
    endloop
  endfacet
  facet normal 0 -1 -0
    outer loop
      vertex 13.9 22.1 2.2002
      vertex 12.1 22.1 2
      vertex 13.9 22.1 2
    endloop
  endfacet
  facet normal 1 -0 0
    outer loop
      vertex 15.9 22.1 2.2002
      vertex 15.9 23.9 2
      vertex 15.9 23.9 2.2002
    endloop
  endfacet
  facet normal 1 0 0
    outer loop
      vertex 15.9 23.9 2
      vertex 15.9 22.1 2.2002
      vertex 15.9 22.1 2
    endloop
  endfacet
  facet normal -0 0 1
    outer loop
      vertex 14.1 23.9 2.2002
      vertex 15.9 22.1 2.2002
      vertex 15.9 23.9 2.2002
    endloop
  endfacet
  facet normal 0 0 1
    outer loop
      vertex 15.9 22.1 2.2002
      vertex 14.1 23.9 2.2002
      vertex 14.1 22.1 2.2002
    endloop
  endfacet
  facet normal 0 0 -1
    outer loop
      vertex 14.1 22.1 2
      vertex 15.9 23.9 2
      vertex 15.9 22.1 2
    endloop
  endfacet
  facet normal -0 0 -1
    outer loop
      vertex 15.9 23.9 2
      vertex 14.1 22.1 2
      vertex 14.1 23.9 2
    endloop
  endfacet
  facet normal -1 0 0
    outer loop
      vertex 14.1 22.1 2
      vertex 14.1 23.9 2.2002
      vertex 14.1 23.9 2
    endloop
  endfacet
  facet normal -1 -0 0
    outer loop
      vertex 14.1 23.9 2.2002
      vertex 14.1 22.1 2
      vertex 14.1 22.1 2.2002
    endloop
  endfacet
  facet normal 0 1 -0
    outer loop
      vertex 15.9 23.9 2
      vertex 14.1 23.9 2.2002
      vertex 15.9 23.9 2.2002
    endloop
  endfacet
  facet normal 0 1 0
    outer loop
      vertex 14.1 23.9 2.2002
      vertex 15.9 23.9 2
      vertex 14.1 23.9 2
    endloop
  endfacet
  facet normal 0 -1 0
    outer loop
      vertex 14.1 22.1 2
      vertex 15.9 22.1 2.2002
      vertex 14.1 22.1 2.2002
    endloop
  endfacet
  facet normal 0 -1 -0
    outer loop
      vertex 15.9 22.1 2.2002
      vertex 14.1 22.1 2
      vertex 15.9 22.1 2
    endloop
  endfacet
  facet normal 1 -0 0
    outer loop
      vertex 13.9 24.1 2.2002
      vertex 13.9 25.9 2
      vertex 13.9 25.9 2.2002
    endloop
  endfacet
  facet normal 1 0 0
    outer loop
      vertex 13.9 25.9 2
      vertex 13.9 24.1 2.2002
      vertex 13.9 24.1 2
    endloop
  endfacet
  facet normal -0 0 1
    outer loop
      vertex 12.1 25.9 2.2002
      vertex 13.9 24.1 2.2002
      vertex 13.9 25.9 2.2002
    endloop
  endfacet
  facet normal 0 0 1
    outer loop
      vertex 13.9 24.1 2.2002
      vertex 12.1 25.9 2.2002
      vertex 12.1 24.1 2.2002
    endloop
  endfacet
  facet normal 0 0 -1
    outer loop
      vertex 12.1 24.1 2
      vertex 13.9 25.9 2
      vertex 13.9 24.1 2
    endloop
  endfacet
  facet normal -0 0 -1
    outer loop
      vertex 13.9 25.9 2
      vertex 12.1 24.1 2
      vertex 12.1 25.9 2
    endloop
  endfacet
  facet normal -1 0 0
    outer loop
      vertex 12.1 24.1 2
      vertex 12.1 25.9 2.2002
      vertex 12.1 25.9 2
    endloop
  endfacet
  facet normal -1 -0 0
    outer loop
      vertex 12.1 25.9 2.2002
      vertex 12.1 24.1 2
      vertex 12.1 24.1 2.2002
    endloop
  endfacet
  facet normal 0 1 -0
    outer loop
      vertex 13.9 25.9 2
      vertex 12.1 25.9 2.2002
      vertex 13.9 25.9 2.2002
    endloop
  endfacet
  facet normal 0 1 0
    outer loop
      vertex 12.1 25.9 2.2002
      vertex 13.9 25.9 2
      vertex 12.1 25.9 2
    endloop
  endfacet
  facet normal 0 -1 0
    outer loop
      vertex 12.1 24.1 2
      vertex 13.9 24.1 2.2002
      vertex 12.1 24.1 2.2002
    endloop
  endfacet
  facet normal 0 -1 -0
    outer loop
      vertex 13.9 24.1 2.2002
      vertex 12.1 24.1 2
      vertex 13.9 24.1 2
    endloop
  endfacet
  facet normal 1 -0 0
    outer loop
      vertex 15.9 24.1 2.2002
      vertex 15.9 25.9 2
      vertex 15.9 25.9 2.2002
    endloop
  endfacet
  facet normal 1 0 0
    outer loop
      vertex 15.9 25.9 2
      vertex 15.9 24.1 2.2002
      vertex 15.9 24.1 2
    endloop
  endfacet
  facet normal -0 0 1
    outer loop
      vertex 14.1 25.9 2.2002
      vertex 15.9 24.1 2.2002
      vertex 15.9 25.9 2.2002
    endloop
  endfacet
  facet normal 0 0 1
    outer loop
      vertex 15.9 24.1 2.2002
      vertex 14.1 25.9 2.2002
      vertex 14.1 24.1 2.2002
    endloop
  endfacet
  facet normal 0 0 -1
    outer loop
      vertex 14.1 24.1 2
      vertex 15.9 25.9 2
      vertex 15.9 24.1 2
    endloop
  endfacet
  facet normal -0 0 -1
    outer loop
      vertex 15.9 25.9 2
      vertex 14.1 24.1 2
      vertex 14.1 25.9 2
    endloop
  endfacet
  facet normal -1 0 0
    outer loop
      vertex 14.1 24.1 2
      vertex 14.1 25.9 2.2002
      vertex 14.1 25.9 2
    endloop
  endfacet
  facet normal -1 -0 0
    outer loop
      vertex 14.1 25.9 2.2002
      vertex 14.1 24.1 2
      vertex 14.1 24.1 2.2002
    endloop
  endfacet
  facet normal 0 1 -0
    outer loop
      vertex 15.9 25.9 2
      vertex 14.1 25.9 2.2002
      vertex 15.9 25.9 2.2002
    endloop
  endfacet
  facet normal 0 1 0
    outer loop
      vertex 14.1 25.9 2.2002
      vertex 15.9 25.9 2
      vertex 14.1 25.9 2
    endloop
  endfacet
  facet normal 0 -1 0
    outer loop
      vertex 14.1 24.1 2
      vertex 15.9 24.1 2.2002
      vertex 14.1 24.1 2.2002
    endloop
  endfacet
  facet normal 0 -1 -0
    outer loop
      vertex 15.9 24.1 2.2002
      vertex 14.1 24.1 2
      vertex 15.9 24.1 2
    endloop
  endfacet
  facet normal 1 -0 0
    outer loop
      vertex 5.9 28.1 2.2002
      vertex 5.9 29.9 2
      vertex 5.9 29.9 2.2002
    endloop
  endfacet
  facet normal 1 0 0
    outer loop
      vertex 5.9 29.9 2
      vertex 5.9 28.1 2.2002
      vertex 5.9 28.1 2
    endloop
  endfacet
  facet normal -0 0 1
    outer loop
      vertex 4.1 29.9 2.2002
      vertex 5.9 28.1 2.2002
      vertex 5.9 29.9 2.2002
    endloop
  endfacet
  facet normal 0 0 1
    outer loop
      vertex 5.9 28.1 2.2002
      vertex 4.1 29.9 2.2002
      vertex 4.1 28.1 2.2002
    endloop
  endfacet
  facet normal 0 0 -1
    outer loop
      vertex 4.1 28.1 2
      vertex 5.9 29.9 2
      vertex 5.9 28.1 2
    endloop
  endfacet
  facet normal -0 0 -1
    outer loop
      vertex 5.9 29.9 2
      vertex 4.1 28.1 2
      vertex 4.1 29.9 2
    endloop
  endfacet
  facet normal -1 0 0
    outer loop
      vertex 4.1 28.1 2
      vertex 4.1 29.9 2.2002
      vertex 4.1 29.9 2
    endloop
  endfacet
  facet normal -1 -0 0
    outer loop
      vertex 4.1 29.9 2.2002
      vertex 4.1 28.1 2
      vertex 4.1 28.1 2.2002
    endloop
  endfacet
  facet normal 0 1 -0
    outer loop
      vertex 5.9 29.9 2
      vertex 4.1 29.9 2.2002
      vertex 5.9 29.9 2.2002
    endloop
  endfacet
  facet normal 0 1 0
    outer loop
      vertex 4.1 29.9 2.2002
      vertex 5.9 29.9 2
      vertex 4.1 29.9 2
    endloop
  endfacet
  facet normal 0 -1 0
    outer loop
      vertex 4.1 28.1 2
      vertex 5.9 28.1 2.2002
      vertex 4.1 28.1 2.2002
    endloop
  endfacet
  facet normal 0 -1 -0
    outer loop
      vertex 5.9 28.1 2.2002
      vertex 4.1 28.1 2
      vertex 5.9 28.1 2
    endloop
  endfacet
  facet normal 1 -0 0
    outer loop
      vertex 19.9 28.1 2.2002
      vertex 19.9 29.9 2
      vertex 19.9 29.9 2.2002
    endloop
  endfacet
  facet normal 1 0 0
    outer loop
      vertex 19.9 29.9 2
      vertex 19.9 28.1 2.2002
      vertex 19.9 28.1 2
    endloop
  endfacet
  facet normal -0 0 1
    outer loop
      vertex 18.1 29.9 2.2002
      vertex 19.9 28.1 2.2002
      vertex 19.9 29.9 2.2002
    endloop
  endfacet
  facet normal 0 0 1
    outer loop
      vertex 19.9 28.1 2.2002
      vertex 18.1 29.9 2.2002
      vertex 18.1 28.1 2.2002
    endloop
  endfacet
  facet normal 0 0 -1
    outer loop
      vertex 18.1 28.1 2
      vertex 19.9 29.9 2
      vertex 19.9 28.1 2
    endloop
  endfacet
  facet normal -0 0 -1
    outer loop
      vertex 19.9 29.9 2
      vertex 18.1 28.1 2
      vertex 18.1 29.9 2
    endloop
  endfacet
  facet normal -1 0 0
    outer loop
      vertex 18.1 28.1 2
      vertex 18.1 29.9 2.2002
      vertex 18.1 29.9 2
    endloop
  endfacet
  facet normal -1 -0 0
    outer loop
      vertex 18.1 29.9 2.2002
      vertex 18.1 28.1 2
      vertex 18.1 28.1 2.2002
    endloop
  endfacet
  facet normal 0 1 -0
    outer loop
      vertex 19.9 29.9 2
      vertex 18.1 29.9 2.2002
      vertex 19.9 29.9 2.2002
    endloop
  endfacet
  facet normal 0 1 0
    outer loop
      vertex 18.1 29.9 2.2002
      vertex 19.9 29.9 2
      vertex 18.1 29.9 2
    endloop
  endfacet
  facet normal 0 -1 0
    outer loop
      vertex 18.1 28.1 2
      vertex 19.9 28.1 2.2002
      vertex 18.1 28.1 2.2002
    endloop
  endfacet
  facet normal 0 -1 -0
    outer loop
      vertex 19.9 28.1 2.2002
      vertex 18.1 28.1 2
      vertex 19.9 28.1 2
    endloop
  endfacet
endsolid OpenSCAD_Model
