solid OpenSCAD_Model
  facet normal 1 -0 0
    outer loop
      vertex 14.85 33.15 2.4004
      vertex 14.85 35.85 2.2002
      vertex 14.85 35.85 2.4004
    endloop
  endfacet
  facet normal 1 0 0
    outer loop
      vertex 14.85 35.85 2.2002
      vertex 14.85 33.15 2.4004
      vertex 14.85 33.15 2.2002
    endloop
  endfacet
  facet normal -0 0 1
    outer loop
      vertex 12.15 35.85 2.4004
      vertex 14.85 33.15 2.4004
      vertex 14.85 35.85 2.4004
    endloop
  endfacet
  facet normal 0 0 1
    outer loop
      vertex 14.85 33.15 2.4004
      vertex 12.15 35.85 2.4004
      vertex 12.15 33.15 2.4004
    endloop
  endfacet
  facet normal 0 0 -1
    outer loop
      vertex 12.15 33.15 2.2002
      vertex 14.85 35.85 2.2002
      vertex 14.85 33.15 2.2002
    endloop
  endfacet
  facet normal -0 0 -1
    outer loop
      vertex 14.85 35.85 2.2002
      vertex 12.15 33.15 2.2002
      vertex 12.15 35.85 2.2002
    endloop
  endfacet
  facet normal -1 0 0
    outer loop
      vertex 12.15 33.15 2.2002
      vertex 12.15 35.85 2.4004
      vertex 12.15 35.85 2.2002
    endloop
  endfacet
  facet normal -1 -0 0
    outer loop
      vertex 12.15 35.85 2.4004
      vertex 12.15 33.15 2.2002
      vertex 12.15 33.15 2.4004
    endloop
  endfacet
  facet normal 0 1 -0
    outer loop
      vertex 14.85 35.85 2.2002
      vertex 12.15 35.85 2.4004
      vertex 14.85 35.85 2.4004
    endloop
  endfacet
  facet normal 0 1 0
    outer loop
      vertex 12.15 35.85 2.4004
      vertex 14.85 35.85 2.2002
      vertex 12.15 35.85 2.2002
    endloop
  endfacet
  facet normal 0 -1 0
    outer loop
      vertex 12.15 33.15 2.2002
      vertex 14.85 33.15 2.4004
      vertex 12.15 33.15 2.4004
    endloop
  endfacet
  facet normal 0 -1 -0
    outer loop
      vertex 14.85 33.15 2.4004
      vertex 12.15 33.15 2.2002
      vertex 14.85 33.15 2.2002
    endloop
  endfacet
  facet normal 1 -0 0
    outer loop
      vertex 11.85 36.15 2.4004
      vertex 11.85 38.85 2.2002
      vertex 11.85 38.85 2.4004
    endloop
  endfacet
  facet normal 1 0 0
    outer loop
      vertex 11.85 38.85 2.2002
      vertex 11.85 36.15 2.4004
      vertex 11.85 36.15 2.2002
    endloop
  endfacet
  facet normal -0 0 1
    outer loop
      vertex 9.15 38.85 2.4004
      vertex 11.85 36.15 2.4004
      vertex 11.85 38.85 2.4004
    endloop
  endfacet
  facet normal 0 0 1
    outer loop
      vertex 11.85 36.15 2.4004
      vertex 9.15 38.85 2.4004
      vertex 9.15 36.15 2.4004
    endloop
  endfacet
  facet normal 0 0 -1
    outer loop
      vertex 9.15 36.15 2.2002
      vertex 11.85 38.85 2.2002
      vertex 11.85 36.15 2.2002
    endloop
  endfacet
  facet normal -0 0 -1
    outer loop
      vertex 11.85 38.85 2.2002
      vertex 9.15 36.15 2.2002
      vertex 9.15 38.85 2.2002
    endloop
  endfacet
  facet normal -1 0 0
    outer loop
      vertex 9.15 36.15 2.2002
      vertex 9.15 38.85 2.4004
      vertex 9.15 38.85 2.2002
    endloop
  endfacet
  facet normal -1 -0 0
    outer loop
      vertex 9.15 38.85 2.4004
      vertex 9.15 36.15 2.2002
      vertex 9.15 36.15 2.4004
    endloop
  endfacet
  facet normal 0 1 -0
    outer loop
      vertex 11.85 38.85 2.2002
      vertex 9.15 38.85 2.4004
      vertex 11.85 38.85 2.4004
    endloop
  endfacet
  facet normal 0 1 0
    outer loop
      vertex 9.15 38.85 2.4004
      vertex 11.85 38.85 2.2002
      vertex 9.15 38.85 2.2002
    endloop
  endfacet
  facet normal 0 -1 0
    outer loop
      vertex 9.15 36.15 2.2002
      vertex 11.85 36.15 2.4004
      vertex 9.15 36.15 2.4004
    endloop
  endfacet
  facet normal 0 -1 -0
    outer loop
      vertex 11.85 36.15 2.4004
      vertex 9.15 36.15 2.2002
      vertex 11.85 36.15 2.2002
    endloop
  endfacet
  facet normal 1 -0 0
    outer loop
      vertex 14.85 36.15 2.4004
      vertex 14.85 38.85 2.2002
      vertex 14.85 38.85 2.4004
    endloop
  endfacet
  facet normal 1 0 0
    outer loop
      vertex 14.85 38.85 2.2002
      vertex 14.85 36.15 2.4004
      vertex 14.85 36.15 2.2002
    endloop
  endfacet
  facet normal -0 0 1
    outer loop
      vertex 12.15 38.85 2.4004
      vertex 14.85 36.15 2.4004
      vertex 14.85 38.85 2.4004
    endloop
  endfacet
  facet normal 0 0 1
    outer loop
      vertex 14.85 36.15 2.4004
      vertex 12.15 38.85 2.4004
      vertex 12.15 36.15 2.4004
    endloop
  endfacet
  facet normal 0 0 -1
    outer loop
      vertex 12.15 36.15 2.2002
      vertex 14.85 38.85 2.2002
      vertex 14.85 36.15 2.2002
    endloop
  endfacet
  facet normal -0 0 -1
    outer loop
      vertex 14.85 38.85 2.2002
      vertex 12.15 36.15 2.2002
      vertex 12.15 38.85 2.2002
    endloop
  endfacet
  facet normal -1 0 0
    outer loop
      vertex 12.15 36.15 2.2002
      vertex 12.15 38.85 2.4004
      vertex 12.15 38.85 2.2002
    endloop
  endfacet
  facet normal -1 -0 0
    outer loop
      vertex 12.15 38.85 2.4004
      vertex 12.15 36.15 2.2002
      vertex 12.15 36.15 2.4004
    endloop
  endfacet
  facet normal 0 1 -0
    outer loop
      vertex 14.85 38.85 2.2002
      vertex 12.15 38.85 2.4004
      vertex 14.85 38.85 2.4004
    endloop
  endfacet
  facet normal 0 1 0
    outer loop
      vertex 12.15 38.85 2.4004
      vertex 14.85 38.85 2.2002
      vertex 12.15 38.85 2.2002
    endloop
  endfacet
  facet normal 0 -1 0
    outer loop
      vertex 12.15 36.15 2.2002
      vertex 14.85 36.15 2.4004
      vertex 12.15 36.15 2.4004
    endloop
  endfacet
  facet normal 0 -1 -0
    outer loop
      vertex 14.85 36.15 2.4004
      vertex 12.15 36.15 2.2002
      vertex 14.85 36.15 2.2002
    endloop
  endfacet
  facet normal 1 -0 0
    outer loop
      vertex 17.85 36.15 2.4004
      vertex 17.85 38.85 2.2002
      vertex 17.85 38.85 2.4004
    endloop
  endfacet
  facet normal 1 0 0
    outer loop
      vertex 17.85 38.85 2.2002
      vertex 17.85 36.15 2.4004
      vertex 17.85 36.15 2.2002
    endloop
  endfacet
  facet normal -0 0 1
    outer loop
      vertex 15.15 38.85 2.4004
      vertex 17.85 36.15 2.4004
      vertex 17.85 38.85 2.4004
    endloop
  endfacet
  facet normal 0 0 1
    outer loop
      vertex 17.85 36.15 2.4004
      vertex 15.15 38.85 2.4004
      vertex 15.15 36.15 2.4004
    endloop
  endfacet
  facet normal 0 0 -1
    outer loop
      vertex 15.15 36.15 2.2002
      vertex 17.85 38.85 2.2002
      vertex 17.85 36.15 2.2002
    endloop
  endfacet
  facet normal -0 0 -1
    outer loop
      vertex 17.85 38.85 2.2002
      vertex 15.15 36.15 2.2002
      vertex 15.15 38.85 2.2002
    endloop
  endfacet
  facet normal -1 0 0
    outer loop
      vertex 15.15 36.15 2.2002
      vertex 15.15 38.85 2.4004
      vertex 15.15 38.85 2.2002
    endloop
  endfacet
  facet normal -1 -0 0
    outer loop
      vertex 15.15 38.85 2.4004
      vertex 15.15 36.15 2.2002
      vertex 15.15 36.15 2.4004
    endloop
  endfacet
  facet normal 0 1 -0
    outer loop
      vertex 17.85 38.85 2.2002
      vertex 15.15 38.85 2.4004
      vertex 17.85 38.85 2.4004
    endloop
  endfacet
  facet normal 0 1 0
    outer loop
      vertex 15.15 38.85 2.4004
      vertex 17.85 38.85 2.2002
      vertex 15.15 38.85 2.2002
    endloop
  endfacet
  facet normal 0 -1 0
    outer loop
      vertex 15.15 36.15 2.2002
      vertex 17.85 36.15 2.4004
      vertex 15.15 36.15 2.4004
    endloop
  endfacet
  facet normal 0 -1 -0
    outer loop
      vertex 17.85 36.15 2.4004
      vertex 15.15 36.15 2.2002
      vertex 17.85 36.15 2.2002
    endloop
  endfacet
  facet normal 1 -0 0
    outer loop
      vertex 20.85 36.15 2.4004
      vertex 20.85 38.85 2.2002
      vertex 20.85 38.85 2.4004
    endloop
  endfacet
  facet normal 1 0 0
    outer loop
      vertex 20.85 38.85 2.2002
      vertex 20.85 36.15 2.4004
      vertex 20.85 36.15 2.2002
    endloop
  endfacet
  facet normal -0 0 1
    outer loop
      vertex 18.15 38.85 2.4004
      vertex 20.85 36.15 2.4004
      vertex 20.85 38.85 2.4004
    endloop
  endfacet
  facet normal 0 0 1
    outer loop
      vertex 20.85 36.15 2.4004
      vertex 18.15 38.85 2.4004
      vertex 18.15 36.15 2.4004
    endloop
  endfacet
  facet normal 0 0 -1
    outer loop
      vertex 18.15 36.15 2.2002
      vertex 20.85 38.85 2.2002
      vertex 20.85 36.15 2.2002
    endloop
  endfacet
  facet normal -0 0 -1
    outer loop
      vertex 20.85 38.85 2.2002
      vertex 18.15 36.15 2.2002
      vertex 18.15 38.85 2.2002
    endloop
  endfacet
  facet normal -1 0 0
    outer loop
      vertex 18.15 36.15 2.2002
      vertex 18.15 38.85 2.4004
      vertex 18.15 38.85 2.2002
    endloop
  endfacet
  facet normal -1 -0 0
    outer loop
      vertex 18.15 38.85 2.4004
      vertex 18.15 36.15 2.2002
      vertex 18.15 36.15 2.4004
    endloop
  endfacet
  facet normal 0 1 -0
    outer loop
      vertex 20.85 38.85 2.2002
      vertex 18.15 38.85 2.4004
      vertex 20.85 38.85 2.4004
    endloop
  endfacet
  facet normal 0 1 0
    outer loop
      vertex 18.15 38.85 2.4004
      vertex 20.85 38.85 2.2002
      vertex 18.15 38.85 2.2002
    endloop
  endfacet
  facet normal 0 -1 0
    outer loop
      vertex 18.15 36.15 2.2002
      vertex 20.85 36.15 2.4004
      vertex 18.15 36.15 2.4004
    endloop
  endfacet
  facet normal 0 -1 -0
    outer loop
      vertex 20.85 36.15 2.4004
      vertex 18.15 36.15 2.2002
      vertex 20.85 36.15 2.2002
    endloop
  endfacet
  facet normal 1 -0 0
    outer loop
      vertex 11.85 39.15 2.4004
      vertex 11.85 41.85 2.2002
      vertex 11.85 41.85 2.4004
    endloop
  endfacet
  facet normal 1 0 0
    outer loop
      vertex 11.85 41.85 2.2002
      vertex 11.85 39.15 2.4004
      vertex 11.85 39.15 2.2002
    endloop
  endfacet
  facet normal -0 0 1
    outer loop
      vertex 9.15 41.85 2.4004
      vertex 11.85 39.15 2.4004
      vertex 11.85 41.85 2.4004
    endloop
  endfacet
  facet normal 0 0 1
    outer loop
      vertex 11.85 39.15 2.4004
      vertex 9.15 41.85 2.4004
      vertex 9.15 39.15 2.4004
    endloop
  endfacet
  facet normal 0 0 -1
    outer loop
      vertex 9.15 39.15 2.2002
      vertex 11.85 41.85 2.2002
      vertex 11.85 39.15 2.2002
    endloop
  endfacet
  facet normal -0 0 -1
    outer loop
      vertex 11.85 41.85 2.2002
      vertex 9.15 39.15 2.2002
      vertex 9.15 41.85 2.2002
    endloop
  endfacet
  facet normal -1 0 0
    outer loop
      vertex 9.15 39.15 2.2002
      vertex 9.15 41.85 2.4004
      vertex 9.15 41.85 2.2002
    endloop
  endfacet
  facet normal -1 -0 0
    outer loop
      vertex 9.15 41.85 2.4004
      vertex 9.15 39.15 2.2002
      vertex 9.15 39.15 2.4004
    endloop
  endfacet
  facet normal 0 1 -0
    outer loop
      vertex 11.85 41.85 2.2002
      vertex 9.15 41.85 2.4004
      vertex 11.85 41.85 2.4004
    endloop
  endfacet
  facet normal 0 1 0
    outer loop
      vertex 9.15 41.85 2.4004
      vertex 11.85 41.85 2.2002
      vertex 9.15 41.85 2.2002
    endloop
  endfacet
  facet normal 0 -1 0
    outer loop
      vertex 9.15 39.15 2.2002
      vertex 11.85 39.15 2.4004
      vertex 9.15 39.15 2.4004
    endloop
  endfacet
  facet normal 0 -1 -0
    outer loop
      vertex 11.85 39.15 2.4004
      vertex 9.15 39.15 2.2002
      vertex 11.85 39.15 2.2002
    endloop
  endfacet
  facet normal 1 -0 0
    outer loop
      vertex 14.85 39.15 2.4004
      vertex 14.85 41.85 2.2002
      vertex 14.85 41.85 2.4004
    endloop
  endfacet
  facet normal 1 0 0
    outer loop
      vertex 14.85 41.85 2.2002
      vertex 14.85 39.15 2.4004
      vertex 14.85 39.15 2.2002
    endloop
  endfacet
  facet normal -0 0 1
    outer loop
      vertex 12.15 41.85 2.4004
      vertex 14.85 39.15 2.4004
      vertex 14.85 41.85 2.4004
    endloop
  endfacet
  facet normal 0 0 1
    outer loop
      vertex 14.85 39.15 2.4004
      vertex 12.15 41.85 2.4004
      vertex 12.15 39.15 2.4004
    endloop
  endfacet
  facet normal 0 0 -1
    outer loop
      vertex 12.15 39.15 2.2002
      vertex 14.85 41.85 2.2002
      vertex 14.85 39.15 2.2002
    endloop
  endfacet
  facet normal -0 0 -1
    outer loop
      vertex 14.85 41.85 2.2002
      vertex 12.15 39.15 2.2002
      vertex 12.15 41.85 2.2002
    endloop
  endfacet
  facet normal -1 0 0
    outer loop
      vertex 12.15 39.15 2.2002
      vertex 12.15 41.85 2.4004
      vertex 12.15 41.85 2.2002
    endloop
  endfacet
  facet normal -1 -0 0
    outer loop
      vertex 12.15 41.85 2.4004
      vertex 12.15 39.15 2.2002
      vertex 12.15 39.15 2.4004
    endloop
  endfacet
  facet normal 0 1 -0
    outer loop
      vertex 14.85 41.85 2.2002
      vertex 12.15 41.85 2.4004
      vertex 14.85 41.85 2.4004
    endloop
  endfacet
  facet normal 0 1 0
    outer loop
      vertex 12.15 41.85 2.4004
      vertex 14.85 41.85 2.2002
      vertex 12.15 41.85 2.2002
    endloop
  endfacet
  facet normal 0 -1 0
    outer loop
      vertex 12.15 39.15 2.2002
      vertex 14.85 39.15 2.4004
      vertex 12.15 39.15 2.4004
    endloop
  endfacet
  facet normal 0 -1 -0
    outer loop
      vertex 14.85 39.15 2.4004
      vertex 12.15 39.15 2.2002
      vertex 14.85 39.15 2.2002
    endloop
  endfacet
  facet normal 1 -0 0
    outer loop
      vertex 17.85 39.15 2.4004
      vertex 17.85 41.85 2.2002
      vertex 17.85 41.85 2.4004
    endloop
  endfacet
  facet normal 1 0 0
    outer loop
      vertex 17.85 41.85 2.2002
      vertex 17.85 39.15 2.4004
      vertex 17.85 39.15 2.2002
    endloop
  endfacet
  facet normal -0 0 1
    outer loop
      vertex 15.15 41.85 2.4004
      vertex 17.85 39.15 2.4004
      vertex 17.85 41.85 2.4004
    endloop
  endfacet
  facet normal 0 0 1
    outer loop
      vertex 17.85 39.15 2.4004
      vertex 15.15 41.85 2.4004
      vertex 15.15 39.15 2.4004
    endloop
  endfacet
  facet normal 0 0 -1
    outer loop
      vertex 15.15 39.15 2.2002
      vertex 17.85 41.85 2.2002
      vertex 17.85 39.15 2.2002
    endloop
  endfacet
  facet normal -0 0 -1
    outer loop
      vertex 17.85 41.85 2.2002
      vertex 15.15 39.15 2.2002
      vertex 15.15 41.85 2.2002
    endloop
  endfacet
  facet normal -1 0 0
    outer loop
      vertex 15.15 39.15 2.2002
      vertex 15.15 41.85 2.4004
      vertex 15.15 41.85 2.2002
    endloop
  endfacet
  facet normal -1 -0 0
    outer loop
      vertex 15.15 41.85 2.4004
      vertex 15.15 39.15 2.2002
      vertex 15.15 39.15 2.4004
    endloop
  endfacet
  facet normal 0 1 -0
    outer loop
      vertex 17.85 41.85 2.2002
      vertex 15.15 41.85 2.4004
      vertex 17.85 41.85 2.4004
    endloop
  endfacet
  facet normal 0 1 0
    outer loop
      vertex 15.15 41.85 2.4004
      vertex 17.85 41.85 2.2002
      vertex 15.15 41.85 2.2002
    endloop
  endfacet
  facet normal 0 -1 0
    outer loop
      vertex 15.15 39.15 2.2002
      vertex 17.85 39.15 2.4004
      vertex 15.15 39.15 2.4004
    endloop
  endfacet
  facet normal 0 -1 -0
    outer loop
      vertex 17.85 39.15 2.4004
      vertex 15.15 39.15 2.2002
      vertex 17.85 39.15 2.2002
    endloop
  endfacet
  facet normal 1 -0 0
    outer loop
      vertex 20.85 39.15 2.4004
      vertex 20.85 41.85 2.2002
      vertex 20.85 41.85 2.4004
    endloop
  endfacet
  facet normal 1 0 0
    outer loop
      vertex 20.85 41.85 2.2002
      vertex 20.85 39.15 2.4004
      vertex 20.85 39.15 2.2002
    endloop
  endfacet
  facet normal -0 0 1
    outer loop
      vertex 18.15 41.85 2.4004
      vertex 20.85 39.15 2.4004
      vertex 20.85 41.85 2.4004
    endloop
  endfacet
  facet normal 0 0 1
    outer loop
      vertex 20.85 39.15 2.4004
      vertex 18.15 41.85 2.4004
      vertex 18.15 39.15 2.4004
    endloop
  endfacet
  facet normal 0 0 -1
    outer loop
      vertex 18.15 39.15 2.2002
      vertex 20.85 41.85 2.2002
      vertex 20.85 39.15 2.2002
    endloop
  endfacet
  facet normal -0 0 -1
    outer loop
      vertex 20.85 41.85 2.2002
      vertex 18.15 39.15 2.2002
      vertex 18.15 41.85 2.2002
    endloop
  endfacet
  facet normal -1 0 0
    outer loop
      vertex 18.15 39.15 2.2002
      vertex 18.15 41.85 2.4004
      vertex 18.15 41.85 2.2002
    endloop
  endfacet
  facet normal -1 -0 0
    outer loop
      vertex 18.15 41.85 2.4004
      vertex 18.15 39.15 2.2002
      vertex 18.15 39.15 2.4004
    endloop
  endfacet
  facet normal 0 1 -0
    outer loop
      vertex 20.85 41.85 2.2002
      vertex 18.15 41.85 2.4004
      vertex 20.85 41.85 2.4004
    endloop
  endfacet
  facet normal 0 1 0
    outer loop
      vertex 18.15 41.85 2.4004
      vertex 20.85 41.85 2.2002
      vertex 18.15 41.85 2.2002
    endloop
  endfacet
  facet normal 0 -1 0
    outer loop
      vertex 18.15 39.15 2.2002
      vertex 20.85 39.15 2.4004
      vertex 18.15 39.15 2.4004
    endloop
  endfacet
  facet normal 0 -1 -0
    outer loop
      vertex 20.85 39.15 2.4004
      vertex 18.15 39.15 2.2002
      vertex 20.85 39.15 2.2002
    endloop
  endfacet
  facet normal 1 -0 0
    outer loop
      vertex 8.85 42.15 2.4004
      vertex 8.85 44.85 2.2002
      vertex 8.85 44.85 2.4004
    endloop
  endfacet
  facet normal 1 0 0
    outer loop
      vertex 8.85 44.85 2.2002
      vertex 8.85 42.15 2.4004
      vertex 8.85 42.15 2.2002
    endloop
  endfacet
  facet normal -0 0 1
    outer loop
      vertex 6.15 44.85 2.4004
      vertex 8.85 42.15 2.4004
      vertex 8.85 44.85 2.4004
    endloop
  endfacet
  facet normal 0 0 1
    outer loop
      vertex 8.85 42.15 2.4004
      vertex 6.15 44.85 2.4004
      vertex 6.15 42.15 2.4004
    endloop
  endfacet
  facet normal 0 0 -1
    outer loop
      vertex 6.15 42.15 2.2002
      vertex 8.85 44.85 2.2002
      vertex 8.85 42.15 2.2002
    endloop
  endfacet
  facet normal -0 0 -1
    outer loop
      vertex 8.85 44.85 2.2002
      vertex 6.15 42.15 2.2002
      vertex 6.15 44.85 2.2002
    endloop
  endfacet
  facet normal -1 0 0
    outer loop
      vertex 6.15 42.15 2.2002
      vertex 6.15 44.85 2.4004
      vertex 6.15 44.85 2.2002
    endloop
  endfacet
  facet normal -1 -0 0
    outer loop
      vertex 6.15 44.85 2.4004
      vertex 6.15 42.15 2.2002
      vertex 6.15 42.15 2.4004
    endloop
  endfacet
  facet normal 0 1 -0
    outer loop
      vertex 8.85 44.85 2.2002
      vertex 6.15 44.85 2.4004
      vertex 8.85 44.85 2.4004
    endloop
  endfacet
  facet normal 0 1 0
    outer loop
      vertex 6.15 44.85 2.4004
      vertex 8.85 44.85 2.2002
      vertex 6.15 44.85 2.2002
    endloop
  endfacet
  facet normal 0 -1 0
    outer loop
      vertex 6.15 42.15 2.2002
      vertex 8.85 42.15 2.4004
      vertex 6.15 42.15 2.4004
    endloop
  endfacet
  facet normal 0 -1 -0
    outer loop
      vertex 8.85 42.15 2.4004
      vertex 6.15 42.15 2.2002
      vertex 8.85 42.15 2.2002
    endloop
  endfacet
  facet normal 1 -0 0
    outer loop
      vertex 11.85 42.15 2.4004
      vertex 11.85 44.85 2.2002
      vertex 11.85 44.85 2.4004
    endloop
  endfacet
  facet normal 1 0 0
    outer loop
      vertex 11.85 44.85 2.2002
      vertex 11.85 42.15 2.4004
      vertex 11.85 42.15 2.2002
    endloop
  endfacet
  facet normal -0 0 1
    outer loop
      vertex 9.15 44.85 2.4004
      vertex 11.85 42.15 2.4004
      vertex 11.85 44.85 2.4004
    endloop
  endfacet
  facet normal 0 0 1
    outer loop
      vertex 11.85 42.15 2.4004
      vertex 9.15 44.85 2.4004
      vertex 9.15 42.15 2.4004
    endloop
  endfacet
  facet normal 0 0 -1
    outer loop
      vertex 9.15 42.15 2.2002
      vertex 11.85 44.85 2.2002
      vertex 11.85 42.15 2.2002
    endloop
  endfacet
  facet normal -0 0 -1
    outer loop
      vertex 11.85 44.85 2.2002
      vertex 9.15 42.15 2.2002
      vertex 9.15 44.85 2.2002
    endloop
  endfacet
  facet normal -1 0 0
    outer loop
      vertex 9.15 42.15 2.2002
      vertex 9.15 44.85 2.4004
      vertex 9.15 44.85 2.2002
    endloop
  endfacet
  facet normal -1 -0 0
    outer loop
      vertex 9.15 44.85 2.4004
      vertex 9.15 42.15 2.2002
      vertex 9.15 42.15 2.4004
    endloop
  endfacet
  facet normal 0 1 -0
    outer loop
      vertex 11.85 44.85 2.2002
      vertex 9.15 44.85 2.4004
      vertex 11.85 44.85 2.4004
    endloop
  endfacet
  facet normal 0 1 0
    outer loop
      vertex 9.15 44.85 2.4004
      vertex 11.85 44.85 2.2002
      vertex 9.15 44.85 2.2002
    endloop
  endfacet
  facet normal 0 -1 0
    outer loop
      vertex 9.15 42.15 2.2002
      vertex 11.85 42.15 2.4004
      vertex 9.15 42.15 2.4004
    endloop
  endfacet
  facet normal 0 -1 -0
    outer loop
      vertex 11.85 42.15 2.4004
      vertex 9.15 42.15 2.2002
      vertex 11.85 42.15 2.2002
    endloop
  endfacet
  facet normal 1 -0 0
    outer loop
      vertex 14.85 42.15 2.4004
      vertex 14.85 44.85 2.2002
      vertex 14.85 44.85 2.4004
    endloop
  endfacet
  facet normal 1 0 0
    outer loop
      vertex 14.85 44.85 2.2002
      vertex 14.85 42.15 2.4004
      vertex 14.85 42.15 2.2002
    endloop
  endfacet
  facet normal -0 0 1
    outer loop
      vertex 12.15 44.85 2.4004
      vertex 14.85 42.15 2.4004
      vertex 14.85 44.85 2.4004
    endloop
  endfacet
  facet normal 0 0 1
    outer loop
      vertex 14.85 42.15 2.4004
      vertex 12.15 44.85 2.4004
      vertex 12.15 42.15 2.4004
    endloop
  endfacet
  facet normal 0 0 -1
    outer loop
      vertex 12.15 42.15 2.2002
      vertex 14.85 44.85 2.2002
      vertex 14.85 42.15 2.2002
    endloop
  endfacet
  facet normal -0 0 -1
    outer loop
      vertex 14.85 44.85 2.2002
      vertex 12.15 42.15 2.2002
      vertex 12.15 44.85 2.2002
    endloop
  endfacet
  facet normal -1 0 0
    outer loop
      vertex 12.15 42.15 2.2002
      vertex 12.15 44.85 2.4004
      vertex 12.15 44.85 2.2002
    endloop
  endfacet
  facet normal -1 -0 0
    outer loop
      vertex 12.15 44.85 2.4004
      vertex 12.15 42.15 2.2002
      vertex 12.15 42.15 2.4004
    endloop
  endfacet
  facet normal 0 1 -0
    outer loop
      vertex 14.85 44.85 2.2002
      vertex 12.15 44.85 2.4004
      vertex 14.85 44.85 2.4004
    endloop
  endfacet
  facet normal 0 1 0
    outer loop
      vertex 12.15 44.85 2.4004
      vertex 14.85 44.85 2.2002
      vertex 12.15 44.85 2.2002
    endloop
  endfacet
  facet normal 0 -1 0
    outer loop
      vertex 12.15 42.15 2.2002
      vertex 14.85 42.15 2.4004
      vertex 12.15 42.15 2.4004
    endloop
  endfacet
  facet normal 0 -1 -0
    outer loop
      vertex 14.85 42.15 2.4004
      vertex 12.15 42.15 2.2002
      vertex 14.85 42.15 2.2002
    endloop
  endfacet
  facet normal 1 -0 0
    outer loop
      vertex 17.85 42.15 2.4004
      vertex 17.85 44.85 2.2002
      vertex 17.85 44.85 2.4004
    endloop
  endfacet
  facet normal 1 0 0
    outer loop
      vertex 17.85 44.85 2.2002
      vertex 17.85 42.15 2.4004
      vertex 17.85 42.15 2.2002
    endloop
  endfacet
  facet normal -0 0 1
    outer loop
      vertex 15.15 44.85 2.4004
      vertex 17.85 42.15 2.4004
      vertex 17.85 44.85 2.4004
    endloop
  endfacet
  facet normal 0 0 1
    outer loop
      vertex 17.85 42.15 2.4004
      vertex 15.15 44.85 2.4004
      vertex 15.15 42.15 2.4004
    endloop
  endfacet
  facet normal 0 0 -1
    outer loop
      vertex 15.15 42.15 2.2002
      vertex 17.85 44.85 2.2002
      vertex 17.85 42.15 2.2002
    endloop
  endfacet
  facet normal -0 0 -1
    outer loop
      vertex 17.85 44.85 2.2002
      vertex 15.15 42.15 2.2002
      vertex 15.15 44.85 2.2002
    endloop
  endfacet
  facet normal -1 0 0
    outer loop
      vertex 15.15 42.15 2.2002
      vertex 15.15 44.85 2.4004
      vertex 15.15 44.85 2.2002
    endloop
  endfacet
  facet normal -1 -0 0
    outer loop
      vertex 15.15 44.85 2.4004
      vertex 15.15 42.15 2.2002
      vertex 15.15 42.15 2.4004
    endloop
  endfacet
  facet normal 0 1 -0
    outer loop
      vertex 17.85 44.85 2.2002
      vertex 15.15 44.85 2.4004
      vertex 17.85 44.85 2.4004
    endloop
  endfacet
  facet normal 0 1 0
    outer loop
      vertex 15.15 44.85 2.4004
      vertex 17.85 44.85 2.2002
      vertex 15.15 44.85 2.2002
    endloop
  endfacet
  facet normal 0 -1 0
    outer loop
      vertex 15.15 42.15 2.2002
      vertex 17.85 42.15 2.4004
      vertex 15.15 42.15 2.4004
    endloop
  endfacet
  facet normal 0 -1 -0
    outer loop
      vertex 17.85 42.15 2.4004
      vertex 15.15 42.15 2.2002
      vertex 17.85 42.15 2.2002
    endloop
  endfacet
  facet normal 1 -0 0
    outer loop
      vertex 20.85 42.15 2.4004
      vertex 20.85 44.85 2.2002
      vertex 20.85 44.85 2.4004
    endloop
  endfacet
  facet normal 1 0 0
    outer loop
      vertex 20.85 44.85 2.2002
      vertex 20.85 42.15 2.4004
      vertex 20.85 42.15 2.2002
    endloop
  endfacet
  facet normal -0 0 1
    outer loop
      vertex 18.15 44.85 2.4004
      vertex 20.85 42.15 2.4004
      vertex 20.85 44.85 2.4004
    endloop
  endfacet
  facet normal 0 0 1
    outer loop
      vertex 20.85 42.15 2.4004
      vertex 18.15 44.85 2.4004
      vertex 18.15 42.15 2.4004
    endloop
  endfacet
  facet normal 0 0 -1
    outer loop
      vertex 18.15 42.15 2.2002
      vertex 20.85 44.85 2.2002
      vertex 20.85 42.15 2.2002
    endloop
  endfacet
  facet normal -0 0 -1
    outer loop
      vertex 20.85 44.85 2.2002
      vertex 18.15 42.15 2.2002
      vertex 18.15 44.85 2.2002
    endloop
  endfacet
  facet normal -1 0 0
    outer loop
      vertex 18.15 42.15 2.2002
      vertex 18.15 44.85 2.4004
      vertex 18.15 44.85 2.2002
    endloop
  endfacet
  facet normal -1 -0 0
    outer loop
      vertex 18.15 44.85 2.4004
      vertex 18.15 42.15 2.2002
      vertex 18.15 42.15 2.4004
    endloop
  endfacet
  facet normal 0 1 -0
    outer loop
      vertex 20.85 44.85 2.2002
      vertex 18.15 44.85 2.4004
      vertex 20.85 44.85 2.4004
    endloop
  endfacet
  facet normal 0 1 0
    outer loop
      vertex 18.15 44.85 2.4004
      vertex 20.85 44.85 2.2002
      vertex 18.15 44.85 2.2002
    endloop
  endfacet
  facet normal 0 -1 0
    outer loop
      vertex 18.15 42.15 2.2002
      vertex 20.85 42.15 2.4004
      vertex 18.15 42.15 2.4004
    endloop
  endfacet
  facet normal 0 -1 -0
    outer loop
      vertex 20.85 42.15 2.4004
      vertex 18.15 42.15 2.2002
      vertex 20.85 42.15 2.2002
    endloop
  endfacet
  facet normal 1 -0 0
    outer loop
      vertex 26.85 42.15 2.4004
      vertex 26.85 44.85 2.2002
      vertex 26.85 44.85 2.4004
    endloop
  endfacet
  facet normal 1 0 0
    outer loop
      vertex 26.85 44.85 2.2002
      vertex 26.85 42.15 2.4004
      vertex 26.85 42.15 2.2002
    endloop
  endfacet
  facet normal -0 0 1
    outer loop
      vertex 24.15 44.85 2.4004
      vertex 26.85 42.15 2.4004
      vertex 26.85 44.85 2.4004
    endloop
  endfacet
  facet normal 0 0 1
    outer loop
      vertex 26.85 42.15 2.4004
      vertex 24.15 44.85 2.4004
      vertex 24.15 42.15 2.4004
    endloop
  endfacet
  facet normal 0 0 -1
    outer loop
      vertex 24.15 42.15 2.2002
      vertex 26.85 44.85 2.2002
      vertex 26.85 42.15 2.2002
    endloop
  endfacet
  facet normal -0 0 -1
    outer loop
      vertex 26.85 44.85 2.2002
      vertex 24.15 42.15 2.2002
      vertex 24.15 44.85 2.2002
    endloop
  endfacet
  facet normal -1 0 0
    outer loop
      vertex 24.15 42.15 2.2002
      vertex 24.15 44.85 2.4004
      vertex 24.15 44.85 2.2002
    endloop
  endfacet
  facet normal -1 -0 0
    outer loop
      vertex 24.15 44.85 2.4004
      vertex 24.15 42.15 2.2002
      vertex 24.15 42.15 2.4004
    endloop
  endfacet
  facet normal 0 1 -0
    outer loop
      vertex 26.85 44.85 2.2002
      vertex 24.15 44.85 2.4004
      vertex 26.85 44.85 2.4004
    endloop
  endfacet
  facet normal 0 1 0
    outer loop
      vertex 24.15 44.85 2.4004
      vertex 26.85 44.85 2.2002
      vertex 24.15 44.85 2.2002
    endloop
  endfacet
  facet normal 0 -1 0
    outer loop
      vertex 24.15 42.15 2.2002
      vertex 26.85 42.15 2.4004
      vertex 24.15 42.15 2.4004
    endloop
  endfacet
  facet normal 0 -1 -0
    outer loop
      vertex 26.85 42.15 2.4004
      vertex 24.15 42.15 2.2002
      vertex 26.85 42.15 2.2002
    endloop
  endfacet
  facet normal 1 -0 0
    outer loop
      vertex 11.85 45.15 2.4004
      vertex 11.85 47.85 2.2002
      vertex 11.85 47.85 2.4004
    endloop
  endfacet
  facet normal 1 0 0
    outer loop
      vertex 11.85 47.85 2.2002
      vertex 11.85 45.15 2.4004
      vertex 11.85 45.15 2.2002
    endloop
  endfacet
  facet normal -0 0 1
    outer loop
      vertex 9.15 47.85 2.4004
      vertex 11.85 45.15 2.4004
      vertex 11.85 47.85 2.4004
    endloop
  endfacet
  facet normal 0 0 1
    outer loop
      vertex 11.85 45.15 2.4004
      vertex 9.15 47.85 2.4004
      vertex 9.15 45.15 2.4004
    endloop
  endfacet
  facet normal 0 0 -1
    outer loop
      vertex 9.15 45.15 2.2002
      vertex 11.85 47.85 2.2002
      vertex 11.85 45.15 2.2002
    endloop
  endfacet
  facet normal -0 0 -1
    outer loop
      vertex 11.85 47.85 2.2002
      vertex 9.15 45.15 2.2002
      vertex 9.15 47.85 2.2002
    endloop
  endfacet
  facet normal -1 0 0
    outer loop
      vertex 9.15 45.15 2.2002
      vertex 9.15 47.85 2.4004
      vertex 9.15 47.85 2.2002
    endloop
  endfacet
  facet normal -1 -0 0
    outer loop
      vertex 9.15 47.85 2.4004
      vertex 9.15 45.15 2.2002
      vertex 9.15 45.15 2.4004
    endloop
  endfacet
  facet normal 0 1 -0
    outer loop
      vertex 11.85 47.85 2.2002
      vertex 9.15 47.85 2.4004
      vertex 11.85 47.85 2.4004
    endloop
  endfacet
  facet normal 0 1 0
    outer loop
      vertex 9.15 47.85 2.4004
      vertex 11.85 47.85 2.2002
      vertex 9.15 47.85 2.2002
    endloop
  endfacet
  facet normal 0 -1 0
    outer loop
      vertex 9.15 45.15 2.2002
      vertex 11.85 45.15 2.4004
      vertex 9.15 45.15 2.4004
    endloop
  endfacet
  facet normal 0 -1 -0
    outer loop
      vertex 11.85 45.15 2.4004
      vertex 9.15 45.15 2.2002
      vertex 11.85 45.15 2.2002
    endloop
  endfacet
  facet normal 1 -0 0
    outer loop
      vertex 14.85 45.15 2.4004
      vertex 14.85 47.85 2.2002
      vertex 14.85 47.85 2.4004
    endloop
  endfacet
  facet normal 1 0 0
    outer loop
      vertex 14.85 47.85 2.2002
      vertex 14.85 45.15 2.4004
      vertex 14.85 45.15 2.2002
    endloop
  endfacet
  facet normal -0 0 1
    outer loop
      vertex 12.15 47.85 2.4004
      vertex 14.85 45.15 2.4004
      vertex 14.85 47.85 2.4004
    endloop
  endfacet
  facet normal 0 0 1
    outer loop
      vertex 14.85 45.15 2.4004
      vertex 12.15 47.85 2.4004
      vertex 12.15 45.15 2.4004
    endloop
  endfacet
  facet normal 0 0 -1
    outer loop
      vertex 12.15 45.15 2.2002
      vertex 14.85 47.85 2.2002
      vertex 14.85 45.15 2.2002
    endloop
  endfacet
  facet normal -0 0 -1
    outer loop
      vertex 14.85 47.85 2.2002
      vertex 12.15 45.15 2.2002
      vertex 12.15 47.85 2.2002
    endloop
  endfacet
  facet normal -1 0 0
    outer loop
      vertex 12.15 45.15 2.2002
      vertex 12.15 47.85 2.4004
      vertex 12.15 47.85 2.2002
    endloop
  endfacet
  facet normal -1 -0 0
    outer loop
      vertex 12.15 47.85 2.4004
      vertex 12.15 45.15 2.2002
      vertex 12.15 45.15 2.4004
    endloop
  endfacet
  facet normal 0 1 -0
    outer loop
      vertex 14.85 47.85 2.2002
      vertex 12.15 47.85 2.4004
      vertex 14.85 47.85 2.4004
    endloop
  endfacet
  facet normal 0 1 0
    outer loop
      vertex 12.15 47.85 2.4004
      vertex 14.85 47.85 2.2002
      vertex 12.15 47.85 2.2002
    endloop
  endfacet
  facet normal 0 -1 0
    outer loop
      vertex 12.15 45.15 2.2002
      vertex 14.85 45.15 2.4004
      vertex 12.15 45.15 2.4004
    endloop
  endfacet
  facet normal 0 -1 -0
    outer loop
      vertex 14.85 45.15 2.4004
      vertex 12.15 45.15 2.2002
      vertex 14.85 45.15 2.2002
    endloop
  endfacet
  facet normal 1 -0 0
    outer loop
      vertex 23.85 45.15 2.4004
      vertex 23.85 47.85 2.2002
      vertex 23.85 47.85 2.4004
    endloop
  endfacet
  facet normal 1 0 0
    outer loop
      vertex 23.85 47.85 2.2002
      vertex 23.85 45.15 2.4004
      vertex 23.85 45.15 2.2002
    endloop
  endfacet
  facet normal -0 0 1
    outer loop
      vertex 21.15 47.85 2.4004
      vertex 23.85 45.15 2.4004
      vertex 23.85 47.85 2.4004
    endloop
  endfacet
  facet normal 0 0 1
    outer loop
      vertex 23.85 45.15 2.4004
      vertex 21.15 47.85 2.4004
      vertex 21.15 45.15 2.4004
    endloop
  endfacet
  facet normal 0 0 -1
    outer loop
      vertex 21.15 45.15 2.2002
      vertex 23.85 47.85 2.2002
      vertex 23.85 45.15 2.2002
    endloop
  endfacet
  facet normal -0 0 -1
    outer loop
      vertex 23.85 47.85 2.2002
      vertex 21.15 45.15 2.2002
      vertex 21.15 47.85 2.2002
    endloop
  endfacet
  facet normal -1 0 0
    outer loop
      vertex 21.15 45.15 2.2002
      vertex 21.15 47.85 2.4004
      vertex 21.15 47.85 2.2002
    endloop
  endfacet
  facet normal -1 -0 0
    outer loop
      vertex 21.15 47.85 2.4004
      vertex 21.15 45.15 2.2002
      vertex 21.15 45.15 2.4004
    endloop
  endfacet
  facet normal 0 1 -0
    outer loop
      vertex 23.85 47.85 2.2002
      vertex 21.15 47.85 2.4004
      vertex 23.85 47.85 2.4004
    endloop
  endfacet
  facet normal 0 1 0
    outer loop
      vertex 21.15 47.85 2.4004
      vertex 23.85 47.85 2.2002
      vertex 21.15 47.85 2.2002
    endloop
  endfacet
  facet normal 0 -1 0
    outer loop
      vertex 21.15 45.15 2.2002
      vertex 23.85 45.15 2.4004
      vertex 21.15 45.15 2.4004
    endloop
  endfacet
  facet normal 0 -1 -0
    outer loop
      vertex 23.85 45.15 2.4004
      vertex 21.15 45.15 2.2002
      vertex 23.85 45.15 2.2002
    endloop
  endfacet
  facet normal 1 -0 0
    outer loop
      vertex 26.85 45.15 2.4004
      vertex 26.85 47.85 2.2002
      vertex 26.85 47.85 2.4004
    endloop
  endfacet
  facet normal 1 0 0
    outer loop
      vertex 26.85 47.85 2.2002
      vertex 26.85 45.15 2.4004
      vertex 26.85 45.15 2.2002
    endloop
  endfacet
  facet normal -0 0 1
    outer loop
      vertex 24.15 47.85 2.4004
      vertex 26.85 45.15 2.4004
      vertex 26.85 47.85 2.4004
    endloop
  endfacet
  facet normal 0 0 1
    outer loop
      vertex 26.85 45.15 2.4004
      vertex 24.15 47.85 2.4004
      vertex 24.15 45.15 2.4004
    endloop
  endfacet
  facet normal 0 0 -1
    outer loop
      vertex 24.15 45.15 2.2002
      vertex 26.85 47.85 2.2002
      vertex 26.85 45.15 2.2002
    endloop
  endfacet
  facet normal -0 0 -1
    outer loop
      vertex 26.85 47.85 2.2002
      vertex 24.15 45.15 2.2002
      vertex 24.15 47.85 2.2002
    endloop
  endfacet
  facet normal -1 0 0
    outer loop
      vertex 24.15 45.15 2.2002
      vertex 24.15 47.85 2.4004
      vertex 24.15 47.85 2.2002
    endloop
  endfacet
  facet normal -1 -0 0
    outer loop
      vertex 24.15 47.85 2.4004
      vertex 24.15 45.15 2.2002
      vertex 24.15 45.15 2.4004
    endloop
  endfacet
  facet normal 0 1 -0
    outer loop
      vertex 26.85 47.85 2.2002
      vertex 24.15 47.85 2.4004
      vertex 26.85 47.85 2.4004
    endloop
  endfacet
  facet normal 0 1 0
    outer loop
      vertex 24.15 47.85 2.4004
      vertex 26.85 47.85 2.2002
      vertex 24.15 47.85 2.2002
    endloop
  endfacet
  facet normal 0 -1 0
    outer loop
      vertex 24.15 45.15 2.2002
      vertex 26.85 45.15 2.4004
      vertex 24.15 45.15 2.4004
    endloop
  endfacet
  facet normal 0 -1 -0
    outer loop
      vertex 26.85 45.15 2.4004
      vertex 24.15 45.15 2.2002
      vertex 26.85 45.15 2.2002
    endloop
  endfacet
  facet normal 1 -0 0
    outer loop
      vertex 11.85 48.15 2.4004
      vertex 11.85 50.85 2.2002
      vertex 11.85 50.85 2.4004
    endloop
  endfacet
  facet normal 1 0 0
    outer loop
      vertex 11.85 50.85 2.2002
      vertex 11.85 48.15 2.4004
      vertex 11.85 48.15 2.2002
    endloop
  endfacet
  facet normal -0 0 1
    outer loop
      vertex 9.15 50.85 2.4004
      vertex 11.85 48.15 2.4004
      vertex 11.85 50.85 2.4004
    endloop
  endfacet
  facet normal 0 0 1
    outer loop
      vertex 11.85 48.15 2.4004
      vertex 9.15 50.85 2.4004
      vertex 9.15 48.15 2.4004
    endloop
  endfacet
  facet normal 0 0 -1
    outer loop
      vertex 9.15 48.15 2.2002
      vertex 11.85 50.85 2.2002
      vertex 11.85 48.15 2.2002
    endloop
  endfacet
  facet normal -0 0 -1
    outer loop
      vertex 11.85 50.85 2.2002
      vertex 9.15 48.15 2.2002
      vertex 9.15 50.85 2.2002
    endloop
  endfacet
  facet normal -1 0 0
    outer loop
      vertex 9.15 48.15 2.2002
      vertex 9.15 50.85 2.4004
      vertex 9.15 50.85 2.2002
    endloop
  endfacet
  facet normal -1 -0 0
    outer loop
      vertex 9.15 50.85 2.4004
      vertex 9.15 48.15 2.2002
      vertex 9.15 48.15 2.4004
    endloop
  endfacet
  facet normal 0 1 -0
    outer loop
      vertex 11.85 50.85 2.2002
      vertex 9.15 50.85 2.4004
      vertex 11.85 50.85 2.4004
    endloop
  endfacet
  facet normal 0 1 0
    outer loop
      vertex 9.15 50.85 2.4004
      vertex 11.85 50.85 2.2002
      vertex 9.15 50.85 2.2002
    endloop
  endfacet
  facet normal 0 -1 0
    outer loop
      vertex 9.15 48.15 2.2002
      vertex 11.85 48.15 2.4004
      vertex 9.15 48.15 2.4004
    endloop
  endfacet
  facet normal 0 -1 -0
    outer loop
      vertex 11.85 48.15 2.4004
      vertex 9.15 48.15 2.2002
      vertex 11.85 48.15 2.2002
    endloop
  endfacet
  facet normal 1 -0 0
    outer loop
      vertex 14.85 48.15 2.4004
      vertex 14.85 50.85 2.2002
      vertex 14.85 50.85 2.4004
    endloop
  endfacet
  facet normal 1 0 0
    outer loop
      vertex 14.85 50.85 2.2002
      vertex 14.85 48.15 2.4004
      vertex 14.85 48.15 2.2002
    endloop
  endfacet
  facet normal -0 0 1
    outer loop
      vertex 12.15 50.85 2.4004
      vertex 14.85 48.15 2.4004
      vertex 14.85 50.85 2.4004
    endloop
  endfacet
  facet normal 0 0 1
    outer loop
      vertex 14.85 48.15 2.4004
      vertex 12.15 50.85 2.4004
      vertex 12.15 48.15 2.4004
    endloop
  endfacet
  facet normal 0 0 -1
    outer loop
      vertex 12.15 48.15 2.2002
      vertex 14.85 50.85 2.2002
      vertex 14.85 48.15 2.2002
    endloop
  endfacet
  facet normal -0 0 -1
    outer loop
      vertex 14.85 50.85 2.2002
      vertex 12.15 48.15 2.2002
      vertex 12.15 50.85 2.2002
    endloop
  endfacet
  facet normal -1 0 0
    outer loop
      vertex 12.15 48.15 2.2002
      vertex 12.15 50.85 2.4004
      vertex 12.15 50.85 2.2002
    endloop
  endfacet
  facet normal -1 -0 0
    outer loop
      vertex 12.15 50.85 2.4004
      vertex 12.15 48.15 2.2002
      vertex 12.15 48.15 2.4004
    endloop
  endfacet
  facet normal 0 1 -0
    outer loop
      vertex 14.85 50.85 2.2002
      vertex 12.15 50.85 2.4004
      vertex 14.85 50.85 2.4004
    endloop
  endfacet
  facet normal 0 1 0
    outer loop
      vertex 12.15 50.85 2.4004
      vertex 14.85 50.85 2.2002
      vertex 12.15 50.85 2.2002
    endloop
  endfacet
  facet normal 0 -1 0
    outer loop
      vertex 12.15 48.15 2.2002
      vertex 14.85 48.15 2.4004
      vertex 12.15 48.15 2.4004
    endloop
  endfacet
  facet normal 0 -1 -0
    outer loop
      vertex 14.85 48.15 2.4004
      vertex 12.15 48.15 2.2002
      vertex 14.85 48.15 2.2002
    endloop
  endfacet
  facet normal 1 -0 0
    outer loop
      vertex 17.85 48.15 2.4004
      vertex 17.85 50.85 2.2002
      vertex 17.85 50.85 2.4004
    endloop
  endfacet
  facet normal 1 0 0
    outer loop
      vertex 17.85 50.85 2.2002
      vertex 17.85 48.15 2.4004
      vertex 17.85 48.15 2.2002
    endloop
  endfacet
  facet normal -0 0 1
    outer loop
      vertex 15.15 50.85 2.4004
      vertex 17.85 48.15 2.4004
      vertex 17.85 50.85 2.4004
    endloop
  endfacet
  facet normal 0 0 1
    outer loop
      vertex 17.85 48.15 2.4004
      vertex 15.15 50.85 2.4004
      vertex 15.15 48.15 2.4004
    endloop
  endfacet
  facet normal 0 0 -1
    outer loop
      vertex 15.15 48.15 2.2002
      vertex 17.85 50.85 2.2002
      vertex 17.85 48.15 2.2002
    endloop
  endfacet
  facet normal -0 0 -1
    outer loop
      vertex 17.85 50.85 2.2002
      vertex 15.15 48.15 2.2002
      vertex 15.15 50.85 2.2002
    endloop
  endfacet
  facet normal -1 0 0
    outer loop
      vertex 15.15 48.15 2.2002
      vertex 15.15 50.85 2.4004
      vertex 15.15 50.85 2.2002
    endloop
  endfacet
  facet normal -1 -0 0
    outer loop
      vertex 15.15 50.85 2.4004
      vertex 15.15 48.15 2.2002
      vertex 15.15 48.15 2.4004
    endloop
  endfacet
  facet normal 0 1 -0
    outer loop
      vertex 17.85 50.85 2.2002
      vertex 15.15 50.85 2.4004
      vertex 17.85 50.85 2.4004
    endloop
  endfacet
  facet normal 0 1 0
    outer loop
      vertex 15.15 50.85 2.4004
      vertex 17.85 50.85 2.2002
      vertex 15.15 50.85 2.2002
    endloop
  endfacet
  facet normal 0 -1 0
    outer loop
      vertex 15.15 48.15 2.2002
      vertex 17.85 48.15 2.4004
      vertex 15.15 48.15 2.4004
    endloop
  endfacet
  facet normal 0 -1 -0
    outer loop
      vertex 17.85 48.15 2.4004
      vertex 15.15 48.15 2.2002
      vertex 17.85 48.15 2.2002
    endloop
  endfacet
  facet normal 1 -0 0
    outer loop
      vertex 23.85 48.15 2.4004
      vertex 23.85 50.85 2.2002
      vertex 23.85 50.85 2.4004
    endloop
  endfacet
  facet normal 1 0 0
    outer loop
      vertex 23.85 50.85 2.2002
      vertex 23.85 48.15 2.4004
      vertex 23.85 48.15 2.2002
    endloop
  endfacet
  facet normal -0 0 1
    outer loop
      vertex 21.15 50.85 2.4004
      vertex 23.85 48.15 2.4004
      vertex 23.85 50.85 2.4004
    endloop
  endfacet
  facet normal 0 0 1
    outer loop
      vertex 23.85 48.15 2.4004
      vertex 21.15 50.85 2.4004
      vertex 21.15 48.15 2.4004
    endloop
  endfacet
  facet normal 0 0 -1
    outer loop
      vertex 21.15 48.15 2.2002
      vertex 23.85 50.85 2.2002
      vertex 23.85 48.15 2.2002
    endloop
  endfacet
  facet normal -0 0 -1
    outer loop
      vertex 23.85 50.85 2.2002
      vertex 21.15 48.15 2.2002
      vertex 21.15 50.85 2.2002
    endloop
  endfacet
  facet normal -1 0 0
    outer loop
      vertex 21.15 48.15 2.2002
      vertex 21.15 50.85 2.4004
      vertex 21.15 50.85 2.2002
    endloop
  endfacet
  facet normal -1 -0 0
    outer loop
      vertex 21.15 50.85 2.4004
      vertex 21.15 48.15 2.2002
      vertex 21.15 48.15 2.4004
    endloop
  endfacet
  facet normal 0 1 -0
    outer loop
      vertex 23.85 50.85 2.2002
      vertex 21.15 50.85 2.4004
      vertex 23.85 50.85 2.4004
    endloop
  endfacet
  facet normal 0 1 0
    outer loop
      vertex 21.15 50.85 2.4004
      vertex 23.85 50.85 2.2002
      vertex 21.15 50.85 2.2002
    endloop
  endfacet
  facet normal 0 -1 0
    outer loop
      vertex 21.15 48.15 2.2002
      vertex 23.85 48.15 2.4004
      vertex 21.15 48.15 2.4004
    endloop
  endfacet
  facet normal 0 -1 -0
    outer loop
      vertex 23.85 48.15 2.4004
      vertex 21.15 48.15 2.2002
      vertex 23.85 48.15 2.2002
    endloop
  endfacet
  facet normal 1 -0 0
    outer loop
      vertex 11.85 51.15 2.4004
      vertex 11.85 53.85 2.2002
      vertex 11.85 53.85 2.4004
    endloop
  endfacet
  facet normal 1 0 0
    outer loop
      vertex 11.85 53.85 2.2002
      vertex 11.85 51.15 2.4004
      vertex 11.85 51.15 2.2002
    endloop
  endfacet
  facet normal -0 0 1
    outer loop
      vertex 9.15 53.85 2.4004
      vertex 11.85 51.15 2.4004
      vertex 11.85 53.85 2.4004
    endloop
  endfacet
  facet normal 0 0 1
    outer loop
      vertex 11.85 51.15 2.4004
      vertex 9.15 53.85 2.4004
      vertex 9.15 51.15 2.4004
    endloop
  endfacet
  facet normal 0 0 -1
    outer loop
      vertex 9.15 51.15 2.2002
      vertex 11.85 53.85 2.2002
      vertex 11.85 51.15 2.2002
    endloop
  endfacet
  facet normal -0 0 -1
    outer loop
      vertex 11.85 53.85 2.2002
      vertex 9.15 51.15 2.2002
      vertex 9.15 53.85 2.2002
    endloop
  endfacet
  facet normal -1 0 0
    outer loop
      vertex 9.15 51.15 2.2002
      vertex 9.15 53.85 2.4004
      vertex 9.15 53.85 2.2002
    endloop
  endfacet
  facet normal -1 -0 0
    outer loop
      vertex 9.15 53.85 2.4004
      vertex 9.15 51.15 2.2002
      vertex 9.15 51.15 2.4004
    endloop
  endfacet
  facet normal 0 1 -0
    outer loop
      vertex 11.85 53.85 2.2002
      vertex 9.15 53.85 2.4004
      vertex 11.85 53.85 2.4004
    endloop
  endfacet
  facet normal 0 1 0
    outer loop
      vertex 9.15 53.85 2.4004
      vertex 11.85 53.85 2.2002
      vertex 9.15 53.85 2.2002
    endloop
  endfacet
  facet normal 0 -1 0
    outer loop
      vertex 9.15 51.15 2.2002
      vertex 11.85 51.15 2.4004
      vertex 9.15 51.15 2.4004
    endloop
  endfacet
  facet normal 0 -1 -0
    outer loop
      vertex 11.85 51.15 2.4004
      vertex 9.15 51.15 2.2002
      vertex 11.85 51.15 2.2002
    endloop
  endfacet
  facet normal 1 -0 0
    outer loop
      vertex 14.85 51.15 2.4004
      vertex 14.85 53.85 2.2002
      vertex 14.85 53.85 2.4004
    endloop
  endfacet
  facet normal 1 0 0
    outer loop
      vertex 14.85 53.85 2.2002
      vertex 14.85 51.15 2.4004
      vertex 14.85 51.15 2.2002
    endloop
  endfacet
  facet normal -0 0 1
    outer loop
      vertex 12.15 53.85 2.4004
      vertex 14.85 51.15 2.4004
      vertex 14.85 53.85 2.4004
    endloop
  endfacet
  facet normal 0 0 1
    outer loop
      vertex 14.85 51.15 2.4004
      vertex 12.15 53.85 2.4004
      vertex 12.15 51.15 2.4004
    endloop
  endfacet
  facet normal 0 0 -1
    outer loop
      vertex 12.15 51.15 2.2002
      vertex 14.85 53.85 2.2002
      vertex 14.85 51.15 2.2002
    endloop
  endfacet
  facet normal -0 0 -1
    outer loop
      vertex 14.85 53.85 2.2002
      vertex 12.15 51.15 2.2002
      vertex 12.15 53.85 2.2002
    endloop
  endfacet
  facet normal -1 0 0
    outer loop
      vertex 12.15 51.15 2.2002
      vertex 12.15 53.85 2.4004
      vertex 12.15 53.85 2.2002
    endloop
  endfacet
  facet normal -1 -0 0
    outer loop
      vertex 12.15 53.85 2.4004
      vertex 12.15 51.15 2.2002
      vertex 12.15 51.15 2.4004
    endloop
  endfacet
  facet normal 0 1 -0
    outer loop
      vertex 14.85 53.85 2.2002
      vertex 12.15 53.85 2.4004
      vertex 14.85 53.85 2.4004
    endloop
  endfacet
  facet normal 0 1 0
    outer loop
      vertex 12.15 53.85 2.4004
      vertex 14.85 53.85 2.2002
      vertex 12.15 53.85 2.2002
    endloop
  endfacet
  facet normal 0 -1 0
    outer loop
      vertex 12.15 51.15 2.2002
      vertex 14.85 51.15 2.4004
      vertex 12.15 51.15 2.4004
    endloop
  endfacet
  facet normal 0 -1 -0
    outer loop
      vertex 14.85 51.15 2.4004
      vertex 12.15 51.15 2.2002
      vertex 14.85 51.15 2.2002
    endloop
  endfacet
  facet normal 1 -0 0
    outer loop
      vertex 17.85 51.15 2.4004
      vertex 17.85 53.85 2.2002
      vertex 17.85 53.85 2.4004
    endloop
  endfacet
  facet normal 1 0 0
    outer loop
      vertex 17.85 53.85 2.2002
      vertex 17.85 51.15 2.4004
      vertex 17.85 51.15 2.2002
    endloop
  endfacet
  facet normal -0 0 1
    outer loop
      vertex 15.15 53.85 2.4004
      vertex 17.85 51.15 2.4004
      vertex 17.85 53.85 2.4004
    endloop
  endfacet
  facet normal 0 0 1
    outer loop
      vertex 17.85 51.15 2.4004
      vertex 15.15 53.85 2.4004
      vertex 15.15 51.15 2.4004
    endloop
  endfacet
  facet normal 0 0 -1
    outer loop
      vertex 15.15 51.15 2.2002
      vertex 17.85 53.85 2.2002
      vertex 17.85 51.15 2.2002
    endloop
  endfacet
  facet normal -0 0 -1
    outer loop
      vertex 17.85 53.85 2.2002
      vertex 15.15 51.15 2.2002
      vertex 15.15 53.85 2.2002
    endloop
  endfacet
  facet normal -1 0 0
    outer loop
      vertex 15.15 51.15 2.2002
      vertex 15.15 53.85 2.4004
      vertex 15.15 53.85 2.2002
    endloop
  endfacet
  facet normal -1 -0 0
    outer loop
      vertex 15.15 53.85 2.4004
      vertex 15.15 51.15 2.2002
      vertex 15.15 51.15 2.4004
    endloop
  endfacet
  facet normal 0 1 -0
    outer loop
      vertex 17.85 53.85 2.2002
      vertex 15.15 53.85 2.4004
      vertex 17.85 53.85 2.4004
    endloop
  endfacet
  facet normal 0 1 0
    outer loop
      vertex 15.15 53.85 2.4004
      vertex 17.85 53.85 2.2002
      vertex 15.15 53.85 2.2002
    endloop
  endfacet
  facet normal 0 -1 0
    outer loop
      vertex 15.15 51.15 2.2002
      vertex 17.85 51.15 2.4004
      vertex 15.15 51.15 2.4004
    endloop
  endfacet
  facet normal 0 -1 -0
    outer loop
      vertex 17.85 51.15 2.4004
      vertex 15.15 51.15 2.2002
      vertex 17.85 51.15 2.2002
    endloop
  endfacet
  facet normal 1 -0 0
    outer loop
      vertex 8.85 54.15 2.4004
      vertex 8.85 56.85 2.2002
      vertex 8.85 56.85 2.4004
    endloop
  endfacet
  facet normal 1 0 0
    outer loop
      vertex 8.85 56.85 2.2002
      vertex 8.85 54.15 2.4004
      vertex 8.85 54.15 2.2002
    endloop
  endfacet
  facet normal -0 0 1
    outer loop
      vertex 6.15 56.85 2.4004
      vertex 8.85 54.15 2.4004
      vertex 8.85 56.85 2.4004
    endloop
  endfacet
  facet normal 0 0 1
    outer loop
      vertex 8.85 54.15 2.4004
      vertex 6.15 56.85 2.4004
      vertex 6.15 54.15 2.4004
    endloop
  endfacet
  facet normal 0 0 -1
    outer loop
      vertex 6.15 54.15 2.2002
      vertex 8.85 56.85 2.2002
      vertex 8.85 54.15 2.2002
    endloop
  endfacet
  facet normal -0 0 -1
    outer loop
      vertex 8.85 56.85 2.2002
      vertex 6.15 54.15 2.2002
      vertex 6.15 56.85 2.2002
    endloop
  endfacet
  facet normal -1 0 0
    outer loop
      vertex 6.15 54.15 2.2002
      vertex 6.15 56.85 2.4004
      vertex 6.15 56.85 2.2002
    endloop
  endfacet
  facet normal -1 -0 0
    outer loop
      vertex 6.15 56.85 2.4004
      vertex 6.15 54.15 2.2002
      vertex 6.15 54.15 2.4004
    endloop
  endfacet
  facet normal 0 1 -0
    outer loop
      vertex 8.85 56.85 2.2002
      vertex 6.15 56.85 2.4004
      vertex 8.85 56.85 2.4004
    endloop
  endfacet
  facet normal 0 1 0
    outer loop
      vertex 6.15 56.85 2.4004
      vertex 8.85 56.85 2.2002
      vertex 6.15 56.85 2.2002
    endloop
  endfacet
  facet normal 0 -1 0
    outer loop
      vertex 6.15 54.15 2.2002
      vertex 8.85 54.15 2.4004
      vertex 6.15 54.15 2.4004
    endloop
  endfacet
  facet normal 0 -1 -0
    outer loop
      vertex 8.85 54.15 2.4004
      vertex 6.15 54.15 2.2002
      vertex 8.85 54.15 2.2002
    endloop
  endfacet
  facet normal 1 -0 0
    outer loop
      vertex 11.85 54.15 2.4004
      vertex 11.85 56.85 2.2002
      vertex 11.85 56.85 2.4004
    endloop
  endfacet
  facet normal 1 0 0
    outer loop
      vertex 11.85 56.85 2.2002
      vertex 11.85 54.15 2.4004
      vertex 11.85 54.15 2.2002
    endloop
  endfacet
  facet normal -0 0 1
    outer loop
      vertex 9.15 56.85 2.4004
      vertex 11.85 54.15 2.4004
      vertex 11.85 56.85 2.4004
    endloop
  endfacet
  facet normal 0 0 1
    outer loop
      vertex 11.85 54.15 2.4004
      vertex 9.15 56.85 2.4004
      vertex 9.15 54.15 2.4004
    endloop
  endfacet
  facet normal 0 0 -1
    outer loop
      vertex 9.15 54.15 2.2002
      vertex 11.85 56.85 2.2002
      vertex 11.85 54.15 2.2002
    endloop
  endfacet
  facet normal -0 0 -1
    outer loop
      vertex 11.85 56.85 2.2002
      vertex 9.15 54.15 2.2002
      vertex 9.15 56.85 2.2002
    endloop
  endfacet
  facet normal -1 0 0
    outer loop
      vertex 9.15 54.15 2.2002
      vertex 9.15 56.85 2.4004
      vertex 9.15 56.85 2.2002
    endloop
  endfacet
  facet normal -1 -0 0
    outer loop
      vertex 9.15 56.85 2.4004
      vertex 9.15 54.15 2.2002
      vertex 9.15 54.15 2.4004
    endloop
  endfacet
  facet normal 0 1 -0
    outer loop
      vertex 11.85 56.85 2.2002
      vertex 9.15 56.85 2.4004
      vertex 11.85 56.85 2.4004
    endloop
  endfacet
  facet normal 0 1 0
    outer loop
      vertex 9.15 56.85 2.4004
      vertex 11.85 56.85 2.2002
      vertex 9.15 56.85 2.2002
    endloop
  endfacet
  facet normal 0 -1 0
    outer loop
      vertex 9.15 54.15 2.2002
      vertex 11.85 54.15 2.4004
      vertex 9.15 54.15 2.4004
    endloop
  endfacet
  facet normal 0 -1 -0
    outer loop
      vertex 11.85 54.15 2.4004
      vertex 9.15 54.15 2.2002
      vertex 11.85 54.15 2.2002
    endloop
  endfacet
  facet normal 1 -0 0
    outer loop
      vertex 14.85 54.15 2.4004
      vertex 14.85 56.85 2.2002
      vertex 14.85 56.85 2.4004
    endloop
  endfacet
  facet normal 1 0 0
    outer loop
      vertex 14.85 56.85 2.2002
      vertex 14.85 54.15 2.4004
      vertex 14.85 54.15 2.2002
    endloop
  endfacet
  facet normal -0 0 1
    outer loop
      vertex 12.15 56.85 2.4004
      vertex 14.85 54.15 2.4004
      vertex 14.85 56.85 2.4004
    endloop
  endfacet
  facet normal 0 0 1
    outer loop
      vertex 14.85 54.15 2.4004
      vertex 12.15 56.85 2.4004
      vertex 12.15 54.15 2.4004
    endloop
  endfacet
  facet normal 0 0 -1
    outer loop
      vertex 12.15 54.15 2.2002
      vertex 14.85 56.85 2.2002
      vertex 14.85 54.15 2.2002
    endloop
  endfacet
  facet normal -0 0 -1
    outer loop
      vertex 14.85 56.85 2.2002
      vertex 12.15 54.15 2.2002
      vertex 12.15 56.85 2.2002
    endloop
  endfacet
  facet normal -1 0 0
    outer loop
      vertex 12.15 54.15 2.2002
      vertex 12.15 56.85 2.4004
      vertex 12.15 56.85 2.2002
    endloop
  endfacet
  facet normal -1 -0 0
    outer loop
      vertex 12.15 56.85 2.4004
      vertex 12.15 54.15 2.2002
      vertex 12.15 54.15 2.4004
    endloop
  endfacet
  facet normal 0 1 -0
    outer loop
      vertex 14.85 56.85 2.2002
      vertex 12.15 56.85 2.4004
      vertex 14.85 56.85 2.4004
    endloop
  endfacet
  facet normal 0 1 0
    outer loop
      vertex 12.15 56.85 2.4004
      vertex 14.85 56.85 2.2002
      vertex 12.15 56.85 2.2002
    endloop
  endfacet
  facet normal 0 -1 0
    outer loop
      vertex 12.15 54.15 2.2002
      vertex 14.85 54.15 2.4004
      vertex 12.15 54.15 2.4004
    endloop
  endfacet
  facet normal 0 -1 -0
    outer loop
      vertex 14.85 54.15 2.4004
      vertex 12.15 54.15 2.2002
      vertex 14.85 54.15 2.2002
    endloop
  endfacet
  facet normal 1 -0 0
    outer loop
      vertex 17.85 54.15 2.4004
      vertex 17.85 56.85 2.2002
      vertex 17.85 56.85 2.4004
    endloop
  endfacet
  facet normal 1 0 0
    outer loop
      vertex 17.85 56.85 2.2002
      vertex 17.85 54.15 2.4004
      vertex 17.85 54.15 2.2002
    endloop
  endfacet
  facet normal -0 0 1
    outer loop
      vertex 15.15 56.85 2.4004
      vertex 17.85 54.15 2.4004
      vertex 17.85 56.85 2.4004
    endloop
  endfacet
  facet normal 0 0 1
    outer loop
      vertex 17.85 54.15 2.4004
      vertex 15.15 56.85 2.4004
      vertex 15.15 54.15 2.4004
    endloop
  endfacet
  facet normal 0 0 -1
    outer loop
      vertex 15.15 54.15 2.2002
      vertex 17.85 56.85 2.2002
      vertex 17.85 54.15 2.2002
    endloop
  endfacet
  facet normal -0 0 -1
    outer loop
      vertex 17.85 56.85 2.2002
      vertex 15.15 54.15 2.2002
      vertex 15.15 56.85 2.2002
    endloop
  endfacet
  facet normal -1 0 0
    outer loop
      vertex 15.15 54.15 2.2002
      vertex 15.15 56.85 2.4004
      vertex 15.15 56.85 2.2002
    endloop
  endfacet
  facet normal -1 -0 0
    outer loop
      vertex 15.15 56.85 2.4004
      vertex 15.15 54.15 2.2002
      vertex 15.15 54.15 2.4004
    endloop
  endfacet
  facet normal 0 1 -0
    outer loop
      vertex 17.85 56.85 2.2002
      vertex 15.15 56.85 2.4004
      vertex 17.85 56.85 2.4004
    endloop
  endfacet
  facet normal 0 1 0
    outer loop
      vertex 15.15 56.85 2.4004
      vertex 17.85 56.85 2.2002
      vertex 15.15 56.85 2.2002
    endloop
  endfacet
  facet normal 0 -1 0
    outer loop
      vertex 15.15 54.15 2.2002
      vertex 17.85 54.15 2.4004
      vertex 15.15 54.15 2.4004
    endloop
  endfacet
  facet normal 0 -1 -0
    outer loop
      vertex 17.85 54.15 2.4004
      vertex 15.15 54.15 2.2002
      vertex 17.85 54.15 2.2002
    endloop
  endfacet
  facet normal 1 -0 0
    outer loop
      vertex 20.85 54.15 2.4004
      vertex 20.85 56.85 2.2002
      vertex 20.85 56.85 2.4004
    endloop
  endfacet
  facet normal 1 0 0
    outer loop
      vertex 20.85 56.85 2.2002
      vertex 20.85 54.15 2.4004
      vertex 20.85 54.15 2.2002
    endloop
  endfacet
  facet normal -0 0 1
    outer loop
      vertex 18.15 56.85 2.4004
      vertex 20.85 54.15 2.4004
      vertex 20.85 56.85 2.4004
    endloop
  endfacet
  facet normal 0 0 1
    outer loop
      vertex 20.85 54.15 2.4004
      vertex 18.15 56.85 2.4004
      vertex 18.15 54.15 2.4004
    endloop
  endfacet
  facet normal 0 0 -1
    outer loop
      vertex 18.15 54.15 2.2002
      vertex 20.85 56.85 2.2002
      vertex 20.85 54.15 2.2002
    endloop
  endfacet
  facet normal -0 0 -1
    outer loop
      vertex 20.85 56.85 2.2002
      vertex 18.15 54.15 2.2002
      vertex 18.15 56.85 2.2002
    endloop
  endfacet
  facet normal -1 0 0
    outer loop
      vertex 18.15 54.15 2.2002
      vertex 18.15 56.85 2.4004
      vertex 18.15 56.85 2.2002
    endloop
  endfacet
  facet normal -1 -0 0
    outer loop
      vertex 18.15 56.85 2.4004
      vertex 18.15 54.15 2.2002
      vertex 18.15 54.15 2.4004
    endloop
  endfacet
  facet normal 0 1 -0
    outer loop
      vertex 20.85 56.85 2.2002
      vertex 18.15 56.85 2.4004
      vertex 20.85 56.85 2.4004
    endloop
  endfacet
  facet normal 0 1 0
    outer loop
      vertex 18.15 56.85 2.4004
      vertex 20.85 56.85 2.2002
      vertex 18.15 56.85 2.2002
    endloop
  endfacet
  facet normal 0 -1 0
    outer loop
      vertex 18.15 54.15 2.2002
      vertex 20.85 54.15 2.4004
      vertex 18.15 54.15 2.4004
    endloop
  endfacet
  facet normal 0 -1 -0
    outer loop
      vertex 20.85 54.15 2.4004
      vertex 18.15 54.15 2.2002
      vertex 20.85 54.15 2.2002
    endloop
  endfacet
  facet normal 1 -0 0
    outer loop
      vertex 11.85 57.15 2.4004
      vertex 11.85 59.85 2.2002
      vertex 11.85 59.85 2.4004
    endloop
  endfacet
  facet normal 1 0 0
    outer loop
      vertex 11.85 59.85 2.2002
      vertex 11.85 57.15 2.4004
      vertex 11.85 57.15 2.2002
    endloop
  endfacet
  facet normal -0 0 1
    outer loop
      vertex 9.15 59.85 2.4004
      vertex 11.85 57.15 2.4004
      vertex 11.85 59.85 2.4004
    endloop
  endfacet
  facet normal 0 0 1
    outer loop
      vertex 11.85 57.15 2.4004
      vertex 9.15 59.85 2.4004
      vertex 9.15 57.15 2.4004
    endloop
  endfacet
  facet normal 0 0 -1
    outer loop
      vertex 9.15 57.15 2.2002
      vertex 11.85 59.85 2.2002
      vertex 11.85 57.15 2.2002
    endloop
  endfacet
  facet normal -0 0 -1
    outer loop
      vertex 11.85 59.85 2.2002
      vertex 9.15 57.15 2.2002
      vertex 9.15 59.85 2.2002
    endloop
  endfacet
  facet normal -1 0 0
    outer loop
      vertex 9.15 57.15 2.2002
      vertex 9.15 59.85 2.4004
      vertex 9.15 59.85 2.2002
    endloop
  endfacet
  facet normal -1 -0 0
    outer loop
      vertex 9.15 59.85 2.4004
      vertex 9.15 57.15 2.2002
      vertex 9.15 57.15 2.4004
    endloop
  endfacet
  facet normal 0 1 -0
    outer loop
      vertex 11.85 59.85 2.2002
      vertex 9.15 59.85 2.4004
      vertex 11.85 59.85 2.4004
    endloop
  endfacet
  facet normal 0 1 0
    outer loop
      vertex 9.15 59.85 2.4004
      vertex 11.85 59.85 2.2002
      vertex 9.15 59.85 2.2002
    endloop
  endfacet
  facet normal 0 -1 0
    outer loop
      vertex 9.15 57.15 2.2002
      vertex 11.85 57.15 2.4004
      vertex 9.15 57.15 2.4004
    endloop
  endfacet
  facet normal 0 -1 -0
    outer loop
      vertex 11.85 57.15 2.4004
      vertex 9.15 57.15 2.2002
      vertex 11.85 57.15 2.2002
    endloop
  endfacet
  facet normal 1 -0 0
    outer loop
      vertex 14.85 57.15 2.4004
      vertex 14.85 59.85 2.2002
      vertex 14.85 59.85 2.4004
    endloop
  endfacet
  facet normal 1 0 0
    outer loop
      vertex 14.85 59.85 2.2002
      vertex 14.85 57.15 2.4004
      vertex 14.85 57.15 2.2002
    endloop
  endfacet
  facet normal -0 0 1
    outer loop
      vertex 12.15 59.85 2.4004
      vertex 14.85 57.15 2.4004
      vertex 14.85 59.85 2.4004
    endloop
  endfacet
  facet normal 0 0 1
    outer loop
      vertex 14.85 57.15 2.4004
      vertex 12.15 59.85 2.4004
      vertex 12.15 57.15 2.4004
    endloop
  endfacet
  facet normal 0 0 -1
    outer loop
      vertex 12.15 57.15 2.2002
      vertex 14.85 59.85 2.2002
      vertex 14.85 57.15 2.2002
    endloop
  endfacet
  facet normal -0 0 -1
    outer loop
      vertex 14.85 59.85 2.2002
      vertex 12.15 57.15 2.2002
      vertex 12.15 59.85 2.2002
    endloop
  endfacet
  facet normal -1 0 0
    outer loop
      vertex 12.15 57.15 2.2002
      vertex 12.15 59.85 2.4004
      vertex 12.15 59.85 2.2002
    endloop
  endfacet
  facet normal -1 -0 0
    outer loop
      vertex 12.15 59.85 2.4004
      vertex 12.15 57.15 2.2002
      vertex 12.15 57.15 2.4004
    endloop
  endfacet
  facet normal 0 1 -0
    outer loop
      vertex 14.85 59.85 2.2002
      vertex 12.15 59.85 2.4004
      vertex 14.85 59.85 2.4004
    endloop
  endfacet
  facet normal 0 1 0
    outer loop
      vertex 12.15 59.85 2.4004
      vertex 14.85 59.85 2.2002
      vertex 12.15 59.85 2.2002
    endloop
  endfacet
  facet normal 0 -1 0
    outer loop
      vertex 12.15 57.15 2.2002
      vertex 14.85 57.15 2.4004
      vertex 12.15 57.15 2.4004
    endloop
  endfacet
  facet normal 0 -1 -0
    outer loop
      vertex 14.85 57.15 2.4004
      vertex 12.15 57.15 2.2002
      vertex 14.85 57.15 2.2002
    endloop
  endfacet
  facet normal 1 -0 0
    outer loop
      vertex 17.85 57.15 2.4004
      vertex 17.85 59.85 2.2002
      vertex 17.85 59.85 2.4004
    endloop
  endfacet
  facet normal 1 0 0
    outer loop
      vertex 17.85 59.85 2.2002
      vertex 17.85 57.15 2.4004
      vertex 17.85 57.15 2.2002
    endloop
  endfacet
  facet normal -0 0 1
    outer loop
      vertex 15.15 59.85 2.4004
      vertex 17.85 57.15 2.4004
      vertex 17.85 59.85 2.4004
    endloop
  endfacet
  facet normal 0 0 1
    outer loop
      vertex 17.85 57.15 2.4004
      vertex 15.15 59.85 2.4004
      vertex 15.15 57.15 2.4004
    endloop
  endfacet
  facet normal 0 0 -1
    outer loop
      vertex 15.15 57.15 2.2002
      vertex 17.85 59.85 2.2002
      vertex 17.85 57.15 2.2002
    endloop
  endfacet
  facet normal -0 0 -1
    outer loop
      vertex 17.85 59.85 2.2002
      vertex 15.15 57.15 2.2002
      vertex 15.15 59.85 2.2002
    endloop
  endfacet
  facet normal -1 0 0
    outer loop
      vertex 15.15 57.15 2.2002
      vertex 15.15 59.85 2.4004
      vertex 15.15 59.85 2.2002
    endloop
  endfacet
  facet normal -1 -0 0
    outer loop
      vertex 15.15 59.85 2.4004
      vertex 15.15 57.15 2.2002
      vertex 15.15 57.15 2.4004
    endloop
  endfacet
  facet normal 0 1 -0
    outer loop
      vertex 17.85 59.85 2.2002
      vertex 15.15 59.85 2.4004
      vertex 17.85 59.85 2.4004
    endloop
  endfacet
  facet normal 0 1 0
    outer loop
      vertex 15.15 59.85 2.4004
      vertex 17.85 59.85 2.2002
      vertex 15.15 59.85 2.2002
    endloop
  endfacet
  facet normal 0 -1 0
    outer loop
      vertex 15.15 57.15 2.2002
      vertex 17.85 57.15 2.4004
      vertex 15.15 57.15 2.4004
    endloop
  endfacet
  facet normal 0 -1 -0
    outer loop
      vertex 17.85 57.15 2.4004
      vertex 15.15 57.15 2.2002
      vertex 17.85 57.15 2.2002
    endloop
  endfacet
  facet normal 1 -0 0
    outer loop
      vertex 20.85 57.15 2.4004
      vertex 20.85 59.85 2.2002
      vertex 20.85 59.85 2.4004
    endloop
  endfacet
  facet normal 1 0 0
    outer loop
      vertex 20.85 59.85 2.2002
      vertex 20.85 57.15 2.4004
      vertex 20.85 57.15 2.2002
    endloop
  endfacet
  facet normal -0 0 1
    outer loop
      vertex 18.15 59.85 2.4004
      vertex 20.85 57.15 2.4004
      vertex 20.85 59.85 2.4004
    endloop
  endfacet
  facet normal 0 0 1
    outer loop
      vertex 20.85 57.15 2.4004
      vertex 18.15 59.85 2.4004
      vertex 18.15 57.15 2.4004
    endloop
  endfacet
  facet normal 0 0 -1
    outer loop
      vertex 18.15 57.15 2.2002
      vertex 20.85 59.85 2.2002
      vertex 20.85 57.15 2.2002
    endloop
  endfacet
  facet normal -0 0 -1
    outer loop
      vertex 20.85 59.85 2.2002
      vertex 18.15 57.15 2.2002
      vertex 18.15 59.85 2.2002
    endloop
  endfacet
  facet normal -1 0 0
    outer loop
      vertex 18.15 57.15 2.2002
      vertex 18.15 59.85 2.4004
      vertex 18.15 59.85 2.2002
    endloop
  endfacet
  facet normal -1 -0 0
    outer loop
      vertex 18.15 59.85 2.4004
      vertex 18.15 57.15 2.2002
      vertex 18.15 57.15 2.4004
    endloop
  endfacet
  facet normal 0 1 -0
    outer loop
      vertex 20.85 59.85 2.2002
      vertex 18.15 59.85 2.4004
      vertex 20.85 59.85 2.4004
    endloop
  endfacet
  facet normal 0 1 0
    outer loop
      vertex 18.15 59.85 2.4004
      vertex 20.85 59.85 2.2002
      vertex 18.15 59.85 2.2002
    endloop
  endfacet
  facet normal 0 -1 0
    outer loop
      vertex 18.15 57.15 2.2002
      vertex 20.85 57.15 2.4004
      vertex 18.15 57.15 2.4004
    endloop
  endfacet
  facet normal 0 -1 -0
    outer loop
      vertex 20.85 57.15 2.4004
      vertex 18.15 57.15 2.2002
      vertex 20.85 57.15 2.2002
    endloop
  endfacet
endsolid OpenSCAD_Model
